G75*
%MOIN*%
%OFA0B0*%
%FSLAX25Y25*%
%IPPOS*%
%LPD*%
%AMOC8*
5,1,8,0,0,1.08239X$1,22.5*
%
%ADD10R,0.16800X0.06800*%
%ADD11OC8,0.06800*%
%ADD12R,0.04800X0.09658*%
%ADD13R,0.09658X0.04800*%
%ADD14R,0.06706X0.06706*%
%ADD15R,0.07099X0.07898*%
%ADD16R,0.09400X0.09400*%
%ADD17R,0.03400X0.08800*%
%ADD18R,0.05918X0.05918*%
%ADD19R,0.05918X0.08674*%
%ADD20OC8,0.06000*%
%ADD21C,0.07400*%
%ADD22OC8,0.07600*%
%ADD23C,0.05556*%
%ADD24C,0.04400*%
D10*
X0011800Y0064635D03*
X0011800Y0074635D03*
X0011800Y0084635D03*
D11*
X0034556Y0203375D03*
X0044556Y0203375D03*
X0054556Y0203375D03*
X0064556Y0203375D03*
X0074556Y0203375D03*
X0084556Y0203375D03*
X0094556Y0203375D03*
X0104556Y0203375D03*
X0114556Y0203375D03*
X0124556Y0203375D03*
X0134556Y0203375D03*
X0144556Y0203375D03*
X0154556Y0203375D03*
X0164556Y0203375D03*
X0174556Y0203375D03*
X0184556Y0203375D03*
X0194556Y0203375D03*
X0204556Y0203375D03*
X0214556Y0203375D03*
X0224556Y0203375D03*
X0224556Y0213375D03*
X0214556Y0213375D03*
X0204556Y0213375D03*
X0194556Y0213375D03*
X0184556Y0213375D03*
X0174556Y0213375D03*
X0164556Y0213375D03*
X0154556Y0213375D03*
X0144556Y0213375D03*
X0134556Y0213375D03*
X0124556Y0213375D03*
X0114556Y0213375D03*
X0104556Y0213375D03*
X0094556Y0213375D03*
X0084556Y0213375D03*
X0074556Y0213375D03*
X0064556Y0213375D03*
X0054556Y0213375D03*
X0044556Y0213375D03*
X0034556Y0213375D03*
D12*
X0031406Y0035028D03*
X0036406Y0035028D03*
X0041406Y0035028D03*
X0046406Y0035028D03*
X0051406Y0035028D03*
X0056406Y0035028D03*
X0061406Y0035028D03*
X0066406Y0035028D03*
X0071406Y0035028D03*
X0076406Y0035028D03*
X0081406Y0035028D03*
X0086406Y0035028D03*
X0091406Y0035028D03*
X0096406Y0035028D03*
X0101406Y0035028D03*
X0106406Y0035028D03*
X0111406Y0035028D03*
X0116406Y0035028D03*
X0121406Y0035028D03*
X0126406Y0035028D03*
X0126406Y0105028D03*
X0121406Y0105028D03*
X0116406Y0105028D03*
X0111406Y0105028D03*
X0106406Y0105028D03*
X0101406Y0105028D03*
X0096406Y0105028D03*
X0091406Y0105028D03*
X0086406Y0105028D03*
X0081406Y0105028D03*
X0076406Y0105028D03*
X0071406Y0105028D03*
X0066406Y0105028D03*
X0061406Y0105028D03*
X0056406Y0105028D03*
X0051406Y0105028D03*
X0046406Y0105028D03*
X0041406Y0105028D03*
X0036406Y0105028D03*
X0031406Y0105028D03*
D13*
X0026406Y0085028D03*
X0026406Y0080028D03*
X0026406Y0075028D03*
X0026406Y0070028D03*
X0026406Y0065028D03*
X0026406Y0060028D03*
X0026406Y0055028D03*
D14*
X0075186Y0182902D03*
X0088965Y0182902D03*
X0108611Y0183296D03*
X0122391Y0183296D03*
D15*
X0088343Y0167430D03*
X0077146Y0167430D03*
X0077619Y0146957D03*
X0088816Y0146957D03*
D16*
X0160855Y0178591D03*
X0170855Y0178591D03*
X0180855Y0178591D03*
X0190855Y0178591D03*
D17*
X0179300Y0138624D03*
X0174300Y0138624D03*
X0169300Y0138624D03*
X0164300Y0138624D03*
X0159300Y0138624D03*
X0154300Y0138624D03*
X0149300Y0138624D03*
X0144300Y0138624D03*
X0144300Y0114424D03*
X0149300Y0114424D03*
X0154300Y0114424D03*
X0159300Y0114424D03*
X0164300Y0114424D03*
X0169300Y0114424D03*
X0174300Y0114424D03*
X0179300Y0114424D03*
D18*
X0127863Y0154831D03*
X0127863Y0163887D03*
D19*
X0106209Y0159359D03*
D20*
X0100816Y0127824D03*
X0070816Y0127824D03*
X0056721Y0129517D03*
X0056524Y0142745D03*
X0054950Y0155658D03*
X0055737Y0168965D03*
X0057863Y0182902D03*
X0047863Y0182902D03*
X0032036Y0182942D03*
X0022036Y0182942D03*
X0025737Y0168965D03*
X0024950Y0155658D03*
X0026524Y0142745D03*
X0026721Y0129517D03*
X0201800Y0086800D03*
X0201800Y0076800D03*
X0201800Y0066800D03*
X0201800Y0056800D03*
X0221800Y0056800D03*
X0221800Y0066800D03*
X0221800Y0076800D03*
X0221800Y0086800D03*
X0216800Y0106800D03*
X0206800Y0106800D03*
X0206800Y0121800D03*
X0216800Y0121800D03*
X0218965Y0144359D03*
X0208965Y0144359D03*
D21*
X0193335Y0039950D03*
X0193729Y0023769D03*
X0153729Y0023769D03*
X0153335Y0039950D03*
D22*
X0152036Y0054989D03*
X0162036Y0054989D03*
X0172036Y0054989D03*
X0182036Y0054989D03*
X0182036Y0084989D03*
X0172036Y0084989D03*
X0162036Y0084989D03*
X0152036Y0084989D03*
D23*
X0221131Y0174083D03*
X0221131Y0184083D03*
D24*
X0167400Y0147600D03*
X0148200Y0147600D03*
X0094200Y0139200D03*
X0013800Y0058800D03*
M02*
