%
M48
M72
T01C0.02000
T02C0.02756
T03C0.03150
T04C0.03200
T05C0.04000
T06C0.04400
%
T01
X13800Y58800
X94200Y139200
X148200Y147600
X167400Y147600
T02
X221131Y174083
X221131Y184083
T03
X190855Y178591
X180855Y178591
X170855Y178591
X160855Y178591
T04
X208965Y144359
X218965Y144359
X216800Y121800
X206800Y121800
X206800Y106800
X216800Y106800
X221800Y86800
X221800Y76800
X221800Y66800
X221800Y56800
X201800Y56800
X201800Y66800
X201800Y76800
X201800Y86800
X182036Y84989
X172036Y84989
X162036Y84989
X152036Y84989
X152036Y54989
X162036Y54989
X172036Y54989
X182036Y54989
X100816Y127824
X70816Y127824
X56721Y129517
X56524Y142745
X54950Y155658
X55737Y168965
X57863Y182902
X47863Y182902
X32036Y182942
X22036Y182942
X25737Y168965
X24950Y155658
X26524Y142745
X26721Y129517
T05
X34556Y203375
X44556Y203375
X54556Y203375
X64556Y203375
X74556Y203375
X84556Y203375
X94556Y203375
X104556Y203375
X114556Y203375
X124556Y203375
X134556Y203375
X144556Y203375
X154556Y203375
X164556Y203375
X174556Y203375
X184556Y203375
X194556Y203375
X204556Y203375
X214556Y203375
X224556Y203375
X224556Y213375
X214556Y213375
X204556Y213375
X194556Y213375
X184556Y213375
X174556Y213375
X164556Y213375
X154556Y213375
X144556Y213375
X134556Y213375
X124556Y213375
X114556Y213375
X104556Y213375
X94556Y213375
X84556Y213375
X74556Y213375
X64556Y213375
X54556Y213375
X44556Y213375
X34556Y213375
T06
X153335Y39950
X153729Y23769
X193729Y23769
X193335Y39950
M30
