G75*
%MOIN*%
%OFA0B0*%
%FSLAX25Y25*%
%IPPOS*%
%LPD*%
%AMOC8*
5,1,8,0,0,1.08239X$1,22.5*
%
%ADD10R,0.04000X0.08858*%
%ADD11R,0.08858X0.04000*%
%ADD12R,0.05906X0.05906*%
%ADD13R,0.06299X0.07098*%
%ADD14R,0.02600X0.08000*%
%ADD15R,0.05118X0.05118*%
%ADD16R,0.05118X0.07874*%
D10*
X0031406Y0035028D03*
X0036406Y0035028D03*
X0041406Y0035028D03*
X0046406Y0035028D03*
X0051406Y0035028D03*
X0056406Y0035028D03*
X0061406Y0035028D03*
X0066406Y0035028D03*
X0071406Y0035028D03*
X0076406Y0035028D03*
X0081406Y0035028D03*
X0086406Y0035028D03*
X0091406Y0035028D03*
X0096406Y0035028D03*
X0101406Y0035028D03*
X0106406Y0035028D03*
X0111406Y0035028D03*
X0116406Y0035028D03*
X0121406Y0035028D03*
X0126406Y0035028D03*
X0126406Y0105028D03*
X0121406Y0105028D03*
X0116406Y0105028D03*
X0111406Y0105028D03*
X0106406Y0105028D03*
X0101406Y0105028D03*
X0096406Y0105028D03*
X0091406Y0105028D03*
X0086406Y0105028D03*
X0081406Y0105028D03*
X0076406Y0105028D03*
X0071406Y0105028D03*
X0066406Y0105028D03*
X0061406Y0105028D03*
X0056406Y0105028D03*
X0051406Y0105028D03*
X0046406Y0105028D03*
X0041406Y0105028D03*
X0036406Y0105028D03*
X0031406Y0105028D03*
D11*
X0026406Y0085028D03*
X0026406Y0080028D03*
X0026406Y0075028D03*
X0026406Y0070028D03*
X0026406Y0065028D03*
X0026406Y0060028D03*
X0026406Y0055028D03*
D12*
X0075186Y0182902D03*
X0088965Y0182902D03*
X0108611Y0183296D03*
X0122391Y0183296D03*
D13*
X0088343Y0167430D03*
X0077146Y0167430D03*
X0077619Y0146957D03*
X0088816Y0146957D03*
D14*
X0144300Y0138624D03*
X0149300Y0138624D03*
X0154300Y0138624D03*
X0159300Y0138624D03*
X0164300Y0138624D03*
X0169300Y0138624D03*
X0174300Y0138624D03*
X0179300Y0138624D03*
X0179300Y0114424D03*
X0174300Y0114424D03*
X0169300Y0114424D03*
X0164300Y0114424D03*
X0159300Y0114424D03*
X0154300Y0114424D03*
X0149300Y0114424D03*
X0144300Y0114424D03*
D15*
X0127863Y0154831D03*
X0127863Y0163887D03*
D16*
X0106209Y0159359D03*
M02*
