G75*
%MOIN*%
%OFA0B0*%
%FSLAX25Y25*%
%IPPOS*%
%LPD*%
%AMOC8*
5,1,8,0,0,1.08239X$1,22.5*
%
%ADD10C,0.01600*%
%ADD11C,0.00000*%
%ADD12R,0.16000X0.06000*%
%ADD13OC8,0.06000*%
%ADD14R,0.04000X0.08858*%
%ADD15R,0.08858X0.04000*%
%ADD16OC8,0.06600*%
%ADD17OC8,0.05200*%
%ADD18R,0.08600X0.08600*%
%ADD19OC8,0.06800*%
%ADD20C,0.04756*%
%ADD21C,0.05200*%
%ADD22C,0.00600*%
%ADD23C,0.03600*%
D10*
X0001800Y0001800D02*
X0001800Y0224241D01*
X0257706Y0224241D01*
X0257706Y0001800D01*
X0001800Y0001800D01*
D11*
X0011249Y0017548D02*
X0011251Y0017706D01*
X0011257Y0017864D01*
X0011267Y0018022D01*
X0011281Y0018180D01*
X0011299Y0018337D01*
X0011320Y0018494D01*
X0011346Y0018650D01*
X0011376Y0018806D01*
X0011409Y0018961D01*
X0011447Y0019114D01*
X0011488Y0019267D01*
X0011533Y0019419D01*
X0011582Y0019570D01*
X0011635Y0019719D01*
X0011691Y0019867D01*
X0011751Y0020013D01*
X0011815Y0020158D01*
X0011883Y0020301D01*
X0011954Y0020443D01*
X0012028Y0020583D01*
X0012106Y0020720D01*
X0012188Y0020856D01*
X0012272Y0020990D01*
X0012361Y0021121D01*
X0012452Y0021250D01*
X0012547Y0021377D01*
X0012644Y0021502D01*
X0012745Y0021624D01*
X0012849Y0021743D01*
X0012956Y0021860D01*
X0013066Y0021974D01*
X0013179Y0022085D01*
X0013294Y0022194D01*
X0013412Y0022299D01*
X0013533Y0022401D01*
X0013656Y0022501D01*
X0013782Y0022597D01*
X0013910Y0022690D01*
X0014040Y0022780D01*
X0014173Y0022866D01*
X0014308Y0022950D01*
X0014444Y0023029D01*
X0014583Y0023106D01*
X0014724Y0023178D01*
X0014866Y0023248D01*
X0015010Y0023313D01*
X0015156Y0023375D01*
X0015303Y0023433D01*
X0015452Y0023488D01*
X0015602Y0023539D01*
X0015753Y0023586D01*
X0015905Y0023629D01*
X0016058Y0023668D01*
X0016213Y0023704D01*
X0016368Y0023735D01*
X0016524Y0023763D01*
X0016680Y0023787D01*
X0016837Y0023807D01*
X0016995Y0023823D01*
X0017152Y0023835D01*
X0017311Y0023843D01*
X0017469Y0023847D01*
X0017627Y0023847D01*
X0017785Y0023843D01*
X0017944Y0023835D01*
X0018101Y0023823D01*
X0018259Y0023807D01*
X0018416Y0023787D01*
X0018572Y0023763D01*
X0018728Y0023735D01*
X0018883Y0023704D01*
X0019038Y0023668D01*
X0019191Y0023629D01*
X0019343Y0023586D01*
X0019494Y0023539D01*
X0019644Y0023488D01*
X0019793Y0023433D01*
X0019940Y0023375D01*
X0020086Y0023313D01*
X0020230Y0023248D01*
X0020372Y0023178D01*
X0020513Y0023106D01*
X0020652Y0023029D01*
X0020788Y0022950D01*
X0020923Y0022866D01*
X0021056Y0022780D01*
X0021186Y0022690D01*
X0021314Y0022597D01*
X0021440Y0022501D01*
X0021563Y0022401D01*
X0021684Y0022299D01*
X0021802Y0022194D01*
X0021917Y0022085D01*
X0022030Y0021974D01*
X0022140Y0021860D01*
X0022247Y0021743D01*
X0022351Y0021624D01*
X0022452Y0021502D01*
X0022549Y0021377D01*
X0022644Y0021250D01*
X0022735Y0021121D01*
X0022824Y0020990D01*
X0022908Y0020856D01*
X0022990Y0020720D01*
X0023068Y0020583D01*
X0023142Y0020443D01*
X0023213Y0020301D01*
X0023281Y0020158D01*
X0023345Y0020013D01*
X0023405Y0019867D01*
X0023461Y0019719D01*
X0023514Y0019570D01*
X0023563Y0019419D01*
X0023608Y0019267D01*
X0023649Y0019114D01*
X0023687Y0018961D01*
X0023720Y0018806D01*
X0023750Y0018650D01*
X0023776Y0018494D01*
X0023797Y0018337D01*
X0023815Y0018180D01*
X0023829Y0018022D01*
X0023839Y0017864D01*
X0023845Y0017706D01*
X0023847Y0017548D01*
X0023845Y0017390D01*
X0023839Y0017232D01*
X0023829Y0017074D01*
X0023815Y0016916D01*
X0023797Y0016759D01*
X0023776Y0016602D01*
X0023750Y0016446D01*
X0023720Y0016290D01*
X0023687Y0016135D01*
X0023649Y0015982D01*
X0023608Y0015829D01*
X0023563Y0015677D01*
X0023514Y0015526D01*
X0023461Y0015377D01*
X0023405Y0015229D01*
X0023345Y0015083D01*
X0023281Y0014938D01*
X0023213Y0014795D01*
X0023142Y0014653D01*
X0023068Y0014513D01*
X0022990Y0014376D01*
X0022908Y0014240D01*
X0022824Y0014106D01*
X0022735Y0013975D01*
X0022644Y0013846D01*
X0022549Y0013719D01*
X0022452Y0013594D01*
X0022351Y0013472D01*
X0022247Y0013353D01*
X0022140Y0013236D01*
X0022030Y0013122D01*
X0021917Y0013011D01*
X0021802Y0012902D01*
X0021684Y0012797D01*
X0021563Y0012695D01*
X0021440Y0012595D01*
X0021314Y0012499D01*
X0021186Y0012406D01*
X0021056Y0012316D01*
X0020923Y0012230D01*
X0020788Y0012146D01*
X0020652Y0012067D01*
X0020513Y0011990D01*
X0020372Y0011918D01*
X0020230Y0011848D01*
X0020086Y0011783D01*
X0019940Y0011721D01*
X0019793Y0011663D01*
X0019644Y0011608D01*
X0019494Y0011557D01*
X0019343Y0011510D01*
X0019191Y0011467D01*
X0019038Y0011428D01*
X0018883Y0011392D01*
X0018728Y0011361D01*
X0018572Y0011333D01*
X0018416Y0011309D01*
X0018259Y0011289D01*
X0018101Y0011273D01*
X0017944Y0011261D01*
X0017785Y0011253D01*
X0017627Y0011249D01*
X0017469Y0011249D01*
X0017311Y0011253D01*
X0017152Y0011261D01*
X0016995Y0011273D01*
X0016837Y0011289D01*
X0016680Y0011309D01*
X0016524Y0011333D01*
X0016368Y0011361D01*
X0016213Y0011392D01*
X0016058Y0011428D01*
X0015905Y0011467D01*
X0015753Y0011510D01*
X0015602Y0011557D01*
X0015452Y0011608D01*
X0015303Y0011663D01*
X0015156Y0011721D01*
X0015010Y0011783D01*
X0014866Y0011848D01*
X0014724Y0011918D01*
X0014583Y0011990D01*
X0014444Y0012067D01*
X0014308Y0012146D01*
X0014173Y0012230D01*
X0014040Y0012316D01*
X0013910Y0012406D01*
X0013782Y0012499D01*
X0013656Y0012595D01*
X0013533Y0012695D01*
X0013412Y0012797D01*
X0013294Y0012902D01*
X0013179Y0013011D01*
X0013066Y0013122D01*
X0012956Y0013236D01*
X0012849Y0013353D01*
X0012745Y0013472D01*
X0012644Y0013594D01*
X0012547Y0013719D01*
X0012452Y0013846D01*
X0012361Y0013975D01*
X0012272Y0014106D01*
X0012188Y0014240D01*
X0012106Y0014376D01*
X0012028Y0014513D01*
X0011954Y0014653D01*
X0011883Y0014795D01*
X0011815Y0014938D01*
X0011751Y0015083D01*
X0011691Y0015229D01*
X0011635Y0015377D01*
X0011582Y0015526D01*
X0011533Y0015677D01*
X0011488Y0015829D01*
X0011447Y0015982D01*
X0011409Y0016135D01*
X0011376Y0016290D01*
X0011346Y0016446D01*
X0011320Y0016602D01*
X0011299Y0016759D01*
X0011281Y0016916D01*
X0011267Y0017074D01*
X0011257Y0017232D01*
X0011251Y0017390D01*
X0011249Y0017548D01*
X0239595Y0017548D02*
X0239597Y0017706D01*
X0239603Y0017864D01*
X0239613Y0018022D01*
X0239627Y0018180D01*
X0239645Y0018337D01*
X0239666Y0018494D01*
X0239692Y0018650D01*
X0239722Y0018806D01*
X0239755Y0018961D01*
X0239793Y0019114D01*
X0239834Y0019267D01*
X0239879Y0019419D01*
X0239928Y0019570D01*
X0239981Y0019719D01*
X0240037Y0019867D01*
X0240097Y0020013D01*
X0240161Y0020158D01*
X0240229Y0020301D01*
X0240300Y0020443D01*
X0240374Y0020583D01*
X0240452Y0020720D01*
X0240534Y0020856D01*
X0240618Y0020990D01*
X0240707Y0021121D01*
X0240798Y0021250D01*
X0240893Y0021377D01*
X0240990Y0021502D01*
X0241091Y0021624D01*
X0241195Y0021743D01*
X0241302Y0021860D01*
X0241412Y0021974D01*
X0241525Y0022085D01*
X0241640Y0022194D01*
X0241758Y0022299D01*
X0241879Y0022401D01*
X0242002Y0022501D01*
X0242128Y0022597D01*
X0242256Y0022690D01*
X0242386Y0022780D01*
X0242519Y0022866D01*
X0242654Y0022950D01*
X0242790Y0023029D01*
X0242929Y0023106D01*
X0243070Y0023178D01*
X0243212Y0023248D01*
X0243356Y0023313D01*
X0243502Y0023375D01*
X0243649Y0023433D01*
X0243798Y0023488D01*
X0243948Y0023539D01*
X0244099Y0023586D01*
X0244251Y0023629D01*
X0244404Y0023668D01*
X0244559Y0023704D01*
X0244714Y0023735D01*
X0244870Y0023763D01*
X0245026Y0023787D01*
X0245183Y0023807D01*
X0245341Y0023823D01*
X0245498Y0023835D01*
X0245657Y0023843D01*
X0245815Y0023847D01*
X0245973Y0023847D01*
X0246131Y0023843D01*
X0246290Y0023835D01*
X0246447Y0023823D01*
X0246605Y0023807D01*
X0246762Y0023787D01*
X0246918Y0023763D01*
X0247074Y0023735D01*
X0247229Y0023704D01*
X0247384Y0023668D01*
X0247537Y0023629D01*
X0247689Y0023586D01*
X0247840Y0023539D01*
X0247990Y0023488D01*
X0248139Y0023433D01*
X0248286Y0023375D01*
X0248432Y0023313D01*
X0248576Y0023248D01*
X0248718Y0023178D01*
X0248859Y0023106D01*
X0248998Y0023029D01*
X0249134Y0022950D01*
X0249269Y0022866D01*
X0249402Y0022780D01*
X0249532Y0022690D01*
X0249660Y0022597D01*
X0249786Y0022501D01*
X0249909Y0022401D01*
X0250030Y0022299D01*
X0250148Y0022194D01*
X0250263Y0022085D01*
X0250376Y0021974D01*
X0250486Y0021860D01*
X0250593Y0021743D01*
X0250697Y0021624D01*
X0250798Y0021502D01*
X0250895Y0021377D01*
X0250990Y0021250D01*
X0251081Y0021121D01*
X0251170Y0020990D01*
X0251254Y0020856D01*
X0251336Y0020720D01*
X0251414Y0020583D01*
X0251488Y0020443D01*
X0251559Y0020301D01*
X0251627Y0020158D01*
X0251691Y0020013D01*
X0251751Y0019867D01*
X0251807Y0019719D01*
X0251860Y0019570D01*
X0251909Y0019419D01*
X0251954Y0019267D01*
X0251995Y0019114D01*
X0252033Y0018961D01*
X0252066Y0018806D01*
X0252096Y0018650D01*
X0252122Y0018494D01*
X0252143Y0018337D01*
X0252161Y0018180D01*
X0252175Y0018022D01*
X0252185Y0017864D01*
X0252191Y0017706D01*
X0252193Y0017548D01*
X0252191Y0017390D01*
X0252185Y0017232D01*
X0252175Y0017074D01*
X0252161Y0016916D01*
X0252143Y0016759D01*
X0252122Y0016602D01*
X0252096Y0016446D01*
X0252066Y0016290D01*
X0252033Y0016135D01*
X0251995Y0015982D01*
X0251954Y0015829D01*
X0251909Y0015677D01*
X0251860Y0015526D01*
X0251807Y0015377D01*
X0251751Y0015229D01*
X0251691Y0015083D01*
X0251627Y0014938D01*
X0251559Y0014795D01*
X0251488Y0014653D01*
X0251414Y0014513D01*
X0251336Y0014376D01*
X0251254Y0014240D01*
X0251170Y0014106D01*
X0251081Y0013975D01*
X0250990Y0013846D01*
X0250895Y0013719D01*
X0250798Y0013594D01*
X0250697Y0013472D01*
X0250593Y0013353D01*
X0250486Y0013236D01*
X0250376Y0013122D01*
X0250263Y0013011D01*
X0250148Y0012902D01*
X0250030Y0012797D01*
X0249909Y0012695D01*
X0249786Y0012595D01*
X0249660Y0012499D01*
X0249532Y0012406D01*
X0249402Y0012316D01*
X0249269Y0012230D01*
X0249134Y0012146D01*
X0248998Y0012067D01*
X0248859Y0011990D01*
X0248718Y0011918D01*
X0248576Y0011848D01*
X0248432Y0011783D01*
X0248286Y0011721D01*
X0248139Y0011663D01*
X0247990Y0011608D01*
X0247840Y0011557D01*
X0247689Y0011510D01*
X0247537Y0011467D01*
X0247384Y0011428D01*
X0247229Y0011392D01*
X0247074Y0011361D01*
X0246918Y0011333D01*
X0246762Y0011309D01*
X0246605Y0011289D01*
X0246447Y0011273D01*
X0246290Y0011261D01*
X0246131Y0011253D01*
X0245973Y0011249D01*
X0245815Y0011249D01*
X0245657Y0011253D01*
X0245498Y0011261D01*
X0245341Y0011273D01*
X0245183Y0011289D01*
X0245026Y0011309D01*
X0244870Y0011333D01*
X0244714Y0011361D01*
X0244559Y0011392D01*
X0244404Y0011428D01*
X0244251Y0011467D01*
X0244099Y0011510D01*
X0243948Y0011557D01*
X0243798Y0011608D01*
X0243649Y0011663D01*
X0243502Y0011721D01*
X0243356Y0011783D01*
X0243212Y0011848D01*
X0243070Y0011918D01*
X0242929Y0011990D01*
X0242790Y0012067D01*
X0242654Y0012146D01*
X0242519Y0012230D01*
X0242386Y0012316D01*
X0242256Y0012406D01*
X0242128Y0012499D01*
X0242002Y0012595D01*
X0241879Y0012695D01*
X0241758Y0012797D01*
X0241640Y0012902D01*
X0241525Y0013011D01*
X0241412Y0013122D01*
X0241302Y0013236D01*
X0241195Y0013353D01*
X0241091Y0013472D01*
X0240990Y0013594D01*
X0240893Y0013719D01*
X0240798Y0013846D01*
X0240707Y0013975D01*
X0240618Y0014106D01*
X0240534Y0014240D01*
X0240452Y0014376D01*
X0240374Y0014513D01*
X0240300Y0014653D01*
X0240229Y0014795D01*
X0240161Y0014938D01*
X0240097Y0015083D01*
X0240037Y0015229D01*
X0239981Y0015377D01*
X0239928Y0015526D01*
X0239879Y0015677D01*
X0239834Y0015829D01*
X0239793Y0015982D01*
X0239755Y0016135D01*
X0239722Y0016290D01*
X0239692Y0016446D01*
X0239666Y0016602D01*
X0239645Y0016759D01*
X0239627Y0016916D01*
X0239613Y0017074D01*
X0239603Y0017232D01*
X0239597Y0017390D01*
X0239595Y0017548D01*
D12*
X0244280Y0135383D03*
X0244280Y0145383D03*
X0244280Y0155383D03*
D13*
X0224556Y0203375D03*
X0214556Y0203375D03*
X0204556Y0203375D03*
X0194556Y0203375D03*
X0184556Y0203375D03*
X0174556Y0203375D03*
X0164556Y0203375D03*
X0154556Y0203375D03*
X0144556Y0203375D03*
X0134556Y0203375D03*
X0124556Y0203375D03*
X0114556Y0203375D03*
X0104556Y0203375D03*
X0094556Y0203375D03*
X0084556Y0203375D03*
X0074556Y0203375D03*
X0064556Y0203375D03*
X0054556Y0203375D03*
X0044556Y0203375D03*
X0034556Y0203375D03*
X0034556Y0213375D03*
X0044556Y0213375D03*
X0054556Y0213375D03*
X0064556Y0213375D03*
X0074556Y0213375D03*
X0084556Y0213375D03*
X0094556Y0213375D03*
X0104556Y0213375D03*
X0114556Y0213375D03*
X0124556Y0213375D03*
X0134556Y0213375D03*
X0144556Y0213375D03*
X0154556Y0213375D03*
X0164556Y0213375D03*
X0174556Y0213375D03*
X0184556Y0213375D03*
X0194556Y0213375D03*
X0204556Y0213375D03*
X0214556Y0213375D03*
X0224556Y0213375D03*
D14*
X0223926Y0185422D03*
X0218926Y0185422D03*
X0213926Y0185422D03*
X0208926Y0185422D03*
X0203926Y0185422D03*
X0198926Y0185422D03*
X0193926Y0185422D03*
X0188926Y0185422D03*
X0183926Y0185422D03*
X0178926Y0185422D03*
X0173926Y0185422D03*
X0168926Y0185422D03*
X0163926Y0185422D03*
X0158926Y0185422D03*
X0153926Y0185422D03*
X0148926Y0185422D03*
X0143926Y0185422D03*
X0138926Y0185422D03*
X0133926Y0185422D03*
X0128926Y0185422D03*
X0128926Y0115422D03*
X0133926Y0115422D03*
X0138926Y0115422D03*
X0143926Y0115422D03*
X0148926Y0115422D03*
X0153926Y0115422D03*
X0158926Y0115422D03*
X0163926Y0115422D03*
X0168926Y0115422D03*
X0173926Y0115422D03*
X0178926Y0115422D03*
X0183926Y0115422D03*
X0188926Y0115422D03*
X0193926Y0115422D03*
X0198926Y0115422D03*
X0203926Y0115422D03*
X0208926Y0115422D03*
X0213926Y0115422D03*
X0218926Y0115422D03*
X0223926Y0115422D03*
D15*
X0228926Y0135422D03*
X0228926Y0140422D03*
X0228926Y0145422D03*
X0228926Y0150422D03*
X0228926Y0155422D03*
X0228926Y0160422D03*
X0228926Y0165422D03*
D16*
X0050776Y0171013D03*
X0050776Y0181013D03*
X0049359Y0130422D03*
X0049359Y0120422D03*
D17*
X0028965Y0110225D03*
X0015107Y0110698D03*
X0015107Y0140698D03*
X0028965Y0140225D03*
X0030304Y0161249D03*
X0015343Y0161839D03*
X0015343Y0191839D03*
X0030304Y0191249D03*
X0159398Y0099202D03*
X0159202Y0085461D03*
X0189202Y0085461D03*
X0189398Y0099202D03*
X0220107Y0091052D03*
X0248217Y0072627D03*
X0250107Y0091052D03*
X0248217Y0042627D03*
X0218099Y0028178D03*
X0218099Y0018178D03*
X0207548Y0018020D03*
X0197548Y0018020D03*
X0197548Y0029202D03*
X0207548Y0029202D03*
D18*
X0104241Y0113236D03*
X0094241Y0113236D03*
X0084241Y0113236D03*
X0074241Y0113236D03*
D19*
X0204202Y0076721D03*
X0204202Y0066721D03*
X0204202Y0056721D03*
X0204202Y0046721D03*
X0234202Y0046721D03*
X0234202Y0056721D03*
X0234202Y0066721D03*
X0234202Y0076721D03*
D20*
X0162666Y0029556D03*
X0162666Y0019556D03*
D21*
X0121723Y0032587D02*
X0116523Y0032587D01*
X0116523Y0042587D02*
X0121723Y0042587D01*
X0121723Y0052587D02*
X0116523Y0052587D01*
X0116523Y0062587D02*
X0121723Y0062587D01*
X0121723Y0072587D02*
X0116523Y0072587D01*
X0034912Y0073375D02*
X0029712Y0073375D01*
X0029712Y0063375D02*
X0034912Y0063375D01*
X0034912Y0053375D02*
X0029712Y0053375D01*
X0029712Y0043375D02*
X0034912Y0043375D01*
X0034912Y0033375D02*
X0029712Y0033375D01*
D22*
X0032312Y0043375D02*
X0032400Y0043800D01*
X0032400Y0045600D01*
X0039000Y0052200D01*
X0039000Y0064800D01*
X0034200Y0069600D01*
X0028200Y0069600D01*
X0007200Y0090600D01*
X0007200Y0160800D01*
X0043200Y0196800D01*
X0045600Y0196800D01*
X0044400Y0199800D02*
X0044400Y0202800D01*
X0044556Y0203375D01*
X0044400Y0199800D02*
X0006000Y0161400D01*
X0006000Y0081600D01*
X0031800Y0055800D01*
X0031800Y0053400D01*
X0032312Y0053375D01*
X0032312Y0073375D02*
X0031800Y0073800D01*
X0031800Y0088800D01*
X0008400Y0112200D01*
X0008400Y0160200D01*
X0013800Y0165600D01*
X0031200Y0165600D01*
X0031200Y0167400D01*
X0048600Y0184800D01*
X0048600Y0205200D01*
X0046200Y0207600D01*
X0043200Y0207600D01*
X0039000Y0203400D01*
X0034800Y0203400D01*
X0034556Y0203375D01*
X0034200Y0202800D01*
X0030600Y0199200D01*
X0030600Y0191400D01*
X0030304Y0191249D01*
X0015580Y0192745D02*
X0015343Y0191839D01*
X0015580Y0192745D02*
X0015580Y0200619D01*
X0032312Y0217351D01*
X0047076Y0217351D01*
X0051013Y0213414D01*
X0053965Y0213414D01*
X0054556Y0213375D01*
X0058887Y0213414D02*
X0058887Y0178965D01*
X0051013Y0171091D01*
X0050776Y0171013D01*
X0034200Y0162600D02*
X0034200Y0145200D01*
X0040800Y0145200D01*
X0072600Y0113400D01*
X0073800Y0113400D01*
X0074241Y0113236D01*
X0074400Y0113400D01*
X0084000Y0123000D01*
X0184200Y0123000D01*
X0184200Y0122400D01*
X0220800Y0122400D01*
X0224241Y0115973D02*
X0223926Y0115422D01*
X0223257Y0114989D01*
X0223257Y0112036D01*
X0221288Y0110068D01*
X0180934Y0110068D01*
X0178965Y0112036D01*
X0178965Y0114989D01*
X0178926Y0115422D01*
X0177981Y0115973D01*
X0177981Y0119910D01*
X0176997Y0120894D01*
X0161249Y0120894D01*
X0163217Y0118926D01*
X0163217Y0115973D01*
X0163926Y0115422D01*
X0158926Y0115422D02*
X0158296Y0114989D01*
X0158296Y0112036D01*
X0154359Y0108099D01*
X0120894Y0108099D01*
X0109083Y0119910D01*
X0115973Y0119910D02*
X0125816Y0110068D01*
X0151406Y0110068D01*
X0153375Y0112036D01*
X0153375Y0114989D01*
X0153926Y0115422D01*
X0161249Y0120894D02*
X0130737Y0120894D01*
X0129753Y0119910D01*
X0129753Y0115973D01*
X0128926Y0115422D01*
X0110068Y0125816D02*
X0110068Y0146485D01*
X0088414Y0168139D01*
X0088414Y0201603D01*
X0089398Y0202587D01*
X0089398Y0204556D01*
X0085461Y0208493D01*
X0078572Y0208493D01*
X0074635Y0212430D01*
X0074556Y0213375D01*
X0068729Y0208493D02*
X0064792Y0212430D01*
X0064556Y0213375D01*
X0058887Y0213414D02*
X0064792Y0219320D01*
X0214398Y0219320D01*
X0219320Y0214398D01*
X0219320Y0202587D01*
X0253769Y0168139D01*
X0253769Y0131721D01*
X0220304Y0098257D01*
X0220304Y0091367D01*
X0220107Y0091052D01*
X0210461Y0086446D02*
X0210461Y0056918D01*
X0204556Y0056918D01*
X0204202Y0056721D01*
X0204000Y0056400D01*
X0198000Y0050400D01*
X0198000Y0029400D01*
X0197548Y0029202D01*
X0207600Y0024000D02*
X0229800Y0046200D01*
X0229800Y0072000D01*
X0234000Y0076200D01*
X0234202Y0076721D01*
X0234600Y0076200D01*
X0237600Y0073200D01*
X0247800Y0073200D01*
X0248217Y0072627D01*
X0248400Y0073200D01*
X0248400Y0089400D01*
X0249600Y0090600D01*
X0250107Y0091052D01*
X0224241Y0115973D02*
X0236052Y0127784D01*
X0229162Y0134674D01*
X0228926Y0135422D01*
X0229162Y0136643D01*
X0223257Y0142548D01*
X0223257Y0147469D01*
X0226209Y0150422D01*
X0228926Y0150422D01*
X0235068Y0150422D01*
X0235068Y0157312D01*
X0229162Y0163217D01*
X0229162Y0161249D01*
X0228926Y0160422D01*
X0229162Y0163217D02*
X0229162Y0165186D01*
X0228926Y0165422D01*
X0228178Y0166170D01*
X0224241Y0166170D01*
X0224241Y0184871D01*
X0223926Y0185422D01*
X0203926Y0185422D02*
X0203572Y0185855D01*
X0203572Y0193729D01*
X0194713Y0202587D01*
X0194556Y0203375D01*
X0184556Y0203375D02*
X0183887Y0202587D01*
X0179950Y0202587D01*
X0170107Y0192745D01*
X0114989Y0192745D01*
X0091367Y0169123D01*
X0082509Y0189792D02*
X0068729Y0203572D01*
X0068729Y0208493D01*
X0084556Y0203375D02*
X0085461Y0202587D01*
X0085461Y0125816D01*
X0082509Y0146485D02*
X0082509Y0189792D01*
X0128926Y0185422D02*
X0129753Y0184871D01*
X0129753Y0180934D01*
X0130737Y0179950D01*
X0156328Y0179950D01*
X0158296Y0181918D01*
X0158296Y0184871D01*
X0158926Y0185422D01*
X0159280Y0185855D01*
X0159280Y0188808D01*
X0161249Y0190776D01*
X0196682Y0190776D01*
X0198650Y0188808D01*
X0198650Y0185855D01*
X0198926Y0185422D01*
X0199635Y0184871D01*
X0199635Y0181918D01*
X0215383Y0166170D01*
X0224241Y0166170D01*
X0235068Y0150422D02*
X0239005Y0150422D01*
X0243926Y0155343D01*
X0244280Y0155383D01*
X0243926Y0145501D02*
X0244280Y0145383D01*
X0243926Y0145501D02*
X0229162Y0145501D01*
X0228926Y0145422D01*
X0228926Y0140422D02*
X0229162Y0139595D01*
X0229162Y0136643D01*
X0229162Y0135658D01*
X0228926Y0135422D01*
X0236052Y0127784D02*
X0238020Y0129753D01*
X0239005Y0129753D01*
X0238020Y0129753D02*
X0243926Y0135658D01*
X0244280Y0135383D01*
X0203572Y0090383D02*
X0190776Y0103178D01*
X0164202Y0103178D01*
X0160265Y0099241D01*
X0159398Y0099202D01*
X0159000Y0099000D01*
X0155400Y0095400D01*
X0155400Y0070800D01*
X0119400Y0034800D01*
X0119400Y0033000D01*
X0119123Y0032587D01*
X0159600Y0056400D02*
X0197400Y0018600D01*
X0197548Y0018020D01*
X0198000Y0018000D01*
X0202200Y0018000D01*
X0205800Y0014400D01*
X0214200Y0014400D01*
X0217800Y0018000D01*
X0218099Y0018178D01*
X0218099Y0028178D02*
X0218400Y0028200D01*
X0222000Y0028200D01*
X0236400Y0042600D01*
X0247800Y0042600D01*
X0248217Y0042627D01*
X0207600Y0024000D02*
X0207600Y0018600D01*
X0207548Y0018020D01*
X0159600Y0056400D02*
X0159600Y0085200D01*
X0159202Y0085461D01*
X0188808Y0085461D02*
X0189202Y0085461D01*
X0189792Y0085461D01*
X0189792Y0098257D01*
X0189398Y0099202D01*
X0190776Y0106131D02*
X0210461Y0086446D01*
X0203572Y0090383D02*
X0203572Y0077587D01*
X0204202Y0076721D01*
X0203572Y0070698D02*
X0188808Y0085461D01*
X0203572Y0070698D02*
X0203572Y0066761D01*
X0204202Y0066721D01*
X0190776Y0106131D02*
X0070698Y0106131D01*
X0051013Y0125816D01*
X0009674Y0125816D01*
X0009674Y0141564D01*
X0013611Y0145501D01*
X0013611Y0161249D01*
X0015343Y0161839D01*
X0015580Y0161249D01*
X0030304Y0161249D01*
X0034200Y0162600D02*
X0031200Y0165600D01*
X0034200Y0145200D02*
X0029400Y0140400D01*
X0028965Y0140225D01*
X0028375Y0140580D01*
X0015580Y0140580D01*
X0015107Y0140698D01*
X0033296Y0119910D02*
X0049044Y0119910D01*
X0049359Y0120422D01*
X0033296Y0119910D02*
X0024438Y0111052D01*
X0015580Y0111052D01*
X0015107Y0110698D01*
X0183926Y0115422D02*
X0184200Y0115800D01*
X0184200Y0122400D01*
X0184200Y0123000D02*
X0184200Y0172800D01*
X0193800Y0182400D01*
X0193800Y0185400D01*
X0193926Y0185422D01*
D23*
X0239005Y0129753D03*
X0220800Y0122400D03*
X0115973Y0119910D03*
X0109083Y0119910D03*
X0110068Y0125816D03*
X0085461Y0125816D03*
X0082509Y0146485D03*
X0091367Y0169123D03*
X0045600Y0196800D03*
M02*
