G75*
%MOIN*%
%OFA0B0*%
%FSLAX25Y25*%
%IPPOS*%
%LPD*%
%AMOC8*
5,1,8,0,0,1.08239X$1,22.5*
%
%ADD10C,0.13398*%
%ADD11R,0.16800X0.06800*%
%ADD12OC8,0.06800*%
%ADD13OC8,0.07400*%
%ADD14OC8,0.06000*%
%ADD15R,0.09400X0.09400*%
%ADD16OC8,0.07600*%
%ADD17C,0.05556*%
%ADD18C,0.06000*%
%ADD19C,0.04400*%
D10*
X0017548Y0017548D03*
X0245894Y0017548D03*
D11*
X0244280Y0135383D03*
X0244280Y0155383D03*
D12*
X0224556Y0203375D03*
X0214556Y0203375D03*
X0204556Y0203375D03*
X0194556Y0203375D03*
X0184556Y0203375D03*
X0174556Y0203375D03*
X0164556Y0203375D03*
X0154556Y0203375D03*
X0144556Y0203375D03*
X0134556Y0203375D03*
X0124556Y0203375D03*
X0114556Y0203375D03*
X0104556Y0203375D03*
X0094556Y0203375D03*
X0084556Y0203375D03*
X0074556Y0203375D03*
X0064556Y0203375D03*
X0054556Y0203375D03*
X0044556Y0203375D03*
X0034556Y0203375D03*
X0034556Y0213375D03*
X0044556Y0213375D03*
X0054556Y0213375D03*
X0064556Y0213375D03*
X0074556Y0213375D03*
X0084556Y0213375D03*
X0094556Y0213375D03*
X0104556Y0213375D03*
X0114556Y0213375D03*
X0124556Y0213375D03*
X0134556Y0213375D03*
X0144556Y0213375D03*
X0154556Y0213375D03*
X0164556Y0213375D03*
X0174556Y0213375D03*
X0184556Y0213375D03*
X0194556Y0213375D03*
X0204556Y0213375D03*
X0214556Y0213375D03*
X0224556Y0213375D03*
D13*
X0050776Y0181013D03*
X0050776Y0171013D03*
X0049359Y0130422D03*
X0049359Y0120422D03*
D14*
X0028965Y0110225D03*
X0015107Y0110698D03*
X0015107Y0140698D03*
X0028965Y0140225D03*
X0030304Y0161249D03*
X0015343Y0161839D03*
X0015343Y0191839D03*
X0030304Y0191249D03*
X0159398Y0099202D03*
X0159202Y0085461D03*
X0189202Y0085461D03*
X0189398Y0099202D03*
X0220107Y0091052D03*
X0248217Y0072627D03*
X0250107Y0091052D03*
X0248217Y0042627D03*
X0218099Y0028178D03*
X0218099Y0018178D03*
X0207548Y0018020D03*
X0197548Y0018020D03*
X0197548Y0029202D03*
X0207548Y0029202D03*
D15*
X0104241Y0113236D03*
X0094241Y0113236D03*
X0084241Y0113236D03*
X0074241Y0113236D03*
D16*
X0204202Y0076721D03*
X0204202Y0066721D03*
X0204202Y0056721D03*
X0204202Y0046721D03*
X0234202Y0046721D03*
X0234202Y0056721D03*
X0234202Y0066721D03*
X0234202Y0076721D03*
D17*
X0162666Y0029556D03*
X0162666Y0019556D03*
D18*
X0121723Y0032587D02*
X0116523Y0032587D01*
X0116523Y0042587D02*
X0121723Y0042587D01*
X0121723Y0052587D02*
X0116523Y0052587D01*
X0116523Y0062587D02*
X0121723Y0062587D01*
X0121723Y0072587D02*
X0116523Y0072587D01*
X0034912Y0073375D02*
X0029712Y0073375D01*
X0029712Y0063375D02*
X0034912Y0063375D01*
X0034912Y0053375D02*
X0029712Y0053375D01*
X0029712Y0043375D02*
X0034912Y0043375D01*
X0034912Y0033375D02*
X0029712Y0033375D01*
D19*
X0109083Y0119910D03*
X0115973Y0119910D03*
X0110068Y0125816D03*
X0085461Y0125816D03*
X0082509Y0146485D03*
X0091367Y0169123D03*
X0045600Y0196800D03*
X0220800Y0122400D03*
X0239005Y0129753D03*
M02*
