G75*
%MOIN*%
%OFA0B0*%
%FSLAX25Y25*%
%IPPOS*%
%LPD*%
%AMOC8*
5,1,8,0,0,1.08239X$1,22.5*
%
%ADD10C,0.00600*%
%ADD11C,0.01600*%
%ADD12C,0.00500*%
%ADD13C,0.00800*%
%ADD14C,0.00400*%
%ADD15R,0.01673X0.01280*%
%ADD16R,0.01378X0.01378*%
%ADD17C,0.00060*%
%ADD18C,0.00200*%
%ADD19C,0.01000*%
%ADD20R,0.01575X0.10433*%
%ADD21R,0.10433X0.01575*%
%ADD22R,0.02000X0.10000*%
%ADD23R,0.07500X0.03000*%
%ADD24C,0.01200*%
%ADD25R,0.01500X0.02000*%
%ADD26R,0.01575X0.02165*%
D10*
X0061734Y0046281D02*
X0061734Y0052687D01*
X0064937Y0052687D01*
X0066004Y0051619D01*
X0066004Y0049484D01*
X0064937Y0048416D01*
X0061734Y0048416D01*
X0063869Y0048416D02*
X0066004Y0046281D01*
X0068180Y0046281D02*
X0068180Y0052687D01*
X0072450Y0046281D01*
X0072450Y0052687D01*
X0074625Y0051619D02*
X0075693Y0052687D01*
X0077828Y0052687D01*
X0078895Y0051619D01*
X0078895Y0050551D01*
X0074625Y0046281D01*
X0078895Y0046281D01*
X0081071Y0049484D02*
X0085341Y0049484D01*
X0087516Y0050551D02*
X0087516Y0051619D01*
X0088584Y0052687D01*
X0090719Y0052687D01*
X0091786Y0051619D01*
X0091786Y0050551D01*
X0090719Y0049484D01*
X0088584Y0049484D01*
X0087516Y0050551D01*
X0088584Y0049484D02*
X0087516Y0048416D01*
X0087516Y0047349D01*
X0088584Y0046281D01*
X0090719Y0046281D01*
X0091786Y0047349D01*
X0091786Y0048416D01*
X0090719Y0049484D01*
X0093962Y0051619D02*
X0095029Y0052687D01*
X0097164Y0052687D01*
X0098232Y0051619D01*
X0098232Y0050551D01*
X0097164Y0049484D01*
X0098232Y0048416D01*
X0098232Y0047349D01*
X0097164Y0046281D01*
X0095029Y0046281D01*
X0093962Y0047349D01*
X0096097Y0049484D02*
X0097164Y0049484D01*
X0084273Y0046281D02*
X0084273Y0052687D01*
X0081071Y0049484D01*
X0165335Y0044950D02*
X0165335Y0034950D01*
X0181335Y0034950D01*
X0181335Y0044950D01*
X0165335Y0044950D01*
X0170835Y0039950D02*
X0173335Y0039950D01*
X0173335Y0037450D01*
X0173335Y0039950D02*
X0173335Y0042450D01*
X0173335Y0039950D02*
X0177335Y0042450D01*
X0177335Y0037450D01*
X0173335Y0039950D01*
X0179335Y0039950D01*
X0181729Y0028769D02*
X0165729Y0028769D01*
X0165729Y0018769D01*
X0181729Y0018769D01*
X0181729Y0028769D01*
X0177729Y0026269D02*
X0173729Y0023769D01*
X0173729Y0021269D01*
X0173729Y0023769D02*
X0171229Y0023769D01*
X0173729Y0023769D02*
X0173729Y0026269D01*
X0173729Y0023769D02*
X0179729Y0023769D01*
X0177729Y0026269D02*
X0177729Y0021269D01*
X0173729Y0023769D01*
X0205800Y0053300D02*
X0206800Y0053300D01*
X0207300Y0053800D01*
X0216300Y0053800D01*
X0216800Y0053300D01*
X0217800Y0053300D01*
X0217860Y0053302D01*
X0217921Y0053307D01*
X0217980Y0053316D01*
X0218039Y0053329D01*
X0218098Y0053345D01*
X0218155Y0053365D01*
X0218210Y0053388D01*
X0218265Y0053415D01*
X0218317Y0053444D01*
X0218368Y0053477D01*
X0218417Y0053513D01*
X0218463Y0053551D01*
X0218507Y0053593D01*
X0218549Y0053637D01*
X0218587Y0053683D01*
X0218623Y0053732D01*
X0218656Y0053783D01*
X0218685Y0053835D01*
X0218712Y0053890D01*
X0218735Y0053945D01*
X0218755Y0054002D01*
X0218771Y0054061D01*
X0218784Y0054120D01*
X0218793Y0054179D01*
X0218798Y0054240D01*
X0218800Y0054300D01*
X0218800Y0059300D02*
X0218798Y0059360D01*
X0218793Y0059421D01*
X0218784Y0059480D01*
X0218771Y0059539D01*
X0218755Y0059598D01*
X0218735Y0059655D01*
X0218712Y0059710D01*
X0218685Y0059765D01*
X0218656Y0059817D01*
X0218623Y0059868D01*
X0218587Y0059917D01*
X0218549Y0059963D01*
X0218507Y0060007D01*
X0218463Y0060049D01*
X0218417Y0060087D01*
X0218368Y0060123D01*
X0218317Y0060156D01*
X0218265Y0060185D01*
X0218210Y0060212D01*
X0218155Y0060235D01*
X0218098Y0060255D01*
X0218039Y0060271D01*
X0217980Y0060284D01*
X0217921Y0060293D01*
X0217860Y0060298D01*
X0217800Y0060300D01*
X0216800Y0060300D01*
X0216300Y0059800D01*
X0207300Y0059800D01*
X0206800Y0060300D01*
X0205800Y0060300D01*
X0205740Y0060298D01*
X0205679Y0060293D01*
X0205620Y0060284D01*
X0205561Y0060271D01*
X0205502Y0060255D01*
X0205445Y0060235D01*
X0205390Y0060212D01*
X0205335Y0060185D01*
X0205283Y0060156D01*
X0205232Y0060123D01*
X0205183Y0060087D01*
X0205137Y0060049D01*
X0205093Y0060007D01*
X0205051Y0059963D01*
X0205013Y0059917D01*
X0204977Y0059868D01*
X0204944Y0059817D01*
X0204915Y0059765D01*
X0204888Y0059710D01*
X0204865Y0059655D01*
X0204845Y0059598D01*
X0204829Y0059539D01*
X0204816Y0059480D01*
X0204807Y0059421D01*
X0204802Y0059360D01*
X0204800Y0059300D01*
X0205800Y0063300D02*
X0206800Y0063300D01*
X0207300Y0063800D01*
X0216300Y0063800D01*
X0216800Y0063300D01*
X0217800Y0063300D01*
X0217860Y0063302D01*
X0217921Y0063307D01*
X0217980Y0063316D01*
X0218039Y0063329D01*
X0218098Y0063345D01*
X0218155Y0063365D01*
X0218210Y0063388D01*
X0218265Y0063415D01*
X0218317Y0063444D01*
X0218368Y0063477D01*
X0218417Y0063513D01*
X0218463Y0063551D01*
X0218507Y0063593D01*
X0218549Y0063637D01*
X0218587Y0063683D01*
X0218623Y0063732D01*
X0218656Y0063783D01*
X0218685Y0063835D01*
X0218712Y0063890D01*
X0218735Y0063945D01*
X0218755Y0064002D01*
X0218771Y0064061D01*
X0218784Y0064120D01*
X0218793Y0064179D01*
X0218798Y0064240D01*
X0218800Y0064300D01*
X0218800Y0069300D02*
X0218798Y0069360D01*
X0218793Y0069421D01*
X0218784Y0069480D01*
X0218771Y0069539D01*
X0218755Y0069598D01*
X0218735Y0069655D01*
X0218712Y0069710D01*
X0218685Y0069765D01*
X0218656Y0069817D01*
X0218623Y0069868D01*
X0218587Y0069917D01*
X0218549Y0069963D01*
X0218507Y0070007D01*
X0218463Y0070049D01*
X0218417Y0070087D01*
X0218368Y0070123D01*
X0218317Y0070156D01*
X0218265Y0070185D01*
X0218210Y0070212D01*
X0218155Y0070235D01*
X0218098Y0070255D01*
X0218039Y0070271D01*
X0217980Y0070284D01*
X0217921Y0070293D01*
X0217860Y0070298D01*
X0217800Y0070300D01*
X0216800Y0070300D01*
X0216300Y0069800D01*
X0207300Y0069800D01*
X0206800Y0070300D01*
X0205800Y0070300D01*
X0205740Y0070298D01*
X0205679Y0070293D01*
X0205620Y0070284D01*
X0205561Y0070271D01*
X0205502Y0070255D01*
X0205445Y0070235D01*
X0205390Y0070212D01*
X0205335Y0070185D01*
X0205283Y0070156D01*
X0205232Y0070123D01*
X0205183Y0070087D01*
X0205137Y0070049D01*
X0205093Y0070007D01*
X0205051Y0069963D01*
X0205013Y0069917D01*
X0204977Y0069868D01*
X0204944Y0069817D01*
X0204915Y0069765D01*
X0204888Y0069710D01*
X0204865Y0069655D01*
X0204845Y0069598D01*
X0204829Y0069539D01*
X0204816Y0069480D01*
X0204807Y0069421D01*
X0204802Y0069360D01*
X0204800Y0069300D01*
X0205800Y0073300D02*
X0206800Y0073300D01*
X0207300Y0073800D01*
X0216300Y0073800D01*
X0216800Y0073300D01*
X0217800Y0073300D01*
X0217860Y0073302D01*
X0217921Y0073307D01*
X0217980Y0073316D01*
X0218039Y0073329D01*
X0218098Y0073345D01*
X0218155Y0073365D01*
X0218210Y0073388D01*
X0218265Y0073415D01*
X0218317Y0073444D01*
X0218368Y0073477D01*
X0218417Y0073513D01*
X0218463Y0073551D01*
X0218507Y0073593D01*
X0218549Y0073637D01*
X0218587Y0073683D01*
X0218623Y0073732D01*
X0218656Y0073783D01*
X0218685Y0073835D01*
X0218712Y0073890D01*
X0218735Y0073945D01*
X0218755Y0074002D01*
X0218771Y0074061D01*
X0218784Y0074120D01*
X0218793Y0074179D01*
X0218798Y0074240D01*
X0218800Y0074300D01*
X0218800Y0079300D02*
X0218798Y0079360D01*
X0218793Y0079421D01*
X0218784Y0079480D01*
X0218771Y0079539D01*
X0218755Y0079598D01*
X0218735Y0079655D01*
X0218712Y0079710D01*
X0218685Y0079765D01*
X0218656Y0079817D01*
X0218623Y0079868D01*
X0218587Y0079917D01*
X0218549Y0079963D01*
X0218507Y0080007D01*
X0218463Y0080049D01*
X0218417Y0080087D01*
X0218368Y0080123D01*
X0218317Y0080156D01*
X0218265Y0080185D01*
X0218210Y0080212D01*
X0218155Y0080235D01*
X0218098Y0080255D01*
X0218039Y0080271D01*
X0217980Y0080284D01*
X0217921Y0080293D01*
X0217860Y0080298D01*
X0217800Y0080300D01*
X0216800Y0080300D01*
X0216300Y0079800D01*
X0207300Y0079800D01*
X0206800Y0080300D01*
X0205800Y0080300D01*
X0205740Y0080298D01*
X0205679Y0080293D01*
X0205620Y0080284D01*
X0205561Y0080271D01*
X0205502Y0080255D01*
X0205445Y0080235D01*
X0205390Y0080212D01*
X0205335Y0080185D01*
X0205283Y0080156D01*
X0205232Y0080123D01*
X0205183Y0080087D01*
X0205137Y0080049D01*
X0205093Y0080007D01*
X0205051Y0079963D01*
X0205013Y0079917D01*
X0204977Y0079868D01*
X0204944Y0079817D01*
X0204915Y0079765D01*
X0204888Y0079710D01*
X0204865Y0079655D01*
X0204845Y0079598D01*
X0204829Y0079539D01*
X0204816Y0079480D01*
X0204807Y0079421D01*
X0204802Y0079360D01*
X0204800Y0079300D01*
X0205800Y0083300D02*
X0206800Y0083300D01*
X0207300Y0083800D01*
X0216300Y0083800D01*
X0216800Y0083300D01*
X0217800Y0083300D01*
X0217860Y0083302D01*
X0217921Y0083307D01*
X0217980Y0083316D01*
X0218039Y0083329D01*
X0218098Y0083345D01*
X0218155Y0083365D01*
X0218210Y0083388D01*
X0218265Y0083415D01*
X0218317Y0083444D01*
X0218368Y0083477D01*
X0218417Y0083513D01*
X0218463Y0083551D01*
X0218507Y0083593D01*
X0218549Y0083637D01*
X0218587Y0083683D01*
X0218623Y0083732D01*
X0218656Y0083783D01*
X0218685Y0083835D01*
X0218712Y0083890D01*
X0218735Y0083945D01*
X0218755Y0084002D01*
X0218771Y0084061D01*
X0218784Y0084120D01*
X0218793Y0084179D01*
X0218798Y0084240D01*
X0218800Y0084300D01*
X0218800Y0089300D02*
X0218798Y0089360D01*
X0218793Y0089421D01*
X0218784Y0089480D01*
X0218771Y0089539D01*
X0218755Y0089598D01*
X0218735Y0089655D01*
X0218712Y0089710D01*
X0218685Y0089765D01*
X0218656Y0089817D01*
X0218623Y0089868D01*
X0218587Y0089917D01*
X0218549Y0089963D01*
X0218507Y0090007D01*
X0218463Y0090049D01*
X0218417Y0090087D01*
X0218368Y0090123D01*
X0218317Y0090156D01*
X0218265Y0090185D01*
X0218210Y0090212D01*
X0218155Y0090235D01*
X0218098Y0090255D01*
X0218039Y0090271D01*
X0217980Y0090284D01*
X0217921Y0090293D01*
X0217860Y0090298D01*
X0217800Y0090300D01*
X0216800Y0090300D01*
X0216300Y0089800D01*
X0207300Y0089800D01*
X0206800Y0090300D01*
X0205800Y0090300D01*
X0205740Y0090298D01*
X0205679Y0090293D01*
X0205620Y0090284D01*
X0205561Y0090271D01*
X0205502Y0090255D01*
X0205445Y0090235D01*
X0205390Y0090212D01*
X0205335Y0090185D01*
X0205283Y0090156D01*
X0205232Y0090123D01*
X0205183Y0090087D01*
X0205137Y0090049D01*
X0205093Y0090007D01*
X0205051Y0089963D01*
X0205013Y0089917D01*
X0204977Y0089868D01*
X0204944Y0089817D01*
X0204915Y0089765D01*
X0204888Y0089710D01*
X0204865Y0089655D01*
X0204845Y0089598D01*
X0204829Y0089539D01*
X0204816Y0089480D01*
X0204807Y0089421D01*
X0204802Y0089360D01*
X0204800Y0089300D01*
X0204800Y0084300D02*
X0204802Y0084240D01*
X0204807Y0084179D01*
X0204816Y0084120D01*
X0204829Y0084061D01*
X0204845Y0084002D01*
X0204865Y0083945D01*
X0204888Y0083890D01*
X0204915Y0083835D01*
X0204944Y0083783D01*
X0204977Y0083732D01*
X0205013Y0083683D01*
X0205051Y0083637D01*
X0205093Y0083593D01*
X0205137Y0083551D01*
X0205183Y0083513D01*
X0205232Y0083477D01*
X0205283Y0083444D01*
X0205335Y0083415D01*
X0205390Y0083388D01*
X0205445Y0083365D01*
X0205502Y0083345D01*
X0205561Y0083329D01*
X0205620Y0083316D01*
X0205679Y0083307D01*
X0205740Y0083302D01*
X0205800Y0083300D01*
X0204800Y0074300D02*
X0204802Y0074240D01*
X0204807Y0074179D01*
X0204816Y0074120D01*
X0204829Y0074061D01*
X0204845Y0074002D01*
X0204865Y0073945D01*
X0204888Y0073890D01*
X0204915Y0073835D01*
X0204944Y0073783D01*
X0204977Y0073732D01*
X0205013Y0073683D01*
X0205051Y0073637D01*
X0205093Y0073593D01*
X0205137Y0073551D01*
X0205183Y0073513D01*
X0205232Y0073477D01*
X0205283Y0073444D01*
X0205335Y0073415D01*
X0205390Y0073388D01*
X0205445Y0073365D01*
X0205502Y0073345D01*
X0205561Y0073329D01*
X0205620Y0073316D01*
X0205679Y0073307D01*
X0205740Y0073302D01*
X0205800Y0073300D01*
X0204800Y0064300D02*
X0204802Y0064240D01*
X0204807Y0064179D01*
X0204816Y0064120D01*
X0204829Y0064061D01*
X0204845Y0064002D01*
X0204865Y0063945D01*
X0204888Y0063890D01*
X0204915Y0063835D01*
X0204944Y0063783D01*
X0204977Y0063732D01*
X0205013Y0063683D01*
X0205051Y0063637D01*
X0205093Y0063593D01*
X0205137Y0063551D01*
X0205183Y0063513D01*
X0205232Y0063477D01*
X0205283Y0063444D01*
X0205335Y0063415D01*
X0205390Y0063388D01*
X0205445Y0063365D01*
X0205502Y0063345D01*
X0205561Y0063329D01*
X0205620Y0063316D01*
X0205679Y0063307D01*
X0205740Y0063302D01*
X0205800Y0063300D01*
X0204800Y0054300D02*
X0204802Y0054240D01*
X0204807Y0054179D01*
X0204816Y0054120D01*
X0204829Y0054061D01*
X0204845Y0054002D01*
X0204865Y0053945D01*
X0204888Y0053890D01*
X0204915Y0053835D01*
X0204944Y0053783D01*
X0204977Y0053732D01*
X0205013Y0053683D01*
X0205051Y0053637D01*
X0205093Y0053593D01*
X0205137Y0053551D01*
X0205183Y0053513D01*
X0205232Y0053477D01*
X0205283Y0053444D01*
X0205335Y0053415D01*
X0205390Y0053388D01*
X0205445Y0053365D01*
X0205502Y0053345D01*
X0205561Y0053329D01*
X0205620Y0053316D01*
X0205679Y0053307D01*
X0205740Y0053302D01*
X0205800Y0053300D01*
X0205300Y0102300D02*
X0218300Y0102300D01*
X0218387Y0102302D01*
X0218474Y0102308D01*
X0218561Y0102317D01*
X0218647Y0102330D01*
X0218733Y0102347D01*
X0218818Y0102368D01*
X0218901Y0102393D01*
X0218984Y0102421D01*
X0219065Y0102452D01*
X0219145Y0102487D01*
X0219223Y0102526D01*
X0219300Y0102568D01*
X0219375Y0102613D01*
X0219447Y0102662D01*
X0219518Y0102713D01*
X0219586Y0102768D01*
X0219651Y0102825D01*
X0219714Y0102886D01*
X0219775Y0102949D01*
X0219832Y0103014D01*
X0219887Y0103082D01*
X0219938Y0103153D01*
X0219987Y0103225D01*
X0220032Y0103300D01*
X0220074Y0103377D01*
X0220113Y0103455D01*
X0220148Y0103535D01*
X0220179Y0103616D01*
X0220207Y0103699D01*
X0220232Y0103782D01*
X0220253Y0103867D01*
X0220270Y0103953D01*
X0220283Y0104039D01*
X0220292Y0104126D01*
X0220298Y0104213D01*
X0220300Y0104300D01*
X0220300Y0109300D01*
X0220298Y0109387D01*
X0220292Y0109474D01*
X0220283Y0109561D01*
X0220270Y0109647D01*
X0220253Y0109733D01*
X0220232Y0109818D01*
X0220207Y0109901D01*
X0220179Y0109984D01*
X0220148Y0110065D01*
X0220113Y0110145D01*
X0220074Y0110223D01*
X0220032Y0110300D01*
X0219987Y0110375D01*
X0219938Y0110447D01*
X0219887Y0110518D01*
X0219832Y0110586D01*
X0219775Y0110651D01*
X0219714Y0110714D01*
X0219651Y0110775D01*
X0219586Y0110832D01*
X0219518Y0110887D01*
X0219447Y0110938D01*
X0219375Y0110987D01*
X0219300Y0111032D01*
X0219223Y0111074D01*
X0219145Y0111113D01*
X0219065Y0111148D01*
X0218984Y0111179D01*
X0218901Y0111207D01*
X0218818Y0111232D01*
X0218733Y0111253D01*
X0218647Y0111270D01*
X0218561Y0111283D01*
X0218474Y0111292D01*
X0218387Y0111298D01*
X0218300Y0111300D01*
X0205300Y0111300D01*
X0205213Y0111298D01*
X0205126Y0111292D01*
X0205039Y0111283D01*
X0204953Y0111270D01*
X0204867Y0111253D01*
X0204782Y0111232D01*
X0204699Y0111207D01*
X0204616Y0111179D01*
X0204535Y0111148D01*
X0204455Y0111113D01*
X0204377Y0111074D01*
X0204300Y0111032D01*
X0204225Y0110987D01*
X0204153Y0110938D01*
X0204082Y0110887D01*
X0204014Y0110832D01*
X0203949Y0110775D01*
X0203886Y0110714D01*
X0203825Y0110651D01*
X0203768Y0110586D01*
X0203713Y0110518D01*
X0203662Y0110447D01*
X0203613Y0110375D01*
X0203568Y0110300D01*
X0203526Y0110223D01*
X0203487Y0110145D01*
X0203452Y0110065D01*
X0203421Y0109984D01*
X0203393Y0109901D01*
X0203368Y0109818D01*
X0203347Y0109733D01*
X0203330Y0109647D01*
X0203317Y0109561D01*
X0203308Y0109474D01*
X0203302Y0109387D01*
X0203300Y0109300D01*
X0203300Y0104300D01*
X0203302Y0104213D01*
X0203308Y0104126D01*
X0203317Y0104039D01*
X0203330Y0103953D01*
X0203347Y0103867D01*
X0203368Y0103782D01*
X0203393Y0103699D01*
X0203421Y0103616D01*
X0203452Y0103535D01*
X0203487Y0103455D01*
X0203526Y0103377D01*
X0203568Y0103300D01*
X0203613Y0103225D01*
X0203662Y0103153D01*
X0203713Y0103082D01*
X0203768Y0103014D01*
X0203825Y0102949D01*
X0203886Y0102886D01*
X0203949Y0102825D01*
X0204014Y0102768D01*
X0204082Y0102713D01*
X0204153Y0102662D01*
X0204225Y0102613D01*
X0204300Y0102568D01*
X0204377Y0102526D01*
X0204455Y0102487D01*
X0204535Y0102452D01*
X0204616Y0102421D01*
X0204699Y0102393D01*
X0204782Y0102368D01*
X0204867Y0102347D01*
X0204953Y0102330D01*
X0205039Y0102317D01*
X0205126Y0102308D01*
X0205213Y0102302D01*
X0205300Y0102300D01*
X0205300Y0117300D02*
X0218300Y0117300D01*
X0218387Y0117302D01*
X0218474Y0117308D01*
X0218561Y0117317D01*
X0218647Y0117330D01*
X0218733Y0117347D01*
X0218818Y0117368D01*
X0218901Y0117393D01*
X0218984Y0117421D01*
X0219065Y0117452D01*
X0219145Y0117487D01*
X0219223Y0117526D01*
X0219300Y0117568D01*
X0219375Y0117613D01*
X0219447Y0117662D01*
X0219518Y0117713D01*
X0219586Y0117768D01*
X0219651Y0117825D01*
X0219714Y0117886D01*
X0219775Y0117949D01*
X0219832Y0118014D01*
X0219887Y0118082D01*
X0219938Y0118153D01*
X0219987Y0118225D01*
X0220032Y0118300D01*
X0220074Y0118377D01*
X0220113Y0118455D01*
X0220148Y0118535D01*
X0220179Y0118616D01*
X0220207Y0118699D01*
X0220232Y0118782D01*
X0220253Y0118867D01*
X0220270Y0118953D01*
X0220283Y0119039D01*
X0220292Y0119126D01*
X0220298Y0119213D01*
X0220300Y0119300D01*
X0220300Y0124300D01*
X0220298Y0124387D01*
X0220292Y0124474D01*
X0220283Y0124561D01*
X0220270Y0124647D01*
X0220253Y0124733D01*
X0220232Y0124818D01*
X0220207Y0124901D01*
X0220179Y0124984D01*
X0220148Y0125065D01*
X0220113Y0125145D01*
X0220074Y0125223D01*
X0220032Y0125300D01*
X0219987Y0125375D01*
X0219938Y0125447D01*
X0219887Y0125518D01*
X0219832Y0125586D01*
X0219775Y0125651D01*
X0219714Y0125714D01*
X0219651Y0125775D01*
X0219586Y0125832D01*
X0219518Y0125887D01*
X0219447Y0125938D01*
X0219375Y0125987D01*
X0219300Y0126032D01*
X0219223Y0126074D01*
X0219145Y0126113D01*
X0219065Y0126148D01*
X0218984Y0126179D01*
X0218901Y0126207D01*
X0218818Y0126232D01*
X0218733Y0126253D01*
X0218647Y0126270D01*
X0218561Y0126283D01*
X0218474Y0126292D01*
X0218387Y0126298D01*
X0218300Y0126300D01*
X0205300Y0126300D01*
X0205213Y0126298D01*
X0205126Y0126292D01*
X0205039Y0126283D01*
X0204953Y0126270D01*
X0204867Y0126253D01*
X0204782Y0126232D01*
X0204699Y0126207D01*
X0204616Y0126179D01*
X0204535Y0126148D01*
X0204455Y0126113D01*
X0204377Y0126074D01*
X0204300Y0126032D01*
X0204225Y0125987D01*
X0204153Y0125938D01*
X0204082Y0125887D01*
X0204014Y0125832D01*
X0203949Y0125775D01*
X0203886Y0125714D01*
X0203825Y0125651D01*
X0203768Y0125586D01*
X0203713Y0125518D01*
X0203662Y0125447D01*
X0203613Y0125375D01*
X0203568Y0125300D01*
X0203526Y0125223D01*
X0203487Y0125145D01*
X0203452Y0125065D01*
X0203421Y0124984D01*
X0203393Y0124901D01*
X0203368Y0124818D01*
X0203347Y0124733D01*
X0203330Y0124647D01*
X0203317Y0124561D01*
X0203308Y0124474D01*
X0203302Y0124387D01*
X0203300Y0124300D01*
X0203300Y0119300D01*
X0203302Y0119213D01*
X0203308Y0119126D01*
X0203317Y0119039D01*
X0203330Y0118953D01*
X0203347Y0118867D01*
X0203368Y0118782D01*
X0203393Y0118699D01*
X0203421Y0118616D01*
X0203452Y0118535D01*
X0203487Y0118455D01*
X0203526Y0118377D01*
X0203568Y0118300D01*
X0203613Y0118225D01*
X0203662Y0118153D01*
X0203713Y0118082D01*
X0203768Y0118014D01*
X0203825Y0117949D01*
X0203886Y0117886D01*
X0203949Y0117825D01*
X0204014Y0117768D01*
X0204082Y0117713D01*
X0204153Y0117662D01*
X0204225Y0117613D01*
X0204300Y0117568D01*
X0204377Y0117526D01*
X0204455Y0117487D01*
X0204535Y0117452D01*
X0204616Y0117421D01*
X0204699Y0117393D01*
X0204782Y0117368D01*
X0204867Y0117347D01*
X0204953Y0117330D01*
X0205039Y0117317D01*
X0205126Y0117308D01*
X0205213Y0117302D01*
X0205300Y0117300D01*
X0181800Y0120324D02*
X0181800Y0132724D01*
X0205465Y0141859D02*
X0205465Y0146859D01*
X0205467Y0146946D01*
X0205473Y0147033D01*
X0205482Y0147120D01*
X0205495Y0147206D01*
X0205512Y0147292D01*
X0205533Y0147377D01*
X0205558Y0147460D01*
X0205586Y0147543D01*
X0205617Y0147624D01*
X0205652Y0147704D01*
X0205691Y0147782D01*
X0205733Y0147859D01*
X0205778Y0147934D01*
X0205827Y0148006D01*
X0205878Y0148077D01*
X0205933Y0148145D01*
X0205990Y0148210D01*
X0206051Y0148273D01*
X0206114Y0148334D01*
X0206179Y0148391D01*
X0206247Y0148446D01*
X0206318Y0148497D01*
X0206390Y0148546D01*
X0206465Y0148591D01*
X0206542Y0148633D01*
X0206620Y0148672D01*
X0206700Y0148707D01*
X0206781Y0148738D01*
X0206864Y0148766D01*
X0206947Y0148791D01*
X0207032Y0148812D01*
X0207118Y0148829D01*
X0207204Y0148842D01*
X0207291Y0148851D01*
X0207378Y0148857D01*
X0207465Y0148859D01*
X0220465Y0148859D01*
X0220552Y0148857D01*
X0220639Y0148851D01*
X0220726Y0148842D01*
X0220812Y0148829D01*
X0220898Y0148812D01*
X0220983Y0148791D01*
X0221066Y0148766D01*
X0221149Y0148738D01*
X0221230Y0148707D01*
X0221310Y0148672D01*
X0221388Y0148633D01*
X0221465Y0148591D01*
X0221540Y0148546D01*
X0221612Y0148497D01*
X0221683Y0148446D01*
X0221751Y0148391D01*
X0221816Y0148334D01*
X0221879Y0148273D01*
X0221940Y0148210D01*
X0221997Y0148145D01*
X0222052Y0148077D01*
X0222103Y0148006D01*
X0222152Y0147934D01*
X0222197Y0147859D01*
X0222239Y0147782D01*
X0222278Y0147704D01*
X0222313Y0147624D01*
X0222344Y0147543D01*
X0222372Y0147460D01*
X0222397Y0147377D01*
X0222418Y0147292D01*
X0222435Y0147206D01*
X0222448Y0147120D01*
X0222457Y0147033D01*
X0222463Y0146946D01*
X0222465Y0146859D01*
X0222465Y0141859D01*
X0222463Y0141772D01*
X0222457Y0141685D01*
X0222448Y0141598D01*
X0222435Y0141512D01*
X0222418Y0141426D01*
X0222397Y0141341D01*
X0222372Y0141258D01*
X0222344Y0141175D01*
X0222313Y0141094D01*
X0222278Y0141014D01*
X0222239Y0140936D01*
X0222197Y0140859D01*
X0222152Y0140784D01*
X0222103Y0140712D01*
X0222052Y0140641D01*
X0221997Y0140573D01*
X0221940Y0140508D01*
X0221879Y0140445D01*
X0221816Y0140384D01*
X0221751Y0140327D01*
X0221683Y0140272D01*
X0221612Y0140221D01*
X0221540Y0140172D01*
X0221465Y0140127D01*
X0221388Y0140085D01*
X0221310Y0140046D01*
X0221230Y0140011D01*
X0221149Y0139980D01*
X0221066Y0139952D01*
X0220983Y0139927D01*
X0220898Y0139906D01*
X0220812Y0139889D01*
X0220726Y0139876D01*
X0220639Y0139867D01*
X0220552Y0139861D01*
X0220465Y0139859D01*
X0207465Y0139859D01*
X0207378Y0139861D01*
X0207291Y0139867D01*
X0207204Y0139876D01*
X0207118Y0139889D01*
X0207032Y0139906D01*
X0206947Y0139927D01*
X0206864Y0139952D01*
X0206781Y0139980D01*
X0206700Y0140011D01*
X0206620Y0140046D01*
X0206542Y0140085D01*
X0206465Y0140127D01*
X0206390Y0140172D01*
X0206318Y0140221D01*
X0206247Y0140272D01*
X0206179Y0140327D01*
X0206114Y0140384D01*
X0206051Y0140445D01*
X0205990Y0140508D01*
X0205933Y0140573D01*
X0205878Y0140641D01*
X0205827Y0140712D01*
X0205778Y0140784D01*
X0205733Y0140859D01*
X0205691Y0140936D01*
X0205652Y0141014D01*
X0205617Y0141094D01*
X0205586Y0141175D01*
X0205558Y0141258D01*
X0205533Y0141341D01*
X0205512Y0141426D01*
X0205495Y0141512D01*
X0205482Y0141598D01*
X0205473Y0141685D01*
X0205467Y0141772D01*
X0205465Y0141859D01*
X0141800Y0132724D02*
X0141800Y0120324D01*
X0141800Y0124524D02*
X0141888Y0124526D01*
X0141977Y0124532D01*
X0142065Y0124542D01*
X0142152Y0124555D01*
X0142239Y0124573D01*
X0142325Y0124594D01*
X0142410Y0124619D01*
X0142493Y0124648D01*
X0142576Y0124681D01*
X0142656Y0124717D01*
X0142735Y0124756D01*
X0142813Y0124799D01*
X0142888Y0124846D01*
X0142961Y0124896D01*
X0143032Y0124949D01*
X0143101Y0125005D01*
X0143167Y0125064D01*
X0143230Y0125126D01*
X0143290Y0125190D01*
X0143348Y0125257D01*
X0143402Y0125327D01*
X0143454Y0125399D01*
X0143502Y0125473D01*
X0143547Y0125550D01*
X0143588Y0125628D01*
X0143626Y0125708D01*
X0143660Y0125789D01*
X0143691Y0125872D01*
X0143718Y0125957D01*
X0143741Y0126042D01*
X0143760Y0126128D01*
X0143776Y0126216D01*
X0143788Y0126303D01*
X0143796Y0126391D01*
X0143800Y0126480D01*
X0143800Y0126568D01*
X0143796Y0126657D01*
X0143788Y0126745D01*
X0143776Y0126832D01*
X0143760Y0126920D01*
X0143741Y0127006D01*
X0143718Y0127091D01*
X0143691Y0127176D01*
X0143660Y0127259D01*
X0143626Y0127340D01*
X0143588Y0127420D01*
X0143547Y0127498D01*
X0143502Y0127575D01*
X0143454Y0127649D01*
X0143402Y0127721D01*
X0143348Y0127791D01*
X0143290Y0127858D01*
X0143230Y0127922D01*
X0143167Y0127984D01*
X0143101Y0128043D01*
X0143032Y0128099D01*
X0142961Y0128152D01*
X0142888Y0128202D01*
X0142813Y0128249D01*
X0142735Y0128292D01*
X0142656Y0128331D01*
X0142576Y0128367D01*
X0142493Y0128400D01*
X0142410Y0128429D01*
X0142325Y0128454D01*
X0142239Y0128475D01*
X0142152Y0128493D01*
X0142065Y0128506D01*
X0141977Y0128516D01*
X0141888Y0128522D01*
X0141800Y0128524D01*
X0095816Y0130824D02*
X0095816Y0124824D01*
X0095814Y0124764D01*
X0095809Y0124703D01*
X0095800Y0124644D01*
X0095787Y0124585D01*
X0095771Y0124526D01*
X0095751Y0124469D01*
X0095728Y0124414D01*
X0095701Y0124359D01*
X0095672Y0124307D01*
X0095639Y0124256D01*
X0095603Y0124207D01*
X0095565Y0124161D01*
X0095523Y0124117D01*
X0095479Y0124075D01*
X0095433Y0124037D01*
X0095384Y0124001D01*
X0095333Y0123968D01*
X0095281Y0123939D01*
X0095226Y0123912D01*
X0095171Y0123889D01*
X0095114Y0123869D01*
X0095055Y0123853D01*
X0094996Y0123840D01*
X0094937Y0123831D01*
X0094876Y0123826D01*
X0094816Y0123824D01*
X0093316Y0123824D01*
X0092816Y0124324D01*
X0078816Y0124324D01*
X0078316Y0123824D01*
X0076816Y0123824D01*
X0076756Y0123826D01*
X0076695Y0123831D01*
X0076636Y0123840D01*
X0076577Y0123853D01*
X0076518Y0123869D01*
X0076461Y0123889D01*
X0076406Y0123912D01*
X0076351Y0123939D01*
X0076299Y0123968D01*
X0076248Y0124001D01*
X0076199Y0124037D01*
X0076153Y0124075D01*
X0076109Y0124117D01*
X0076067Y0124161D01*
X0076029Y0124207D01*
X0075993Y0124256D01*
X0075960Y0124307D01*
X0075931Y0124359D01*
X0075904Y0124414D01*
X0075881Y0124469D01*
X0075861Y0124526D01*
X0075845Y0124585D01*
X0075832Y0124644D01*
X0075823Y0124703D01*
X0075818Y0124764D01*
X0075816Y0124824D01*
X0075816Y0130824D01*
X0075818Y0130884D01*
X0075823Y0130945D01*
X0075832Y0131004D01*
X0075845Y0131063D01*
X0075861Y0131122D01*
X0075881Y0131179D01*
X0075904Y0131234D01*
X0075931Y0131289D01*
X0075960Y0131341D01*
X0075993Y0131392D01*
X0076029Y0131441D01*
X0076067Y0131487D01*
X0076109Y0131531D01*
X0076153Y0131573D01*
X0076199Y0131611D01*
X0076248Y0131647D01*
X0076299Y0131680D01*
X0076351Y0131709D01*
X0076406Y0131736D01*
X0076461Y0131759D01*
X0076518Y0131779D01*
X0076577Y0131795D01*
X0076636Y0131808D01*
X0076695Y0131817D01*
X0076756Y0131822D01*
X0076816Y0131824D01*
X0078316Y0131824D01*
X0078816Y0131324D01*
X0092816Y0131324D01*
X0093316Y0131824D01*
X0094816Y0131824D01*
X0094876Y0131822D01*
X0094937Y0131817D01*
X0094996Y0131808D01*
X0095055Y0131795D01*
X0095114Y0131779D01*
X0095171Y0131759D01*
X0095226Y0131736D01*
X0095281Y0131709D01*
X0095333Y0131680D01*
X0095384Y0131647D01*
X0095433Y0131611D01*
X0095479Y0131573D01*
X0095523Y0131531D01*
X0095565Y0131487D01*
X0095603Y0131441D01*
X0095639Y0131392D01*
X0095672Y0131341D01*
X0095701Y0131289D01*
X0095728Y0131234D01*
X0095751Y0131179D01*
X0095771Y0131122D01*
X0095787Y0131063D01*
X0095800Y0131004D01*
X0095809Y0130945D01*
X0095814Y0130884D01*
X0095816Y0130824D01*
X0051721Y0132517D02*
X0051721Y0126517D01*
X0051719Y0126457D01*
X0051714Y0126396D01*
X0051705Y0126337D01*
X0051692Y0126278D01*
X0051676Y0126219D01*
X0051656Y0126162D01*
X0051633Y0126107D01*
X0051606Y0126052D01*
X0051577Y0126000D01*
X0051544Y0125949D01*
X0051508Y0125900D01*
X0051470Y0125854D01*
X0051428Y0125810D01*
X0051384Y0125768D01*
X0051338Y0125730D01*
X0051289Y0125694D01*
X0051238Y0125661D01*
X0051186Y0125632D01*
X0051131Y0125605D01*
X0051076Y0125582D01*
X0051019Y0125562D01*
X0050960Y0125546D01*
X0050901Y0125533D01*
X0050842Y0125524D01*
X0050781Y0125519D01*
X0050721Y0125517D01*
X0049221Y0125517D01*
X0048721Y0126017D01*
X0034721Y0126017D01*
X0034221Y0125517D01*
X0032721Y0125517D01*
X0032661Y0125519D01*
X0032600Y0125524D01*
X0032541Y0125533D01*
X0032482Y0125546D01*
X0032423Y0125562D01*
X0032366Y0125582D01*
X0032311Y0125605D01*
X0032256Y0125632D01*
X0032204Y0125661D01*
X0032153Y0125694D01*
X0032104Y0125730D01*
X0032058Y0125768D01*
X0032014Y0125810D01*
X0031972Y0125854D01*
X0031934Y0125900D01*
X0031898Y0125949D01*
X0031865Y0126000D01*
X0031836Y0126052D01*
X0031809Y0126107D01*
X0031786Y0126162D01*
X0031766Y0126219D01*
X0031750Y0126278D01*
X0031737Y0126337D01*
X0031728Y0126396D01*
X0031723Y0126457D01*
X0031721Y0126517D01*
X0031721Y0132517D01*
X0031723Y0132577D01*
X0031728Y0132638D01*
X0031737Y0132697D01*
X0031750Y0132756D01*
X0031766Y0132815D01*
X0031786Y0132872D01*
X0031809Y0132927D01*
X0031836Y0132982D01*
X0031865Y0133034D01*
X0031898Y0133085D01*
X0031934Y0133134D01*
X0031972Y0133180D01*
X0032014Y0133224D01*
X0032058Y0133266D01*
X0032104Y0133304D01*
X0032153Y0133340D01*
X0032204Y0133373D01*
X0032256Y0133402D01*
X0032311Y0133429D01*
X0032366Y0133452D01*
X0032423Y0133472D01*
X0032482Y0133488D01*
X0032541Y0133501D01*
X0032600Y0133510D01*
X0032661Y0133515D01*
X0032721Y0133517D01*
X0034221Y0133517D01*
X0034721Y0133017D01*
X0048721Y0133017D01*
X0049221Y0133517D01*
X0050721Y0133517D01*
X0050781Y0133515D01*
X0050842Y0133510D01*
X0050901Y0133501D01*
X0050960Y0133488D01*
X0051019Y0133472D01*
X0051076Y0133452D01*
X0051131Y0133429D01*
X0051186Y0133402D01*
X0051238Y0133373D01*
X0051289Y0133340D01*
X0051338Y0133304D01*
X0051384Y0133266D01*
X0051428Y0133224D01*
X0051470Y0133180D01*
X0051508Y0133134D01*
X0051544Y0133085D01*
X0051577Y0133034D01*
X0051606Y0132982D01*
X0051633Y0132927D01*
X0051656Y0132872D01*
X0051676Y0132815D01*
X0051692Y0132756D01*
X0051705Y0132697D01*
X0051714Y0132638D01*
X0051719Y0132577D01*
X0051721Y0132517D01*
X0050524Y0138745D02*
X0049024Y0138745D01*
X0048524Y0139245D01*
X0034524Y0139245D01*
X0034024Y0138745D01*
X0032524Y0138745D01*
X0032464Y0138747D01*
X0032403Y0138752D01*
X0032344Y0138761D01*
X0032285Y0138774D01*
X0032226Y0138790D01*
X0032169Y0138810D01*
X0032114Y0138833D01*
X0032059Y0138860D01*
X0032007Y0138889D01*
X0031956Y0138922D01*
X0031907Y0138958D01*
X0031861Y0138996D01*
X0031817Y0139038D01*
X0031775Y0139082D01*
X0031737Y0139128D01*
X0031701Y0139177D01*
X0031668Y0139228D01*
X0031639Y0139280D01*
X0031612Y0139335D01*
X0031589Y0139390D01*
X0031569Y0139447D01*
X0031553Y0139506D01*
X0031540Y0139565D01*
X0031531Y0139624D01*
X0031526Y0139685D01*
X0031524Y0139745D01*
X0031524Y0145745D01*
X0031526Y0145805D01*
X0031531Y0145866D01*
X0031540Y0145925D01*
X0031553Y0145984D01*
X0031569Y0146043D01*
X0031589Y0146100D01*
X0031612Y0146155D01*
X0031639Y0146210D01*
X0031668Y0146262D01*
X0031701Y0146313D01*
X0031737Y0146362D01*
X0031775Y0146408D01*
X0031817Y0146452D01*
X0031861Y0146494D01*
X0031907Y0146532D01*
X0031956Y0146568D01*
X0032007Y0146601D01*
X0032059Y0146630D01*
X0032114Y0146657D01*
X0032169Y0146680D01*
X0032226Y0146700D01*
X0032285Y0146716D01*
X0032344Y0146729D01*
X0032403Y0146738D01*
X0032464Y0146743D01*
X0032524Y0146745D01*
X0034024Y0146745D01*
X0034524Y0146245D01*
X0048524Y0146245D01*
X0049024Y0146745D01*
X0050524Y0146745D01*
X0050584Y0146743D01*
X0050645Y0146738D01*
X0050704Y0146729D01*
X0050763Y0146716D01*
X0050822Y0146700D01*
X0050879Y0146680D01*
X0050934Y0146657D01*
X0050989Y0146630D01*
X0051041Y0146601D01*
X0051092Y0146568D01*
X0051141Y0146532D01*
X0051187Y0146494D01*
X0051231Y0146452D01*
X0051273Y0146408D01*
X0051311Y0146362D01*
X0051347Y0146313D01*
X0051380Y0146262D01*
X0051409Y0146210D01*
X0051436Y0146155D01*
X0051459Y0146100D01*
X0051479Y0146043D01*
X0051495Y0145984D01*
X0051508Y0145925D01*
X0051517Y0145866D01*
X0051522Y0145805D01*
X0051524Y0145745D01*
X0051524Y0139745D01*
X0051522Y0139685D01*
X0051517Y0139624D01*
X0051508Y0139565D01*
X0051495Y0139506D01*
X0051479Y0139447D01*
X0051459Y0139390D01*
X0051436Y0139335D01*
X0051409Y0139280D01*
X0051380Y0139228D01*
X0051347Y0139177D01*
X0051311Y0139128D01*
X0051273Y0139082D01*
X0051231Y0139038D01*
X0051187Y0138996D01*
X0051141Y0138958D01*
X0051092Y0138922D01*
X0051041Y0138889D01*
X0050989Y0138860D01*
X0050934Y0138833D01*
X0050879Y0138810D01*
X0050822Y0138790D01*
X0050763Y0138774D01*
X0050704Y0138761D01*
X0050645Y0138752D01*
X0050584Y0138747D01*
X0050524Y0138745D01*
X0048950Y0151658D02*
X0047450Y0151658D01*
X0046950Y0152158D01*
X0032950Y0152158D01*
X0032450Y0151658D01*
X0030950Y0151658D01*
X0030890Y0151660D01*
X0030829Y0151665D01*
X0030770Y0151674D01*
X0030711Y0151687D01*
X0030652Y0151703D01*
X0030595Y0151723D01*
X0030540Y0151746D01*
X0030485Y0151773D01*
X0030433Y0151802D01*
X0030382Y0151835D01*
X0030333Y0151871D01*
X0030287Y0151909D01*
X0030243Y0151951D01*
X0030201Y0151995D01*
X0030163Y0152041D01*
X0030127Y0152090D01*
X0030094Y0152141D01*
X0030065Y0152193D01*
X0030038Y0152248D01*
X0030015Y0152303D01*
X0029995Y0152360D01*
X0029979Y0152419D01*
X0029966Y0152478D01*
X0029957Y0152537D01*
X0029952Y0152598D01*
X0029950Y0152658D01*
X0029950Y0158658D01*
X0029952Y0158718D01*
X0029957Y0158779D01*
X0029966Y0158838D01*
X0029979Y0158897D01*
X0029995Y0158956D01*
X0030015Y0159013D01*
X0030038Y0159068D01*
X0030065Y0159123D01*
X0030094Y0159175D01*
X0030127Y0159226D01*
X0030163Y0159275D01*
X0030201Y0159321D01*
X0030243Y0159365D01*
X0030287Y0159407D01*
X0030333Y0159445D01*
X0030382Y0159481D01*
X0030433Y0159514D01*
X0030485Y0159543D01*
X0030540Y0159570D01*
X0030595Y0159593D01*
X0030652Y0159613D01*
X0030711Y0159629D01*
X0030770Y0159642D01*
X0030829Y0159651D01*
X0030890Y0159656D01*
X0030950Y0159658D01*
X0032450Y0159658D01*
X0032950Y0159158D01*
X0046950Y0159158D01*
X0047450Y0159658D01*
X0048950Y0159658D01*
X0049010Y0159656D01*
X0049071Y0159651D01*
X0049130Y0159642D01*
X0049189Y0159629D01*
X0049248Y0159613D01*
X0049305Y0159593D01*
X0049360Y0159570D01*
X0049415Y0159543D01*
X0049467Y0159514D01*
X0049518Y0159481D01*
X0049567Y0159445D01*
X0049613Y0159407D01*
X0049657Y0159365D01*
X0049699Y0159321D01*
X0049737Y0159275D01*
X0049773Y0159226D01*
X0049806Y0159175D01*
X0049835Y0159123D01*
X0049862Y0159068D01*
X0049885Y0159013D01*
X0049905Y0158956D01*
X0049921Y0158897D01*
X0049934Y0158838D01*
X0049943Y0158779D01*
X0049948Y0158718D01*
X0049950Y0158658D01*
X0049950Y0152658D01*
X0049948Y0152598D01*
X0049943Y0152537D01*
X0049934Y0152478D01*
X0049921Y0152419D01*
X0049905Y0152360D01*
X0049885Y0152303D01*
X0049862Y0152248D01*
X0049835Y0152193D01*
X0049806Y0152141D01*
X0049773Y0152090D01*
X0049737Y0152041D01*
X0049699Y0151995D01*
X0049657Y0151951D01*
X0049613Y0151909D01*
X0049567Y0151871D01*
X0049518Y0151835D01*
X0049467Y0151802D01*
X0049415Y0151773D01*
X0049360Y0151746D01*
X0049305Y0151723D01*
X0049248Y0151703D01*
X0049189Y0151687D01*
X0049130Y0151674D01*
X0049071Y0151665D01*
X0049010Y0151660D01*
X0048950Y0151658D01*
X0048237Y0164965D02*
X0049737Y0164965D01*
X0049797Y0164967D01*
X0049858Y0164972D01*
X0049917Y0164981D01*
X0049976Y0164994D01*
X0050035Y0165010D01*
X0050092Y0165030D01*
X0050147Y0165053D01*
X0050202Y0165080D01*
X0050254Y0165109D01*
X0050305Y0165142D01*
X0050354Y0165178D01*
X0050400Y0165216D01*
X0050444Y0165258D01*
X0050486Y0165302D01*
X0050524Y0165348D01*
X0050560Y0165397D01*
X0050593Y0165448D01*
X0050622Y0165500D01*
X0050649Y0165555D01*
X0050672Y0165610D01*
X0050692Y0165667D01*
X0050708Y0165726D01*
X0050721Y0165785D01*
X0050730Y0165844D01*
X0050735Y0165905D01*
X0050737Y0165965D01*
X0050737Y0171965D01*
X0050735Y0172025D01*
X0050730Y0172086D01*
X0050721Y0172145D01*
X0050708Y0172204D01*
X0050692Y0172263D01*
X0050672Y0172320D01*
X0050649Y0172375D01*
X0050622Y0172430D01*
X0050593Y0172482D01*
X0050560Y0172533D01*
X0050524Y0172582D01*
X0050486Y0172628D01*
X0050444Y0172672D01*
X0050400Y0172714D01*
X0050354Y0172752D01*
X0050305Y0172788D01*
X0050254Y0172821D01*
X0050202Y0172850D01*
X0050147Y0172877D01*
X0050092Y0172900D01*
X0050035Y0172920D01*
X0049976Y0172936D01*
X0049917Y0172949D01*
X0049858Y0172958D01*
X0049797Y0172963D01*
X0049737Y0172965D01*
X0048237Y0172965D01*
X0047737Y0172465D01*
X0033737Y0172465D01*
X0033237Y0172965D01*
X0031737Y0172965D01*
X0031677Y0172963D01*
X0031616Y0172958D01*
X0031557Y0172949D01*
X0031498Y0172936D01*
X0031439Y0172920D01*
X0031382Y0172900D01*
X0031327Y0172877D01*
X0031272Y0172850D01*
X0031220Y0172821D01*
X0031169Y0172788D01*
X0031120Y0172752D01*
X0031074Y0172714D01*
X0031030Y0172672D01*
X0030988Y0172628D01*
X0030950Y0172582D01*
X0030914Y0172533D01*
X0030881Y0172482D01*
X0030852Y0172430D01*
X0030825Y0172375D01*
X0030802Y0172320D01*
X0030782Y0172263D01*
X0030766Y0172204D01*
X0030753Y0172145D01*
X0030744Y0172086D01*
X0030739Y0172025D01*
X0030737Y0171965D01*
X0030737Y0165965D01*
X0030739Y0165905D01*
X0030744Y0165844D01*
X0030753Y0165785D01*
X0030766Y0165726D01*
X0030782Y0165667D01*
X0030802Y0165610D01*
X0030825Y0165555D01*
X0030852Y0165500D01*
X0030881Y0165448D01*
X0030914Y0165397D01*
X0030950Y0165348D01*
X0030988Y0165302D01*
X0031030Y0165258D01*
X0031074Y0165216D01*
X0031120Y0165178D01*
X0031169Y0165142D01*
X0031220Y0165109D01*
X0031272Y0165080D01*
X0031327Y0165053D01*
X0031382Y0165030D01*
X0031439Y0165010D01*
X0031498Y0164994D01*
X0031557Y0164981D01*
X0031616Y0164972D01*
X0031677Y0164967D01*
X0031737Y0164965D01*
X0033237Y0164965D01*
X0033737Y0165465D01*
X0047737Y0165465D01*
X0048237Y0164965D01*
X0046363Y0178402D02*
X0059363Y0178402D01*
X0059450Y0178404D01*
X0059537Y0178410D01*
X0059624Y0178419D01*
X0059710Y0178432D01*
X0059796Y0178449D01*
X0059881Y0178470D01*
X0059964Y0178495D01*
X0060047Y0178523D01*
X0060128Y0178554D01*
X0060208Y0178589D01*
X0060286Y0178628D01*
X0060363Y0178670D01*
X0060438Y0178715D01*
X0060510Y0178764D01*
X0060581Y0178815D01*
X0060649Y0178870D01*
X0060714Y0178927D01*
X0060777Y0178988D01*
X0060838Y0179051D01*
X0060895Y0179116D01*
X0060950Y0179184D01*
X0061001Y0179255D01*
X0061050Y0179327D01*
X0061095Y0179402D01*
X0061137Y0179479D01*
X0061176Y0179557D01*
X0061211Y0179637D01*
X0061242Y0179718D01*
X0061270Y0179801D01*
X0061295Y0179884D01*
X0061316Y0179969D01*
X0061333Y0180055D01*
X0061346Y0180141D01*
X0061355Y0180228D01*
X0061361Y0180315D01*
X0061363Y0180402D01*
X0061363Y0185402D01*
X0061361Y0185489D01*
X0061355Y0185576D01*
X0061346Y0185663D01*
X0061333Y0185749D01*
X0061316Y0185835D01*
X0061295Y0185920D01*
X0061270Y0186003D01*
X0061242Y0186086D01*
X0061211Y0186167D01*
X0061176Y0186247D01*
X0061137Y0186325D01*
X0061095Y0186402D01*
X0061050Y0186477D01*
X0061001Y0186549D01*
X0060950Y0186620D01*
X0060895Y0186688D01*
X0060838Y0186753D01*
X0060777Y0186816D01*
X0060714Y0186877D01*
X0060649Y0186934D01*
X0060581Y0186989D01*
X0060510Y0187040D01*
X0060438Y0187089D01*
X0060363Y0187134D01*
X0060286Y0187176D01*
X0060208Y0187215D01*
X0060128Y0187250D01*
X0060047Y0187281D01*
X0059964Y0187309D01*
X0059881Y0187334D01*
X0059796Y0187355D01*
X0059710Y0187372D01*
X0059624Y0187385D01*
X0059537Y0187394D01*
X0059450Y0187400D01*
X0059363Y0187402D01*
X0046363Y0187402D01*
X0046276Y0187400D01*
X0046189Y0187394D01*
X0046102Y0187385D01*
X0046016Y0187372D01*
X0045930Y0187355D01*
X0045845Y0187334D01*
X0045762Y0187309D01*
X0045679Y0187281D01*
X0045598Y0187250D01*
X0045518Y0187215D01*
X0045440Y0187176D01*
X0045363Y0187134D01*
X0045288Y0187089D01*
X0045216Y0187040D01*
X0045145Y0186989D01*
X0045077Y0186934D01*
X0045012Y0186877D01*
X0044949Y0186816D01*
X0044888Y0186753D01*
X0044831Y0186688D01*
X0044776Y0186620D01*
X0044725Y0186549D01*
X0044676Y0186477D01*
X0044631Y0186402D01*
X0044589Y0186325D01*
X0044550Y0186247D01*
X0044515Y0186167D01*
X0044484Y0186086D01*
X0044456Y0186003D01*
X0044431Y0185920D01*
X0044410Y0185835D01*
X0044393Y0185749D01*
X0044380Y0185663D01*
X0044371Y0185576D01*
X0044365Y0185489D01*
X0044363Y0185402D01*
X0044363Y0180402D01*
X0044365Y0180315D01*
X0044371Y0180228D01*
X0044380Y0180141D01*
X0044393Y0180055D01*
X0044410Y0179969D01*
X0044431Y0179884D01*
X0044456Y0179801D01*
X0044484Y0179718D01*
X0044515Y0179637D01*
X0044550Y0179557D01*
X0044589Y0179479D01*
X0044631Y0179402D01*
X0044676Y0179327D01*
X0044725Y0179255D01*
X0044776Y0179184D01*
X0044831Y0179116D01*
X0044888Y0179051D01*
X0044949Y0178988D01*
X0045012Y0178927D01*
X0045077Y0178870D01*
X0045145Y0178815D01*
X0045216Y0178764D01*
X0045288Y0178715D01*
X0045363Y0178670D01*
X0045440Y0178628D01*
X0045518Y0178589D01*
X0045598Y0178554D01*
X0045679Y0178523D01*
X0045762Y0178495D01*
X0045845Y0178470D01*
X0045930Y0178449D01*
X0046016Y0178432D01*
X0046102Y0178419D01*
X0046189Y0178410D01*
X0046276Y0178404D01*
X0046363Y0178402D01*
X0035536Y0180442D02*
X0035536Y0185442D01*
X0035534Y0185529D01*
X0035528Y0185616D01*
X0035519Y0185703D01*
X0035506Y0185789D01*
X0035489Y0185875D01*
X0035468Y0185960D01*
X0035443Y0186043D01*
X0035415Y0186126D01*
X0035384Y0186207D01*
X0035349Y0186287D01*
X0035310Y0186365D01*
X0035268Y0186442D01*
X0035223Y0186517D01*
X0035174Y0186589D01*
X0035123Y0186660D01*
X0035068Y0186728D01*
X0035011Y0186793D01*
X0034950Y0186856D01*
X0034887Y0186917D01*
X0034822Y0186974D01*
X0034754Y0187029D01*
X0034683Y0187080D01*
X0034611Y0187129D01*
X0034536Y0187174D01*
X0034459Y0187216D01*
X0034381Y0187255D01*
X0034301Y0187290D01*
X0034220Y0187321D01*
X0034137Y0187349D01*
X0034054Y0187374D01*
X0033969Y0187395D01*
X0033883Y0187412D01*
X0033797Y0187425D01*
X0033710Y0187434D01*
X0033623Y0187440D01*
X0033536Y0187442D01*
X0020536Y0187442D01*
X0020449Y0187440D01*
X0020362Y0187434D01*
X0020275Y0187425D01*
X0020189Y0187412D01*
X0020103Y0187395D01*
X0020018Y0187374D01*
X0019935Y0187349D01*
X0019852Y0187321D01*
X0019771Y0187290D01*
X0019691Y0187255D01*
X0019613Y0187216D01*
X0019536Y0187174D01*
X0019461Y0187129D01*
X0019389Y0187080D01*
X0019318Y0187029D01*
X0019250Y0186974D01*
X0019185Y0186917D01*
X0019122Y0186856D01*
X0019061Y0186793D01*
X0019004Y0186728D01*
X0018949Y0186660D01*
X0018898Y0186589D01*
X0018849Y0186517D01*
X0018804Y0186442D01*
X0018762Y0186365D01*
X0018723Y0186287D01*
X0018688Y0186207D01*
X0018657Y0186126D01*
X0018629Y0186043D01*
X0018604Y0185960D01*
X0018583Y0185875D01*
X0018566Y0185789D01*
X0018553Y0185703D01*
X0018544Y0185616D01*
X0018538Y0185529D01*
X0018536Y0185442D01*
X0018536Y0180442D01*
X0018538Y0180355D01*
X0018544Y0180268D01*
X0018553Y0180181D01*
X0018566Y0180095D01*
X0018583Y0180009D01*
X0018604Y0179924D01*
X0018629Y0179841D01*
X0018657Y0179758D01*
X0018688Y0179677D01*
X0018723Y0179597D01*
X0018762Y0179519D01*
X0018804Y0179442D01*
X0018849Y0179367D01*
X0018898Y0179295D01*
X0018949Y0179224D01*
X0019004Y0179156D01*
X0019061Y0179091D01*
X0019122Y0179028D01*
X0019185Y0178967D01*
X0019250Y0178910D01*
X0019318Y0178855D01*
X0019389Y0178804D01*
X0019461Y0178755D01*
X0019536Y0178710D01*
X0019613Y0178668D01*
X0019691Y0178629D01*
X0019771Y0178594D01*
X0019852Y0178563D01*
X0019935Y0178535D01*
X0020018Y0178510D01*
X0020103Y0178489D01*
X0020189Y0178472D01*
X0020275Y0178459D01*
X0020362Y0178450D01*
X0020449Y0178444D01*
X0020536Y0178442D01*
X0033536Y0178442D01*
X0033623Y0178444D01*
X0033710Y0178450D01*
X0033797Y0178459D01*
X0033883Y0178472D01*
X0033969Y0178489D01*
X0034054Y0178510D01*
X0034137Y0178535D01*
X0034220Y0178563D01*
X0034301Y0178594D01*
X0034381Y0178629D01*
X0034459Y0178668D01*
X0034536Y0178710D01*
X0034611Y0178755D01*
X0034683Y0178804D01*
X0034754Y0178855D01*
X0034822Y0178910D01*
X0034887Y0178967D01*
X0034950Y0179028D01*
X0035011Y0179091D01*
X0035068Y0179156D01*
X0035123Y0179224D01*
X0035174Y0179295D01*
X0035223Y0179367D01*
X0035268Y0179442D01*
X0035310Y0179519D01*
X0035349Y0179597D01*
X0035384Y0179677D01*
X0035415Y0179758D01*
X0035443Y0179841D01*
X0035468Y0179924D01*
X0035489Y0180009D01*
X0035506Y0180095D01*
X0035519Y0180181D01*
X0035528Y0180268D01*
X0035534Y0180355D01*
X0035536Y0180442D01*
X0037056Y0198375D02*
X0032056Y0198375D01*
X0029556Y0200875D01*
X0029556Y0215875D01*
X0032056Y0218375D01*
X0037056Y0218375D01*
X0039556Y0215875D01*
X0039556Y0200875D01*
X0042056Y0198375D01*
X0047056Y0198375D01*
X0049556Y0200875D01*
X0049556Y0215875D01*
X0052056Y0218375D01*
X0057056Y0218375D01*
X0059556Y0215875D01*
X0059556Y0200875D01*
X0062056Y0198375D01*
X0067056Y0198375D01*
X0069556Y0200875D01*
X0069556Y0215875D01*
X0072056Y0218375D01*
X0077056Y0218375D01*
X0079556Y0215875D01*
X0079556Y0200875D01*
X0082056Y0198375D01*
X0087056Y0198375D01*
X0089556Y0200875D01*
X0089556Y0215875D01*
X0092056Y0218375D01*
X0097056Y0218375D01*
X0099556Y0215875D01*
X0099556Y0200875D01*
X0097056Y0198375D01*
X0092056Y0198375D01*
X0089556Y0200875D01*
X0099556Y0200875D02*
X0102056Y0198375D01*
X0107056Y0198375D01*
X0109556Y0200875D01*
X0109556Y0215875D01*
X0112056Y0218375D01*
X0117056Y0218375D01*
X0119556Y0215875D01*
X0119556Y0200875D01*
X0117056Y0198375D01*
X0112056Y0198375D01*
X0109556Y0200875D01*
X0119556Y0200875D02*
X0122056Y0198375D01*
X0127056Y0198375D01*
X0129556Y0200875D01*
X0129556Y0215875D01*
X0132056Y0218375D01*
X0137056Y0218375D01*
X0139556Y0215875D01*
X0139556Y0200875D01*
X0137056Y0198375D01*
X0132056Y0198375D01*
X0129556Y0200875D01*
X0139556Y0200875D02*
X0142056Y0198375D01*
X0147056Y0198375D01*
X0149556Y0200875D01*
X0149556Y0215875D01*
X0152056Y0218375D01*
X0157056Y0218375D01*
X0159556Y0215875D01*
X0159556Y0200875D01*
X0157056Y0198375D01*
X0152056Y0198375D01*
X0149556Y0200875D01*
X0159556Y0200875D02*
X0162056Y0198375D01*
X0167056Y0198375D01*
X0169556Y0200875D01*
X0169556Y0215875D01*
X0172056Y0218375D01*
X0177056Y0218375D01*
X0179556Y0215875D01*
X0179556Y0200875D01*
X0177056Y0198375D01*
X0172056Y0198375D01*
X0169556Y0200875D01*
X0179556Y0200875D02*
X0182056Y0198375D01*
X0187056Y0198375D01*
X0189556Y0200875D01*
X0189556Y0215875D01*
X0192056Y0218375D01*
X0197056Y0218375D01*
X0199556Y0215875D01*
X0199556Y0200875D01*
X0197056Y0198375D01*
X0192056Y0198375D01*
X0189556Y0200875D01*
X0199556Y0200875D02*
X0202056Y0198375D01*
X0207056Y0198375D01*
X0209556Y0200875D01*
X0209556Y0215875D01*
X0212056Y0218375D01*
X0217056Y0218375D01*
X0219556Y0215875D01*
X0222056Y0218375D01*
X0227056Y0218375D01*
X0229556Y0215875D01*
X0229556Y0200875D01*
X0227056Y0198375D01*
X0222056Y0198375D01*
X0219556Y0200875D01*
X0219556Y0215875D01*
X0209556Y0215875D02*
X0207056Y0218375D01*
X0202056Y0218375D01*
X0199556Y0215875D01*
X0189556Y0215875D02*
X0187056Y0218375D01*
X0182056Y0218375D01*
X0179556Y0215875D01*
X0169556Y0215875D02*
X0167056Y0218375D01*
X0162056Y0218375D01*
X0159556Y0215875D01*
X0149556Y0215875D02*
X0147056Y0218375D01*
X0142056Y0218375D01*
X0139556Y0215875D01*
X0129556Y0215875D02*
X0127056Y0218375D01*
X0122056Y0218375D01*
X0119556Y0215875D01*
X0109556Y0215875D02*
X0107056Y0218375D01*
X0102056Y0218375D01*
X0099556Y0215875D01*
X0089556Y0215875D02*
X0087056Y0218375D01*
X0082056Y0218375D01*
X0079556Y0215875D01*
X0069556Y0215875D02*
X0067056Y0218375D01*
X0062056Y0218375D01*
X0059556Y0215875D01*
X0049556Y0215875D02*
X0047056Y0218375D01*
X0042056Y0218375D01*
X0039556Y0215875D01*
X0039556Y0200875D02*
X0037056Y0198375D01*
X0049556Y0200875D02*
X0052056Y0198375D01*
X0057056Y0198375D01*
X0059556Y0200875D01*
X0069556Y0200875D02*
X0072056Y0198375D01*
X0077056Y0198375D01*
X0079556Y0200875D01*
X0209556Y0200875D02*
X0212056Y0198375D01*
X0217056Y0198375D01*
X0219556Y0200875D01*
D11*
X0001800Y0224241D02*
X0001800Y0001800D01*
X0257706Y0001800D01*
X0257706Y0224241D01*
X0001800Y0224241D01*
D12*
X0029806Y0221875D02*
X0030557Y0221125D01*
X0031307Y0221125D01*
X0032058Y0221875D01*
X0032058Y0225629D01*
X0032808Y0225629D02*
X0031307Y0225629D01*
X0034410Y0225629D02*
X0036662Y0225629D01*
X0037412Y0224878D01*
X0037412Y0223377D01*
X0036662Y0222626D01*
X0034410Y0222626D01*
X0034410Y0221125D02*
X0034410Y0225629D01*
X0039014Y0224127D02*
X0040515Y0225629D01*
X0040515Y0221125D01*
X0039014Y0221125D02*
X0042016Y0221125D01*
X0046864Y0193156D02*
X0046113Y0192406D01*
X0046113Y0189403D01*
X0046864Y0188652D01*
X0048365Y0188652D01*
X0049116Y0189403D01*
X0050717Y0188652D02*
X0053719Y0191655D01*
X0053719Y0192406D01*
X0052969Y0193156D01*
X0051468Y0193156D01*
X0050717Y0192406D01*
X0049116Y0192406D02*
X0048365Y0193156D01*
X0046864Y0193156D01*
X0050717Y0188652D02*
X0053719Y0188652D01*
X0027893Y0188692D02*
X0024890Y0188692D01*
X0026391Y0188692D02*
X0026391Y0193196D01*
X0024890Y0191694D01*
X0023289Y0192445D02*
X0022538Y0193196D01*
X0021037Y0193196D01*
X0020286Y0192445D01*
X0020286Y0189442D01*
X0021037Y0188692D01*
X0022538Y0188692D01*
X0023289Y0189442D01*
X0135546Y0130734D02*
X0135546Y0129233D01*
X0136297Y0128482D01*
X0136297Y0126881D02*
X0135546Y0126130D01*
X0135546Y0124629D01*
X0136297Y0123878D01*
X0137047Y0123878D01*
X0137798Y0124629D01*
X0137798Y0126130D01*
X0138549Y0126881D01*
X0139299Y0126881D01*
X0140050Y0126130D01*
X0140050Y0124629D01*
X0139299Y0123878D01*
X0139299Y0122277D02*
X0135546Y0122277D01*
X0135546Y0119274D02*
X0139299Y0119274D01*
X0140050Y0120025D01*
X0140050Y0121526D01*
X0139299Y0122277D01*
X0140801Y0125380D02*
X0134796Y0125380D01*
X0140050Y0128482D02*
X0137047Y0131485D01*
X0136297Y0131485D01*
X0135546Y0130734D01*
X0140050Y0131485D02*
X0140050Y0128482D01*
X0152155Y0165291D02*
X0152155Y0189191D01*
X0199555Y0189191D01*
X0199555Y0165291D01*
X0152155Y0165291D01*
X0165555Y0165391D02*
X0165555Y0167491D01*
X0166155Y0167491D01*
X0166155Y0165691D01*
X0175555Y0165391D02*
X0175555Y0167491D01*
X0176155Y0167491D01*
X0176155Y0165691D01*
X0185555Y0165391D02*
X0185555Y0167491D01*
X0186155Y0167491D01*
X0186155Y0165691D01*
X0207215Y0153862D02*
X0207215Y0150860D01*
X0207966Y0150109D01*
X0209467Y0150109D01*
X0210218Y0150860D01*
X0211819Y0150860D02*
X0212570Y0150109D01*
X0214071Y0150109D01*
X0214822Y0150860D01*
X0214822Y0152361D01*
X0214071Y0153112D01*
X0213321Y0153112D01*
X0211819Y0152361D01*
X0211819Y0154613D01*
X0214822Y0154613D01*
X0210218Y0153862D02*
X0209467Y0154613D01*
X0207966Y0154613D01*
X0207215Y0153862D01*
X0207302Y0132054D02*
X0205801Y0132054D01*
X0205050Y0131303D01*
X0205050Y0128301D01*
X0205801Y0127550D01*
X0207302Y0127550D01*
X0208053Y0128301D01*
X0209654Y0128301D02*
X0210405Y0127550D01*
X0211906Y0127550D01*
X0212656Y0128301D01*
X0212656Y0129051D01*
X0211906Y0129802D01*
X0211155Y0129802D01*
X0211906Y0129802D02*
X0212656Y0130553D01*
X0212656Y0131303D01*
X0211906Y0132054D01*
X0210405Y0132054D01*
X0209654Y0131303D01*
X0208053Y0131303D02*
X0207302Y0132054D01*
X0207302Y0117054D02*
X0205801Y0117054D01*
X0205050Y0116303D01*
X0205050Y0113301D01*
X0205801Y0112550D01*
X0207302Y0112550D01*
X0208053Y0113301D01*
X0209654Y0114802D02*
X0212656Y0114802D01*
X0211906Y0117054D02*
X0209654Y0114802D01*
X0208053Y0116303D02*
X0207302Y0117054D01*
X0211906Y0117054D02*
X0211906Y0112550D01*
X0144286Y0065915D02*
X0144286Y0062912D01*
X0144286Y0064413D02*
X0139782Y0064413D01*
X0141284Y0062912D01*
X0140533Y0061311D02*
X0139782Y0060560D01*
X0139782Y0059059D01*
X0140533Y0058308D01*
X0143536Y0058308D01*
X0144286Y0059059D01*
X0144286Y0060560D01*
X0143536Y0061311D01*
X0144286Y0056740D02*
X0144286Y0055239D01*
X0144286Y0055990D02*
X0139782Y0055990D01*
X0139782Y0056740D02*
X0139782Y0055239D01*
X0165585Y0051203D02*
X0165585Y0046700D01*
X0167837Y0046700D01*
X0168588Y0047450D01*
X0168588Y0050453D01*
X0167837Y0051203D01*
X0165585Y0051203D01*
X0170189Y0049702D02*
X0171691Y0051203D01*
X0171691Y0046700D01*
X0173192Y0046700D02*
X0170189Y0046700D01*
X0171334Y0035022D02*
X0170583Y0034272D01*
X0171334Y0035022D02*
X0172835Y0035022D01*
X0173586Y0034272D01*
X0173586Y0033521D01*
X0170583Y0030519D01*
X0173586Y0030519D01*
X0168982Y0031269D02*
X0168982Y0034272D01*
X0168231Y0035022D01*
X0165979Y0035022D01*
X0165979Y0030519D01*
X0168231Y0030519D01*
X0168982Y0031269D01*
D13*
X0131406Y0035028D02*
X0131406Y0105028D01*
X0147036Y0079989D02*
X0147036Y0063989D01*
X0147036Y0065989D01*
X0147036Y0063989D02*
X0147036Y0059989D01*
X0187036Y0059989D01*
X0187036Y0079989D01*
X0147036Y0079989D01*
X0026406Y0090028D02*
X0026406Y0105028D01*
X0026406Y0050028D02*
X0026406Y0035028D01*
X0209811Y0179083D02*
X0209814Y0179361D01*
X0209825Y0179638D01*
X0209842Y0179916D01*
X0209866Y0180193D01*
X0209896Y0180469D01*
X0209934Y0180744D01*
X0209978Y0181018D01*
X0210029Y0181291D01*
X0210086Y0181563D01*
X0210150Y0181834D01*
X0210221Y0182102D01*
X0210298Y0182369D01*
X0210382Y0182634D01*
X0210473Y0182897D01*
X0210570Y0183157D01*
X0210673Y0183415D01*
X0210782Y0183670D01*
X0210898Y0183923D01*
X0211020Y0184173D01*
X0211148Y0184419D01*
X0211282Y0184663D01*
X0211422Y0184903D01*
X0211567Y0185139D01*
X0211719Y0185372D01*
X0211876Y0185601D01*
X0212039Y0185826D01*
X0212207Y0186047D01*
X0212381Y0186264D01*
X0212559Y0186477D01*
X0212743Y0186685D01*
X0212933Y0186889D01*
X0213127Y0187087D01*
X0213325Y0187281D01*
X0213529Y0187471D01*
X0213737Y0187655D01*
X0213950Y0187833D01*
X0214167Y0188007D01*
X0214388Y0188175D01*
X0214613Y0188338D01*
X0214842Y0188495D01*
X0215075Y0188647D01*
X0215311Y0188792D01*
X0215551Y0188932D01*
X0215795Y0189066D01*
X0216041Y0189194D01*
X0216291Y0189316D01*
X0216544Y0189432D01*
X0216799Y0189541D01*
X0217057Y0189644D01*
X0217317Y0189741D01*
X0217580Y0189832D01*
X0217845Y0189916D01*
X0218112Y0189993D01*
X0218380Y0190064D01*
X0218651Y0190128D01*
X0218923Y0190185D01*
X0219196Y0190236D01*
X0219470Y0190280D01*
X0219745Y0190318D01*
X0220021Y0190348D01*
X0220298Y0190372D01*
X0220576Y0190389D01*
X0220853Y0190400D01*
X0221131Y0190403D01*
X0221409Y0190400D01*
X0221686Y0190389D01*
X0221964Y0190372D01*
X0222241Y0190348D01*
X0222517Y0190318D01*
X0222792Y0190280D01*
X0223066Y0190236D01*
X0223339Y0190185D01*
X0223611Y0190128D01*
X0223882Y0190064D01*
X0224150Y0189993D01*
X0224417Y0189916D01*
X0224682Y0189832D01*
X0224945Y0189741D01*
X0225205Y0189644D01*
X0225463Y0189541D01*
X0225718Y0189432D01*
X0225971Y0189316D01*
X0226221Y0189194D01*
X0226467Y0189066D01*
X0226711Y0188932D01*
X0226951Y0188792D01*
X0227187Y0188647D01*
X0227420Y0188495D01*
X0227649Y0188338D01*
X0227874Y0188175D01*
X0228095Y0188007D01*
X0228312Y0187833D01*
X0228525Y0187655D01*
X0228733Y0187471D01*
X0228937Y0187281D01*
X0229135Y0187087D01*
X0229329Y0186889D01*
X0229519Y0186685D01*
X0229703Y0186477D01*
X0229881Y0186264D01*
X0230055Y0186047D01*
X0230223Y0185826D01*
X0230386Y0185601D01*
X0230543Y0185372D01*
X0230695Y0185139D01*
X0230840Y0184903D01*
X0230980Y0184663D01*
X0231114Y0184419D01*
X0231242Y0184173D01*
X0231364Y0183923D01*
X0231480Y0183670D01*
X0231589Y0183415D01*
X0231692Y0183157D01*
X0231789Y0182897D01*
X0231880Y0182634D01*
X0231964Y0182369D01*
X0232041Y0182102D01*
X0232112Y0181834D01*
X0232176Y0181563D01*
X0232233Y0181291D01*
X0232284Y0181018D01*
X0232328Y0180744D01*
X0232366Y0180469D01*
X0232396Y0180193D01*
X0232420Y0179916D01*
X0232437Y0179638D01*
X0232448Y0179361D01*
X0232451Y0179083D01*
X0232448Y0178805D01*
X0232437Y0178528D01*
X0232420Y0178250D01*
X0232396Y0177973D01*
X0232366Y0177697D01*
X0232328Y0177422D01*
X0232284Y0177148D01*
X0232233Y0176875D01*
X0232176Y0176603D01*
X0232112Y0176332D01*
X0232041Y0176064D01*
X0231964Y0175797D01*
X0231880Y0175532D01*
X0231789Y0175269D01*
X0231692Y0175009D01*
X0231589Y0174751D01*
X0231480Y0174496D01*
X0231364Y0174243D01*
X0231242Y0173993D01*
X0231114Y0173747D01*
X0230980Y0173503D01*
X0230840Y0173263D01*
X0230695Y0173027D01*
X0230543Y0172794D01*
X0230386Y0172565D01*
X0230223Y0172340D01*
X0230055Y0172119D01*
X0229881Y0171902D01*
X0229703Y0171689D01*
X0229519Y0171481D01*
X0229329Y0171277D01*
X0229135Y0171079D01*
X0228937Y0170885D01*
X0228733Y0170695D01*
X0228525Y0170511D01*
X0228312Y0170333D01*
X0228095Y0170159D01*
X0227874Y0169991D01*
X0227649Y0169828D01*
X0227420Y0169671D01*
X0227187Y0169519D01*
X0226951Y0169374D01*
X0226711Y0169234D01*
X0226467Y0169100D01*
X0226221Y0168972D01*
X0225971Y0168850D01*
X0225718Y0168734D01*
X0225463Y0168625D01*
X0225205Y0168522D01*
X0224945Y0168425D01*
X0224682Y0168334D01*
X0224417Y0168250D01*
X0224150Y0168173D01*
X0223882Y0168102D01*
X0223611Y0168038D01*
X0223339Y0167981D01*
X0223066Y0167930D01*
X0222792Y0167886D01*
X0222517Y0167848D01*
X0222241Y0167818D01*
X0221964Y0167794D01*
X0221686Y0167777D01*
X0221409Y0167766D01*
X0221131Y0167763D01*
X0220853Y0167766D01*
X0220576Y0167777D01*
X0220298Y0167794D01*
X0220021Y0167818D01*
X0219745Y0167848D01*
X0219470Y0167886D01*
X0219196Y0167930D01*
X0218923Y0167981D01*
X0218651Y0168038D01*
X0218380Y0168102D01*
X0218112Y0168173D01*
X0217845Y0168250D01*
X0217580Y0168334D01*
X0217317Y0168425D01*
X0217057Y0168522D01*
X0216799Y0168625D01*
X0216544Y0168734D01*
X0216291Y0168850D01*
X0216041Y0168972D01*
X0215795Y0169100D01*
X0215551Y0169234D01*
X0215311Y0169374D01*
X0215075Y0169519D01*
X0214842Y0169671D01*
X0214613Y0169828D01*
X0214388Y0169991D01*
X0214167Y0170159D01*
X0213950Y0170333D01*
X0213737Y0170511D01*
X0213529Y0170695D01*
X0213325Y0170885D01*
X0213127Y0171079D01*
X0212933Y0171277D01*
X0212743Y0171481D01*
X0212559Y0171689D01*
X0212381Y0171902D01*
X0212207Y0172119D01*
X0212039Y0172340D01*
X0211876Y0172565D01*
X0211719Y0172794D01*
X0211567Y0173027D01*
X0211422Y0173263D01*
X0211282Y0173503D01*
X0211148Y0173747D01*
X0211020Y0173993D01*
X0210898Y0174243D01*
X0210782Y0174496D01*
X0210673Y0174751D01*
X0210570Y0175009D01*
X0210473Y0175269D01*
X0210382Y0175532D01*
X0210298Y0175797D01*
X0210221Y0176064D01*
X0210150Y0176332D01*
X0210086Y0176603D01*
X0210029Y0176875D01*
X0209978Y0177148D01*
X0209934Y0177422D01*
X0209896Y0177697D01*
X0209866Y0177973D01*
X0209842Y0178250D01*
X0209825Y0178528D01*
X0209814Y0178805D01*
X0209811Y0179083D01*
D14*
X0211882Y0191882D02*
X0211882Y0196486D01*
X0213417Y0194951D01*
X0214951Y0196486D01*
X0214951Y0191882D01*
X0216486Y0191882D02*
X0219555Y0191882D01*
X0218020Y0191882D02*
X0218020Y0196486D01*
X0216486Y0194951D01*
X0187340Y0183291D02*
X0184271Y0183291D01*
X0185805Y0183291D02*
X0185805Y0187894D01*
X0184271Y0186360D01*
X0181202Y0187894D02*
X0181202Y0183291D01*
X0182736Y0183291D02*
X0179667Y0183291D01*
X0179667Y0186360D02*
X0181202Y0187894D01*
X0178132Y0187894D02*
X0175063Y0187894D01*
X0176598Y0187894D02*
X0176598Y0183291D01*
X0173528Y0183291D02*
X0173528Y0187894D01*
X0173528Y0185593D02*
X0170459Y0185593D01*
X0168924Y0184058D02*
X0168924Y0187127D01*
X0168157Y0187894D01*
X0165855Y0187894D01*
X0165855Y0183291D01*
X0168157Y0183291D01*
X0168924Y0184058D01*
X0170459Y0183291D02*
X0170459Y0187894D01*
X0127582Y0188496D02*
X0124513Y0188496D01*
X0127582Y0191565D01*
X0127582Y0192333D01*
X0126815Y0193100D01*
X0125280Y0193100D01*
X0124513Y0192333D01*
X0122978Y0192333D02*
X0122211Y0193100D01*
X0119909Y0193100D01*
X0119909Y0188496D01*
X0122211Y0188496D01*
X0122978Y0189263D01*
X0122978Y0192333D01*
X0118374Y0193100D02*
X0115305Y0193100D01*
X0115305Y0188496D01*
X0118374Y0188496D01*
X0116839Y0190798D02*
X0115305Y0190798D01*
X0113770Y0188496D02*
X0110701Y0188496D01*
X0110701Y0193100D01*
X0094157Y0188102D02*
X0091087Y0188102D01*
X0092622Y0188102D02*
X0092622Y0192706D01*
X0091087Y0191172D01*
X0089553Y0191939D02*
X0089553Y0188870D01*
X0088785Y0188102D01*
X0086483Y0188102D01*
X0086483Y0192706D01*
X0088785Y0192706D01*
X0089553Y0191939D01*
X0084949Y0192706D02*
X0081880Y0192706D01*
X0081880Y0188102D01*
X0084949Y0188102D01*
X0083414Y0190404D02*
X0081880Y0190404D01*
X0080345Y0188102D02*
X0077276Y0188102D01*
X0077276Y0192706D01*
X0036863Y0177185D02*
X0036863Y0174849D01*
X0036280Y0174265D01*
X0035112Y0174265D01*
X0034528Y0174849D01*
X0035112Y0176017D02*
X0036863Y0176017D01*
X0036863Y0177185D02*
X0036280Y0177768D01*
X0035112Y0177768D01*
X0034528Y0177185D01*
X0034528Y0176601D01*
X0035112Y0176017D01*
X0033272Y0176017D02*
X0032688Y0175433D01*
X0030937Y0175433D01*
X0030937Y0174265D02*
X0030937Y0177768D01*
X0032688Y0177768D01*
X0033272Y0177185D01*
X0033272Y0176017D01*
X0032105Y0175433D02*
X0033272Y0174265D01*
X0031901Y0164461D02*
X0032485Y0163877D01*
X0032485Y0162710D01*
X0031901Y0162126D01*
X0030150Y0162126D01*
X0031317Y0162126D02*
X0032485Y0160958D01*
X0033741Y0160958D02*
X0036076Y0160958D01*
X0034908Y0160958D02*
X0034908Y0164461D01*
X0033741Y0163294D01*
X0031901Y0164461D02*
X0030150Y0164461D01*
X0030150Y0160958D01*
X0037332Y0161542D02*
X0039667Y0163877D01*
X0039667Y0161542D01*
X0039083Y0160958D01*
X0037916Y0160958D01*
X0037332Y0161542D01*
X0037332Y0163877D01*
X0037916Y0164461D01*
X0039083Y0164461D01*
X0039667Y0163877D01*
X0040074Y0151548D02*
X0040074Y0148045D01*
X0038907Y0148045D02*
X0041242Y0148045D01*
X0038907Y0150380D02*
X0040074Y0151548D01*
X0036483Y0151548D02*
X0036483Y0148045D01*
X0035315Y0148045D02*
X0037651Y0148045D01*
X0035315Y0150380D02*
X0036483Y0151548D01*
X0034060Y0150964D02*
X0034060Y0149796D01*
X0033476Y0149213D01*
X0031724Y0149213D01*
X0032892Y0149213D02*
X0034060Y0148045D01*
X0031724Y0148045D02*
X0031724Y0151548D01*
X0033476Y0151548D01*
X0034060Y0150964D01*
X0033673Y0138320D02*
X0031921Y0138320D01*
X0031921Y0134817D01*
X0031921Y0135984D02*
X0033673Y0135984D01*
X0034257Y0136568D01*
X0034257Y0137736D01*
X0033673Y0138320D01*
X0035512Y0137152D02*
X0036680Y0138320D01*
X0036680Y0134817D01*
X0035512Y0134817D02*
X0037848Y0134817D01*
X0039103Y0134817D02*
X0041439Y0137152D01*
X0041439Y0137736D01*
X0040855Y0138320D01*
X0039687Y0138320D01*
X0039103Y0137736D01*
X0039103Y0134817D02*
X0041439Y0134817D01*
X0034257Y0134817D02*
X0033089Y0135984D01*
X0076016Y0136627D02*
X0076016Y0133124D01*
X0076016Y0134291D02*
X0077767Y0134291D01*
X0078351Y0134875D01*
X0078351Y0136043D01*
X0077767Y0136627D01*
X0076016Y0136627D01*
X0077183Y0134291D02*
X0078351Y0133124D01*
X0079607Y0133124D02*
X0081942Y0133124D01*
X0080774Y0133124D02*
X0080774Y0136627D01*
X0079607Y0135459D01*
X0079209Y0137157D02*
X0079209Y0141761D01*
X0081511Y0141761D01*
X0082279Y0140994D01*
X0082279Y0139459D01*
X0081511Y0138692D01*
X0079209Y0138692D01*
X0080744Y0138692D02*
X0082279Y0137157D01*
X0083198Y0136043D02*
X0083782Y0136627D01*
X0084949Y0136627D01*
X0085533Y0136043D01*
X0085533Y0135459D01*
X0084949Y0134875D01*
X0085533Y0134291D01*
X0085533Y0133707D01*
X0084949Y0133124D01*
X0083782Y0133124D01*
X0083198Y0133707D01*
X0084366Y0134875D02*
X0084949Y0134875D01*
X0083813Y0137157D02*
X0086883Y0140227D01*
X0086883Y0140994D01*
X0086115Y0141761D01*
X0084581Y0141761D01*
X0083813Y0140994D01*
X0083813Y0137157D02*
X0086883Y0137157D01*
X0086410Y0157630D02*
X0083341Y0157630D01*
X0084876Y0157630D02*
X0084876Y0162234D01*
X0083341Y0160699D01*
X0081806Y0159932D02*
X0081039Y0159165D01*
X0078737Y0159165D01*
X0080272Y0159165D02*
X0081806Y0157630D01*
X0081806Y0159932D02*
X0081806Y0161467D01*
X0081039Y0162234D01*
X0078737Y0162234D01*
X0078737Y0157630D01*
X0109753Y0159359D02*
X0109755Y0159538D01*
X0109762Y0159716D01*
X0109773Y0159895D01*
X0109788Y0160073D01*
X0109808Y0160251D01*
X0109832Y0160428D01*
X0109860Y0160604D01*
X0109893Y0160780D01*
X0109930Y0160955D01*
X0109971Y0161129D01*
X0110017Y0161301D01*
X0110067Y0161473D01*
X0110121Y0161644D01*
X0110179Y0161813D01*
X0110241Y0161980D01*
X0110307Y0162146D01*
X0110378Y0162310D01*
X0110452Y0162473D01*
X0110531Y0162634D01*
X0110613Y0162792D01*
X0110699Y0162949D01*
X0110789Y0163103D01*
X0110883Y0163255D01*
X0110980Y0163405D01*
X0111082Y0163553D01*
X0111186Y0163697D01*
X0111294Y0163840D01*
X0111406Y0163979D01*
X0111521Y0164116D01*
X0111640Y0164250D01*
X0111761Y0164381D01*
X0111886Y0164509D01*
X0112014Y0164634D01*
X0112145Y0164755D01*
X0112279Y0164874D01*
X0112416Y0164989D01*
X0112555Y0165101D01*
X0112698Y0165209D01*
X0112842Y0165313D01*
X0112990Y0165415D01*
X0113140Y0165512D01*
X0113292Y0165606D01*
X0113446Y0165696D01*
X0113603Y0165782D01*
X0113761Y0165864D01*
X0113922Y0165943D01*
X0114085Y0166017D01*
X0114249Y0166088D01*
X0114415Y0166154D01*
X0114582Y0166216D01*
X0114751Y0166274D01*
X0114922Y0166328D01*
X0115094Y0166378D01*
X0115266Y0166424D01*
X0115440Y0166465D01*
X0115615Y0166502D01*
X0115791Y0166535D01*
X0115967Y0166563D01*
X0116144Y0166587D01*
X0116322Y0166607D01*
X0116500Y0166622D01*
X0116679Y0166633D01*
X0116857Y0166640D01*
X0117036Y0166642D01*
X0117215Y0166640D01*
X0117393Y0166633D01*
X0117572Y0166622D01*
X0117750Y0166607D01*
X0117928Y0166587D01*
X0118105Y0166563D01*
X0118281Y0166535D01*
X0118457Y0166502D01*
X0118632Y0166465D01*
X0118806Y0166424D01*
X0118978Y0166378D01*
X0119150Y0166328D01*
X0119321Y0166274D01*
X0119490Y0166216D01*
X0119657Y0166154D01*
X0119823Y0166088D01*
X0119987Y0166017D01*
X0120150Y0165943D01*
X0120311Y0165864D01*
X0120469Y0165782D01*
X0120626Y0165696D01*
X0120780Y0165606D01*
X0120932Y0165512D01*
X0121082Y0165415D01*
X0121230Y0165313D01*
X0121374Y0165209D01*
X0121517Y0165101D01*
X0121656Y0164989D01*
X0121793Y0164874D01*
X0121927Y0164755D01*
X0122058Y0164634D01*
X0122186Y0164509D01*
X0122311Y0164381D01*
X0122432Y0164250D01*
X0122551Y0164116D01*
X0122666Y0163979D01*
X0122778Y0163840D01*
X0122886Y0163697D01*
X0122990Y0163553D01*
X0123092Y0163405D01*
X0123189Y0163255D01*
X0123283Y0163103D01*
X0123373Y0162949D01*
X0123459Y0162792D01*
X0123541Y0162634D01*
X0123620Y0162473D01*
X0123694Y0162310D01*
X0123765Y0162146D01*
X0123831Y0161980D01*
X0123893Y0161813D01*
X0123951Y0161644D01*
X0124005Y0161473D01*
X0124055Y0161301D01*
X0124101Y0161129D01*
X0124142Y0160955D01*
X0124179Y0160780D01*
X0124212Y0160604D01*
X0124240Y0160428D01*
X0124264Y0160251D01*
X0124284Y0160073D01*
X0124299Y0159895D01*
X0124310Y0159716D01*
X0124317Y0159538D01*
X0124319Y0159359D01*
X0124317Y0159180D01*
X0124310Y0159002D01*
X0124299Y0158823D01*
X0124284Y0158645D01*
X0124264Y0158467D01*
X0124240Y0158290D01*
X0124212Y0158114D01*
X0124179Y0157938D01*
X0124142Y0157763D01*
X0124101Y0157589D01*
X0124055Y0157417D01*
X0124005Y0157245D01*
X0123951Y0157074D01*
X0123893Y0156905D01*
X0123831Y0156738D01*
X0123765Y0156572D01*
X0123694Y0156408D01*
X0123620Y0156245D01*
X0123541Y0156084D01*
X0123459Y0155926D01*
X0123373Y0155769D01*
X0123283Y0155615D01*
X0123189Y0155463D01*
X0123092Y0155313D01*
X0122990Y0155165D01*
X0122886Y0155021D01*
X0122778Y0154878D01*
X0122666Y0154739D01*
X0122551Y0154602D01*
X0122432Y0154468D01*
X0122311Y0154337D01*
X0122186Y0154209D01*
X0122058Y0154084D01*
X0121927Y0153963D01*
X0121793Y0153844D01*
X0121656Y0153729D01*
X0121517Y0153617D01*
X0121374Y0153509D01*
X0121230Y0153405D01*
X0121082Y0153303D01*
X0120932Y0153206D01*
X0120780Y0153112D01*
X0120626Y0153022D01*
X0120469Y0152936D01*
X0120311Y0152854D01*
X0120150Y0152775D01*
X0119987Y0152701D01*
X0119823Y0152630D01*
X0119657Y0152564D01*
X0119490Y0152502D01*
X0119321Y0152444D01*
X0119150Y0152390D01*
X0118978Y0152340D01*
X0118806Y0152294D01*
X0118632Y0152253D01*
X0118457Y0152216D01*
X0118281Y0152183D01*
X0118105Y0152155D01*
X0117928Y0152131D01*
X0117750Y0152111D01*
X0117572Y0152096D01*
X0117393Y0152085D01*
X0117215Y0152078D01*
X0117036Y0152076D01*
X0116857Y0152078D01*
X0116679Y0152085D01*
X0116500Y0152096D01*
X0116322Y0152111D01*
X0116144Y0152131D01*
X0115967Y0152155D01*
X0115791Y0152183D01*
X0115615Y0152216D01*
X0115440Y0152253D01*
X0115266Y0152294D01*
X0115094Y0152340D01*
X0114922Y0152390D01*
X0114751Y0152444D01*
X0114582Y0152502D01*
X0114415Y0152564D01*
X0114249Y0152630D01*
X0114085Y0152701D01*
X0113922Y0152775D01*
X0113761Y0152854D01*
X0113603Y0152936D01*
X0113446Y0153022D01*
X0113292Y0153112D01*
X0113140Y0153206D01*
X0112990Y0153303D01*
X0112842Y0153405D01*
X0112698Y0153509D01*
X0112555Y0153617D01*
X0112416Y0153729D01*
X0112279Y0153844D01*
X0112145Y0153963D01*
X0112014Y0154084D01*
X0111886Y0154209D01*
X0111761Y0154337D01*
X0111640Y0154468D01*
X0111521Y0154602D01*
X0111406Y0154739D01*
X0111294Y0154878D01*
X0111186Y0155021D01*
X0111082Y0155165D01*
X0110980Y0155313D01*
X0110883Y0155463D01*
X0110789Y0155615D01*
X0110699Y0155769D01*
X0110613Y0155926D01*
X0110531Y0156084D01*
X0110452Y0156245D01*
X0110378Y0156408D01*
X0110307Y0156572D01*
X0110241Y0156738D01*
X0110179Y0156905D01*
X0110121Y0157074D01*
X0110067Y0157245D01*
X0110017Y0157417D01*
X0109971Y0157589D01*
X0109930Y0157763D01*
X0109893Y0157938D01*
X0109860Y0158114D01*
X0109832Y0158290D01*
X0109808Y0158467D01*
X0109788Y0158645D01*
X0109773Y0158823D01*
X0109762Y0159002D01*
X0109755Y0159180D01*
X0109753Y0159359D01*
X0118028Y0147844D02*
X0120330Y0147844D01*
X0121098Y0147077D01*
X0121098Y0145542D01*
X0120330Y0144775D01*
X0118028Y0144775D01*
X0118028Y0143240D02*
X0118028Y0147844D01*
X0119563Y0144775D02*
X0121098Y0143240D01*
X0122632Y0144007D02*
X0123400Y0143240D01*
X0124934Y0143240D01*
X0125702Y0144007D01*
X0125702Y0144775D01*
X0124934Y0145542D01*
X0124167Y0145542D01*
X0124934Y0145542D02*
X0125702Y0146309D01*
X0125702Y0147077D01*
X0124934Y0147844D01*
X0123400Y0147844D01*
X0122632Y0147077D01*
X0204100Y0095103D02*
X0204100Y0091600D01*
X0204100Y0092768D02*
X0205851Y0092768D01*
X0206435Y0093351D01*
X0206435Y0094519D01*
X0205851Y0095103D01*
X0204100Y0095103D01*
X0205268Y0092768D02*
X0206435Y0091600D01*
X0207691Y0093351D02*
X0210026Y0093351D01*
X0209443Y0091600D02*
X0209443Y0095103D01*
X0207691Y0093351D01*
X0207691Y0085103D02*
X0207691Y0083351D01*
X0208859Y0083935D01*
X0209443Y0083935D01*
X0210026Y0083351D01*
X0210026Y0082184D01*
X0209443Y0081600D01*
X0208275Y0081600D01*
X0207691Y0082184D01*
X0206435Y0081600D02*
X0205268Y0082768D01*
X0205851Y0082768D02*
X0204100Y0082768D01*
X0204100Y0081600D02*
X0204100Y0085103D01*
X0205851Y0085103D01*
X0206435Y0084519D01*
X0206435Y0083351D01*
X0205851Y0082768D01*
X0207691Y0085103D02*
X0210026Y0085103D01*
X0210026Y0075103D02*
X0208859Y0074519D01*
X0207691Y0073351D01*
X0209443Y0073351D01*
X0210026Y0072768D01*
X0210026Y0072184D01*
X0209443Y0071600D01*
X0208275Y0071600D01*
X0207691Y0072184D01*
X0207691Y0073351D01*
X0206435Y0073351D02*
X0205851Y0072768D01*
X0204100Y0072768D01*
X0205268Y0072768D02*
X0206435Y0071600D01*
X0206435Y0073351D02*
X0206435Y0074519D01*
X0205851Y0075103D01*
X0204100Y0075103D01*
X0204100Y0071600D01*
X0204100Y0065103D02*
X0205851Y0065103D01*
X0206435Y0064519D01*
X0206435Y0063351D01*
X0205851Y0062768D01*
X0204100Y0062768D01*
X0205268Y0062768D02*
X0206435Y0061600D01*
X0207691Y0061600D02*
X0207691Y0062184D01*
X0210026Y0064519D01*
X0210026Y0065103D01*
X0207691Y0065103D01*
X0204100Y0065103D02*
X0204100Y0061600D01*
D15*
X0084290Y0180196D03*
X0084290Y0185609D03*
X0117715Y0186003D03*
X0117715Y0180589D03*
D16*
X0116190Y0183296D03*
X0082765Y0182902D03*
D17*
X0143271Y0134493D02*
X0143271Y0133953D01*
X0143270Y0133954D02*
X0143201Y0133950D01*
X0143132Y0133942D01*
X0143063Y0133931D01*
X0142996Y0133916D01*
X0142929Y0133897D01*
X0142864Y0133874D01*
X0142800Y0133848D01*
X0142737Y0133818D01*
X0142676Y0133784D01*
X0142618Y0133747D01*
X0142561Y0133707D01*
X0142507Y0133664D01*
X0142455Y0133618D01*
X0142406Y0133569D01*
X0142360Y0133517D01*
X0142317Y0133463D01*
X0142277Y0133406D01*
X0142240Y0133348D01*
X0142206Y0133287D01*
X0142176Y0133224D01*
X0142150Y0133160D01*
X0142127Y0133095D01*
X0142108Y0133028D01*
X0142093Y0132961D01*
X0142082Y0132892D01*
X0142074Y0132823D01*
X0142070Y0132754D01*
X0141531Y0132753D01*
X0141530Y0132754D01*
X0141534Y0132836D01*
X0141541Y0132918D01*
X0141552Y0133000D01*
X0141566Y0133081D01*
X0141585Y0133162D01*
X0141607Y0133241D01*
X0141633Y0133319D01*
X0141663Y0133396D01*
X0141696Y0133472D01*
X0141732Y0133546D01*
X0141772Y0133618D01*
X0141815Y0133688D01*
X0141862Y0133756D01*
X0141912Y0133822D01*
X0141964Y0133885D01*
X0142020Y0133946D01*
X0142078Y0134004D01*
X0142139Y0134060D01*
X0142202Y0134112D01*
X0142268Y0134162D01*
X0142336Y0134209D01*
X0142406Y0134252D01*
X0142478Y0134292D01*
X0142552Y0134328D01*
X0142628Y0134361D01*
X0142705Y0134391D01*
X0142783Y0134417D01*
X0142862Y0134439D01*
X0142943Y0134458D01*
X0143024Y0134472D01*
X0143106Y0134483D01*
X0143188Y0134490D01*
X0143270Y0134494D01*
X0143270Y0134438D01*
X0143190Y0134434D01*
X0143111Y0134428D01*
X0143032Y0134417D01*
X0142953Y0134403D01*
X0142876Y0134385D01*
X0142799Y0134363D01*
X0142723Y0134338D01*
X0142649Y0134309D01*
X0142576Y0134277D01*
X0142504Y0134242D01*
X0142434Y0134203D01*
X0142366Y0134161D01*
X0142301Y0134116D01*
X0142237Y0134068D01*
X0142176Y0134018D01*
X0142117Y0133964D01*
X0142060Y0133907D01*
X0142006Y0133848D01*
X0141956Y0133787D01*
X0141908Y0133723D01*
X0141863Y0133658D01*
X0141821Y0133590D01*
X0141782Y0133520D01*
X0141747Y0133448D01*
X0141715Y0133375D01*
X0141686Y0133301D01*
X0141661Y0133225D01*
X0141639Y0133148D01*
X0141621Y0133071D01*
X0141607Y0132992D01*
X0141596Y0132913D01*
X0141590Y0132834D01*
X0141586Y0132754D01*
X0141642Y0132754D01*
X0141646Y0132833D01*
X0141653Y0132913D01*
X0141664Y0132991D01*
X0141678Y0133069D01*
X0141697Y0133147D01*
X0141719Y0133223D01*
X0141745Y0133298D01*
X0141774Y0133372D01*
X0141807Y0133445D01*
X0141843Y0133515D01*
X0141883Y0133584D01*
X0141926Y0133651D01*
X0141972Y0133716D01*
X0142021Y0133779D01*
X0142073Y0133839D01*
X0142128Y0133896D01*
X0142185Y0133951D01*
X0142245Y0134003D01*
X0142308Y0134052D01*
X0142373Y0134098D01*
X0142440Y0134141D01*
X0142509Y0134181D01*
X0142579Y0134217D01*
X0142652Y0134250D01*
X0142726Y0134279D01*
X0142801Y0134305D01*
X0142877Y0134327D01*
X0142955Y0134346D01*
X0143033Y0134360D01*
X0143111Y0134371D01*
X0143191Y0134378D01*
X0143270Y0134382D01*
X0143270Y0134326D01*
X0143191Y0134322D01*
X0143112Y0134315D01*
X0143034Y0134304D01*
X0142956Y0134289D01*
X0142879Y0134270D01*
X0142803Y0134247D01*
X0142728Y0134220D01*
X0142655Y0134190D01*
X0142583Y0134157D01*
X0142513Y0134120D01*
X0142445Y0134079D01*
X0142379Y0134035D01*
X0142316Y0133988D01*
X0142254Y0133938D01*
X0142196Y0133884D01*
X0142140Y0133828D01*
X0142086Y0133770D01*
X0142036Y0133708D01*
X0141989Y0133645D01*
X0141945Y0133579D01*
X0141904Y0133511D01*
X0141867Y0133441D01*
X0141834Y0133369D01*
X0141804Y0133296D01*
X0141777Y0133221D01*
X0141754Y0133145D01*
X0141735Y0133068D01*
X0141720Y0132990D01*
X0141709Y0132912D01*
X0141702Y0132833D01*
X0141698Y0132754D01*
X0141754Y0132754D01*
X0141758Y0132830D01*
X0141765Y0132906D01*
X0141776Y0132982D01*
X0141790Y0133057D01*
X0141809Y0133131D01*
X0141831Y0133204D01*
X0141856Y0133276D01*
X0141885Y0133347D01*
X0141918Y0133416D01*
X0141953Y0133484D01*
X0141993Y0133549D01*
X0142035Y0133613D01*
X0142080Y0133674D01*
X0142129Y0133733D01*
X0142180Y0133790D01*
X0142234Y0133844D01*
X0142291Y0133895D01*
X0142350Y0133944D01*
X0142411Y0133989D01*
X0142475Y0134031D01*
X0142540Y0134071D01*
X0142608Y0134106D01*
X0142677Y0134139D01*
X0142748Y0134168D01*
X0142820Y0134193D01*
X0142893Y0134215D01*
X0142967Y0134234D01*
X0143042Y0134248D01*
X0143118Y0134259D01*
X0143194Y0134266D01*
X0143270Y0134270D01*
X0143270Y0134214D01*
X0143194Y0134210D01*
X0143118Y0134203D01*
X0143043Y0134192D01*
X0142969Y0134177D01*
X0142895Y0134158D01*
X0142822Y0134135D01*
X0142751Y0134109D01*
X0142681Y0134079D01*
X0142613Y0134046D01*
X0142546Y0134009D01*
X0142482Y0133969D01*
X0142419Y0133926D01*
X0142359Y0133879D01*
X0142302Y0133830D01*
X0142246Y0133778D01*
X0142194Y0133722D01*
X0142145Y0133665D01*
X0142098Y0133605D01*
X0142055Y0133542D01*
X0142015Y0133478D01*
X0141978Y0133411D01*
X0141945Y0133343D01*
X0141915Y0133273D01*
X0141889Y0133202D01*
X0141866Y0133129D01*
X0141847Y0133055D01*
X0141832Y0132981D01*
X0141821Y0132906D01*
X0141814Y0132830D01*
X0141810Y0132754D01*
X0141866Y0132754D01*
X0141870Y0132830D01*
X0141877Y0132905D01*
X0141889Y0132979D01*
X0141904Y0133053D01*
X0141924Y0133127D01*
X0141947Y0133199D01*
X0141974Y0133269D01*
X0142004Y0133338D01*
X0142038Y0133406D01*
X0142076Y0133471D01*
X0142117Y0133535D01*
X0142162Y0133596D01*
X0142209Y0133655D01*
X0142260Y0133711D01*
X0142313Y0133764D01*
X0142369Y0133815D01*
X0142428Y0133862D01*
X0142489Y0133907D01*
X0142553Y0133948D01*
X0142618Y0133986D01*
X0142686Y0134020D01*
X0142755Y0134050D01*
X0142825Y0134077D01*
X0142897Y0134100D01*
X0142971Y0134120D01*
X0143045Y0134135D01*
X0143119Y0134147D01*
X0143194Y0134154D01*
X0143270Y0134158D01*
X0143270Y0134102D01*
X0143198Y0134098D01*
X0143125Y0134091D01*
X0143054Y0134080D01*
X0142983Y0134065D01*
X0142912Y0134046D01*
X0142843Y0134024D01*
X0142776Y0133998D01*
X0142709Y0133969D01*
X0142645Y0133936D01*
X0142582Y0133900D01*
X0142521Y0133860D01*
X0142462Y0133818D01*
X0142406Y0133772D01*
X0142352Y0133724D01*
X0142300Y0133672D01*
X0142252Y0133618D01*
X0142206Y0133562D01*
X0142164Y0133503D01*
X0142124Y0133442D01*
X0142088Y0133379D01*
X0142055Y0133315D01*
X0142026Y0133248D01*
X0142000Y0133181D01*
X0141978Y0133112D01*
X0141959Y0133041D01*
X0141944Y0132970D01*
X0141933Y0132899D01*
X0141926Y0132826D01*
X0141922Y0132754D01*
X0141978Y0132754D01*
X0141982Y0132826D01*
X0141989Y0132898D01*
X0142001Y0132969D01*
X0142016Y0133039D01*
X0142035Y0133108D01*
X0142058Y0133177D01*
X0142084Y0133244D01*
X0142115Y0133309D01*
X0142148Y0133373D01*
X0142185Y0133435D01*
X0142226Y0133494D01*
X0142269Y0133552D01*
X0142316Y0133607D01*
X0142365Y0133659D01*
X0142417Y0133708D01*
X0142472Y0133755D01*
X0142530Y0133798D01*
X0142589Y0133839D01*
X0142651Y0133876D01*
X0142715Y0133909D01*
X0142780Y0133940D01*
X0142847Y0133966D01*
X0142916Y0133989D01*
X0142985Y0134008D01*
X0143055Y0134023D01*
X0143126Y0134035D01*
X0143198Y0134042D01*
X0143270Y0134046D01*
X0143270Y0133990D01*
X0143201Y0133986D01*
X0143133Y0133979D01*
X0143065Y0133968D01*
X0142997Y0133953D01*
X0142931Y0133935D01*
X0142866Y0133913D01*
X0142802Y0133888D01*
X0142739Y0133859D01*
X0142678Y0133827D01*
X0142619Y0133791D01*
X0142562Y0133753D01*
X0142507Y0133711D01*
X0142455Y0133667D01*
X0142405Y0133619D01*
X0142357Y0133569D01*
X0142313Y0133517D01*
X0142271Y0133462D01*
X0142233Y0133405D01*
X0142197Y0133346D01*
X0142165Y0133285D01*
X0142136Y0133222D01*
X0142111Y0133158D01*
X0142089Y0133093D01*
X0142071Y0133027D01*
X0142056Y0132959D01*
X0142045Y0132891D01*
X0142038Y0132823D01*
X0142034Y0132754D01*
X0141531Y0120295D02*
X0142071Y0120295D01*
X0142070Y0120294D02*
X0142074Y0120225D01*
X0142082Y0120156D01*
X0142093Y0120087D01*
X0142108Y0120020D01*
X0142127Y0119953D01*
X0142150Y0119888D01*
X0142176Y0119824D01*
X0142206Y0119761D01*
X0142240Y0119700D01*
X0142277Y0119642D01*
X0142317Y0119585D01*
X0142360Y0119531D01*
X0142406Y0119479D01*
X0142455Y0119430D01*
X0142507Y0119384D01*
X0142561Y0119341D01*
X0142618Y0119301D01*
X0142676Y0119264D01*
X0142737Y0119230D01*
X0142800Y0119200D01*
X0142864Y0119174D01*
X0142929Y0119151D01*
X0142996Y0119132D01*
X0143063Y0119117D01*
X0143132Y0119106D01*
X0143201Y0119098D01*
X0143270Y0119094D01*
X0143271Y0118555D01*
X0143270Y0118554D01*
X0143188Y0118558D01*
X0143106Y0118565D01*
X0143024Y0118576D01*
X0142943Y0118590D01*
X0142862Y0118609D01*
X0142783Y0118631D01*
X0142705Y0118657D01*
X0142628Y0118687D01*
X0142552Y0118720D01*
X0142478Y0118756D01*
X0142406Y0118796D01*
X0142336Y0118839D01*
X0142268Y0118886D01*
X0142202Y0118936D01*
X0142139Y0118988D01*
X0142078Y0119044D01*
X0142020Y0119102D01*
X0141964Y0119163D01*
X0141912Y0119226D01*
X0141862Y0119292D01*
X0141815Y0119360D01*
X0141772Y0119430D01*
X0141732Y0119502D01*
X0141696Y0119576D01*
X0141663Y0119652D01*
X0141633Y0119729D01*
X0141607Y0119807D01*
X0141585Y0119886D01*
X0141566Y0119967D01*
X0141552Y0120048D01*
X0141541Y0120130D01*
X0141534Y0120212D01*
X0141530Y0120294D01*
X0141586Y0120294D01*
X0141590Y0120214D01*
X0141596Y0120135D01*
X0141607Y0120056D01*
X0141621Y0119977D01*
X0141639Y0119900D01*
X0141661Y0119823D01*
X0141686Y0119747D01*
X0141715Y0119673D01*
X0141747Y0119600D01*
X0141782Y0119528D01*
X0141821Y0119458D01*
X0141863Y0119390D01*
X0141908Y0119325D01*
X0141956Y0119261D01*
X0142006Y0119200D01*
X0142060Y0119141D01*
X0142117Y0119084D01*
X0142176Y0119030D01*
X0142237Y0118980D01*
X0142301Y0118932D01*
X0142366Y0118887D01*
X0142434Y0118845D01*
X0142504Y0118806D01*
X0142576Y0118771D01*
X0142649Y0118739D01*
X0142723Y0118710D01*
X0142799Y0118685D01*
X0142876Y0118663D01*
X0142953Y0118645D01*
X0143032Y0118631D01*
X0143111Y0118620D01*
X0143190Y0118614D01*
X0143270Y0118610D01*
X0143270Y0118666D01*
X0143191Y0118670D01*
X0143111Y0118677D01*
X0143033Y0118688D01*
X0142955Y0118702D01*
X0142877Y0118721D01*
X0142801Y0118743D01*
X0142726Y0118769D01*
X0142652Y0118798D01*
X0142579Y0118831D01*
X0142509Y0118867D01*
X0142440Y0118907D01*
X0142373Y0118950D01*
X0142308Y0118996D01*
X0142245Y0119045D01*
X0142185Y0119097D01*
X0142128Y0119152D01*
X0142073Y0119209D01*
X0142021Y0119269D01*
X0141972Y0119332D01*
X0141926Y0119397D01*
X0141883Y0119464D01*
X0141843Y0119533D01*
X0141807Y0119603D01*
X0141774Y0119676D01*
X0141745Y0119750D01*
X0141719Y0119825D01*
X0141697Y0119901D01*
X0141678Y0119979D01*
X0141664Y0120057D01*
X0141653Y0120135D01*
X0141646Y0120215D01*
X0141642Y0120294D01*
X0141698Y0120294D01*
X0141702Y0120215D01*
X0141709Y0120136D01*
X0141720Y0120058D01*
X0141735Y0119980D01*
X0141754Y0119903D01*
X0141777Y0119827D01*
X0141804Y0119752D01*
X0141834Y0119679D01*
X0141867Y0119607D01*
X0141904Y0119537D01*
X0141945Y0119469D01*
X0141989Y0119403D01*
X0142036Y0119340D01*
X0142086Y0119278D01*
X0142140Y0119220D01*
X0142196Y0119164D01*
X0142254Y0119110D01*
X0142316Y0119060D01*
X0142379Y0119013D01*
X0142445Y0118969D01*
X0142513Y0118928D01*
X0142583Y0118891D01*
X0142655Y0118858D01*
X0142728Y0118828D01*
X0142803Y0118801D01*
X0142879Y0118778D01*
X0142956Y0118759D01*
X0143034Y0118744D01*
X0143112Y0118733D01*
X0143191Y0118726D01*
X0143270Y0118722D01*
X0143270Y0118778D01*
X0143194Y0118782D01*
X0143118Y0118789D01*
X0143042Y0118800D01*
X0142967Y0118814D01*
X0142893Y0118833D01*
X0142820Y0118855D01*
X0142748Y0118880D01*
X0142677Y0118909D01*
X0142608Y0118942D01*
X0142540Y0118977D01*
X0142475Y0119017D01*
X0142411Y0119059D01*
X0142350Y0119104D01*
X0142291Y0119153D01*
X0142234Y0119204D01*
X0142180Y0119258D01*
X0142129Y0119315D01*
X0142080Y0119374D01*
X0142035Y0119435D01*
X0141993Y0119499D01*
X0141953Y0119564D01*
X0141918Y0119632D01*
X0141885Y0119701D01*
X0141856Y0119772D01*
X0141831Y0119844D01*
X0141809Y0119917D01*
X0141790Y0119991D01*
X0141776Y0120066D01*
X0141765Y0120142D01*
X0141758Y0120218D01*
X0141754Y0120294D01*
X0141810Y0120294D01*
X0141814Y0120218D01*
X0141821Y0120142D01*
X0141832Y0120067D01*
X0141847Y0119993D01*
X0141866Y0119919D01*
X0141889Y0119846D01*
X0141915Y0119775D01*
X0141945Y0119705D01*
X0141978Y0119637D01*
X0142015Y0119570D01*
X0142055Y0119506D01*
X0142098Y0119443D01*
X0142145Y0119383D01*
X0142194Y0119326D01*
X0142246Y0119270D01*
X0142302Y0119218D01*
X0142359Y0119169D01*
X0142419Y0119122D01*
X0142482Y0119079D01*
X0142546Y0119039D01*
X0142613Y0119002D01*
X0142681Y0118969D01*
X0142751Y0118939D01*
X0142822Y0118913D01*
X0142895Y0118890D01*
X0142969Y0118871D01*
X0143043Y0118856D01*
X0143118Y0118845D01*
X0143194Y0118838D01*
X0143270Y0118834D01*
X0143270Y0118890D01*
X0143194Y0118894D01*
X0143119Y0118901D01*
X0143045Y0118913D01*
X0142971Y0118928D01*
X0142897Y0118948D01*
X0142825Y0118971D01*
X0142755Y0118998D01*
X0142686Y0119028D01*
X0142618Y0119062D01*
X0142553Y0119100D01*
X0142489Y0119141D01*
X0142428Y0119186D01*
X0142369Y0119233D01*
X0142313Y0119284D01*
X0142260Y0119337D01*
X0142209Y0119393D01*
X0142162Y0119452D01*
X0142117Y0119513D01*
X0142076Y0119577D01*
X0142038Y0119642D01*
X0142004Y0119710D01*
X0141974Y0119779D01*
X0141947Y0119849D01*
X0141924Y0119921D01*
X0141904Y0119995D01*
X0141889Y0120069D01*
X0141877Y0120143D01*
X0141870Y0120218D01*
X0141866Y0120294D01*
X0141922Y0120294D01*
X0141926Y0120222D01*
X0141933Y0120149D01*
X0141944Y0120078D01*
X0141959Y0120007D01*
X0141978Y0119936D01*
X0142000Y0119867D01*
X0142026Y0119800D01*
X0142055Y0119733D01*
X0142088Y0119669D01*
X0142124Y0119606D01*
X0142164Y0119545D01*
X0142206Y0119486D01*
X0142252Y0119430D01*
X0142300Y0119376D01*
X0142352Y0119324D01*
X0142406Y0119276D01*
X0142462Y0119230D01*
X0142521Y0119188D01*
X0142582Y0119148D01*
X0142645Y0119112D01*
X0142709Y0119079D01*
X0142776Y0119050D01*
X0142843Y0119024D01*
X0142912Y0119002D01*
X0142983Y0118983D01*
X0143054Y0118968D01*
X0143125Y0118957D01*
X0143198Y0118950D01*
X0143270Y0118946D01*
X0143270Y0119002D01*
X0143198Y0119006D01*
X0143126Y0119013D01*
X0143055Y0119025D01*
X0142985Y0119040D01*
X0142916Y0119059D01*
X0142847Y0119082D01*
X0142780Y0119108D01*
X0142715Y0119139D01*
X0142651Y0119172D01*
X0142589Y0119209D01*
X0142530Y0119250D01*
X0142472Y0119293D01*
X0142417Y0119340D01*
X0142365Y0119389D01*
X0142316Y0119441D01*
X0142269Y0119496D01*
X0142226Y0119554D01*
X0142185Y0119613D01*
X0142148Y0119675D01*
X0142115Y0119739D01*
X0142084Y0119804D01*
X0142058Y0119871D01*
X0142035Y0119940D01*
X0142016Y0120009D01*
X0142001Y0120079D01*
X0141989Y0120150D01*
X0141982Y0120222D01*
X0141978Y0120294D01*
X0142034Y0120294D01*
X0142038Y0120225D01*
X0142045Y0120157D01*
X0142056Y0120089D01*
X0142071Y0120021D01*
X0142089Y0119955D01*
X0142111Y0119890D01*
X0142136Y0119826D01*
X0142165Y0119763D01*
X0142197Y0119702D01*
X0142233Y0119643D01*
X0142271Y0119586D01*
X0142313Y0119531D01*
X0142357Y0119479D01*
X0142405Y0119429D01*
X0142455Y0119381D01*
X0142507Y0119337D01*
X0142562Y0119295D01*
X0142619Y0119257D01*
X0142678Y0119221D01*
X0142739Y0119189D01*
X0142802Y0119160D01*
X0142866Y0119135D01*
X0142931Y0119113D01*
X0142997Y0119095D01*
X0143065Y0119080D01*
X0143133Y0119069D01*
X0143201Y0119062D01*
X0143270Y0119058D01*
X0180329Y0118555D02*
X0180329Y0119095D01*
X0180330Y0119094D02*
X0180399Y0119098D01*
X0180468Y0119106D01*
X0180537Y0119117D01*
X0180604Y0119132D01*
X0180671Y0119151D01*
X0180736Y0119174D01*
X0180800Y0119200D01*
X0180863Y0119230D01*
X0180924Y0119264D01*
X0180982Y0119301D01*
X0181039Y0119341D01*
X0181093Y0119384D01*
X0181145Y0119430D01*
X0181194Y0119479D01*
X0181240Y0119531D01*
X0181283Y0119585D01*
X0181323Y0119642D01*
X0181360Y0119700D01*
X0181394Y0119761D01*
X0181424Y0119824D01*
X0181450Y0119888D01*
X0181473Y0119953D01*
X0181492Y0120020D01*
X0181507Y0120087D01*
X0181518Y0120156D01*
X0181526Y0120225D01*
X0181530Y0120294D01*
X0182069Y0120295D01*
X0182070Y0120294D01*
X0182066Y0120212D01*
X0182059Y0120130D01*
X0182048Y0120048D01*
X0182034Y0119967D01*
X0182015Y0119886D01*
X0181993Y0119807D01*
X0181967Y0119729D01*
X0181937Y0119652D01*
X0181904Y0119576D01*
X0181868Y0119502D01*
X0181828Y0119430D01*
X0181785Y0119360D01*
X0181738Y0119292D01*
X0181688Y0119226D01*
X0181636Y0119163D01*
X0181580Y0119102D01*
X0181522Y0119044D01*
X0181461Y0118988D01*
X0181398Y0118936D01*
X0181332Y0118886D01*
X0181264Y0118839D01*
X0181194Y0118796D01*
X0181122Y0118756D01*
X0181048Y0118720D01*
X0180972Y0118687D01*
X0180895Y0118657D01*
X0180817Y0118631D01*
X0180738Y0118609D01*
X0180657Y0118590D01*
X0180576Y0118576D01*
X0180494Y0118565D01*
X0180412Y0118558D01*
X0180330Y0118554D01*
X0180330Y0118610D01*
X0180410Y0118614D01*
X0180489Y0118620D01*
X0180568Y0118631D01*
X0180647Y0118645D01*
X0180724Y0118663D01*
X0180801Y0118685D01*
X0180877Y0118710D01*
X0180951Y0118739D01*
X0181024Y0118771D01*
X0181096Y0118806D01*
X0181166Y0118845D01*
X0181234Y0118887D01*
X0181299Y0118932D01*
X0181363Y0118980D01*
X0181424Y0119030D01*
X0181483Y0119084D01*
X0181540Y0119141D01*
X0181594Y0119200D01*
X0181644Y0119261D01*
X0181692Y0119325D01*
X0181737Y0119390D01*
X0181779Y0119458D01*
X0181818Y0119528D01*
X0181853Y0119600D01*
X0181885Y0119673D01*
X0181914Y0119747D01*
X0181939Y0119823D01*
X0181961Y0119900D01*
X0181979Y0119977D01*
X0181993Y0120056D01*
X0182004Y0120135D01*
X0182010Y0120214D01*
X0182014Y0120294D01*
X0181958Y0120294D01*
X0181954Y0120215D01*
X0181947Y0120135D01*
X0181936Y0120057D01*
X0181922Y0119979D01*
X0181903Y0119901D01*
X0181881Y0119825D01*
X0181855Y0119750D01*
X0181826Y0119676D01*
X0181793Y0119603D01*
X0181757Y0119533D01*
X0181717Y0119464D01*
X0181674Y0119397D01*
X0181628Y0119332D01*
X0181579Y0119269D01*
X0181527Y0119209D01*
X0181472Y0119152D01*
X0181415Y0119097D01*
X0181355Y0119045D01*
X0181292Y0118996D01*
X0181227Y0118950D01*
X0181160Y0118907D01*
X0181091Y0118867D01*
X0181021Y0118831D01*
X0180948Y0118798D01*
X0180874Y0118769D01*
X0180799Y0118743D01*
X0180723Y0118721D01*
X0180645Y0118702D01*
X0180567Y0118688D01*
X0180489Y0118677D01*
X0180409Y0118670D01*
X0180330Y0118666D01*
X0180330Y0118722D01*
X0180409Y0118726D01*
X0180488Y0118733D01*
X0180566Y0118744D01*
X0180644Y0118759D01*
X0180721Y0118778D01*
X0180797Y0118801D01*
X0180872Y0118828D01*
X0180945Y0118858D01*
X0181017Y0118891D01*
X0181087Y0118928D01*
X0181155Y0118969D01*
X0181221Y0119013D01*
X0181284Y0119060D01*
X0181346Y0119110D01*
X0181404Y0119164D01*
X0181460Y0119220D01*
X0181514Y0119278D01*
X0181564Y0119340D01*
X0181611Y0119403D01*
X0181655Y0119469D01*
X0181696Y0119537D01*
X0181733Y0119607D01*
X0181766Y0119679D01*
X0181796Y0119752D01*
X0181823Y0119827D01*
X0181846Y0119903D01*
X0181865Y0119980D01*
X0181880Y0120058D01*
X0181891Y0120136D01*
X0181898Y0120215D01*
X0181902Y0120294D01*
X0181846Y0120294D01*
X0181842Y0120218D01*
X0181835Y0120142D01*
X0181824Y0120066D01*
X0181810Y0119991D01*
X0181791Y0119917D01*
X0181769Y0119844D01*
X0181744Y0119772D01*
X0181715Y0119701D01*
X0181682Y0119632D01*
X0181647Y0119564D01*
X0181607Y0119499D01*
X0181565Y0119435D01*
X0181520Y0119374D01*
X0181471Y0119315D01*
X0181420Y0119258D01*
X0181366Y0119204D01*
X0181309Y0119153D01*
X0181250Y0119104D01*
X0181189Y0119059D01*
X0181125Y0119017D01*
X0181060Y0118977D01*
X0180992Y0118942D01*
X0180923Y0118909D01*
X0180852Y0118880D01*
X0180780Y0118855D01*
X0180707Y0118833D01*
X0180633Y0118814D01*
X0180558Y0118800D01*
X0180482Y0118789D01*
X0180406Y0118782D01*
X0180330Y0118778D01*
X0180330Y0118834D01*
X0180406Y0118838D01*
X0180482Y0118845D01*
X0180557Y0118856D01*
X0180631Y0118871D01*
X0180705Y0118890D01*
X0180778Y0118913D01*
X0180849Y0118939D01*
X0180919Y0118969D01*
X0180987Y0119002D01*
X0181054Y0119039D01*
X0181118Y0119079D01*
X0181181Y0119122D01*
X0181241Y0119169D01*
X0181298Y0119218D01*
X0181354Y0119270D01*
X0181406Y0119326D01*
X0181455Y0119383D01*
X0181502Y0119443D01*
X0181545Y0119506D01*
X0181585Y0119570D01*
X0181622Y0119637D01*
X0181655Y0119705D01*
X0181685Y0119775D01*
X0181711Y0119846D01*
X0181734Y0119919D01*
X0181753Y0119993D01*
X0181768Y0120067D01*
X0181779Y0120142D01*
X0181786Y0120218D01*
X0181790Y0120294D01*
X0181734Y0120294D01*
X0181730Y0120218D01*
X0181723Y0120143D01*
X0181711Y0120069D01*
X0181696Y0119995D01*
X0181676Y0119921D01*
X0181653Y0119849D01*
X0181626Y0119779D01*
X0181596Y0119710D01*
X0181562Y0119642D01*
X0181524Y0119577D01*
X0181483Y0119513D01*
X0181438Y0119452D01*
X0181391Y0119393D01*
X0181340Y0119337D01*
X0181287Y0119284D01*
X0181231Y0119233D01*
X0181172Y0119186D01*
X0181111Y0119141D01*
X0181047Y0119100D01*
X0180982Y0119062D01*
X0180914Y0119028D01*
X0180845Y0118998D01*
X0180775Y0118971D01*
X0180703Y0118948D01*
X0180629Y0118928D01*
X0180555Y0118913D01*
X0180481Y0118901D01*
X0180406Y0118894D01*
X0180330Y0118890D01*
X0180330Y0118946D01*
X0180402Y0118950D01*
X0180475Y0118957D01*
X0180546Y0118968D01*
X0180617Y0118983D01*
X0180688Y0119002D01*
X0180757Y0119024D01*
X0180824Y0119050D01*
X0180891Y0119079D01*
X0180955Y0119112D01*
X0181018Y0119148D01*
X0181079Y0119188D01*
X0181138Y0119230D01*
X0181194Y0119276D01*
X0181248Y0119324D01*
X0181300Y0119376D01*
X0181348Y0119430D01*
X0181394Y0119486D01*
X0181436Y0119545D01*
X0181476Y0119606D01*
X0181512Y0119669D01*
X0181545Y0119733D01*
X0181574Y0119800D01*
X0181600Y0119867D01*
X0181622Y0119936D01*
X0181641Y0120007D01*
X0181656Y0120078D01*
X0181667Y0120149D01*
X0181674Y0120222D01*
X0181678Y0120294D01*
X0181622Y0120294D01*
X0181618Y0120222D01*
X0181611Y0120150D01*
X0181599Y0120079D01*
X0181584Y0120009D01*
X0181565Y0119940D01*
X0181542Y0119871D01*
X0181516Y0119804D01*
X0181485Y0119739D01*
X0181452Y0119675D01*
X0181415Y0119613D01*
X0181374Y0119554D01*
X0181331Y0119496D01*
X0181284Y0119441D01*
X0181235Y0119389D01*
X0181183Y0119340D01*
X0181128Y0119293D01*
X0181070Y0119250D01*
X0181011Y0119209D01*
X0180949Y0119172D01*
X0180885Y0119139D01*
X0180820Y0119108D01*
X0180753Y0119082D01*
X0180684Y0119059D01*
X0180615Y0119040D01*
X0180545Y0119025D01*
X0180474Y0119013D01*
X0180402Y0119006D01*
X0180330Y0119002D01*
X0180330Y0119058D01*
X0180399Y0119062D01*
X0180467Y0119069D01*
X0180535Y0119080D01*
X0180603Y0119095D01*
X0180669Y0119113D01*
X0180734Y0119135D01*
X0180798Y0119160D01*
X0180861Y0119189D01*
X0180922Y0119221D01*
X0180981Y0119257D01*
X0181038Y0119295D01*
X0181093Y0119337D01*
X0181145Y0119381D01*
X0181195Y0119429D01*
X0181243Y0119479D01*
X0181287Y0119531D01*
X0181329Y0119586D01*
X0181367Y0119643D01*
X0181403Y0119702D01*
X0181435Y0119763D01*
X0181464Y0119826D01*
X0181489Y0119890D01*
X0181511Y0119955D01*
X0181529Y0120021D01*
X0181544Y0120089D01*
X0181555Y0120157D01*
X0181562Y0120225D01*
X0181566Y0120294D01*
X0182069Y0132753D02*
X0181529Y0132753D01*
X0181530Y0132754D02*
X0181526Y0132823D01*
X0181518Y0132892D01*
X0181507Y0132961D01*
X0181492Y0133028D01*
X0181473Y0133095D01*
X0181450Y0133160D01*
X0181424Y0133224D01*
X0181394Y0133287D01*
X0181360Y0133348D01*
X0181323Y0133406D01*
X0181283Y0133463D01*
X0181240Y0133517D01*
X0181194Y0133569D01*
X0181145Y0133618D01*
X0181093Y0133664D01*
X0181039Y0133707D01*
X0180982Y0133747D01*
X0180924Y0133784D01*
X0180863Y0133818D01*
X0180800Y0133848D01*
X0180736Y0133874D01*
X0180671Y0133897D01*
X0180604Y0133916D01*
X0180537Y0133931D01*
X0180468Y0133942D01*
X0180399Y0133950D01*
X0180330Y0133954D01*
X0180329Y0134493D01*
X0180330Y0134494D01*
X0180412Y0134490D01*
X0180494Y0134483D01*
X0180576Y0134472D01*
X0180657Y0134458D01*
X0180738Y0134439D01*
X0180817Y0134417D01*
X0180895Y0134391D01*
X0180972Y0134361D01*
X0181048Y0134328D01*
X0181122Y0134292D01*
X0181194Y0134252D01*
X0181264Y0134209D01*
X0181332Y0134162D01*
X0181398Y0134112D01*
X0181461Y0134060D01*
X0181522Y0134004D01*
X0181580Y0133946D01*
X0181636Y0133885D01*
X0181688Y0133822D01*
X0181738Y0133756D01*
X0181785Y0133688D01*
X0181828Y0133618D01*
X0181868Y0133546D01*
X0181904Y0133472D01*
X0181937Y0133396D01*
X0181967Y0133319D01*
X0181993Y0133241D01*
X0182015Y0133162D01*
X0182034Y0133081D01*
X0182048Y0133000D01*
X0182059Y0132918D01*
X0182066Y0132836D01*
X0182070Y0132754D01*
X0182014Y0132754D01*
X0182010Y0132834D01*
X0182004Y0132913D01*
X0181993Y0132992D01*
X0181979Y0133071D01*
X0181961Y0133148D01*
X0181939Y0133225D01*
X0181914Y0133301D01*
X0181885Y0133375D01*
X0181853Y0133448D01*
X0181818Y0133520D01*
X0181779Y0133590D01*
X0181737Y0133658D01*
X0181692Y0133723D01*
X0181644Y0133787D01*
X0181594Y0133848D01*
X0181540Y0133907D01*
X0181483Y0133964D01*
X0181424Y0134018D01*
X0181363Y0134068D01*
X0181299Y0134116D01*
X0181234Y0134161D01*
X0181166Y0134203D01*
X0181096Y0134242D01*
X0181024Y0134277D01*
X0180951Y0134309D01*
X0180877Y0134338D01*
X0180801Y0134363D01*
X0180724Y0134385D01*
X0180647Y0134403D01*
X0180568Y0134417D01*
X0180489Y0134428D01*
X0180410Y0134434D01*
X0180330Y0134438D01*
X0180330Y0134382D01*
X0180409Y0134378D01*
X0180489Y0134371D01*
X0180567Y0134360D01*
X0180645Y0134346D01*
X0180723Y0134327D01*
X0180799Y0134305D01*
X0180874Y0134279D01*
X0180948Y0134250D01*
X0181021Y0134217D01*
X0181091Y0134181D01*
X0181160Y0134141D01*
X0181227Y0134098D01*
X0181292Y0134052D01*
X0181355Y0134003D01*
X0181415Y0133951D01*
X0181472Y0133896D01*
X0181527Y0133839D01*
X0181579Y0133779D01*
X0181628Y0133716D01*
X0181674Y0133651D01*
X0181717Y0133584D01*
X0181757Y0133515D01*
X0181793Y0133445D01*
X0181826Y0133372D01*
X0181855Y0133298D01*
X0181881Y0133223D01*
X0181903Y0133147D01*
X0181922Y0133069D01*
X0181936Y0132991D01*
X0181947Y0132913D01*
X0181954Y0132833D01*
X0181958Y0132754D01*
X0181902Y0132754D01*
X0181898Y0132833D01*
X0181891Y0132912D01*
X0181880Y0132990D01*
X0181865Y0133068D01*
X0181846Y0133145D01*
X0181823Y0133221D01*
X0181796Y0133296D01*
X0181766Y0133369D01*
X0181733Y0133441D01*
X0181696Y0133511D01*
X0181655Y0133579D01*
X0181611Y0133645D01*
X0181564Y0133708D01*
X0181514Y0133770D01*
X0181460Y0133828D01*
X0181404Y0133884D01*
X0181346Y0133938D01*
X0181284Y0133988D01*
X0181221Y0134035D01*
X0181155Y0134079D01*
X0181087Y0134120D01*
X0181017Y0134157D01*
X0180945Y0134190D01*
X0180872Y0134220D01*
X0180797Y0134247D01*
X0180721Y0134270D01*
X0180644Y0134289D01*
X0180566Y0134304D01*
X0180488Y0134315D01*
X0180409Y0134322D01*
X0180330Y0134326D01*
X0180330Y0134270D01*
X0180406Y0134266D01*
X0180482Y0134259D01*
X0180558Y0134248D01*
X0180633Y0134234D01*
X0180707Y0134215D01*
X0180780Y0134193D01*
X0180852Y0134168D01*
X0180923Y0134139D01*
X0180992Y0134106D01*
X0181060Y0134071D01*
X0181125Y0134031D01*
X0181189Y0133989D01*
X0181250Y0133944D01*
X0181309Y0133895D01*
X0181366Y0133844D01*
X0181420Y0133790D01*
X0181471Y0133733D01*
X0181520Y0133674D01*
X0181565Y0133613D01*
X0181607Y0133549D01*
X0181647Y0133484D01*
X0181682Y0133416D01*
X0181715Y0133347D01*
X0181744Y0133276D01*
X0181769Y0133204D01*
X0181791Y0133131D01*
X0181810Y0133057D01*
X0181824Y0132982D01*
X0181835Y0132906D01*
X0181842Y0132830D01*
X0181846Y0132754D01*
X0181790Y0132754D01*
X0181786Y0132830D01*
X0181779Y0132906D01*
X0181768Y0132981D01*
X0181753Y0133055D01*
X0181734Y0133129D01*
X0181711Y0133202D01*
X0181685Y0133273D01*
X0181655Y0133343D01*
X0181622Y0133411D01*
X0181585Y0133478D01*
X0181545Y0133542D01*
X0181502Y0133605D01*
X0181455Y0133665D01*
X0181406Y0133722D01*
X0181354Y0133778D01*
X0181298Y0133830D01*
X0181241Y0133879D01*
X0181181Y0133926D01*
X0181118Y0133969D01*
X0181054Y0134009D01*
X0180987Y0134046D01*
X0180919Y0134079D01*
X0180849Y0134109D01*
X0180778Y0134135D01*
X0180705Y0134158D01*
X0180631Y0134177D01*
X0180557Y0134192D01*
X0180482Y0134203D01*
X0180406Y0134210D01*
X0180330Y0134214D01*
X0180330Y0134158D01*
X0180406Y0134154D01*
X0180481Y0134147D01*
X0180555Y0134135D01*
X0180629Y0134120D01*
X0180703Y0134100D01*
X0180775Y0134077D01*
X0180845Y0134050D01*
X0180914Y0134020D01*
X0180982Y0133986D01*
X0181047Y0133948D01*
X0181111Y0133907D01*
X0181172Y0133862D01*
X0181231Y0133815D01*
X0181287Y0133764D01*
X0181340Y0133711D01*
X0181391Y0133655D01*
X0181438Y0133596D01*
X0181483Y0133535D01*
X0181524Y0133471D01*
X0181562Y0133406D01*
X0181596Y0133338D01*
X0181626Y0133269D01*
X0181653Y0133199D01*
X0181676Y0133127D01*
X0181696Y0133053D01*
X0181711Y0132979D01*
X0181723Y0132905D01*
X0181730Y0132830D01*
X0181734Y0132754D01*
X0181678Y0132754D01*
X0181674Y0132826D01*
X0181667Y0132899D01*
X0181656Y0132970D01*
X0181641Y0133041D01*
X0181622Y0133112D01*
X0181600Y0133181D01*
X0181574Y0133248D01*
X0181545Y0133315D01*
X0181512Y0133379D01*
X0181476Y0133442D01*
X0181436Y0133503D01*
X0181394Y0133562D01*
X0181348Y0133618D01*
X0181300Y0133672D01*
X0181248Y0133724D01*
X0181194Y0133772D01*
X0181138Y0133818D01*
X0181079Y0133860D01*
X0181018Y0133900D01*
X0180955Y0133936D01*
X0180891Y0133969D01*
X0180824Y0133998D01*
X0180757Y0134024D01*
X0180688Y0134046D01*
X0180617Y0134065D01*
X0180546Y0134080D01*
X0180475Y0134091D01*
X0180402Y0134098D01*
X0180330Y0134102D01*
X0180330Y0134046D01*
X0180402Y0134042D01*
X0180474Y0134035D01*
X0180545Y0134023D01*
X0180615Y0134008D01*
X0180684Y0133989D01*
X0180753Y0133966D01*
X0180820Y0133940D01*
X0180885Y0133909D01*
X0180949Y0133876D01*
X0181011Y0133839D01*
X0181070Y0133798D01*
X0181128Y0133755D01*
X0181183Y0133708D01*
X0181235Y0133659D01*
X0181284Y0133607D01*
X0181331Y0133552D01*
X0181374Y0133494D01*
X0181415Y0133435D01*
X0181452Y0133373D01*
X0181485Y0133309D01*
X0181516Y0133244D01*
X0181542Y0133177D01*
X0181565Y0133108D01*
X0181584Y0133039D01*
X0181599Y0132969D01*
X0181611Y0132898D01*
X0181618Y0132826D01*
X0181622Y0132754D01*
X0181566Y0132754D01*
X0181562Y0132823D01*
X0181555Y0132891D01*
X0181544Y0132959D01*
X0181529Y0133027D01*
X0181511Y0133093D01*
X0181489Y0133158D01*
X0181464Y0133222D01*
X0181435Y0133285D01*
X0181403Y0133346D01*
X0181367Y0133405D01*
X0181329Y0133462D01*
X0181287Y0133517D01*
X0181243Y0133569D01*
X0181195Y0133619D01*
X0181145Y0133667D01*
X0181093Y0133711D01*
X0181038Y0133753D01*
X0180981Y0133791D01*
X0180922Y0133827D01*
X0180861Y0133859D01*
X0180798Y0133888D01*
X0180734Y0133913D01*
X0180669Y0133935D01*
X0180603Y0133953D01*
X0180535Y0133968D01*
X0180467Y0133979D01*
X0180399Y0133986D01*
X0180330Y0133990D01*
D18*
X0181800Y0120224D02*
X0141800Y0120224D01*
D19*
X0126485Y0149910D02*
X0107587Y0149910D01*
X0107587Y0154438D01*
X0107587Y0164280D02*
X0107587Y0168808D01*
X0126485Y0168808D01*
X0126485Y0167233D01*
X0126485Y0160343D02*
X0126485Y0158375D01*
X0126485Y0151091D02*
X0126485Y0149910D01*
X0149208Y0064989D02*
X0149210Y0065095D01*
X0149216Y0065200D01*
X0149226Y0065306D01*
X0149240Y0065410D01*
X0149257Y0065515D01*
X0149279Y0065618D01*
X0149304Y0065721D01*
X0149334Y0065823D01*
X0149367Y0065923D01*
X0149403Y0066022D01*
X0149444Y0066120D01*
X0149488Y0066216D01*
X0149536Y0066310D01*
X0149587Y0066403D01*
X0149641Y0066494D01*
X0149699Y0066582D01*
X0149761Y0066668D01*
X0149825Y0066752D01*
X0149892Y0066834D01*
X0149963Y0066913D01*
X0150036Y0066989D01*
X0150112Y0067062D01*
X0150191Y0067133D01*
X0150273Y0067200D01*
X0150357Y0067264D01*
X0150443Y0067326D01*
X0150531Y0067384D01*
X0150622Y0067438D01*
X0150715Y0067489D01*
X0150809Y0067537D01*
X0150905Y0067581D01*
X0151003Y0067622D01*
X0151102Y0067658D01*
X0151202Y0067691D01*
X0151304Y0067721D01*
X0151407Y0067746D01*
X0151510Y0067768D01*
X0151615Y0067785D01*
X0151719Y0067799D01*
X0151825Y0067809D01*
X0151930Y0067815D01*
X0152036Y0067817D01*
X0152142Y0067815D01*
X0152247Y0067809D01*
X0152353Y0067799D01*
X0152457Y0067785D01*
X0152562Y0067768D01*
X0152665Y0067746D01*
X0152768Y0067721D01*
X0152870Y0067691D01*
X0152970Y0067658D01*
X0153069Y0067622D01*
X0153167Y0067581D01*
X0153263Y0067537D01*
X0153357Y0067489D01*
X0153450Y0067438D01*
X0153541Y0067384D01*
X0153629Y0067326D01*
X0153715Y0067264D01*
X0153799Y0067200D01*
X0153881Y0067133D01*
X0153960Y0067062D01*
X0154036Y0066989D01*
X0154109Y0066913D01*
X0154180Y0066834D01*
X0154247Y0066752D01*
X0154311Y0066668D01*
X0154373Y0066582D01*
X0154431Y0066494D01*
X0154485Y0066403D01*
X0154536Y0066310D01*
X0154584Y0066216D01*
X0154628Y0066120D01*
X0154669Y0066022D01*
X0154705Y0065923D01*
X0154738Y0065823D01*
X0154768Y0065721D01*
X0154793Y0065618D01*
X0154815Y0065515D01*
X0154832Y0065410D01*
X0154846Y0065306D01*
X0154856Y0065200D01*
X0154862Y0065095D01*
X0154864Y0064989D01*
X0154862Y0064883D01*
X0154856Y0064778D01*
X0154846Y0064672D01*
X0154832Y0064568D01*
X0154815Y0064463D01*
X0154793Y0064360D01*
X0154768Y0064257D01*
X0154738Y0064155D01*
X0154705Y0064055D01*
X0154669Y0063956D01*
X0154628Y0063858D01*
X0154584Y0063762D01*
X0154536Y0063668D01*
X0154485Y0063575D01*
X0154431Y0063484D01*
X0154373Y0063396D01*
X0154311Y0063310D01*
X0154247Y0063226D01*
X0154180Y0063144D01*
X0154109Y0063065D01*
X0154036Y0062989D01*
X0153960Y0062916D01*
X0153881Y0062845D01*
X0153799Y0062778D01*
X0153715Y0062714D01*
X0153629Y0062652D01*
X0153541Y0062594D01*
X0153450Y0062540D01*
X0153357Y0062489D01*
X0153263Y0062441D01*
X0153167Y0062397D01*
X0153069Y0062356D01*
X0152970Y0062320D01*
X0152870Y0062287D01*
X0152768Y0062257D01*
X0152665Y0062232D01*
X0152562Y0062210D01*
X0152457Y0062193D01*
X0152353Y0062179D01*
X0152247Y0062169D01*
X0152142Y0062163D01*
X0152036Y0062161D01*
X0151930Y0062163D01*
X0151825Y0062169D01*
X0151719Y0062179D01*
X0151615Y0062193D01*
X0151510Y0062210D01*
X0151407Y0062232D01*
X0151304Y0062257D01*
X0151202Y0062287D01*
X0151102Y0062320D01*
X0151003Y0062356D01*
X0150905Y0062397D01*
X0150809Y0062441D01*
X0150715Y0062489D01*
X0150622Y0062540D01*
X0150531Y0062594D01*
X0150443Y0062652D01*
X0150357Y0062714D01*
X0150273Y0062778D01*
X0150191Y0062845D01*
X0150112Y0062916D01*
X0150036Y0062989D01*
X0149963Y0063065D01*
X0149892Y0063144D01*
X0149825Y0063226D01*
X0149761Y0063310D01*
X0149699Y0063396D01*
X0149641Y0063484D01*
X0149587Y0063575D01*
X0149536Y0063668D01*
X0149488Y0063762D01*
X0149444Y0063858D01*
X0149403Y0063956D01*
X0149367Y0064055D01*
X0149334Y0064155D01*
X0149304Y0064257D01*
X0149279Y0064360D01*
X0149257Y0064463D01*
X0149240Y0064568D01*
X0149226Y0064672D01*
X0149216Y0064778D01*
X0149210Y0064883D01*
X0149208Y0064989D01*
D20*
X0117036Y0159457D03*
D21*
X0117135Y0159359D03*
D22*
X0167835Y0039950D03*
X0168229Y0023769D03*
D23*
X0161979Y0023769D03*
X0161585Y0039950D03*
X0185085Y0039950D03*
X0185479Y0023769D03*
D24*
X0210600Y0103800D02*
X0210600Y0109800D01*
X0213100Y0109800D02*
X0213100Y0103800D01*
X0213100Y0118800D02*
X0213100Y0124800D01*
X0210600Y0124800D02*
X0210600Y0118800D01*
X0212765Y0141359D02*
X0212765Y0147359D01*
X0215265Y0147359D02*
X0215265Y0141359D01*
X0054163Y0179902D02*
X0054163Y0185902D01*
X0051663Y0185902D02*
X0051663Y0179902D01*
X0028336Y0179942D02*
X0028336Y0185942D01*
X0025836Y0185942D02*
X0025836Y0179942D01*
D25*
X0029987Y0168965D03*
X0029200Y0155658D03*
X0030774Y0142745D03*
X0030971Y0129517D03*
X0052471Y0129517D03*
X0052274Y0142745D03*
X0050700Y0155658D03*
X0051487Y0168965D03*
X0075066Y0127824D03*
X0096566Y0127824D03*
D26*
G36*
X0214033Y0170873D02*
X0212920Y0171986D01*
X0214449Y0173515D01*
X0215562Y0172402D01*
X0214033Y0170873D01*
G37*
G36*
X0229341Y0171985D02*
X0228228Y0170872D01*
X0226699Y0172401D01*
X0227812Y0173514D01*
X0229341Y0171985D01*
G37*
M02*
