G75*
%MOIN*%
%OFA0B0*%
%FSLAX25Y25*%
%IPPOS*%
%LPD*%
%AMOC8*
5,1,8,0,0,1.08239X$1,22.5*
%
%ADD10R,0.16000X0.06000*%
%ADD11OC8,0.06000*%
%ADD12R,0.04000X0.08858*%
%ADD13R,0.08858X0.04000*%
%ADD14R,0.05906X0.05906*%
%ADD15R,0.06299X0.07098*%
%ADD16R,0.08600X0.08600*%
%ADD17R,0.02600X0.08000*%
%ADD18R,0.05118X0.05118*%
%ADD19R,0.05118X0.07874*%
%ADD20OC8,0.05200*%
%ADD21C,0.06600*%
%ADD22OC8,0.06800*%
%ADD23C,0.04756*%
%ADD24C,0.04000*%
%ADD25C,0.00600*%
%ADD26C,0.03600*%
D10*
X0011800Y0064635D03*
X0011800Y0074635D03*
X0011800Y0084635D03*
D11*
X0034556Y0203375D03*
X0044556Y0203375D03*
X0054556Y0203375D03*
X0064556Y0203375D03*
X0074556Y0203375D03*
X0084556Y0203375D03*
X0094556Y0203375D03*
X0104556Y0203375D03*
X0114556Y0203375D03*
X0124556Y0203375D03*
X0134556Y0203375D03*
X0144556Y0203375D03*
X0154556Y0203375D03*
X0164556Y0203375D03*
X0174556Y0203375D03*
X0184556Y0203375D03*
X0194556Y0203375D03*
X0204556Y0203375D03*
X0214556Y0203375D03*
X0224556Y0203375D03*
X0224556Y0213375D03*
X0214556Y0213375D03*
X0204556Y0213375D03*
X0194556Y0213375D03*
X0184556Y0213375D03*
X0174556Y0213375D03*
X0164556Y0213375D03*
X0154556Y0213375D03*
X0144556Y0213375D03*
X0134556Y0213375D03*
X0124556Y0213375D03*
X0114556Y0213375D03*
X0104556Y0213375D03*
X0094556Y0213375D03*
X0084556Y0213375D03*
X0074556Y0213375D03*
X0064556Y0213375D03*
X0054556Y0213375D03*
X0044556Y0213375D03*
X0034556Y0213375D03*
D12*
X0031406Y0035028D03*
X0036406Y0035028D03*
X0041406Y0035028D03*
X0046406Y0035028D03*
X0051406Y0035028D03*
X0056406Y0035028D03*
X0061406Y0035028D03*
X0066406Y0035028D03*
X0071406Y0035028D03*
X0076406Y0035028D03*
X0081406Y0035028D03*
X0086406Y0035028D03*
X0091406Y0035028D03*
X0096406Y0035028D03*
X0101406Y0035028D03*
X0106406Y0035028D03*
X0111406Y0035028D03*
X0116406Y0035028D03*
X0121406Y0035028D03*
X0126406Y0035028D03*
X0126406Y0105028D03*
X0121406Y0105028D03*
X0116406Y0105028D03*
X0111406Y0105028D03*
X0106406Y0105028D03*
X0101406Y0105028D03*
X0096406Y0105028D03*
X0091406Y0105028D03*
X0086406Y0105028D03*
X0081406Y0105028D03*
X0076406Y0105028D03*
X0071406Y0105028D03*
X0066406Y0105028D03*
X0061406Y0105028D03*
X0056406Y0105028D03*
X0051406Y0105028D03*
X0046406Y0105028D03*
X0041406Y0105028D03*
X0036406Y0105028D03*
X0031406Y0105028D03*
D13*
X0026406Y0085028D03*
X0026406Y0080028D03*
X0026406Y0075028D03*
X0026406Y0070028D03*
X0026406Y0065028D03*
X0026406Y0060028D03*
X0026406Y0055028D03*
D14*
X0075186Y0182902D03*
X0088965Y0182902D03*
X0108611Y0183296D03*
X0122391Y0183296D03*
D15*
X0088343Y0167430D03*
X0077146Y0167430D03*
X0077619Y0146957D03*
X0088816Y0146957D03*
D16*
X0160855Y0178591D03*
X0170855Y0178591D03*
X0180855Y0178591D03*
X0190855Y0178591D03*
D17*
X0179300Y0138624D03*
X0174300Y0138624D03*
X0169300Y0138624D03*
X0164300Y0138624D03*
X0159300Y0138624D03*
X0154300Y0138624D03*
X0149300Y0138624D03*
X0144300Y0138624D03*
X0144300Y0114424D03*
X0149300Y0114424D03*
X0154300Y0114424D03*
X0159300Y0114424D03*
X0164300Y0114424D03*
X0169300Y0114424D03*
X0174300Y0114424D03*
X0179300Y0114424D03*
D18*
X0127863Y0154831D03*
X0127863Y0163887D03*
D19*
X0106209Y0159359D03*
D20*
X0100816Y0127824D03*
X0070816Y0127824D03*
X0056721Y0129517D03*
X0056524Y0142745D03*
X0054950Y0155658D03*
X0055737Y0168965D03*
X0057863Y0182902D03*
X0047863Y0182902D03*
X0032036Y0182942D03*
X0022036Y0182942D03*
X0025737Y0168965D03*
X0024950Y0155658D03*
X0026524Y0142745D03*
X0026721Y0129517D03*
X0201800Y0086800D03*
X0201800Y0076800D03*
X0201800Y0066800D03*
X0201800Y0056800D03*
X0221800Y0056800D03*
X0221800Y0066800D03*
X0221800Y0076800D03*
X0221800Y0086800D03*
X0216800Y0106800D03*
X0206800Y0106800D03*
X0206800Y0121800D03*
X0216800Y0121800D03*
X0218965Y0144359D03*
X0208965Y0144359D03*
D21*
X0193335Y0039950D03*
X0193729Y0023769D03*
X0153729Y0023769D03*
X0153335Y0039950D03*
D22*
X0152036Y0054989D03*
X0162036Y0054989D03*
X0172036Y0054989D03*
X0182036Y0054989D03*
X0182036Y0084989D03*
X0172036Y0084989D03*
X0162036Y0084989D03*
X0152036Y0084989D03*
D23*
X0221131Y0174083D03*
X0221131Y0184083D03*
D24*
X0026406Y0075028D02*
X0011800Y0074635D01*
D25*
X0011800Y0064635D02*
X0012000Y0064200D01*
X0012000Y0060600D01*
X0013800Y0058800D01*
X0026400Y0046200D01*
X0031800Y0051600D01*
X0031800Y0087600D01*
X0022800Y0096600D01*
X0031200Y0105000D01*
X0031406Y0105028D01*
X0031200Y0105600D01*
X0018000Y0118800D01*
X0018000Y0192600D01*
X0033000Y0207600D01*
X0046200Y0207600D01*
X0048600Y0205200D01*
X0050400Y0205200D01*
X0050400Y0195600D01*
X0067800Y0178200D01*
X0067800Y0136200D01*
X0078600Y0125400D01*
X0078600Y0110400D01*
X0088800Y0110400D01*
X0091200Y0108000D01*
X0091200Y0105600D01*
X0091406Y0105028D01*
X0091800Y0105000D01*
X0091800Y0101400D01*
X0093600Y0099600D01*
X0124200Y0099600D01*
X0126000Y0101400D01*
X0126000Y0105000D01*
X0126406Y0105028D01*
X0144600Y0112200D02*
X0144600Y0114000D01*
X0144300Y0114424D01*
X0144000Y0114600D01*
X0106800Y0151800D01*
X0094200Y0139200D01*
X0089400Y0139800D02*
X0089400Y0142200D01*
X0074400Y0142200D01*
X0073200Y0143400D01*
X0073200Y0150600D01*
X0088200Y0165600D01*
X0088200Y0167400D01*
X0088343Y0167430D01*
X0077146Y0167430D02*
X0076800Y0168000D01*
X0075600Y0169200D01*
X0075600Y0182400D01*
X0075186Y0182902D01*
X0088965Y0182902D02*
X0089400Y0183000D01*
X0100800Y0183000D01*
X0117000Y0199200D01*
X0170400Y0199200D01*
X0174000Y0202800D01*
X0174556Y0203375D01*
X0169800Y0198000D02*
X0179400Y0198000D01*
X0184200Y0202800D01*
X0184556Y0203375D01*
X0184800Y0207600D02*
X0186000Y0207600D01*
X0190200Y0203400D01*
X0190200Y0189600D01*
X0196200Y0183600D01*
X0196200Y0159600D01*
X0180600Y0144000D01*
X0202800Y0121800D01*
X0202800Y0115800D01*
X0226800Y0091800D01*
X0226800Y0081600D01*
X0222000Y0076800D01*
X0221800Y0076800D01*
X0223200Y0082800D02*
X0211200Y0082800D01*
X0203400Y0090600D01*
X0200400Y0090600D01*
X0198000Y0088200D01*
X0198000Y0070800D01*
X0201600Y0067200D01*
X0201800Y0066800D01*
X0201800Y0056800D02*
X0201600Y0056400D01*
X0201600Y0048000D01*
X0193800Y0040200D01*
X0193335Y0039950D01*
X0205800Y0036000D02*
X0193800Y0024000D01*
X0193729Y0023769D01*
X0205800Y0036000D02*
X0205800Y0078000D01*
X0202200Y0081600D01*
X0202200Y0086400D01*
X0201800Y0086800D01*
X0217800Y0090600D02*
X0223200Y0090600D01*
X0225600Y0088200D01*
X0225600Y0085200D01*
X0223200Y0082800D01*
X0221800Y0086800D02*
X0221400Y0087000D01*
X0219600Y0087000D01*
X0187200Y0119400D01*
X0166800Y0119400D01*
X0149400Y0136800D01*
X0149400Y0138600D01*
X0149300Y0138624D01*
X0144300Y0138624D02*
X0144000Y0139200D01*
X0144000Y0145200D01*
X0135600Y0153600D01*
X0136200Y0153600D01*
X0160800Y0178200D01*
X0160855Y0178591D01*
X0155400Y0183600D02*
X0169800Y0198000D01*
X0180600Y0211800D02*
X0184800Y0207600D01*
X0180600Y0211800D02*
X0180600Y0213000D01*
X0175800Y0217800D01*
X0063000Y0217800D01*
X0060600Y0215400D01*
X0060600Y0213600D01*
X0054600Y0207600D01*
X0054600Y0203400D01*
X0054556Y0203375D01*
X0050400Y0205200D02*
X0054000Y0208800D01*
X0054000Y0213000D01*
X0054556Y0213375D01*
X0064556Y0213375D02*
X0064800Y0213000D01*
X0069000Y0208800D01*
X0069000Y0144000D01*
X0096000Y0117000D01*
X0096000Y0105600D01*
X0096406Y0105028D01*
X0101406Y0105028D02*
X0101400Y0105600D01*
X0101400Y0113400D01*
X0070200Y0144600D01*
X0070200Y0208800D01*
X0074400Y0213000D01*
X0074556Y0213375D01*
X0034556Y0203375D02*
X0034200Y0202800D01*
X0022200Y0190800D01*
X0022200Y0183000D01*
X0022036Y0182942D01*
X0022200Y0182400D01*
X0048600Y0156000D01*
X0054600Y0156000D01*
X0054950Y0155658D01*
X0055200Y0155400D01*
X0060600Y0150000D01*
X0060600Y0132600D01*
X0071400Y0121800D01*
X0071400Y0105600D01*
X0071406Y0105028D01*
X0071400Y0102000D01*
X0088200Y0085200D01*
X0151800Y0085200D01*
X0152036Y0084989D01*
X0156600Y0083400D02*
X0156600Y0100200D01*
X0144600Y0112200D01*
X0156600Y0119400D02*
X0161400Y0119400D01*
X0163800Y0117000D01*
X0163800Y0114600D01*
X0164300Y0114424D01*
X0164400Y0114600D01*
X0169200Y0114600D01*
X0169300Y0114424D01*
X0169800Y0114600D01*
X0174000Y0114600D01*
X0174300Y0114424D01*
X0174600Y0114600D01*
X0177600Y0114600D01*
X0177600Y0082800D01*
X0178200Y0082200D01*
X0178200Y0054600D01*
X0163800Y0040200D01*
X0153600Y0040200D01*
X0153335Y0039950D01*
X0153600Y0039600D01*
X0153600Y0024000D01*
X0153729Y0023769D01*
X0126406Y0035028D02*
X0126000Y0034800D01*
X0126000Y0031800D01*
X0123600Y0029400D01*
X0099000Y0029400D01*
X0096600Y0031800D01*
X0096406Y0035028D01*
X0096600Y0034800D01*
X0096600Y0031800D01*
X0094200Y0029400D01*
X0058800Y0029400D01*
X0057000Y0031200D01*
X0057000Y0034800D01*
X0056406Y0035028D01*
X0056400Y0035400D01*
X0056400Y0037800D01*
X0053400Y0040800D01*
X0034200Y0040800D01*
X0033000Y0039600D01*
X0026400Y0046200D01*
X0033000Y0039600D02*
X0031800Y0038400D01*
X0031800Y0035400D01*
X0031406Y0035028D01*
X0061406Y0035028D02*
X0061800Y0035400D01*
X0061800Y0092400D01*
X0071400Y0102000D01*
X0071400Y0105000D01*
X0071406Y0105028D01*
X0076406Y0105028D02*
X0076800Y0105600D01*
X0076800Y0108600D01*
X0078600Y0110400D01*
X0070816Y0127824D02*
X0070800Y0128400D01*
X0066600Y0132600D01*
X0066600Y0149400D01*
X0055800Y0160200D01*
X0055800Y0168600D01*
X0055737Y0168965D01*
X0049800Y0179400D02*
X0035400Y0179400D01*
X0032400Y0182400D01*
X0032036Y0182942D01*
X0049800Y0179400D02*
X0052800Y0182400D01*
X0057600Y0182400D01*
X0057863Y0182902D01*
X0089400Y0150600D02*
X0103200Y0164400D01*
X0127800Y0164400D01*
X0127863Y0163887D01*
X0128400Y0163800D01*
X0128400Y0160800D01*
X0135600Y0153600D01*
X0128400Y0154800D02*
X0127863Y0154831D01*
X0128400Y0154800D02*
X0128400Y0147600D01*
X0144600Y0131400D01*
X0147000Y0133800D01*
X0147000Y0142800D01*
X0145200Y0144600D01*
X0145200Y0148800D01*
X0147000Y0150600D01*
X0149400Y0150600D01*
X0156600Y0143400D01*
X0191400Y0178200D01*
X0190855Y0178591D01*
X0155400Y0183600D02*
X0122400Y0183600D01*
X0122391Y0183296D01*
X0108611Y0183296D02*
X0108600Y0183000D01*
X0108600Y0177600D01*
X0078000Y0147000D01*
X0077619Y0146957D01*
X0088816Y0146957D02*
X0089400Y0147000D01*
X0089400Y0150600D01*
X0088816Y0146957D02*
X0089400Y0146400D01*
X0089400Y0142200D01*
X0089400Y0139800D02*
X0100800Y0128400D01*
X0100816Y0127824D01*
X0106800Y0151800D02*
X0106800Y0159000D01*
X0106209Y0159359D01*
X0144600Y0131400D02*
X0156600Y0119400D01*
X0171600Y0134400D02*
X0172800Y0133200D01*
X0179400Y0133200D01*
X0179400Y0138600D01*
X0179300Y0138624D01*
X0174600Y0139200D02*
X0174600Y0141000D01*
X0177600Y0144000D01*
X0180600Y0144000D01*
X0174600Y0139200D02*
X0174300Y0138624D01*
X0171600Y0134400D02*
X0171600Y0143400D01*
X0167400Y0147600D01*
X0159000Y0141000D02*
X0156600Y0143400D01*
X0154200Y0141600D02*
X0148200Y0147600D01*
X0154200Y0141600D02*
X0154200Y0139200D01*
X0154300Y0138624D01*
X0159000Y0139200D02*
X0159000Y0141000D01*
X0159000Y0139200D02*
X0159300Y0138624D01*
X0159600Y0138600D01*
X0163800Y0138600D01*
X0164300Y0138624D01*
X0179400Y0133200D02*
X0179400Y0129000D01*
X0217800Y0090600D01*
X0217200Y0106800D02*
X0216800Y0106800D01*
X0217200Y0106800D02*
X0217200Y0121800D01*
X0216800Y0121800D01*
X0179300Y0114424D02*
X0178800Y0114600D01*
X0177600Y0114600D01*
X0156600Y0083400D02*
X0152400Y0079200D01*
X0152400Y0055200D01*
X0152036Y0054989D01*
X0178200Y0054600D02*
X0181800Y0054600D01*
X0182036Y0054989D01*
X0221800Y0056800D02*
X0222000Y0057000D01*
X0222000Y0066600D01*
X0221800Y0066800D01*
X0026721Y0129517D02*
X0026400Y0129600D01*
X0026400Y0142200D01*
X0026524Y0142745D01*
X0022800Y0096600D02*
X0011400Y0085200D01*
X0011800Y0084635D01*
D26*
X0013800Y0058800D03*
X0094200Y0139200D03*
X0148200Y0147600D03*
X0167400Y0147600D03*
M02*
