G75*
%MOIN*%
%OFA0B0*%
%FSLAX25Y25*%
%IPPOS*%
%LPD*%
%AMOC8*
5,1,8,0,0,1.08239X$1,22.5*
%
%ADD10C,0.00000*%
D10*
X0020942Y0011800D02*
X0222245Y0011800D01*
X0222565Y0011804D01*
X0222885Y0011815D01*
X0223205Y0011835D01*
X0223524Y0011862D01*
X0223843Y0011897D01*
X0224160Y0011939D01*
X0224477Y0011989D01*
X0224792Y0012047D01*
X0225105Y0012112D01*
X0225417Y0012185D01*
X0225727Y0012266D01*
X0226035Y0012353D01*
X0226341Y0012449D01*
X0226644Y0012551D01*
X0226945Y0012661D01*
X0227243Y0012779D01*
X0227539Y0012903D01*
X0227831Y0013034D01*
X0228120Y0013173D01*
X0228405Y0013318D01*
X0228687Y0013471D01*
X0228965Y0013630D01*
X0229239Y0013795D01*
X0229509Y0013968D01*
X0229775Y0014146D01*
X0230036Y0014331D01*
X0230293Y0014523D01*
X0230545Y0014720D01*
X0230792Y0014924D01*
X0231035Y0015133D01*
X0231272Y0015349D01*
X0231504Y0015570D01*
X0231730Y0015796D01*
X0231951Y0016028D01*
X0232167Y0016265D01*
X0232376Y0016508D01*
X0232580Y0016755D01*
X0232777Y0017007D01*
X0232969Y0017264D01*
X0233154Y0017525D01*
X0233332Y0017791D01*
X0233505Y0018061D01*
X0233670Y0018335D01*
X0233829Y0018613D01*
X0233982Y0018895D01*
X0234127Y0019180D01*
X0234266Y0019469D01*
X0234397Y0019761D01*
X0234521Y0020057D01*
X0234639Y0020355D01*
X0234749Y0020656D01*
X0234851Y0020959D01*
X0234947Y0021265D01*
X0235034Y0021573D01*
X0235115Y0021883D01*
X0235188Y0022195D01*
X0235253Y0022508D01*
X0235311Y0022823D01*
X0235361Y0023140D01*
X0235403Y0023457D01*
X0235438Y0023776D01*
X0235465Y0024095D01*
X0235485Y0024415D01*
X0235496Y0024735D01*
X0235500Y0025055D01*
X0235501Y0025055D02*
X0235501Y0113535D01*
X0235497Y0113855D01*
X0235486Y0114174D01*
X0235466Y0114493D01*
X0235439Y0114811D01*
X0235405Y0115129D01*
X0235362Y0115446D01*
X0235312Y0115762D01*
X0235255Y0116076D01*
X0235189Y0116389D01*
X0235117Y0116700D01*
X0235036Y0117010D01*
X0234949Y0117317D01*
X0234854Y0117622D01*
X0234751Y0117925D01*
X0234642Y0118225D01*
X0234525Y0118522D01*
X0234400Y0118817D01*
X0234269Y0119108D01*
X0234131Y0119397D01*
X0233986Y0119681D01*
X0233834Y0119963D01*
X0233675Y0120240D01*
X0233510Y0120514D01*
X0233338Y0120783D01*
X0233160Y0121048D01*
X0232975Y0121309D01*
X0232784Y0121565D01*
X0232587Y0121817D01*
X0232384Y0122064D01*
X0232175Y0122305D01*
X0231960Y0122542D01*
X0231740Y0122774D01*
X0231514Y0123000D01*
X0231282Y0123220D01*
X0231045Y0123435D01*
X0230804Y0123644D01*
X0230557Y0123847D01*
X0230305Y0124044D01*
X0230049Y0124235D01*
X0229788Y0124420D01*
X0229523Y0124598D01*
X0229254Y0124770D01*
X0228980Y0124935D01*
X0228703Y0125094D01*
X0228421Y0125246D01*
X0228137Y0125391D01*
X0227848Y0125529D01*
X0227557Y0125660D01*
X0227262Y0125785D01*
X0226965Y0125902D01*
X0226665Y0126011D01*
X0226362Y0126114D01*
X0226057Y0126209D01*
X0225750Y0126296D01*
X0225440Y0126377D01*
X0225129Y0126449D01*
X0224816Y0126515D01*
X0224502Y0126572D01*
X0224186Y0126622D01*
X0223869Y0126665D01*
X0223551Y0126699D01*
X0223233Y0126726D01*
X0222914Y0126746D01*
X0222595Y0126757D01*
X0222275Y0126761D01*
X0017963Y0126761D01*
X0017693Y0126758D01*
X0017424Y0126748D01*
X0017154Y0126732D01*
X0016886Y0126709D01*
X0016617Y0126680D01*
X0016350Y0126644D01*
X0016084Y0126602D01*
X0015818Y0126553D01*
X0015554Y0126498D01*
X0015292Y0126437D01*
X0015030Y0126369D01*
X0014771Y0126295D01*
X0014513Y0126215D01*
X0014258Y0126128D01*
X0014005Y0126036D01*
X0013753Y0125937D01*
X0013505Y0125832D01*
X0013259Y0125721D01*
X0013016Y0125605D01*
X0012775Y0125482D01*
X0012538Y0125354D01*
X0012304Y0125220D01*
X0012073Y0125081D01*
X0011846Y0124936D01*
X0011622Y0124785D01*
X0011402Y0124629D01*
X0011185Y0124468D01*
X0010973Y0124302D01*
X0010765Y0124130D01*
X0010561Y0123954D01*
X0010361Y0123772D01*
X0010166Y0123586D01*
X0009975Y0123395D01*
X0009789Y0123200D01*
X0009607Y0123000D01*
X0009431Y0122796D01*
X0009259Y0122588D01*
X0009093Y0122376D01*
X0008932Y0122159D01*
X0008776Y0121939D01*
X0008625Y0121715D01*
X0008480Y0121488D01*
X0008341Y0121257D01*
X0008207Y0121023D01*
X0008079Y0120786D01*
X0007956Y0120545D01*
X0007840Y0120302D01*
X0007729Y0120056D01*
X0007624Y0119808D01*
X0007525Y0119556D01*
X0007433Y0119303D01*
X0007346Y0119048D01*
X0007266Y0118790D01*
X0007192Y0118531D01*
X0007124Y0118269D01*
X0007063Y0118007D01*
X0007008Y0117743D01*
X0006959Y0117477D01*
X0006917Y0117211D01*
X0006881Y0116944D01*
X0006852Y0116675D01*
X0006829Y0116407D01*
X0006813Y0116137D01*
X0006803Y0115868D01*
X0006800Y0115598D01*
X0006800Y0025942D01*
X0006804Y0025600D01*
X0006817Y0025259D01*
X0006837Y0024918D01*
X0006866Y0024577D01*
X0006903Y0024237D01*
X0006948Y0023899D01*
X0007002Y0023561D01*
X0007063Y0023225D01*
X0007133Y0022890D01*
X0007211Y0022558D01*
X0007297Y0022227D01*
X0007390Y0021898D01*
X0007492Y0021572D01*
X0007602Y0021248D01*
X0007719Y0020927D01*
X0007844Y0020609D01*
X0007977Y0020294D01*
X0008117Y0019983D01*
X0008265Y0019674D01*
X0008420Y0019370D01*
X0008582Y0019069D01*
X0008752Y0018773D01*
X0008929Y0018480D01*
X0009113Y0018192D01*
X0009303Y0017908D01*
X0009501Y0017630D01*
X0009705Y0017356D01*
X0009916Y0017086D01*
X0010133Y0016823D01*
X0010357Y0016564D01*
X0010586Y0016311D01*
X0010822Y0016064D01*
X0011064Y0015822D01*
X0011311Y0015586D01*
X0011564Y0015357D01*
X0011823Y0015133D01*
X0012086Y0014916D01*
X0012356Y0014705D01*
X0012630Y0014501D01*
X0012908Y0014303D01*
X0013192Y0014113D01*
X0013480Y0013929D01*
X0013773Y0013752D01*
X0014069Y0013582D01*
X0014370Y0013420D01*
X0014674Y0013265D01*
X0014983Y0013117D01*
X0015294Y0012977D01*
X0015609Y0012844D01*
X0015927Y0012719D01*
X0016248Y0012602D01*
X0016572Y0012492D01*
X0016898Y0012390D01*
X0017227Y0012297D01*
X0017558Y0012211D01*
X0017890Y0012133D01*
X0018225Y0012063D01*
X0018561Y0012002D01*
X0018899Y0011948D01*
X0019237Y0011903D01*
X0019577Y0011866D01*
X0019918Y0011837D01*
X0020259Y0011817D01*
X0020600Y0011804D01*
X0020942Y0011800D01*
M02*
