%
M48
M72
T01C0.02000
T02C0.02756
T03C0.03150
T04C0.03200
T05C0.04000
T06C0.12598
%
T01
X109083Y119910
X115973Y119910
X110068Y125816
X85461Y125816
X82509Y146485
X91367Y169123
X45600Y196800
X220800Y122400
X239005Y129753
T02
X162666Y29556
X162666Y19556
T03
X104241Y113236
X94241Y113236
X84241Y113236
X74241Y113236
T04
X49359Y120422
X49359Y130422
X28965Y140225
X15107Y140698
X15343Y161839
X30304Y161249
X50776Y171013
X50776Y181013
X30304Y191249
X15343Y191839
X15107Y110698
X28965Y110225
X32312Y73375
X32312Y63375
X32312Y53375
X32312Y43375
X32312Y33375
X119123Y32587
X119123Y42587
X119123Y52587
X119123Y62587
X119123Y72587
X159202Y85461
X159398Y99202
X189398Y99202
X189202Y85461
X204202Y76721
X204202Y66721
X204202Y56721
X204202Y46721
X207548Y29202
X197548Y29202
X197548Y18020
X207548Y18020
X218099Y18178
X218099Y28178
X234202Y46721
X234202Y56721
X234202Y66721
X234202Y76721
X248217Y72627
X250107Y91052
X220107Y91052
X248217Y42627
T05
X224556Y203375
X214556Y203375
X204556Y203375
X194556Y203375
X184556Y203375
X174556Y203375
X164556Y203375
X154556Y203375
X144556Y203375
X134556Y203375
X124556Y203375
X114556Y203375
X104556Y203375
X94556Y203375
X84556Y203375
X74556Y203375
X64556Y203375
X54556Y203375
X44556Y203375
X34556Y203375
X34556Y213375
X44556Y213375
X54556Y213375
X64556Y213375
X74556Y213375
X84556Y213375
X94556Y213375
X104556Y213375
X114556Y213375
X124556Y213375
X134556Y213375
X144556Y213375
X154556Y213375
X164556Y213375
X174556Y213375
X184556Y213375
X194556Y213375
X204556Y213375
X214556Y213375
X224556Y213375
T06
X17548Y17548
X245894Y17548
M30
