%
M48
M72
T01C0.02000
T02C0.02362
T03C0.04000
%
T01
X66800Y29200
X72800Y84400
X101000Y84400
X102800Y98800
X173600Y80200
T02
X29300Y36800
X34300Y36800
X39300Y39300
X39300Y44300
X39300Y49300
X39300Y54300
X39300Y59300
X39300Y64300
X39300Y69300
X39300Y74300
X36800Y79300
X31800Y79300
X26800Y79300
X21800Y79300
X16800Y79300
X11800Y79300
X11800Y44300
X16800Y44300
X21800Y44300
X24300Y39300
T03
X26800Y106800
X36800Y106800
X46800Y106800
X56800Y106800
X66800Y106800
X76800Y106800
X86800Y106800
X96800Y106800
X106800Y106800
X116800Y106800
X126800Y106800
X136800Y106800
X146800Y106800
X156800Y106800
X166800Y106800
X176800Y106800
X186800Y106800
X196800Y106800
X206800Y106800
X216800Y106800
X216800Y116800
X206800Y116800
X196800Y116800
X186800Y116800
X176800Y116800
X166800Y116800
X156800Y116800
X146800Y116800
X136800Y116800
X126800Y116800
X116800Y116800
X106800Y116800
X96800Y116800
X86800Y116800
X76800Y116800
X66800Y116800
X56800Y116800
X46800Y116800
X36800Y116800
X26800Y116800
M30
