G75*
%MOIN*%
%OFA0B0*%
%FSLAX25Y25*%
%IPPOS*%
%LPD*%
%AMOC8*
5,1,8,0,0,1.08239X$1,22.5*
%
%ADD10R,0.16000X0.06000*%
%ADD11OC8,0.06000*%
%ADD12C,0.00600*%
%ADD13C,0.03600*%
%ADD14C,0.01600*%
%ADD15R,0.03962X0.03962*%
D10*
X0016800Y0051800D03*
X0016800Y0071800D03*
D11*
X0026800Y0106800D03*
X0036800Y0106800D03*
X0046800Y0106800D03*
X0056800Y0106800D03*
X0066800Y0106800D03*
X0076800Y0106800D03*
X0086800Y0106800D03*
X0096800Y0106800D03*
X0106800Y0106800D03*
X0116800Y0106800D03*
X0126800Y0106800D03*
X0136800Y0106800D03*
X0146800Y0106800D03*
X0156800Y0106800D03*
X0166800Y0106800D03*
X0176800Y0106800D03*
X0186800Y0106800D03*
X0196800Y0106800D03*
X0206800Y0106800D03*
X0216800Y0106800D03*
X0216800Y0116800D03*
X0206800Y0116800D03*
X0196800Y0116800D03*
X0186800Y0116800D03*
X0176800Y0116800D03*
X0166800Y0116800D03*
X0156800Y0116800D03*
X0146800Y0116800D03*
X0136800Y0116800D03*
X0126800Y0116800D03*
X0116800Y0116800D03*
X0106800Y0116800D03*
X0096800Y0116800D03*
X0086800Y0116800D03*
X0076800Y0116800D03*
X0066800Y0116800D03*
X0056800Y0116800D03*
X0046800Y0116800D03*
X0036800Y0116800D03*
X0026800Y0116800D03*
D12*
X0026800Y0106800D02*
X0026600Y0106600D01*
X0060800Y0072400D01*
X0072800Y0084400D01*
X0077000Y0080200D01*
X0173600Y0080200D01*
X0102800Y0098800D02*
X0078800Y0098800D01*
X0072800Y0104800D01*
X0072800Y0108400D01*
X0073400Y0109000D01*
X0073400Y0110200D01*
X0066800Y0116800D01*
X0063800Y0110200D02*
X0057200Y0116800D01*
X0056800Y0116800D01*
X0063800Y0110200D02*
X0063800Y0109600D01*
X0062600Y0108400D01*
X0062600Y0105400D01*
X0083600Y0084400D01*
X0101000Y0084400D01*
X0066800Y0066400D02*
X0060800Y0072400D01*
X0066800Y0066400D02*
X0066800Y0029200D01*
D13*
X0066800Y0029200D03*
X0072800Y0084400D03*
X0101000Y0084400D03*
X0102800Y0098800D03*
X0173600Y0080200D03*
D14*
X0016602Y0015463D02*
X0014037Y0016944D01*
X0011944Y0019037D01*
X0010463Y0021602D01*
X0009697Y0024462D01*
X0009600Y0025942D01*
X0009600Y0047000D01*
X0016100Y0047000D01*
X0016100Y0051100D01*
X0017500Y0051100D01*
X0017500Y0052500D01*
X0016100Y0052500D01*
X0016100Y0056600D01*
X0009600Y0056600D01*
X0009600Y0067000D01*
X0016100Y0067000D01*
X0016100Y0071100D01*
X0017500Y0071100D01*
X0017500Y0072500D01*
X0016100Y0072500D01*
X0016100Y0076600D01*
X0009600Y0076600D01*
X0009600Y0115598D01*
X0009703Y0116906D01*
X0010511Y0119394D01*
X0012049Y0121511D01*
X0014166Y0123049D01*
X0016655Y0123858D01*
X0017963Y0123961D01*
X0222275Y0123961D01*
X0223636Y0123871D01*
X0226265Y0123167D01*
X0228622Y0121806D01*
X0230546Y0119882D01*
X0231907Y0117525D01*
X0232612Y0114896D01*
X0232701Y0113535D01*
X0232701Y0025055D01*
X0232611Y0023691D01*
X0231905Y0021054D01*
X0230540Y0018691D01*
X0228610Y0016761D01*
X0226247Y0015396D01*
X0223610Y0014689D01*
X0222245Y0014600D01*
X0020942Y0014600D01*
X0019462Y0014697D01*
X0016602Y0015463D01*
X0018342Y0014997D02*
X0224758Y0014997D01*
X0228324Y0016596D02*
X0014641Y0016596D01*
X0012787Y0018194D02*
X0230044Y0018194D01*
X0231177Y0019793D02*
X0011508Y0019793D01*
X0010585Y0021391D02*
X0231995Y0021391D01*
X0232423Y0022990D02*
X0010091Y0022990D01*
X0009689Y0024588D02*
X0232670Y0024588D01*
X0232701Y0026187D02*
X0067887Y0026187D01*
X0067437Y0026000D02*
X0068613Y0026487D01*
X0069513Y0027387D01*
X0070000Y0028563D01*
X0070000Y0029837D01*
X0069513Y0031013D01*
X0068613Y0031913D01*
X0068500Y0031959D01*
X0068500Y0067104D01*
X0063204Y0072400D01*
X0072051Y0081247D01*
X0072163Y0081200D01*
X0073437Y0081200D01*
X0073549Y0081247D01*
X0076296Y0078500D01*
X0170841Y0078500D01*
X0170887Y0078387D01*
X0171787Y0077487D01*
X0172963Y0077000D01*
X0174237Y0077000D01*
X0175413Y0077487D01*
X0176313Y0078387D01*
X0176800Y0079563D01*
X0176800Y0080837D01*
X0176313Y0082013D01*
X0175413Y0082913D01*
X0174237Y0083400D01*
X0172963Y0083400D01*
X0171787Y0082913D01*
X0170887Y0082013D01*
X0170841Y0081900D01*
X0103025Y0081900D01*
X0103713Y0082587D01*
X0104200Y0083763D01*
X0104200Y0085037D01*
X0103713Y0086213D01*
X0102813Y0087113D01*
X0101637Y0087600D01*
X0100363Y0087600D01*
X0099187Y0087113D01*
X0098287Y0086213D01*
X0098241Y0086100D01*
X0084304Y0086100D01*
X0068004Y0102400D01*
X0068623Y0102400D01*
X0071100Y0104877D01*
X0071100Y0104096D01*
X0072096Y0103100D01*
X0078096Y0097100D01*
X0100041Y0097100D01*
X0100087Y0096987D01*
X0100987Y0096087D01*
X0102163Y0095600D01*
X0103437Y0095600D01*
X0104613Y0096087D01*
X0105513Y0096987D01*
X0106000Y0098163D01*
X0106000Y0099437D01*
X0105513Y0100613D01*
X0104613Y0101513D01*
X0103437Y0102000D01*
X0102163Y0102000D01*
X0100987Y0101513D01*
X0100087Y0100613D01*
X0100041Y0100500D01*
X0079504Y0100500D01*
X0077604Y0102400D01*
X0078623Y0102400D01*
X0081200Y0104977D01*
X0081200Y0108623D01*
X0078623Y0111200D01*
X0074977Y0111200D01*
X0074891Y0111113D01*
X0071113Y0114891D01*
X0071200Y0114977D01*
X0071200Y0118623D01*
X0068623Y0121200D01*
X0064977Y0121200D01*
X0062400Y0118623D01*
X0062400Y0114977D01*
X0064977Y0112400D01*
X0068623Y0112400D01*
X0068709Y0112487D01*
X0071596Y0109600D01*
X0071100Y0109104D01*
X0071100Y0108723D01*
X0068623Y0111200D01*
X0065204Y0111200D01*
X0061200Y0115204D01*
X0061200Y0118623D01*
X0058623Y0121200D01*
X0054977Y0121200D01*
X0052400Y0118623D01*
X0052400Y0114977D01*
X0054977Y0112400D01*
X0058623Y0112400D01*
X0058909Y0112687D01*
X0061696Y0109900D01*
X0060900Y0109104D01*
X0060900Y0108923D01*
X0058623Y0111200D01*
X0054977Y0111200D01*
X0052400Y0108623D01*
X0052400Y0104977D01*
X0054977Y0102400D01*
X0058623Y0102400D01*
X0060909Y0104687D01*
X0061896Y0103700D01*
X0082896Y0082700D01*
X0098241Y0082700D01*
X0098287Y0082587D01*
X0098975Y0081900D01*
X0077704Y0081900D01*
X0075953Y0083651D01*
X0076000Y0083763D01*
X0076000Y0085037D01*
X0075513Y0086213D01*
X0074613Y0087113D01*
X0073437Y0087600D01*
X0072163Y0087600D01*
X0070987Y0087113D01*
X0070087Y0086213D01*
X0069600Y0085037D01*
X0069600Y0083763D01*
X0069647Y0083651D01*
X0060800Y0074804D01*
X0030913Y0104691D01*
X0031200Y0104977D01*
X0031200Y0108623D01*
X0028623Y0111200D01*
X0024977Y0111200D01*
X0022400Y0108623D01*
X0022400Y0104977D01*
X0024977Y0102400D01*
X0028396Y0102400D01*
X0059100Y0071696D01*
X0060096Y0070700D01*
X0065100Y0065696D01*
X0065100Y0031959D01*
X0064987Y0031913D01*
X0064087Y0031013D01*
X0063600Y0029837D01*
X0063600Y0028563D01*
X0064087Y0027387D01*
X0064987Y0026487D01*
X0066163Y0026000D01*
X0067437Y0026000D01*
X0065713Y0026187D02*
X0009600Y0026187D01*
X0009600Y0027785D02*
X0063922Y0027785D01*
X0063600Y0029384D02*
X0009600Y0029384D01*
X0009600Y0030982D02*
X0064075Y0030982D01*
X0065100Y0032581D02*
X0009600Y0032581D01*
X0009600Y0034179D02*
X0065100Y0034179D01*
X0065100Y0035778D02*
X0009600Y0035778D01*
X0009600Y0037376D02*
X0065100Y0037376D01*
X0065100Y0038975D02*
X0009600Y0038975D01*
X0009600Y0040573D02*
X0065100Y0040573D01*
X0065100Y0042172D02*
X0009600Y0042172D01*
X0009600Y0043770D02*
X0065100Y0043770D01*
X0065100Y0045369D02*
X0009600Y0045369D01*
X0009600Y0046967D02*
X0065100Y0046967D01*
X0065100Y0048566D02*
X0026600Y0048566D01*
X0026600Y0048563D02*
X0026600Y0051100D01*
X0017500Y0051100D01*
X0017500Y0047000D01*
X0025037Y0047000D01*
X0025495Y0047123D01*
X0025905Y0047360D01*
X0026240Y0047695D01*
X0026477Y0048105D01*
X0026600Y0048563D01*
X0026600Y0050164D02*
X0065100Y0050164D01*
X0065100Y0051763D02*
X0017500Y0051763D01*
X0017500Y0052500D02*
X0026600Y0052500D01*
X0026600Y0055037D01*
X0026477Y0055495D01*
X0026240Y0055905D01*
X0025905Y0056240D01*
X0025495Y0056477D01*
X0025037Y0056600D01*
X0017500Y0056600D01*
X0017500Y0052500D01*
X0017500Y0053361D02*
X0016100Y0053361D01*
X0016100Y0054960D02*
X0017500Y0054960D01*
X0017500Y0056558D02*
X0016100Y0056558D01*
X0009600Y0058157D02*
X0065100Y0058157D01*
X0065100Y0059755D02*
X0009600Y0059755D01*
X0009600Y0061354D02*
X0065100Y0061354D01*
X0065100Y0062952D02*
X0009600Y0062952D01*
X0009600Y0064551D02*
X0065100Y0064551D01*
X0064646Y0066149D02*
X0009600Y0066149D01*
X0016100Y0067748D02*
X0017500Y0067748D01*
X0017500Y0067000D02*
X0025037Y0067000D01*
X0025495Y0067123D01*
X0025905Y0067360D01*
X0026240Y0067695D01*
X0026477Y0068105D01*
X0026600Y0068563D01*
X0026600Y0071100D01*
X0017500Y0071100D01*
X0017500Y0067000D01*
X0017500Y0069346D02*
X0016100Y0069346D01*
X0016100Y0070945D02*
X0017500Y0070945D01*
X0017500Y0072500D02*
X0026600Y0072500D01*
X0026600Y0075037D01*
X0026477Y0075495D01*
X0026240Y0075905D01*
X0025905Y0076240D01*
X0025495Y0076477D01*
X0025037Y0076600D01*
X0017500Y0076600D01*
X0017500Y0072500D01*
X0017500Y0072543D02*
X0016100Y0072543D01*
X0016100Y0074142D02*
X0017500Y0074142D01*
X0017500Y0075740D02*
X0016100Y0075740D01*
X0009600Y0077339D02*
X0053457Y0077339D01*
X0055055Y0075740D02*
X0026335Y0075740D01*
X0026600Y0074142D02*
X0056654Y0074142D01*
X0058252Y0072543D02*
X0026600Y0072543D01*
X0026600Y0070945D02*
X0059851Y0070945D01*
X0061449Y0069346D02*
X0026600Y0069346D01*
X0026271Y0067748D02*
X0063048Y0067748D01*
X0064659Y0070945D02*
X0232701Y0070945D01*
X0232701Y0072543D02*
X0063348Y0072543D01*
X0064946Y0074142D02*
X0232701Y0074142D01*
X0232701Y0075740D02*
X0066545Y0075740D01*
X0068143Y0077339D02*
X0172145Y0077339D01*
X0175055Y0077339D02*
X0232701Y0077339D01*
X0232701Y0078937D02*
X0176541Y0078937D01*
X0176800Y0080536D02*
X0232701Y0080536D01*
X0232701Y0082134D02*
X0176191Y0082134D01*
X0171009Y0082134D02*
X0103260Y0082134D01*
X0104187Y0083733D02*
X0232701Y0083733D01*
X0232701Y0085332D02*
X0104078Y0085332D01*
X0102995Y0086930D02*
X0232701Y0086930D01*
X0232701Y0088529D02*
X0081876Y0088529D01*
X0080277Y0090127D02*
X0232701Y0090127D01*
X0232701Y0091726D02*
X0078679Y0091726D01*
X0077080Y0093324D02*
X0232701Y0093324D01*
X0232701Y0094923D02*
X0075482Y0094923D01*
X0073883Y0096521D02*
X0100553Y0096521D01*
X0105047Y0096521D02*
X0232701Y0096521D01*
X0232701Y0098120D02*
X0105982Y0098120D01*
X0105883Y0099718D02*
X0232701Y0099718D01*
X0232701Y0101317D02*
X0104809Y0101317D01*
X0104977Y0102400D02*
X0108623Y0102400D01*
X0111200Y0104977D01*
X0111200Y0108623D01*
X0108623Y0111200D01*
X0104977Y0111200D01*
X0102400Y0108623D01*
X0102400Y0104977D01*
X0104977Y0102400D01*
X0104462Y0102915D02*
X0099138Y0102915D01*
X0098623Y0102400D02*
X0101200Y0104977D01*
X0101200Y0108623D01*
X0098623Y0111200D01*
X0094977Y0111200D01*
X0092400Y0108623D01*
X0092400Y0104977D01*
X0094977Y0102400D01*
X0098623Y0102400D01*
X0100791Y0101317D02*
X0078688Y0101317D01*
X0079138Y0102915D02*
X0084462Y0102915D01*
X0084977Y0102400D02*
X0088623Y0102400D01*
X0091200Y0104977D01*
X0091200Y0108623D01*
X0088623Y0111200D01*
X0084977Y0111200D01*
X0082400Y0108623D01*
X0082400Y0104977D01*
X0084977Y0102400D01*
X0082864Y0104514D02*
X0080736Y0104514D01*
X0081200Y0106112D02*
X0082400Y0106112D01*
X0082400Y0107711D02*
X0081200Y0107711D01*
X0080513Y0109309D02*
X0083087Y0109309D01*
X0084685Y0110908D02*
X0078915Y0110908D01*
X0078623Y0112400D02*
X0081200Y0114977D01*
X0081200Y0118623D01*
X0078623Y0121200D01*
X0074977Y0121200D01*
X0072400Y0118623D01*
X0072400Y0114977D01*
X0074977Y0112400D01*
X0078623Y0112400D01*
X0078729Y0112506D02*
X0084871Y0112506D01*
X0084977Y0112400D02*
X0088623Y0112400D01*
X0091200Y0114977D01*
X0091200Y0118623D01*
X0088623Y0121200D01*
X0084977Y0121200D01*
X0082400Y0118623D01*
X0082400Y0114977D01*
X0084977Y0112400D01*
X0083273Y0114105D02*
X0080327Y0114105D01*
X0081200Y0115703D02*
X0082400Y0115703D01*
X0082400Y0117302D02*
X0081200Y0117302D01*
X0080922Y0118900D02*
X0082678Y0118900D01*
X0084276Y0120499D02*
X0079324Y0120499D01*
X0074276Y0120499D02*
X0069324Y0120499D01*
X0070922Y0118900D02*
X0072678Y0118900D01*
X0072400Y0117302D02*
X0071200Y0117302D01*
X0071200Y0115703D02*
X0072400Y0115703D01*
X0071899Y0114105D02*
X0073273Y0114105D01*
X0073498Y0112506D02*
X0074871Y0112506D01*
X0071305Y0109309D02*
X0070513Y0109309D01*
X0070288Y0110908D02*
X0068915Y0110908D01*
X0064871Y0112506D02*
X0063898Y0112506D01*
X0063273Y0114105D02*
X0062299Y0114105D01*
X0062400Y0115703D02*
X0061200Y0115703D01*
X0061200Y0117302D02*
X0062400Y0117302D01*
X0062678Y0118900D02*
X0060922Y0118900D01*
X0059324Y0120499D02*
X0064276Y0120499D01*
X0054276Y0120499D02*
X0049889Y0120499D01*
X0048788Y0121600D02*
X0047000Y0121600D01*
X0047000Y0117000D01*
X0051600Y0117000D01*
X0051600Y0118788D01*
X0048788Y0121600D01*
X0047000Y0120499D02*
X0046600Y0120499D01*
X0046600Y0121600D02*
X0044812Y0121600D01*
X0042000Y0118788D01*
X0042000Y0117000D01*
X0046600Y0117000D01*
X0046600Y0121600D01*
X0043711Y0120499D02*
X0039324Y0120499D01*
X0038623Y0121200D02*
X0034977Y0121200D01*
X0032400Y0118623D01*
X0032400Y0114977D01*
X0034977Y0112400D01*
X0038623Y0112400D01*
X0041200Y0114977D01*
X0041200Y0118623D01*
X0038623Y0121200D01*
X0040922Y0118900D02*
X0042112Y0118900D01*
X0042000Y0117302D02*
X0041200Y0117302D01*
X0042000Y0116600D02*
X0042000Y0114812D01*
X0044812Y0112000D01*
X0046600Y0112000D01*
X0046600Y0116600D01*
X0047000Y0116600D01*
X0047000Y0117000D01*
X0046600Y0117000D01*
X0046600Y0116600D01*
X0042000Y0116600D01*
X0042000Y0115703D02*
X0041200Y0115703D01*
X0040327Y0114105D02*
X0042707Y0114105D01*
X0044306Y0112506D02*
X0038729Y0112506D01*
X0038623Y0111200D02*
X0034977Y0111200D01*
X0032400Y0108623D01*
X0032400Y0104977D01*
X0034977Y0102400D01*
X0038623Y0102400D01*
X0041200Y0104977D01*
X0041200Y0108623D01*
X0038623Y0111200D01*
X0038915Y0110908D02*
X0044685Y0110908D01*
X0044977Y0111200D02*
X0042400Y0108623D01*
X0042400Y0104977D01*
X0044977Y0102400D01*
X0048623Y0102400D01*
X0051200Y0104977D01*
X0051200Y0108623D01*
X0048623Y0111200D01*
X0044977Y0111200D01*
X0046600Y0112506D02*
X0047000Y0112506D01*
X0047000Y0112000D02*
X0048788Y0112000D01*
X0051600Y0114812D01*
X0051600Y0116600D01*
X0047000Y0116600D01*
X0047000Y0112000D01*
X0048915Y0110908D02*
X0054685Y0110908D01*
X0054871Y0112506D02*
X0049294Y0112506D01*
X0050893Y0114105D02*
X0053273Y0114105D01*
X0052400Y0115703D02*
X0051600Y0115703D01*
X0051600Y0117302D02*
X0052400Y0117302D01*
X0052678Y0118900D02*
X0051488Y0118900D01*
X0047000Y0118900D02*
X0046600Y0118900D01*
X0046600Y0117302D02*
X0047000Y0117302D01*
X0047000Y0115703D02*
X0046600Y0115703D01*
X0046600Y0114105D02*
X0047000Y0114105D01*
X0050513Y0109309D02*
X0053087Y0109309D01*
X0052400Y0107711D02*
X0051200Y0107711D01*
X0051200Y0106112D02*
X0052400Y0106112D01*
X0052864Y0104514D02*
X0050736Y0104514D01*
X0049138Y0102915D02*
X0054462Y0102915D01*
X0059138Y0102915D02*
X0062681Y0102915D01*
X0064279Y0101317D02*
X0034288Y0101317D01*
X0034462Y0102915D02*
X0032689Y0102915D01*
X0032864Y0104514D02*
X0031090Y0104514D01*
X0031200Y0106112D02*
X0032400Y0106112D01*
X0032400Y0107711D02*
X0031200Y0107711D01*
X0030513Y0109309D02*
X0033087Y0109309D01*
X0034685Y0110908D02*
X0028915Y0110908D01*
X0028623Y0112400D02*
X0031200Y0114977D01*
X0031200Y0118623D01*
X0028623Y0121200D01*
X0024977Y0121200D01*
X0022400Y0118623D01*
X0022400Y0114977D01*
X0024977Y0112400D01*
X0028623Y0112400D01*
X0028729Y0112506D02*
X0034871Y0112506D01*
X0033273Y0114105D02*
X0030327Y0114105D01*
X0031200Y0115703D02*
X0032400Y0115703D01*
X0032400Y0117302D02*
X0031200Y0117302D01*
X0030922Y0118900D02*
X0032678Y0118900D01*
X0034276Y0120499D02*
X0029324Y0120499D01*
X0024276Y0120499D02*
X0011314Y0120499D01*
X0010351Y0118900D02*
X0022678Y0118900D01*
X0022400Y0117302D02*
X0009832Y0117302D01*
X0009703Y0116906D02*
X0009703Y0116906D01*
X0009608Y0115703D02*
X0022400Y0115703D01*
X0023273Y0114105D02*
X0009600Y0114105D01*
X0009600Y0112506D02*
X0024871Y0112506D01*
X0024685Y0110908D02*
X0009600Y0110908D01*
X0009600Y0109309D02*
X0023087Y0109309D01*
X0022400Y0107711D02*
X0009600Y0107711D01*
X0009600Y0106112D02*
X0022400Y0106112D01*
X0022864Y0104514D02*
X0009600Y0104514D01*
X0009600Y0102915D02*
X0024462Y0102915D01*
X0029479Y0101317D02*
X0009600Y0101317D01*
X0009600Y0099718D02*
X0031078Y0099718D01*
X0032676Y0098120D02*
X0009600Y0098120D01*
X0009600Y0096521D02*
X0034275Y0096521D01*
X0035873Y0094923D02*
X0009600Y0094923D01*
X0009600Y0093324D02*
X0037472Y0093324D01*
X0039070Y0091726D02*
X0009600Y0091726D01*
X0009600Y0090127D02*
X0040669Y0090127D01*
X0042267Y0088529D02*
X0009600Y0088529D01*
X0009600Y0086930D02*
X0043866Y0086930D01*
X0045464Y0085332D02*
X0009600Y0085332D01*
X0009600Y0083733D02*
X0047063Y0083733D01*
X0048661Y0082134D02*
X0009600Y0082134D01*
X0009600Y0080536D02*
X0050260Y0080536D01*
X0051858Y0078937D02*
X0009600Y0078937D01*
X0039083Y0096521D02*
X0069075Y0096521D01*
X0070673Y0094923D02*
X0040682Y0094923D01*
X0042280Y0093324D02*
X0072272Y0093324D01*
X0073870Y0091726D02*
X0043879Y0091726D01*
X0045477Y0090127D02*
X0075469Y0090127D01*
X0077067Y0088529D02*
X0047076Y0088529D01*
X0048674Y0086930D02*
X0070805Y0086930D01*
X0069722Y0085332D02*
X0050273Y0085332D01*
X0051871Y0083733D02*
X0069613Y0083733D01*
X0068130Y0082134D02*
X0053470Y0082134D01*
X0055068Y0080536D02*
X0066532Y0080536D01*
X0064933Y0078937D02*
X0056667Y0078937D01*
X0058265Y0077339D02*
X0063335Y0077339D01*
X0061736Y0075740D02*
X0059864Y0075740D01*
X0066258Y0069346D02*
X0232701Y0069346D01*
X0232701Y0067748D02*
X0067856Y0067748D01*
X0068500Y0066149D02*
X0232701Y0066149D01*
X0232701Y0064551D02*
X0068500Y0064551D01*
X0068500Y0062952D02*
X0232701Y0062952D01*
X0232701Y0061354D02*
X0068500Y0061354D01*
X0068500Y0059755D02*
X0232701Y0059755D01*
X0232701Y0058157D02*
X0068500Y0058157D01*
X0068500Y0056558D02*
X0232701Y0056558D01*
X0232701Y0054960D02*
X0068500Y0054960D01*
X0068500Y0053361D02*
X0232701Y0053361D01*
X0232701Y0051763D02*
X0068500Y0051763D01*
X0068500Y0050164D02*
X0232701Y0050164D01*
X0232701Y0048566D02*
X0068500Y0048566D01*
X0068500Y0046967D02*
X0232701Y0046967D01*
X0232701Y0045369D02*
X0068500Y0045369D01*
X0068500Y0043770D02*
X0232701Y0043770D01*
X0232701Y0042172D02*
X0068500Y0042172D01*
X0068500Y0040573D02*
X0232701Y0040573D01*
X0232701Y0038975D02*
X0068500Y0038975D01*
X0068500Y0037376D02*
X0232701Y0037376D01*
X0232701Y0035778D02*
X0068500Y0035778D01*
X0068500Y0034179D02*
X0232701Y0034179D01*
X0232701Y0032581D02*
X0068500Y0032581D01*
X0069525Y0030982D02*
X0232701Y0030982D01*
X0232701Y0029384D02*
X0070000Y0029384D01*
X0069678Y0027785D02*
X0232701Y0027785D01*
X0232701Y0102915D02*
X0219138Y0102915D01*
X0218623Y0102400D02*
X0221200Y0104977D01*
X0221200Y0108623D01*
X0218623Y0111200D01*
X0214977Y0111200D01*
X0212400Y0108623D01*
X0212400Y0104977D01*
X0214977Y0102400D01*
X0218623Y0102400D01*
X0220736Y0104514D02*
X0232701Y0104514D01*
X0232701Y0106112D02*
X0221200Y0106112D01*
X0221200Y0107711D02*
X0232701Y0107711D01*
X0232701Y0109309D02*
X0220513Y0109309D01*
X0218915Y0110908D02*
X0232701Y0110908D01*
X0232701Y0112506D02*
X0218729Y0112506D01*
X0218623Y0112400D02*
X0221200Y0114977D01*
X0221200Y0118623D01*
X0218623Y0121200D01*
X0214977Y0121200D01*
X0212400Y0118623D01*
X0212400Y0114977D01*
X0214977Y0112400D01*
X0218623Y0112400D01*
X0220327Y0114105D02*
X0232663Y0114105D01*
X0232395Y0115703D02*
X0221200Y0115703D01*
X0221200Y0117302D02*
X0231967Y0117302D01*
X0231113Y0118900D02*
X0220922Y0118900D01*
X0219324Y0120499D02*
X0229929Y0120499D01*
X0228118Y0122097D02*
X0012856Y0122097D01*
X0016156Y0123696D02*
X0224291Y0123696D01*
X0214276Y0120499D02*
X0209324Y0120499D01*
X0208623Y0121200D02*
X0204977Y0121200D01*
X0202400Y0118623D01*
X0202400Y0114977D01*
X0204977Y0112400D01*
X0208623Y0112400D01*
X0211200Y0114977D01*
X0211200Y0118623D01*
X0208623Y0121200D01*
X0210922Y0118900D02*
X0212678Y0118900D01*
X0212400Y0117302D02*
X0211200Y0117302D01*
X0211200Y0115703D02*
X0212400Y0115703D01*
X0213273Y0114105D02*
X0210327Y0114105D01*
X0208729Y0112506D02*
X0214871Y0112506D01*
X0214685Y0110908D02*
X0208915Y0110908D01*
X0208623Y0111200D02*
X0204977Y0111200D01*
X0202400Y0108623D01*
X0202400Y0104977D01*
X0204977Y0102400D01*
X0208623Y0102400D01*
X0211200Y0104977D01*
X0211200Y0108623D01*
X0208623Y0111200D01*
X0210513Y0109309D02*
X0213087Y0109309D01*
X0212400Y0107711D02*
X0211200Y0107711D01*
X0211200Y0106112D02*
X0212400Y0106112D01*
X0212864Y0104514D02*
X0210736Y0104514D01*
X0209138Y0102915D02*
X0214462Y0102915D01*
X0204462Y0102915D02*
X0199138Y0102915D01*
X0198623Y0102400D02*
X0201200Y0104977D01*
X0201200Y0108623D01*
X0198623Y0111200D01*
X0194977Y0111200D01*
X0192400Y0108623D01*
X0192400Y0104977D01*
X0194977Y0102400D01*
X0198623Y0102400D01*
X0200736Y0104514D02*
X0202864Y0104514D01*
X0202400Y0106112D02*
X0201200Y0106112D01*
X0201200Y0107711D02*
X0202400Y0107711D01*
X0203087Y0109309D02*
X0200513Y0109309D01*
X0198915Y0110908D02*
X0204685Y0110908D01*
X0204871Y0112506D02*
X0198729Y0112506D01*
X0198623Y0112400D02*
X0201200Y0114977D01*
X0201200Y0118623D01*
X0198623Y0121200D01*
X0194977Y0121200D01*
X0192400Y0118623D01*
X0192400Y0114977D01*
X0194977Y0112400D01*
X0198623Y0112400D01*
X0200327Y0114105D02*
X0203273Y0114105D01*
X0202400Y0115703D02*
X0201200Y0115703D01*
X0201200Y0117302D02*
X0202400Y0117302D01*
X0202678Y0118900D02*
X0200922Y0118900D01*
X0199324Y0120499D02*
X0204276Y0120499D01*
X0194276Y0120499D02*
X0189324Y0120499D01*
X0188623Y0121200D02*
X0184977Y0121200D01*
X0182400Y0118623D01*
X0182400Y0114977D01*
X0184977Y0112400D01*
X0188623Y0112400D01*
X0191200Y0114977D01*
X0191200Y0118623D01*
X0188623Y0121200D01*
X0190922Y0118900D02*
X0192678Y0118900D01*
X0192400Y0117302D02*
X0191200Y0117302D01*
X0191200Y0115703D02*
X0192400Y0115703D01*
X0193273Y0114105D02*
X0190327Y0114105D01*
X0188729Y0112506D02*
X0194871Y0112506D01*
X0194685Y0110908D02*
X0188915Y0110908D01*
X0188623Y0111200D02*
X0184977Y0111200D01*
X0182400Y0108623D01*
X0182400Y0104977D01*
X0184977Y0102400D01*
X0188623Y0102400D01*
X0191200Y0104977D01*
X0191200Y0108623D01*
X0188623Y0111200D01*
X0190513Y0109309D02*
X0193087Y0109309D01*
X0192400Y0107711D02*
X0191200Y0107711D01*
X0191200Y0106112D02*
X0192400Y0106112D01*
X0192864Y0104514D02*
X0190736Y0104514D01*
X0189138Y0102915D02*
X0194462Y0102915D01*
X0184462Y0102915D02*
X0179138Y0102915D01*
X0178623Y0102400D02*
X0181200Y0104977D01*
X0181200Y0108623D01*
X0178623Y0111200D01*
X0174977Y0111200D01*
X0172400Y0108623D01*
X0172400Y0104977D01*
X0174977Y0102400D01*
X0178623Y0102400D01*
X0180736Y0104514D02*
X0182864Y0104514D01*
X0182400Y0106112D02*
X0181200Y0106112D01*
X0181200Y0107711D02*
X0182400Y0107711D01*
X0183087Y0109309D02*
X0180513Y0109309D01*
X0178915Y0110908D02*
X0184685Y0110908D01*
X0184871Y0112506D02*
X0178729Y0112506D01*
X0178623Y0112400D02*
X0181200Y0114977D01*
X0181200Y0118623D01*
X0178623Y0121200D01*
X0174977Y0121200D01*
X0172400Y0118623D01*
X0172400Y0114977D01*
X0174977Y0112400D01*
X0178623Y0112400D01*
X0180327Y0114105D02*
X0183273Y0114105D01*
X0182400Y0115703D02*
X0181200Y0115703D01*
X0181200Y0117302D02*
X0182400Y0117302D01*
X0182678Y0118900D02*
X0180922Y0118900D01*
X0179324Y0120499D02*
X0184276Y0120499D01*
X0174276Y0120499D02*
X0169324Y0120499D01*
X0168623Y0121200D02*
X0164977Y0121200D01*
X0162400Y0118623D01*
X0162400Y0114977D01*
X0164977Y0112400D01*
X0168623Y0112400D01*
X0171200Y0114977D01*
X0171200Y0118623D01*
X0168623Y0121200D01*
X0170922Y0118900D02*
X0172678Y0118900D01*
X0172400Y0117302D02*
X0171200Y0117302D01*
X0171200Y0115703D02*
X0172400Y0115703D01*
X0173273Y0114105D02*
X0170327Y0114105D01*
X0168729Y0112506D02*
X0174871Y0112506D01*
X0174685Y0110908D02*
X0168915Y0110908D01*
X0168623Y0111200D02*
X0164977Y0111200D01*
X0162400Y0108623D01*
X0162400Y0104977D01*
X0164977Y0102400D01*
X0168623Y0102400D01*
X0171200Y0104977D01*
X0171200Y0108623D01*
X0168623Y0111200D01*
X0170513Y0109309D02*
X0173087Y0109309D01*
X0172400Y0107711D02*
X0171200Y0107711D01*
X0171200Y0106112D02*
X0172400Y0106112D01*
X0172864Y0104514D02*
X0170736Y0104514D01*
X0169138Y0102915D02*
X0174462Y0102915D01*
X0164462Y0102915D02*
X0159138Y0102915D01*
X0158623Y0102400D02*
X0161200Y0104977D01*
X0161200Y0108623D01*
X0158623Y0111200D01*
X0154977Y0111200D01*
X0152400Y0108623D01*
X0152400Y0104977D01*
X0154977Y0102400D01*
X0158623Y0102400D01*
X0160736Y0104514D02*
X0162864Y0104514D01*
X0162400Y0106112D02*
X0161200Y0106112D01*
X0161200Y0107711D02*
X0162400Y0107711D01*
X0163087Y0109309D02*
X0160513Y0109309D01*
X0158915Y0110908D02*
X0164685Y0110908D01*
X0164871Y0112506D02*
X0158729Y0112506D01*
X0158623Y0112400D02*
X0161200Y0114977D01*
X0161200Y0118623D01*
X0158623Y0121200D01*
X0154977Y0121200D01*
X0152400Y0118623D01*
X0152400Y0114977D01*
X0154977Y0112400D01*
X0158623Y0112400D01*
X0160327Y0114105D02*
X0163273Y0114105D01*
X0162400Y0115703D02*
X0161200Y0115703D01*
X0161200Y0117302D02*
X0162400Y0117302D01*
X0162678Y0118900D02*
X0160922Y0118900D01*
X0159324Y0120499D02*
X0164276Y0120499D01*
X0154276Y0120499D02*
X0149324Y0120499D01*
X0148623Y0121200D02*
X0144977Y0121200D01*
X0142400Y0118623D01*
X0142400Y0114977D01*
X0144977Y0112400D01*
X0148623Y0112400D01*
X0151200Y0114977D01*
X0151200Y0118623D01*
X0148623Y0121200D01*
X0150922Y0118900D02*
X0152678Y0118900D01*
X0152400Y0117302D02*
X0151200Y0117302D01*
X0151200Y0115703D02*
X0152400Y0115703D01*
X0153273Y0114105D02*
X0150327Y0114105D01*
X0148729Y0112506D02*
X0154871Y0112506D01*
X0154685Y0110908D02*
X0148915Y0110908D01*
X0148623Y0111200D02*
X0144977Y0111200D01*
X0142400Y0108623D01*
X0142400Y0104977D01*
X0144977Y0102400D01*
X0148623Y0102400D01*
X0151200Y0104977D01*
X0151200Y0108623D01*
X0148623Y0111200D01*
X0150513Y0109309D02*
X0153087Y0109309D01*
X0152400Y0107711D02*
X0151200Y0107711D01*
X0151200Y0106112D02*
X0152400Y0106112D01*
X0152864Y0104514D02*
X0150736Y0104514D01*
X0149138Y0102915D02*
X0154462Y0102915D01*
X0144462Y0102915D02*
X0139138Y0102915D01*
X0138623Y0102400D02*
X0141200Y0104977D01*
X0141200Y0108623D01*
X0138623Y0111200D01*
X0134977Y0111200D01*
X0132400Y0108623D01*
X0132400Y0104977D01*
X0134977Y0102400D01*
X0138623Y0102400D01*
X0140736Y0104514D02*
X0142864Y0104514D01*
X0142400Y0106112D02*
X0141200Y0106112D01*
X0141200Y0107711D02*
X0142400Y0107711D01*
X0143087Y0109309D02*
X0140513Y0109309D01*
X0138915Y0110908D02*
X0144685Y0110908D01*
X0144871Y0112506D02*
X0138729Y0112506D01*
X0138623Y0112400D02*
X0141200Y0114977D01*
X0141200Y0118623D01*
X0138623Y0121200D01*
X0134977Y0121200D01*
X0132400Y0118623D01*
X0132400Y0114977D01*
X0134977Y0112400D01*
X0138623Y0112400D01*
X0140327Y0114105D02*
X0143273Y0114105D01*
X0142400Y0115703D02*
X0141200Y0115703D01*
X0141200Y0117302D02*
X0142400Y0117302D01*
X0142678Y0118900D02*
X0140922Y0118900D01*
X0139324Y0120499D02*
X0144276Y0120499D01*
X0134276Y0120499D02*
X0129324Y0120499D01*
X0128623Y0121200D02*
X0124977Y0121200D01*
X0122400Y0118623D01*
X0122400Y0114977D01*
X0124977Y0112400D01*
X0128623Y0112400D01*
X0131200Y0114977D01*
X0131200Y0118623D01*
X0128623Y0121200D01*
X0124276Y0120499D02*
X0119324Y0120499D01*
X0118623Y0121200D02*
X0114977Y0121200D01*
X0112400Y0118623D01*
X0112400Y0114977D01*
X0114977Y0112400D01*
X0118623Y0112400D01*
X0121200Y0114977D01*
X0121200Y0118623D01*
X0118623Y0121200D01*
X0114276Y0120499D02*
X0109324Y0120499D01*
X0108623Y0121200D02*
X0104977Y0121200D01*
X0102400Y0118623D01*
X0102400Y0114977D01*
X0104977Y0112400D01*
X0108623Y0112400D01*
X0111200Y0114977D01*
X0111200Y0118623D01*
X0108623Y0121200D01*
X0104276Y0120499D02*
X0099324Y0120499D01*
X0098623Y0121200D02*
X0094977Y0121200D01*
X0092400Y0118623D01*
X0092400Y0114977D01*
X0094977Y0112400D01*
X0098623Y0112400D01*
X0101200Y0114977D01*
X0101200Y0118623D01*
X0098623Y0121200D01*
X0094276Y0120499D02*
X0089324Y0120499D01*
X0090922Y0118900D02*
X0092678Y0118900D01*
X0092400Y0117302D02*
X0091200Y0117302D01*
X0091200Y0115703D02*
X0092400Y0115703D01*
X0093273Y0114105D02*
X0090327Y0114105D01*
X0088729Y0112506D02*
X0094871Y0112506D01*
X0094685Y0110908D02*
X0088915Y0110908D01*
X0090513Y0109309D02*
X0093087Y0109309D01*
X0092400Y0107711D02*
X0091200Y0107711D01*
X0091200Y0106112D02*
X0092400Y0106112D01*
X0092864Y0104514D02*
X0090736Y0104514D01*
X0089138Y0102915D02*
X0094462Y0102915D01*
X0100736Y0104514D02*
X0102864Y0104514D01*
X0102400Y0106112D02*
X0101200Y0106112D01*
X0101200Y0107711D02*
X0102400Y0107711D01*
X0103087Y0109309D02*
X0100513Y0109309D01*
X0098915Y0110908D02*
X0104685Y0110908D01*
X0104871Y0112506D02*
X0098729Y0112506D01*
X0100327Y0114105D02*
X0103273Y0114105D01*
X0102400Y0115703D02*
X0101200Y0115703D01*
X0101200Y0117302D02*
X0102400Y0117302D01*
X0102678Y0118900D02*
X0100922Y0118900D01*
X0110922Y0118900D02*
X0112678Y0118900D01*
X0112400Y0117302D02*
X0111200Y0117302D01*
X0111200Y0115703D02*
X0112400Y0115703D01*
X0113273Y0114105D02*
X0110327Y0114105D01*
X0108729Y0112506D02*
X0114871Y0112506D01*
X0114977Y0111200D02*
X0112400Y0108623D01*
X0112400Y0104977D01*
X0114977Y0102400D01*
X0118623Y0102400D01*
X0121200Y0104977D01*
X0121200Y0108623D01*
X0118623Y0111200D01*
X0114977Y0111200D01*
X0114685Y0110908D02*
X0108915Y0110908D01*
X0110513Y0109309D02*
X0113087Y0109309D01*
X0112400Y0107711D02*
X0111200Y0107711D01*
X0111200Y0106112D02*
X0112400Y0106112D01*
X0112864Y0104514D02*
X0110736Y0104514D01*
X0109138Y0102915D02*
X0114462Y0102915D01*
X0119138Y0102915D02*
X0124462Y0102915D01*
X0124977Y0102400D02*
X0128623Y0102400D01*
X0131200Y0104977D01*
X0131200Y0108623D01*
X0128623Y0111200D01*
X0124977Y0111200D01*
X0122400Y0108623D01*
X0122400Y0104977D01*
X0124977Y0102400D01*
X0122864Y0104514D02*
X0120736Y0104514D01*
X0121200Y0106112D02*
X0122400Y0106112D01*
X0122400Y0107711D02*
X0121200Y0107711D01*
X0120513Y0109309D02*
X0123087Y0109309D01*
X0124685Y0110908D02*
X0118915Y0110908D01*
X0118729Y0112506D02*
X0124871Y0112506D01*
X0123273Y0114105D02*
X0120327Y0114105D01*
X0121200Y0115703D02*
X0122400Y0115703D01*
X0122400Y0117302D02*
X0121200Y0117302D01*
X0120922Y0118900D02*
X0122678Y0118900D01*
X0130922Y0118900D02*
X0132678Y0118900D01*
X0132400Y0117302D02*
X0131200Y0117302D01*
X0131200Y0115703D02*
X0132400Y0115703D01*
X0133273Y0114105D02*
X0130327Y0114105D01*
X0128729Y0112506D02*
X0134871Y0112506D01*
X0134685Y0110908D02*
X0128915Y0110908D01*
X0130513Y0109309D02*
X0133087Y0109309D01*
X0132400Y0107711D02*
X0131200Y0107711D01*
X0131200Y0106112D02*
X0132400Y0106112D01*
X0132864Y0104514D02*
X0130736Y0104514D01*
X0129138Y0102915D02*
X0134462Y0102915D01*
X0099005Y0086930D02*
X0083474Y0086930D01*
X0080264Y0085332D02*
X0075878Y0085332D01*
X0075987Y0083733D02*
X0081863Y0083733D01*
X0078666Y0086930D02*
X0074795Y0086930D01*
X0077470Y0082134D02*
X0098740Y0082134D01*
X0075858Y0078937D02*
X0069742Y0078937D01*
X0071340Y0080536D02*
X0074260Y0080536D01*
X0072285Y0098120D02*
X0077076Y0098120D01*
X0075478Y0099718D02*
X0070686Y0099718D01*
X0069088Y0101317D02*
X0073879Y0101317D01*
X0072281Y0102915D02*
X0069138Y0102915D01*
X0070736Y0104514D02*
X0071100Y0104514D01*
X0065878Y0099718D02*
X0035886Y0099718D01*
X0037485Y0098120D02*
X0067476Y0098120D01*
X0061082Y0104514D02*
X0060736Y0104514D01*
X0060513Y0109309D02*
X0061105Y0109309D01*
X0060688Y0110908D02*
X0058915Y0110908D01*
X0059090Y0112506D02*
X0058729Y0112506D01*
X0043087Y0109309D02*
X0040513Y0109309D01*
X0041200Y0107711D02*
X0042400Y0107711D01*
X0042400Y0106112D02*
X0041200Y0106112D01*
X0040736Y0104514D02*
X0042864Y0104514D01*
X0044462Y0102915D02*
X0039138Y0102915D01*
X0025192Y0056558D02*
X0065100Y0056558D01*
X0065100Y0054960D02*
X0026600Y0054960D01*
X0026600Y0053361D02*
X0065100Y0053361D01*
X0017500Y0050164D02*
X0016100Y0050164D01*
X0016100Y0048566D02*
X0017500Y0048566D01*
D15*
X0016800Y0044300D03*
X0011800Y0044300D03*
X0021800Y0044300D03*
X0024300Y0039300D03*
X0029300Y0036800D03*
X0034300Y0036800D03*
X0039300Y0039300D03*
X0039300Y0044300D03*
X0039300Y0049300D03*
X0039300Y0054300D03*
X0039300Y0059300D03*
X0039300Y0064300D03*
X0039300Y0069300D03*
X0039300Y0074300D03*
X0036800Y0079300D03*
X0031800Y0079300D03*
X0026800Y0079300D03*
X0021800Y0079300D03*
X0016800Y0079300D03*
X0011800Y0079300D03*
M02*
