G75*
%MOIN*%
%OFA0B0*%
%FSLAX25Y25*%
%IPPOS*%
%LPD*%
%AMOC8*
5,1,8,0,0,1.08239X$1,22.5*
%
%ADD10C,0.00600*%
%ADD11C,0.00500*%
%ADD12C,0.00800*%
%ADD13R,0.00200X0.00050*%
%ADD14R,0.00400X0.00050*%
%ADD15R,0.00500X0.00050*%
%ADD16R,0.00600X0.00050*%
%ADD17R,0.00700X0.00050*%
%ADD18R,0.00800X0.00050*%
%ADD19R,0.00900X0.00050*%
%ADD20R,0.01000X0.00050*%
%ADD21R,0.01100X0.00050*%
%ADD22R,0.01200X0.00050*%
%ADD23R,0.01300X0.00050*%
%ADD24R,0.01400X0.00050*%
%ADD25R,0.01500X0.00050*%
%ADD26R,0.01600X0.00050*%
%ADD27R,0.01700X0.00050*%
%ADD28R,0.01800X0.00050*%
%ADD29R,0.01900X0.00050*%
%ADD30R,0.02000X0.00050*%
%ADD31R,0.02100X0.00050*%
%ADD32R,0.02200X0.00050*%
%ADD33R,0.02300X0.00050*%
%ADD34R,0.02400X0.00050*%
%ADD35R,0.02500X0.00050*%
%ADD36R,0.02600X0.00050*%
%ADD37R,0.02700X0.00050*%
%ADD38R,0.02800X0.00050*%
%ADD39R,0.02900X0.00050*%
%ADD40R,0.03000X0.00050*%
%ADD41R,0.01450X0.00050*%
%ADD42R,0.00250X0.00050*%
%ADD43R,0.00300X0.00050*%
%ADD44R,0.00450X0.00050*%
%ADD45R,0.00550X0.00050*%
%ADD46R,0.00650X0.00050*%
%ADD47R,0.00750X0.00050*%
%ADD48R,0.00850X0.00050*%
%ADD49R,0.00950X0.00050*%
%ADD50R,0.01050X0.00050*%
%ADD51R,0.01150X0.00050*%
%ADD52R,0.01250X0.00050*%
%ADD53R,0.01350X0.00050*%
%ADD54R,0.00050X0.00050*%
%ADD55R,0.00350X0.00050*%
%ADD56R,0.01550X0.00050*%
%ADD57R,0.01650X0.00050*%
%ADD58R,0.01750X0.00050*%
%ADD59R,0.01850X0.00050*%
%ADD60R,0.01950X0.00050*%
%ADD61R,0.02050X0.00050*%
%ADD62R,0.02150X0.00050*%
%ADD63R,0.02250X0.00050*%
%ADD64R,0.02750X0.00050*%
%ADD65R,0.02350X0.00050*%
%ADD66R,0.02950X0.00050*%
%ADD67R,0.02450X0.00050*%
%ADD68R,0.03200X0.00050*%
%ADD69R,0.02550X0.00050*%
%ADD70R,0.02650X0.00050*%
%ADD71R,0.03350X0.00050*%
%ADD72R,0.03500X0.00050*%
%ADD73R,0.03550X0.00050*%
%ADD74R,0.02850X0.00050*%
%ADD75R,0.03600X0.00050*%
%ADD76R,0.03700X0.00050*%
%ADD77R,0.03050X0.00050*%
%ADD78R,0.03750X0.00050*%
%ADD79R,0.03150X0.00050*%
%ADD80R,0.03800X0.00050*%
%ADD81R,0.03250X0.00050*%
%ADD82R,0.03850X0.00050*%
%ADD83R,0.03450X0.00050*%
%ADD84R,0.03900X0.00050*%
%ADD85R,0.03950X0.00050*%
%ADD86R,0.03650X0.00050*%
%ADD87R,0.00100X0.00050*%
%ADD88R,0.03300X0.00050*%
%ADD89R,0.03100X0.00050*%
%ADD90R,0.04000X0.00050*%
%ADD91R,0.00150X0.00050*%
%ADD92R,0.03400X0.00050*%
%ADD93C,0.00400*%
%ADD94R,0.01673X0.01280*%
%ADD95R,0.01378X0.01378*%
D10*
X0073427Y0055100D02*
X0073427Y0061505D01*
X0076630Y0061505D01*
X0077697Y0060438D01*
X0077697Y0058303D01*
X0076630Y0057235D01*
X0073427Y0057235D01*
X0075562Y0057235D02*
X0077697Y0055100D01*
X0079872Y0055100D02*
X0079872Y0061505D01*
X0084143Y0055100D01*
X0084143Y0061505D01*
X0086318Y0060438D02*
X0087386Y0061505D01*
X0089521Y0061505D01*
X0090588Y0060438D01*
X0090588Y0059370D01*
X0086318Y0055100D01*
X0090588Y0055100D01*
X0092763Y0058303D02*
X0097034Y0058303D01*
X0099209Y0059370D02*
X0099209Y0060438D01*
X0100277Y0061505D01*
X0102412Y0061505D01*
X0103479Y0060438D01*
X0103479Y0059370D01*
X0102412Y0058303D01*
X0100277Y0058303D01*
X0099209Y0059370D01*
X0100277Y0058303D02*
X0099209Y0057235D01*
X0099209Y0056168D01*
X0100277Y0055100D01*
X0102412Y0055100D01*
X0103479Y0056168D01*
X0103479Y0057235D01*
X0102412Y0058303D01*
X0105654Y0056168D02*
X0106722Y0055100D01*
X0108857Y0055100D01*
X0109925Y0056168D01*
X0109925Y0057235D01*
X0108857Y0058303D01*
X0107790Y0058303D01*
X0108857Y0058303D02*
X0109925Y0059370D01*
X0109925Y0060438D01*
X0108857Y0061505D01*
X0106722Y0061505D01*
X0105654Y0060438D01*
X0095966Y0061505D02*
X0095966Y0055100D01*
X0092763Y0058303D02*
X0095966Y0061505D01*
X0157100Y0064106D02*
X0157100Y0057100D01*
X0161771Y0057100D01*
X0164098Y0058268D02*
X0165266Y0057100D01*
X0167601Y0057100D01*
X0168769Y0058268D01*
X0168769Y0060603D01*
X0167601Y0061771D01*
X0165266Y0061771D01*
X0164098Y0060603D01*
X0164098Y0058268D01*
X0171096Y0059435D02*
X0174599Y0059435D01*
X0175767Y0060603D01*
X0175767Y0062938D01*
X0174599Y0064106D01*
X0171096Y0064106D01*
X0171096Y0057100D01*
X0173431Y0059435D02*
X0175767Y0057100D01*
X0178094Y0058268D02*
X0179262Y0059435D01*
X0182765Y0059435D01*
X0182765Y0060603D02*
X0182765Y0057100D01*
X0179262Y0057100D01*
X0178094Y0058268D01*
X0181597Y0061771D02*
X0182765Y0060603D01*
X0181597Y0061771D02*
X0179262Y0061771D01*
X0185092Y0064106D02*
X0185092Y0057100D01*
X0187427Y0059435D01*
X0189763Y0057100D01*
X0189763Y0064106D01*
X0192090Y0061771D02*
X0194425Y0064106D01*
X0196761Y0061771D01*
X0196761Y0057100D01*
X0199088Y0057100D02*
X0199088Y0064106D01*
X0203758Y0057100D01*
X0203758Y0064106D01*
X0196761Y0060603D02*
X0192090Y0060603D01*
X0192090Y0061771D02*
X0192090Y0057100D01*
X0213084Y0057100D02*
X0213084Y0064106D01*
X0216587Y0064106D01*
X0217754Y0062938D01*
X0217754Y0060603D01*
X0216587Y0059435D01*
X0213084Y0059435D01*
X0220082Y0057100D02*
X0222417Y0057100D01*
X0221249Y0057100D02*
X0221249Y0061771D01*
X0220082Y0061771D01*
X0221249Y0064106D02*
X0221249Y0065274D01*
X0219300Y0101800D02*
X0214300Y0101800D01*
X0211800Y0104300D01*
X0211800Y0119300D01*
X0214300Y0121800D01*
X0219300Y0121800D01*
X0221800Y0119300D01*
X0221800Y0104300D01*
X0219300Y0101800D01*
X0211800Y0104300D02*
X0209300Y0101800D01*
X0204300Y0101800D01*
X0201800Y0104300D01*
X0201800Y0119300D01*
X0204300Y0121800D01*
X0209300Y0121800D01*
X0211800Y0119300D01*
X0201800Y0119300D02*
X0199300Y0121800D01*
X0194300Y0121800D01*
X0191800Y0119300D01*
X0191800Y0104300D01*
X0189300Y0101800D01*
X0184300Y0101800D01*
X0181800Y0104300D01*
X0181800Y0119300D01*
X0184300Y0121800D01*
X0189300Y0121800D01*
X0191800Y0119300D01*
X0181800Y0119300D02*
X0179300Y0121800D01*
X0174300Y0121800D01*
X0171800Y0119300D01*
X0171800Y0104300D01*
X0169300Y0101800D01*
X0164300Y0101800D01*
X0161800Y0104300D01*
X0161800Y0119300D01*
X0164300Y0121800D01*
X0169300Y0121800D01*
X0171800Y0119300D01*
X0161800Y0119300D02*
X0159300Y0121800D01*
X0154300Y0121800D01*
X0151800Y0119300D01*
X0151800Y0104300D01*
X0149300Y0101800D01*
X0144300Y0101800D01*
X0141800Y0104300D01*
X0141800Y0119300D01*
X0144300Y0121800D01*
X0149300Y0121800D01*
X0151800Y0119300D01*
X0141800Y0119300D02*
X0139300Y0121800D01*
X0134300Y0121800D01*
X0131800Y0119300D01*
X0131800Y0104300D01*
X0129300Y0101800D01*
X0124300Y0101800D01*
X0121800Y0104300D01*
X0121800Y0119300D01*
X0124300Y0121800D01*
X0129300Y0121800D01*
X0131800Y0119300D01*
X0121800Y0119300D02*
X0119300Y0121800D01*
X0114300Y0121800D01*
X0111800Y0119300D01*
X0111800Y0104300D01*
X0109300Y0101800D01*
X0104300Y0101800D01*
X0101800Y0104300D01*
X0101800Y0119300D01*
X0104300Y0121800D01*
X0109300Y0121800D01*
X0111800Y0119300D01*
X0101800Y0119300D02*
X0099300Y0121800D01*
X0094300Y0121800D01*
X0091800Y0119300D01*
X0091800Y0104300D01*
X0089300Y0101800D01*
X0084300Y0101800D01*
X0081800Y0104300D01*
X0081800Y0119300D01*
X0084300Y0121800D01*
X0089300Y0121800D01*
X0091800Y0119300D01*
X0081800Y0119300D02*
X0079300Y0121800D01*
X0074300Y0121800D01*
X0071800Y0119300D01*
X0071800Y0104300D01*
X0074300Y0101800D01*
X0079300Y0101800D01*
X0081800Y0104300D01*
X0071800Y0104300D02*
X0069300Y0101800D01*
X0064300Y0101800D01*
X0061800Y0104300D01*
X0061800Y0119300D01*
X0064300Y0121800D01*
X0069300Y0121800D01*
X0071800Y0119300D01*
X0061800Y0119300D02*
X0059300Y0121800D01*
X0054300Y0121800D01*
X0051800Y0119300D01*
X0051800Y0104300D01*
X0054300Y0101800D01*
X0059300Y0101800D01*
X0061800Y0104300D01*
X0051800Y0104300D02*
X0049300Y0101800D01*
X0044300Y0101800D01*
X0041800Y0104300D01*
X0041800Y0119300D01*
X0044300Y0121800D01*
X0049300Y0121800D01*
X0051800Y0119300D01*
X0041800Y0119300D02*
X0039300Y0121800D01*
X0034300Y0121800D01*
X0031800Y0119300D01*
X0031800Y0104300D01*
X0034300Y0101800D01*
X0039300Y0101800D01*
X0041800Y0104300D01*
X0031800Y0104300D02*
X0029300Y0101800D01*
X0024300Y0101800D01*
X0021800Y0104300D01*
X0021800Y0119300D01*
X0024300Y0121800D01*
X0029300Y0121800D01*
X0031800Y0119300D01*
X0091800Y0104300D02*
X0094300Y0101800D01*
X0099300Y0101800D01*
X0101800Y0104300D01*
X0111800Y0104300D02*
X0114300Y0101800D01*
X0119300Y0101800D01*
X0121800Y0104300D01*
X0131800Y0104300D02*
X0134300Y0101800D01*
X0139300Y0101800D01*
X0141800Y0104300D01*
X0151800Y0104300D02*
X0154300Y0101800D01*
X0159300Y0101800D01*
X0161800Y0104300D01*
X0171800Y0104300D02*
X0174300Y0101800D01*
X0179300Y0101800D01*
X0181800Y0104300D01*
X0191800Y0104300D02*
X0194300Y0101800D01*
X0199300Y0101800D01*
X0201800Y0104300D01*
D11*
X0034260Y0124550D02*
X0031258Y0124550D01*
X0032759Y0124550D02*
X0032759Y0129054D01*
X0031258Y0127553D01*
X0029656Y0128303D02*
X0029656Y0126802D01*
X0028906Y0126051D01*
X0026654Y0126051D01*
X0026654Y0124550D02*
X0026654Y0129054D01*
X0028906Y0129054D01*
X0029656Y0128303D01*
X0025053Y0129054D02*
X0023551Y0129054D01*
X0024302Y0129054D02*
X0024302Y0125301D01*
X0023551Y0124550D01*
X0022801Y0124550D01*
X0022050Y0125301D01*
D12*
X0031800Y0036800D02*
X0031800Y0021800D01*
X0031800Y0076800D02*
X0031800Y0091800D01*
X0136800Y0091800D02*
X0136800Y0021800D01*
D13*
X0172225Y0032100D03*
X0172375Y0034700D03*
X0172375Y0037250D03*
X0172075Y0048600D03*
X0172225Y0053750D03*
X0227475Y0041300D03*
X0229625Y0044550D03*
D14*
X0227475Y0044350D03*
X0227425Y0044200D03*
X0227425Y0044150D03*
X0227425Y0044100D03*
X0227425Y0044050D03*
X0227425Y0044000D03*
X0227425Y0043950D03*
X0227425Y0043900D03*
X0227425Y0043850D03*
X0227475Y0043700D03*
X0225575Y0043700D03*
X0225575Y0043750D03*
X0225575Y0043800D03*
X0225575Y0043850D03*
X0225575Y0043900D03*
X0225575Y0043950D03*
X0225575Y0044000D03*
X0225575Y0044050D03*
X0225575Y0044100D03*
X0225575Y0044150D03*
X0225575Y0044200D03*
X0225575Y0044250D03*
X0225575Y0044300D03*
X0225575Y0044350D03*
X0225575Y0044400D03*
X0225575Y0044450D03*
X0225575Y0044500D03*
X0225575Y0044550D03*
X0225575Y0044600D03*
X0225575Y0044650D03*
X0225575Y0044700D03*
X0225575Y0044750D03*
X0225575Y0044800D03*
X0225575Y0044850D03*
X0225575Y0044900D03*
X0225575Y0044950D03*
X0225575Y0045000D03*
X0225575Y0045050D03*
X0225575Y0045100D03*
X0225575Y0045150D03*
X0225575Y0043650D03*
X0225575Y0043600D03*
X0225575Y0043550D03*
X0225575Y0043500D03*
X0225575Y0043450D03*
X0225575Y0043400D03*
X0225575Y0043350D03*
X0225575Y0043300D03*
X0225575Y0043250D03*
X0225575Y0043200D03*
X0225575Y0043150D03*
X0225575Y0043100D03*
X0225575Y0043050D03*
X0225575Y0043000D03*
X0225575Y0042950D03*
X0225575Y0042900D03*
X0225575Y0042850D03*
X0225575Y0042800D03*
X0225575Y0042750D03*
X0225575Y0042700D03*
X0225575Y0042650D03*
X0225575Y0042600D03*
X0225575Y0042550D03*
X0225575Y0042500D03*
X0225575Y0042450D03*
X0225575Y0042400D03*
X0225575Y0042350D03*
X0225575Y0042300D03*
X0225575Y0042250D03*
X0225575Y0042200D03*
X0225575Y0042150D03*
X0225575Y0042100D03*
X0225575Y0042050D03*
X0225575Y0042000D03*
X0225575Y0041950D03*
X0225575Y0041900D03*
X0225575Y0041850D03*
X0225575Y0041800D03*
X0225575Y0041750D03*
X0225575Y0041700D03*
X0225575Y0041650D03*
X0225575Y0041600D03*
X0225575Y0041550D03*
X0225575Y0041500D03*
X0225575Y0041450D03*
X0225575Y0041400D03*
X0225575Y0041350D03*
X0225575Y0041300D03*
X0225575Y0041250D03*
X0225575Y0041200D03*
X0225575Y0041150D03*
X0227425Y0041200D03*
X0228575Y0040450D03*
X0229775Y0041450D03*
X0229775Y0041500D03*
X0229825Y0041650D03*
X0229825Y0041700D03*
X0229825Y0041750D03*
X0229825Y0041800D03*
X0229825Y0041850D03*
X0229775Y0042000D03*
X0222175Y0042000D03*
X0222175Y0042050D03*
X0222175Y0042100D03*
X0222175Y0042150D03*
X0222175Y0042200D03*
X0222175Y0042250D03*
X0222175Y0042300D03*
X0222175Y0042350D03*
X0222175Y0042400D03*
X0222175Y0042450D03*
X0222175Y0042500D03*
X0222175Y0042550D03*
X0222175Y0042600D03*
X0222175Y0042650D03*
X0222175Y0042700D03*
X0222175Y0042750D03*
X0222175Y0042800D03*
X0222175Y0042850D03*
X0222175Y0042900D03*
X0222175Y0042950D03*
X0222175Y0043000D03*
X0222175Y0043050D03*
X0222175Y0043100D03*
X0222175Y0043150D03*
X0222175Y0043200D03*
X0222175Y0043250D03*
X0222175Y0043300D03*
X0222175Y0043350D03*
X0222175Y0043400D03*
X0222175Y0043450D03*
X0222175Y0043500D03*
X0222175Y0043550D03*
X0222175Y0043600D03*
X0222175Y0043650D03*
X0222175Y0043700D03*
X0222175Y0043750D03*
X0222175Y0043800D03*
X0222175Y0043850D03*
X0222175Y0043900D03*
X0222175Y0043950D03*
X0222175Y0044000D03*
X0222175Y0044050D03*
X0222175Y0044100D03*
X0222175Y0044150D03*
X0222175Y0044200D03*
X0222175Y0044250D03*
X0222175Y0044300D03*
X0222175Y0044350D03*
X0222175Y0044400D03*
X0222175Y0044450D03*
X0222175Y0044500D03*
X0222175Y0044550D03*
X0220325Y0043650D03*
X0220375Y0043500D03*
X0220375Y0043450D03*
X0220425Y0043300D03*
X0220425Y0043250D03*
X0220425Y0043200D03*
X0220425Y0043150D03*
X0220425Y0043100D03*
X0220425Y0043050D03*
X0220425Y0043000D03*
X0220425Y0042700D03*
X0220425Y0042650D03*
X0220425Y0042600D03*
X0220425Y0042550D03*
X0220425Y0042500D03*
X0220425Y0042450D03*
X0220375Y0042300D03*
X0220375Y0042250D03*
X0220375Y0042200D03*
X0220325Y0042100D03*
X0220325Y0042050D03*
X0222175Y0041950D03*
X0222175Y0041900D03*
X0222175Y0041850D03*
X0222175Y0041800D03*
X0222175Y0041750D03*
X0222175Y0041700D03*
X0222175Y0041650D03*
X0222175Y0041600D03*
X0222175Y0041550D03*
X0222175Y0041500D03*
X0222175Y0041450D03*
X0222175Y0041400D03*
X0222175Y0041350D03*
X0222175Y0041300D03*
X0222175Y0041250D03*
X0222175Y0041200D03*
X0222175Y0041150D03*
X0222175Y0041100D03*
X0222175Y0041050D03*
X0222175Y0041000D03*
X0222175Y0040950D03*
X0222175Y0040900D03*
X0222175Y0040850D03*
X0222175Y0040800D03*
X0222175Y0040750D03*
X0222175Y0040700D03*
X0222175Y0040650D03*
X0222175Y0040600D03*
X0216225Y0042050D03*
X0216175Y0042200D03*
X0216175Y0042250D03*
X0216125Y0042400D03*
X0216125Y0042450D03*
X0216125Y0042500D03*
X0216125Y0042550D03*
X0216075Y0042800D03*
X0216075Y0042850D03*
X0216075Y0042900D03*
X0216125Y0043150D03*
X0216125Y0043200D03*
X0216125Y0043250D03*
X0216125Y0043300D03*
X0216125Y0043350D03*
X0216175Y0043500D03*
X0216175Y0043550D03*
X0216225Y0043700D03*
X0214375Y0043700D03*
X0214375Y0043750D03*
X0214375Y0043800D03*
X0214375Y0043850D03*
X0214375Y0043900D03*
X0214375Y0043950D03*
X0214375Y0044000D03*
X0214375Y0044050D03*
X0214375Y0044100D03*
X0214375Y0044150D03*
X0214375Y0044200D03*
X0214375Y0044250D03*
X0214375Y0044300D03*
X0214375Y0044350D03*
X0214375Y0044400D03*
X0214375Y0044450D03*
X0214375Y0044500D03*
X0214375Y0044550D03*
X0214375Y0044600D03*
X0214375Y0044650D03*
X0214375Y0044700D03*
X0214375Y0044750D03*
X0214375Y0044800D03*
X0214375Y0044850D03*
X0214375Y0044900D03*
X0214375Y0044950D03*
X0214375Y0045000D03*
X0214375Y0045050D03*
X0214375Y0045100D03*
X0214375Y0045150D03*
X0214375Y0043650D03*
X0214375Y0043600D03*
X0214375Y0043550D03*
X0214375Y0043500D03*
X0214375Y0043450D03*
X0214375Y0043400D03*
X0214375Y0043350D03*
X0214375Y0043300D03*
X0214375Y0043250D03*
X0214375Y0043200D03*
X0214375Y0043150D03*
X0214375Y0043100D03*
X0214375Y0043050D03*
X0214375Y0043000D03*
X0214375Y0042950D03*
X0214375Y0042900D03*
X0214375Y0042850D03*
X0214375Y0042800D03*
X0214375Y0042750D03*
X0214375Y0042700D03*
X0214375Y0042650D03*
X0214375Y0042600D03*
X0214375Y0042550D03*
X0214375Y0042500D03*
X0214375Y0042450D03*
X0214375Y0042400D03*
X0214375Y0042350D03*
X0214375Y0042300D03*
X0214375Y0042250D03*
X0214375Y0042200D03*
X0214375Y0042150D03*
X0214375Y0042100D03*
X0214375Y0042050D03*
X0214375Y0042000D03*
X0214375Y0041950D03*
X0214375Y0041900D03*
X0214375Y0041850D03*
X0214375Y0041800D03*
X0214375Y0041750D03*
X0214375Y0041700D03*
X0214375Y0041650D03*
X0214375Y0041600D03*
X0214375Y0041550D03*
X0214375Y0041500D03*
X0214375Y0041450D03*
X0214375Y0041400D03*
X0214375Y0041350D03*
X0214375Y0041300D03*
X0214375Y0041250D03*
X0214375Y0041200D03*
X0214375Y0041150D03*
X0214375Y0041100D03*
X0214375Y0041050D03*
X0214375Y0041000D03*
X0214375Y0040950D03*
X0214375Y0040900D03*
X0214375Y0040850D03*
X0214375Y0040800D03*
X0214375Y0040750D03*
X0214375Y0040700D03*
X0214375Y0040650D03*
X0214375Y0040600D03*
X0211325Y0040600D03*
X0211325Y0040650D03*
X0211325Y0040700D03*
X0211325Y0040750D03*
X0211325Y0040800D03*
X0211325Y0040850D03*
X0211325Y0040900D03*
X0211325Y0040950D03*
X0211325Y0041000D03*
X0211325Y0041050D03*
X0211325Y0041100D03*
X0211325Y0041150D03*
X0211325Y0041200D03*
X0211325Y0041250D03*
X0211325Y0041300D03*
X0211325Y0041350D03*
X0211325Y0041400D03*
X0211325Y0041450D03*
X0211325Y0041500D03*
X0211325Y0041550D03*
X0211325Y0041600D03*
X0211325Y0041650D03*
X0211325Y0041700D03*
X0211325Y0041750D03*
X0211325Y0041800D03*
X0211325Y0041850D03*
X0211325Y0041900D03*
X0211325Y0041950D03*
X0211325Y0042000D03*
X0211325Y0042050D03*
X0211325Y0042100D03*
X0211325Y0042150D03*
X0211325Y0042200D03*
X0211325Y0042250D03*
X0211325Y0042300D03*
X0211325Y0042350D03*
X0211325Y0042400D03*
X0211325Y0042450D03*
X0211325Y0042500D03*
X0211325Y0042550D03*
X0211325Y0042600D03*
X0211325Y0042650D03*
X0211325Y0042700D03*
X0211325Y0042750D03*
X0211325Y0042800D03*
X0211325Y0042850D03*
X0211325Y0042900D03*
X0211325Y0042950D03*
X0211325Y0043000D03*
X0211325Y0043050D03*
X0211325Y0043100D03*
X0211325Y0043150D03*
X0211325Y0043200D03*
X0211325Y0043250D03*
X0211325Y0043300D03*
X0211325Y0043350D03*
X0211325Y0043400D03*
X0211325Y0043450D03*
X0211325Y0043500D03*
X0211325Y0043550D03*
X0211325Y0043600D03*
X0211325Y0043650D03*
X0211325Y0043700D03*
X0211325Y0043750D03*
X0211325Y0043800D03*
X0211325Y0043850D03*
X0211325Y0043900D03*
X0211325Y0043950D03*
X0211325Y0044000D03*
X0211325Y0044050D03*
X0211325Y0044100D03*
X0211325Y0044150D03*
X0211325Y0044200D03*
X0211325Y0044250D03*
X0211325Y0044300D03*
X0211325Y0044350D03*
X0211325Y0044400D03*
X0211325Y0044450D03*
X0211325Y0044500D03*
X0211325Y0044550D03*
X0211325Y0044600D03*
X0211325Y0044650D03*
X0211325Y0044700D03*
X0211325Y0044750D03*
X0208075Y0043450D03*
X0208025Y0043550D03*
X0207975Y0043700D03*
X0207925Y0043800D03*
X0207875Y0043900D03*
X0207825Y0044050D03*
X0207775Y0044150D03*
X0207725Y0044300D03*
X0207675Y0044400D03*
X0207625Y0044500D03*
X0207625Y0044550D03*
X0207575Y0044650D03*
X0207075Y0044600D03*
X0207025Y0044500D03*
X0207025Y0044450D03*
X0206975Y0044400D03*
X0206975Y0044350D03*
X0206925Y0044250D03*
X0206925Y0044200D03*
X0206875Y0044150D03*
X0206875Y0044100D03*
X0206825Y0044050D03*
X0206825Y0044000D03*
X0206775Y0043950D03*
X0206775Y0043900D03*
X0206775Y0043850D03*
X0206725Y0043800D03*
X0206725Y0043750D03*
X0206675Y0043700D03*
X0206675Y0043650D03*
X0206625Y0043600D03*
X0206625Y0043550D03*
X0206625Y0043500D03*
X0206575Y0043450D03*
X0206575Y0043400D03*
X0206525Y0043350D03*
X0206525Y0043300D03*
X0206475Y0043250D03*
X0206475Y0043200D03*
X0206425Y0043100D03*
X0206425Y0043050D03*
X0206375Y0043000D03*
X0206375Y0042950D03*
X0206325Y0042900D03*
X0206325Y0042850D03*
X0206275Y0042750D03*
X0206275Y0042700D03*
X0206225Y0042650D03*
X0206225Y0042600D03*
X0206175Y0042550D03*
X0206175Y0042500D03*
X0206125Y0042400D03*
X0206075Y0042300D03*
X0206075Y0042250D03*
X0205825Y0041700D03*
X0205775Y0041600D03*
X0205775Y0041550D03*
X0205725Y0041500D03*
X0205725Y0041450D03*
X0205675Y0041350D03*
X0205625Y0041250D03*
X0205575Y0041100D03*
X0205525Y0041000D03*
X0205475Y0040900D03*
X0205425Y0040750D03*
X0205375Y0040650D03*
X0203475Y0041350D03*
X0203475Y0041400D03*
X0203475Y0041450D03*
X0203525Y0041500D03*
X0203525Y0041550D03*
X0203575Y0041600D03*
X0203575Y0041650D03*
X0203575Y0041700D03*
X0203625Y0041750D03*
X0203625Y0041800D03*
X0203625Y0041850D03*
X0203675Y0041900D03*
X0203675Y0041950D03*
X0203725Y0042050D03*
X0203725Y0042100D03*
X0203775Y0042150D03*
X0203775Y0042200D03*
X0203775Y0042250D03*
X0203825Y0042300D03*
X0203825Y0042350D03*
X0203875Y0042450D03*
X0203875Y0042500D03*
X0203925Y0042550D03*
X0203925Y0042600D03*
X0203975Y0042700D03*
X0203975Y0042750D03*
X0204025Y0042850D03*
X0204025Y0042900D03*
X0204075Y0042950D03*
X0204075Y0043000D03*
X0204125Y0043100D03*
X0204125Y0043150D03*
X0204175Y0043250D03*
X0204175Y0043300D03*
X0204225Y0043400D03*
X0204275Y0043500D03*
X0204275Y0043550D03*
X0204325Y0043650D03*
X0204375Y0043800D03*
X0204425Y0043900D03*
X0204425Y0043950D03*
X0204475Y0044050D03*
X0204525Y0044200D03*
X0204575Y0044300D03*
X0204575Y0044350D03*
X0204625Y0044450D03*
X0204675Y0044600D03*
X0204725Y0044750D03*
X0204775Y0044850D03*
X0204825Y0045000D03*
X0201875Y0044000D03*
X0201925Y0043850D03*
X0202025Y0043600D03*
X0202075Y0043450D03*
X0202125Y0043300D03*
X0202175Y0043200D03*
X0202225Y0043050D03*
X0202275Y0042900D03*
X0202325Y0042800D03*
X0202375Y0042650D03*
X0202425Y0042500D03*
X0202475Y0042400D03*
X0202475Y0042350D03*
X0202525Y0042250D03*
X0202575Y0042100D03*
X0202625Y0042000D03*
X0202625Y0041950D03*
X0202675Y0041850D03*
X0202725Y0041700D03*
X0202775Y0041550D03*
X0202825Y0041450D03*
X0202825Y0041400D03*
X0202875Y0041300D03*
X0202925Y0041150D03*
X0203375Y0041150D03*
X0203425Y0041200D03*
X0203425Y0041250D03*
X0203425Y0041300D03*
X0200275Y0042200D03*
X0200275Y0042250D03*
X0200275Y0042300D03*
X0200325Y0042450D03*
X0200325Y0042500D03*
X0200325Y0042550D03*
X0200325Y0042600D03*
X0200325Y0042650D03*
X0200325Y0042700D03*
X0200325Y0043050D03*
X0200325Y0043100D03*
X0200325Y0043150D03*
X0200325Y0043200D03*
X0200325Y0043250D03*
X0200325Y0043300D03*
X0200275Y0043450D03*
X0200275Y0043500D03*
X0200225Y0043650D03*
X0200175Y0043800D03*
X0201725Y0044400D03*
X0201575Y0044800D03*
X0201525Y0044950D03*
X0200225Y0042050D03*
X0196125Y0042050D03*
X0196075Y0042200D03*
X0196075Y0042250D03*
X0196025Y0042400D03*
X0196025Y0042450D03*
X0196025Y0042500D03*
X0196025Y0042550D03*
X0195975Y0042850D03*
X0195975Y0042900D03*
X0196025Y0043150D03*
X0196025Y0043200D03*
X0196025Y0043250D03*
X0196025Y0043300D03*
X0196025Y0043350D03*
X0196075Y0043500D03*
X0196075Y0043550D03*
X0196125Y0043700D03*
X0194275Y0043700D03*
X0194275Y0043750D03*
X0194275Y0043800D03*
X0194275Y0043850D03*
X0194275Y0043900D03*
X0194275Y0043950D03*
X0194275Y0044000D03*
X0194275Y0044050D03*
X0194275Y0044100D03*
X0194275Y0044150D03*
X0194275Y0044200D03*
X0194275Y0044250D03*
X0194275Y0044300D03*
X0194275Y0044350D03*
X0194275Y0044400D03*
X0194275Y0044450D03*
X0194275Y0044500D03*
X0194275Y0044550D03*
X0194275Y0044600D03*
X0194275Y0044650D03*
X0194275Y0044700D03*
X0194275Y0044750D03*
X0194275Y0044800D03*
X0194275Y0044850D03*
X0194275Y0044900D03*
X0194275Y0044950D03*
X0194275Y0045000D03*
X0194275Y0045050D03*
X0194275Y0045100D03*
X0194275Y0045150D03*
X0194275Y0043650D03*
X0194275Y0043600D03*
X0194275Y0043550D03*
X0194275Y0043500D03*
X0194275Y0043450D03*
X0194275Y0043400D03*
X0194275Y0043350D03*
X0194275Y0043300D03*
X0194275Y0043250D03*
X0194275Y0043200D03*
X0194275Y0043150D03*
X0194275Y0043100D03*
X0194275Y0043050D03*
X0194275Y0043000D03*
X0194275Y0042950D03*
X0194275Y0042900D03*
X0194275Y0042850D03*
X0194275Y0042800D03*
X0194275Y0042750D03*
X0194275Y0042700D03*
X0194275Y0042650D03*
X0194275Y0042600D03*
X0194275Y0042550D03*
X0194275Y0042500D03*
X0194275Y0042450D03*
X0194275Y0042400D03*
X0194275Y0042350D03*
X0194275Y0042300D03*
X0194275Y0042250D03*
X0194275Y0042200D03*
X0194275Y0042150D03*
X0194275Y0042100D03*
X0194275Y0042050D03*
X0194275Y0042000D03*
X0194275Y0041950D03*
X0194275Y0041900D03*
X0194275Y0041850D03*
X0194275Y0041800D03*
X0194275Y0041750D03*
X0194275Y0041700D03*
X0194275Y0041650D03*
X0194275Y0041600D03*
X0194275Y0041550D03*
X0194275Y0041500D03*
X0194275Y0041450D03*
X0194275Y0041400D03*
X0194275Y0041350D03*
X0194275Y0041300D03*
X0194275Y0041250D03*
X0194275Y0041200D03*
X0194275Y0041150D03*
X0190875Y0041150D03*
X0190875Y0041200D03*
X0190875Y0041250D03*
X0190875Y0041300D03*
X0190875Y0041350D03*
X0190875Y0041400D03*
X0190875Y0041450D03*
X0190875Y0041500D03*
X0190875Y0041550D03*
X0190875Y0041600D03*
X0190875Y0041650D03*
X0190875Y0041700D03*
X0190875Y0041750D03*
X0190875Y0041800D03*
X0190875Y0041850D03*
X0190875Y0041900D03*
X0190875Y0041950D03*
X0190875Y0042000D03*
X0190875Y0042050D03*
X0190875Y0042100D03*
X0190875Y0042150D03*
X0190875Y0042200D03*
X0190875Y0042250D03*
X0190875Y0042300D03*
X0190875Y0042350D03*
X0190875Y0042400D03*
X0190875Y0042450D03*
X0190875Y0042500D03*
X0190875Y0042550D03*
X0190875Y0042600D03*
X0190875Y0042650D03*
X0190875Y0042700D03*
X0190875Y0042750D03*
X0190875Y0042800D03*
X0190875Y0042850D03*
X0190875Y0042900D03*
X0190875Y0042950D03*
X0190875Y0043000D03*
X0190875Y0043050D03*
X0190875Y0043100D03*
X0190875Y0043150D03*
X0190875Y0043200D03*
X0190875Y0043250D03*
X0190875Y0043300D03*
X0190875Y0043350D03*
X0190875Y0043400D03*
X0190875Y0043450D03*
X0190875Y0043500D03*
X0190875Y0043550D03*
X0190875Y0043600D03*
X0190875Y0043650D03*
X0190875Y0043700D03*
X0190875Y0043750D03*
X0190875Y0043800D03*
X0190875Y0043850D03*
X0190875Y0043900D03*
X0190875Y0043950D03*
X0190875Y0044000D03*
X0190875Y0044050D03*
X0190875Y0044100D03*
X0190875Y0044150D03*
X0190875Y0044200D03*
X0190875Y0044250D03*
X0190875Y0044300D03*
X0190875Y0044350D03*
X0190875Y0044400D03*
X0190875Y0044450D03*
X0190875Y0044500D03*
X0190875Y0044550D03*
X0185475Y0044550D03*
X0185475Y0044500D03*
X0185475Y0044450D03*
X0185475Y0044400D03*
X0185475Y0044350D03*
X0185475Y0044300D03*
X0185475Y0044250D03*
X0185475Y0044200D03*
X0185475Y0044150D03*
X0185475Y0044100D03*
X0185475Y0044050D03*
X0185475Y0044000D03*
X0185475Y0043950D03*
X0185475Y0043900D03*
X0185475Y0043850D03*
X0185475Y0043800D03*
X0185475Y0043750D03*
X0185475Y0043700D03*
X0185475Y0043650D03*
X0185475Y0043600D03*
X0185475Y0043550D03*
X0185475Y0043500D03*
X0185475Y0043450D03*
X0185475Y0043400D03*
X0185475Y0043350D03*
X0185475Y0043300D03*
X0185475Y0043250D03*
X0185475Y0043200D03*
X0185475Y0043150D03*
X0185475Y0043100D03*
X0185475Y0043050D03*
X0185475Y0043000D03*
X0185475Y0042950D03*
X0185475Y0042900D03*
X0185475Y0042850D03*
X0185475Y0042800D03*
X0185475Y0042750D03*
X0185475Y0042700D03*
X0185475Y0042650D03*
X0185475Y0042600D03*
X0185475Y0042550D03*
X0185475Y0042500D03*
X0185475Y0042450D03*
X0185475Y0042400D03*
X0185475Y0042350D03*
X0185475Y0042300D03*
X0185475Y0042250D03*
X0185475Y0042200D03*
X0185475Y0042150D03*
X0185475Y0042100D03*
X0185475Y0042050D03*
X0185475Y0042000D03*
X0185475Y0041950D03*
X0185475Y0041900D03*
X0185475Y0041850D03*
X0185475Y0041800D03*
X0185475Y0041750D03*
X0185475Y0041700D03*
X0185475Y0041650D03*
X0185475Y0041600D03*
X0185475Y0041550D03*
X0185475Y0041500D03*
X0185475Y0041450D03*
X0185475Y0041400D03*
X0185475Y0041350D03*
X0185475Y0041300D03*
X0185475Y0041250D03*
X0185475Y0041200D03*
X0185475Y0041150D03*
X0185475Y0041100D03*
X0185475Y0041050D03*
X0185475Y0041000D03*
X0185475Y0040950D03*
X0185475Y0040900D03*
X0185475Y0040850D03*
X0185475Y0040800D03*
X0185475Y0040750D03*
X0185475Y0040700D03*
X0185475Y0040650D03*
X0185475Y0040600D03*
X0183425Y0040600D03*
X0183425Y0040650D03*
X0183425Y0040700D03*
X0183425Y0040750D03*
X0183425Y0040800D03*
X0183425Y0040850D03*
X0183425Y0040900D03*
X0183425Y0040950D03*
X0183425Y0041000D03*
X0183425Y0041050D03*
X0183425Y0041100D03*
X0183425Y0041150D03*
X0183425Y0041200D03*
X0183425Y0041250D03*
X0183425Y0041300D03*
X0183425Y0041350D03*
X0183425Y0041400D03*
X0183425Y0041450D03*
X0183425Y0041500D03*
X0183425Y0041550D03*
X0183425Y0041600D03*
X0183425Y0041650D03*
X0183425Y0041700D03*
X0183425Y0041750D03*
X0183425Y0041800D03*
X0183425Y0041850D03*
X0183425Y0041900D03*
X0183425Y0041950D03*
X0183425Y0042000D03*
X0183425Y0042050D03*
X0183425Y0042100D03*
X0183425Y0042150D03*
X0183425Y0042200D03*
X0183425Y0042250D03*
X0183425Y0042300D03*
X0183425Y0042350D03*
X0183425Y0042400D03*
X0183425Y0042450D03*
X0183425Y0042500D03*
X0183425Y0042550D03*
X0183425Y0042600D03*
X0183425Y0042650D03*
X0183425Y0042700D03*
X0183425Y0042750D03*
X0183425Y0042800D03*
X0183425Y0042850D03*
X0183425Y0042900D03*
X0183425Y0042950D03*
X0183425Y0043000D03*
X0183425Y0043050D03*
X0183425Y0043100D03*
X0183425Y0043150D03*
X0183425Y0043200D03*
X0183425Y0043250D03*
X0183425Y0043300D03*
X0183425Y0043350D03*
X0183425Y0043400D03*
X0183425Y0043450D03*
X0183425Y0043500D03*
X0183425Y0043550D03*
X0183425Y0043600D03*
X0183425Y0043650D03*
X0183425Y0043700D03*
X0183425Y0043750D03*
X0183425Y0043800D03*
X0183425Y0043850D03*
X0183425Y0043900D03*
X0183425Y0043950D03*
X0183425Y0044000D03*
X0183425Y0044050D03*
X0183425Y0044100D03*
X0183425Y0044150D03*
X0183425Y0044200D03*
X0183425Y0044250D03*
X0183425Y0044300D03*
X0183425Y0044350D03*
X0183425Y0044400D03*
X0183425Y0044450D03*
X0183425Y0044500D03*
X0183425Y0044550D03*
X0183425Y0044600D03*
X0183425Y0044650D03*
X0183425Y0044700D03*
X0183425Y0044750D03*
X0183425Y0044800D03*
X0183425Y0044850D03*
X0183425Y0044900D03*
X0183425Y0044950D03*
X0183425Y0045000D03*
X0183425Y0045050D03*
X0183425Y0045100D03*
X0183425Y0045150D03*
X0190875Y0041100D03*
X0190875Y0041050D03*
X0190875Y0041000D03*
X0190875Y0040950D03*
X0190875Y0040900D03*
X0190875Y0040850D03*
X0190875Y0040800D03*
X0190875Y0040750D03*
X0190875Y0040700D03*
X0190875Y0040650D03*
X0190875Y0040600D03*
X0208125Y0043300D03*
X0208175Y0043200D03*
X0208225Y0043100D03*
X0208275Y0042950D03*
X0208325Y0042850D03*
X0208425Y0042600D03*
X0208525Y0042350D03*
X0208575Y0042250D03*
X0172425Y0034850D03*
X0172225Y0032150D03*
X0172025Y0048450D03*
X0172025Y0050950D03*
X0172225Y0053700D03*
D15*
X0172225Y0053650D03*
X0171975Y0050850D03*
X0171975Y0048350D03*
X0172225Y0046100D03*
X0160375Y0044150D03*
X0172475Y0037500D03*
X0172475Y0034950D03*
X0172225Y0032200D03*
X0187425Y0042450D03*
X0187425Y0042500D03*
X0187375Y0042550D03*
X0187325Y0042600D03*
X0187325Y0042650D03*
X0187275Y0042700D03*
X0187225Y0042750D03*
X0187175Y0042850D03*
X0187125Y0042900D03*
X0187075Y0043000D03*
X0187025Y0043050D03*
X0186975Y0043100D03*
X0186975Y0043150D03*
X0186925Y0043200D03*
X0186875Y0043250D03*
X0186825Y0043350D03*
X0186775Y0043400D03*
X0186725Y0043500D03*
X0186675Y0043550D03*
X0186625Y0043600D03*
X0186625Y0043650D03*
X0186575Y0043700D03*
X0186525Y0043750D03*
X0186525Y0043800D03*
X0186475Y0043850D03*
X0186425Y0043900D03*
X0186375Y0044000D03*
X0186325Y0044050D03*
X0186275Y0044150D03*
X0186225Y0044200D03*
X0186175Y0044250D03*
X0186175Y0044300D03*
X0186125Y0044350D03*
X0186075Y0044400D03*
X0186025Y0044500D03*
X0185975Y0044550D03*
X0187475Y0042400D03*
X0187525Y0042350D03*
X0187575Y0042250D03*
X0187625Y0042200D03*
X0187675Y0042100D03*
X0187725Y0042050D03*
X0187775Y0042000D03*
X0187775Y0041950D03*
X0187825Y0041900D03*
X0187875Y0041850D03*
X0187925Y0041750D03*
X0187975Y0041700D03*
X0188025Y0041600D03*
X0188075Y0041550D03*
X0188125Y0041450D03*
X0188175Y0041400D03*
X0188225Y0041350D03*
X0188225Y0041300D03*
X0188275Y0041250D03*
X0188325Y0041200D03*
X0192425Y0043050D03*
X0192425Y0043100D03*
X0192375Y0043150D03*
X0192325Y0043200D03*
X0192275Y0043300D03*
X0192225Y0043350D03*
X0192175Y0043450D03*
X0192125Y0043500D03*
X0192075Y0043550D03*
X0192075Y0043600D03*
X0192025Y0043650D03*
X0191975Y0043700D03*
X0191975Y0043750D03*
X0191925Y0043800D03*
X0191875Y0043850D03*
X0191825Y0043950D03*
X0191775Y0044000D03*
X0191725Y0044100D03*
X0191675Y0044150D03*
X0191625Y0044200D03*
X0191625Y0044250D03*
X0191575Y0044300D03*
X0191525Y0044350D03*
X0191475Y0044450D03*
X0191425Y0044500D03*
X0192475Y0043000D03*
X0192525Y0042950D03*
X0192575Y0042850D03*
X0192625Y0042800D03*
X0192675Y0042700D03*
X0192725Y0042650D03*
X0192775Y0042600D03*
X0192775Y0042550D03*
X0192825Y0042500D03*
X0192875Y0042450D03*
X0192875Y0042400D03*
X0192925Y0042350D03*
X0192975Y0042300D03*
X0193025Y0042200D03*
X0193075Y0042150D03*
X0193125Y0042050D03*
X0193175Y0042000D03*
X0193225Y0041950D03*
X0193225Y0041900D03*
X0193275Y0041850D03*
X0193325Y0041800D03*
X0193375Y0041700D03*
X0193425Y0041650D03*
X0193475Y0041550D03*
X0193525Y0041500D03*
X0193575Y0041450D03*
X0193575Y0041400D03*
X0193625Y0041350D03*
X0193675Y0041300D03*
X0193675Y0041250D03*
X0193725Y0041200D03*
X0193775Y0041150D03*
X0196225Y0041800D03*
X0196275Y0041700D03*
X0196325Y0041600D03*
X0196375Y0041550D03*
X0196425Y0041500D03*
X0196425Y0041450D03*
X0196475Y0041400D03*
X0196525Y0041350D03*
X0198175Y0040450D03*
X0199775Y0041300D03*
X0199825Y0041350D03*
X0199875Y0041400D03*
X0199925Y0041500D03*
X0199975Y0041550D03*
X0200075Y0044000D03*
X0200025Y0044100D03*
X0199975Y0044150D03*
X0199925Y0044250D03*
X0199875Y0044300D03*
X0196475Y0044300D03*
X0196425Y0044250D03*
X0196375Y0044200D03*
X0196325Y0044100D03*
X0209025Y0041150D03*
X0209175Y0040800D03*
X0216325Y0041800D03*
X0216375Y0041700D03*
X0216425Y0041600D03*
X0216475Y0041550D03*
X0216525Y0041450D03*
X0216575Y0041400D03*
X0216625Y0041350D03*
X0219925Y0041350D03*
X0219975Y0041400D03*
X0220025Y0041500D03*
X0220075Y0041550D03*
X0220125Y0041650D03*
X0220175Y0044000D03*
X0220125Y0044100D03*
X0220075Y0044150D03*
X0220025Y0044250D03*
X0219975Y0044300D03*
X0219925Y0044350D03*
X0222675Y0044550D03*
X0222725Y0044500D03*
X0222775Y0044450D03*
X0222825Y0044350D03*
X0222875Y0044300D03*
X0222925Y0044200D03*
X0222975Y0044150D03*
X0223025Y0044100D03*
X0223025Y0044050D03*
X0223075Y0044000D03*
X0223125Y0043950D03*
X0223175Y0043850D03*
X0223225Y0043800D03*
X0223275Y0043700D03*
X0223325Y0043650D03*
X0223375Y0043600D03*
X0223375Y0043550D03*
X0223425Y0043500D03*
X0223475Y0043450D03*
X0223475Y0043400D03*
X0223525Y0043350D03*
X0223575Y0043300D03*
X0223625Y0043200D03*
X0223675Y0043150D03*
X0223725Y0043050D03*
X0223775Y0043000D03*
X0223825Y0042950D03*
X0223825Y0042900D03*
X0223875Y0042850D03*
X0223925Y0042800D03*
X0223975Y0042700D03*
X0224025Y0042650D03*
X0224075Y0042550D03*
X0224125Y0042500D03*
X0224175Y0042450D03*
X0224175Y0042400D03*
X0224225Y0042350D03*
X0224275Y0042300D03*
X0224275Y0042250D03*
X0224325Y0042200D03*
X0224375Y0042150D03*
X0224425Y0042050D03*
X0224475Y0042000D03*
X0224525Y0041900D03*
X0224575Y0041850D03*
X0224625Y0041800D03*
X0224625Y0041750D03*
X0224675Y0041700D03*
X0224725Y0041650D03*
X0224775Y0041550D03*
X0224825Y0041500D03*
X0224875Y0041400D03*
X0224925Y0041350D03*
X0224975Y0041300D03*
X0224975Y0041250D03*
X0225025Y0041200D03*
X0225075Y0041150D03*
X0227525Y0043550D03*
X0227575Y0043500D03*
X0227575Y0044550D03*
X0227625Y0044650D03*
X0229675Y0042250D03*
X0229725Y0042150D03*
X0229725Y0041300D03*
X0229675Y0041200D03*
X0229625Y0041150D03*
X0216575Y0044300D03*
X0216525Y0044250D03*
X0216475Y0044200D03*
X0216425Y0044100D03*
D16*
X0219675Y0044600D03*
X0219725Y0044550D03*
X0222275Y0045050D03*
X0222275Y0045100D03*
X0227675Y0043350D03*
X0227725Y0043300D03*
X0229525Y0042400D03*
X0229575Y0042350D03*
X0227475Y0041050D03*
X0227425Y0041100D03*
X0225475Y0040650D03*
X0225475Y0040600D03*
X0219825Y0041250D03*
X0219775Y0041200D03*
X0219725Y0041150D03*
X0216825Y0041150D03*
X0216775Y0041200D03*
X0203125Y0040800D03*
X0199725Y0041250D03*
X0199675Y0041200D03*
X0199625Y0041150D03*
X0196725Y0041150D03*
X0196675Y0041200D03*
X0194175Y0040650D03*
X0194175Y0040600D03*
X0188775Y0040600D03*
X0190975Y0045050D03*
X0190975Y0045100D03*
X0185575Y0045050D03*
X0196775Y0044600D03*
X0196825Y0044650D03*
X0199575Y0044600D03*
X0199625Y0044550D03*
X0172525Y0037600D03*
X0172525Y0035050D03*
X0172225Y0032250D03*
X0172225Y0043650D03*
X0172225Y0046050D03*
X0171925Y0048250D03*
X0171925Y0050750D03*
X0172225Y0053600D03*
X0160375Y0044200D03*
D17*
X0172225Y0046000D03*
X0171875Y0048150D03*
X0171875Y0050650D03*
X0172225Y0053550D03*
X0185625Y0044950D03*
X0185625Y0044900D03*
X0191025Y0044950D03*
X0196975Y0044750D03*
X0196925Y0041000D03*
X0199425Y0041000D03*
X0199475Y0041050D03*
X0194125Y0040800D03*
X0194125Y0040750D03*
X0188725Y0040750D03*
X0172575Y0037700D03*
X0172575Y0035150D03*
X0172225Y0032300D03*
X0207325Y0044850D03*
X0217075Y0044750D03*
X0222325Y0044900D03*
X0222325Y0044950D03*
X0227875Y0043200D03*
X0229475Y0042450D03*
X0229375Y0040900D03*
X0225425Y0040800D03*
X0225425Y0040750D03*
X0219575Y0041050D03*
X0219525Y0041000D03*
X0217025Y0041000D03*
X0229525Y0044800D03*
D18*
X0227975Y0043150D03*
X0229325Y0042550D03*
X0229275Y0040850D03*
X0227675Y0040900D03*
X0225375Y0040900D03*
X0225375Y0040950D03*
X0219425Y0040950D03*
X0217125Y0040950D03*
X0217175Y0044800D03*
X0219375Y0044800D03*
X0222375Y0044800D03*
X0207325Y0044750D03*
X0199275Y0044800D03*
X0197075Y0044800D03*
X0191075Y0044800D03*
X0185675Y0044800D03*
X0185675Y0044750D03*
X0188675Y0040900D03*
X0194075Y0040900D03*
X0194075Y0040950D03*
X0197025Y0040950D03*
X0199325Y0040950D03*
X0172625Y0037800D03*
X0172625Y0035250D03*
X0172225Y0032350D03*
X0172225Y0043600D03*
X0172225Y0045950D03*
X0171825Y0048050D03*
X0171825Y0050550D03*
X0172225Y0053500D03*
X0160325Y0044250D03*
D19*
X0172225Y0045900D03*
X0171775Y0047950D03*
X0171775Y0050450D03*
X0172225Y0053450D03*
X0185725Y0044650D03*
X0185725Y0044600D03*
X0191125Y0044650D03*
X0197175Y0044850D03*
X0198175Y0045250D03*
X0194025Y0041100D03*
X0194025Y0041050D03*
X0188625Y0041050D03*
X0172675Y0037900D03*
X0172675Y0035350D03*
X0172225Y0032400D03*
X0217275Y0044850D03*
X0218275Y0045250D03*
X0222425Y0044650D03*
X0228025Y0044900D03*
X0229325Y0044900D03*
X0228075Y0043100D03*
X0229225Y0042600D03*
X0227775Y0040850D03*
X0225325Y0041050D03*
D20*
X0228175Y0043050D03*
X0229125Y0042650D03*
X0219175Y0040850D03*
X0199075Y0040850D03*
X0172775Y0038050D03*
X0172775Y0035500D03*
X0172725Y0035450D03*
X0172225Y0032450D03*
X0160725Y0042350D03*
X0157325Y0042700D03*
X0157325Y0042750D03*
X0157325Y0042800D03*
X0157325Y0042850D03*
X0157325Y0042900D03*
X0157325Y0042950D03*
X0157325Y0043000D03*
X0157325Y0043050D03*
X0155375Y0043050D03*
X0155375Y0043000D03*
X0155375Y0042950D03*
X0155375Y0042900D03*
X0155375Y0042850D03*
X0155375Y0042800D03*
X0155375Y0042750D03*
X0155375Y0042700D03*
X0155375Y0042650D03*
X0155375Y0042600D03*
X0155375Y0042550D03*
X0155375Y0042500D03*
X0155375Y0042450D03*
X0155375Y0042400D03*
X0155375Y0042350D03*
X0155375Y0042300D03*
X0155375Y0042250D03*
X0155375Y0042200D03*
X0155375Y0042150D03*
X0155375Y0042100D03*
X0155375Y0042050D03*
X0155375Y0042000D03*
X0155375Y0043100D03*
X0155375Y0043150D03*
X0155375Y0043200D03*
X0155375Y0043250D03*
X0155375Y0043300D03*
X0155375Y0043350D03*
X0155375Y0043400D03*
X0155375Y0043450D03*
X0155375Y0043500D03*
X0155375Y0043550D03*
X0155375Y0043600D03*
X0155375Y0043650D03*
X0155375Y0043700D03*
X0155375Y0043750D03*
X0155375Y0043800D03*
X0155375Y0043850D03*
X0155375Y0043900D03*
X0155375Y0043950D03*
X0155375Y0044000D03*
X0155375Y0044050D03*
X0155375Y0044100D03*
X0155375Y0044150D03*
X0155375Y0044200D03*
X0155375Y0044250D03*
X0155375Y0044300D03*
X0155375Y0044350D03*
X0155375Y0044400D03*
X0155375Y0044450D03*
X0155375Y0044500D03*
X0155375Y0044550D03*
X0155375Y0044600D03*
X0155375Y0044650D03*
X0155375Y0044700D03*
X0155375Y0044750D03*
X0155375Y0044800D03*
X0155375Y0044850D03*
X0155375Y0044900D03*
X0155375Y0044950D03*
X0155375Y0045000D03*
X0155375Y0045050D03*
X0155375Y0045100D03*
X0155375Y0045150D03*
X0159325Y0045250D03*
X0152025Y0043800D03*
X0152025Y0043750D03*
X0152025Y0043700D03*
X0152025Y0043650D03*
X0152025Y0043600D03*
X0152025Y0043550D03*
X0152025Y0043500D03*
X0152025Y0043450D03*
X0152025Y0043400D03*
X0152025Y0043350D03*
X0152025Y0043300D03*
X0152025Y0043250D03*
X0152025Y0043200D03*
X0152025Y0043150D03*
X0152025Y0043100D03*
X0152025Y0043050D03*
X0152025Y0043000D03*
X0152025Y0042950D03*
X0152025Y0042900D03*
X0152025Y0042850D03*
X0152025Y0042800D03*
X0152025Y0042750D03*
X0152025Y0042700D03*
X0152025Y0042650D03*
X0152025Y0042600D03*
X0152025Y0042550D03*
X0152025Y0042500D03*
X0152025Y0042450D03*
X0152025Y0042400D03*
X0152025Y0042350D03*
X0152025Y0042300D03*
X0152025Y0042250D03*
X0152025Y0042200D03*
X0152025Y0042150D03*
X0152025Y0042100D03*
X0152025Y0042050D03*
X0152025Y0042000D03*
X0152025Y0041950D03*
X0152025Y0041900D03*
X0152025Y0041850D03*
X0152025Y0041800D03*
X0152025Y0041750D03*
X0152025Y0041700D03*
X0152025Y0041650D03*
X0152025Y0041600D03*
X0152025Y0041550D03*
X0152025Y0041500D03*
X0152025Y0041450D03*
X0152025Y0041400D03*
X0152025Y0041350D03*
X0152025Y0041300D03*
X0152025Y0041250D03*
X0152025Y0041200D03*
X0152025Y0041150D03*
X0152025Y0041100D03*
X0152025Y0041050D03*
X0152025Y0041000D03*
X0152025Y0040950D03*
X0152025Y0040900D03*
X0152025Y0040850D03*
X0152025Y0040800D03*
X0152025Y0040750D03*
X0152025Y0040700D03*
X0152025Y0040650D03*
X0152025Y0040600D03*
X0149725Y0040600D03*
X0149725Y0040650D03*
X0149725Y0040700D03*
X0149725Y0040750D03*
X0149725Y0040800D03*
X0149725Y0040850D03*
X0149725Y0040900D03*
X0149725Y0040950D03*
X0149725Y0041000D03*
X0149725Y0041050D03*
X0149725Y0041100D03*
X0149725Y0041150D03*
X0149725Y0041200D03*
X0149725Y0041250D03*
X0149725Y0041300D03*
X0149725Y0041350D03*
X0149725Y0041400D03*
X0149725Y0041450D03*
X0149725Y0041500D03*
X0149725Y0041550D03*
X0149725Y0041600D03*
X0149725Y0041650D03*
X0149725Y0041700D03*
X0149725Y0041750D03*
X0149725Y0041800D03*
X0149725Y0041850D03*
X0149725Y0041900D03*
X0149725Y0041950D03*
X0149725Y0042000D03*
X0149725Y0042050D03*
X0149725Y0042100D03*
X0149725Y0042150D03*
X0149725Y0042200D03*
X0149725Y0042250D03*
X0149725Y0042300D03*
X0149725Y0042350D03*
X0149725Y0042400D03*
X0149725Y0042450D03*
X0149725Y0042500D03*
X0149725Y0042550D03*
X0149725Y0042600D03*
X0149725Y0042650D03*
X0149725Y0042700D03*
X0149725Y0042750D03*
X0149725Y0042800D03*
X0149725Y0042850D03*
X0149725Y0042900D03*
X0149725Y0042950D03*
X0149725Y0043000D03*
X0149725Y0043050D03*
X0149725Y0043100D03*
X0149725Y0043150D03*
X0149725Y0043200D03*
X0149725Y0043250D03*
X0149725Y0043300D03*
X0149725Y0043350D03*
X0149725Y0043400D03*
X0149725Y0043450D03*
X0149725Y0043500D03*
X0149725Y0043550D03*
X0149725Y0043600D03*
X0149725Y0043650D03*
X0149725Y0043700D03*
X0149725Y0043750D03*
X0149725Y0043800D03*
X0149725Y0043850D03*
X0149725Y0043900D03*
X0149725Y0043950D03*
X0149725Y0044000D03*
X0149725Y0044050D03*
X0149725Y0044100D03*
X0149725Y0044150D03*
X0149725Y0044200D03*
X0149725Y0044250D03*
X0149725Y0044300D03*
X0149725Y0044350D03*
X0149725Y0044400D03*
X0149725Y0044450D03*
X0149725Y0044500D03*
X0149725Y0044550D03*
X0149725Y0044600D03*
X0149725Y0044650D03*
X0149725Y0044700D03*
X0149725Y0044750D03*
X0149725Y0044800D03*
X0149725Y0044850D03*
X0149725Y0044900D03*
X0149725Y0044950D03*
X0149725Y0045000D03*
X0149725Y0045050D03*
X0149725Y0045100D03*
X0149725Y0045150D03*
X0147475Y0045150D03*
X0147475Y0045100D03*
X0147475Y0045050D03*
X0147475Y0045000D03*
X0147475Y0044950D03*
X0147475Y0044900D03*
X0147475Y0044850D03*
X0147475Y0044800D03*
X0147475Y0044750D03*
X0147475Y0044700D03*
X0147475Y0044650D03*
X0147475Y0044600D03*
X0147475Y0044550D03*
X0147475Y0044500D03*
X0147475Y0044450D03*
X0147475Y0044400D03*
X0147475Y0044350D03*
X0147475Y0044300D03*
X0147475Y0044250D03*
X0147475Y0044200D03*
X0147475Y0044150D03*
X0147475Y0044100D03*
X0147475Y0044050D03*
X0147475Y0044000D03*
X0147475Y0043950D03*
X0147475Y0043900D03*
X0147475Y0043850D03*
X0147475Y0043800D03*
X0147475Y0043750D03*
X0147475Y0043700D03*
X0147475Y0043650D03*
X0147475Y0043600D03*
X0147475Y0043550D03*
X0147475Y0043500D03*
X0147475Y0043450D03*
X0147475Y0042550D03*
X0147475Y0042500D03*
X0147475Y0042450D03*
X0147475Y0042400D03*
X0147475Y0042350D03*
X0147475Y0042300D03*
X0147475Y0042250D03*
X0147475Y0042200D03*
X0147475Y0042150D03*
X0147475Y0042100D03*
X0147475Y0042050D03*
X0147475Y0042000D03*
X0147475Y0041950D03*
X0147475Y0041900D03*
X0147475Y0041850D03*
X0147475Y0041800D03*
X0147475Y0041750D03*
X0147475Y0041700D03*
X0147475Y0041650D03*
X0147475Y0041600D03*
X0147475Y0041550D03*
X0147475Y0041500D03*
X0147475Y0041450D03*
X0147475Y0041400D03*
X0147475Y0041350D03*
X0147475Y0041300D03*
X0147475Y0041250D03*
X0147475Y0041200D03*
X0147475Y0041150D03*
X0147475Y0041100D03*
X0147475Y0041050D03*
X0147475Y0041000D03*
X0147475Y0040950D03*
X0147475Y0040900D03*
X0147475Y0040850D03*
X0147475Y0040800D03*
X0147475Y0040750D03*
X0147475Y0040700D03*
X0147475Y0040650D03*
X0147475Y0040600D03*
X0144475Y0040600D03*
X0144475Y0040650D03*
X0144475Y0040700D03*
X0144475Y0040750D03*
X0144475Y0040800D03*
X0144475Y0040850D03*
X0144475Y0040900D03*
X0144475Y0040950D03*
X0144475Y0041000D03*
X0144475Y0041050D03*
X0144475Y0041100D03*
X0144475Y0041150D03*
X0144475Y0041200D03*
X0144475Y0041250D03*
X0144475Y0041300D03*
X0144475Y0041350D03*
X0144475Y0041400D03*
X0144475Y0041450D03*
X0144475Y0041500D03*
X0144475Y0041550D03*
X0144475Y0041600D03*
X0144475Y0041650D03*
X0144475Y0041700D03*
X0144475Y0041750D03*
X0144475Y0041800D03*
X0144475Y0041850D03*
X0144475Y0041900D03*
X0144475Y0041950D03*
X0144475Y0042000D03*
X0144475Y0042050D03*
X0144475Y0042100D03*
X0144475Y0042150D03*
X0144475Y0042200D03*
X0144475Y0042250D03*
X0144475Y0042300D03*
X0144475Y0042350D03*
X0144475Y0042400D03*
X0144475Y0042450D03*
X0144475Y0042500D03*
X0144475Y0042550D03*
X0144475Y0043450D03*
X0144475Y0043500D03*
X0144475Y0043550D03*
X0144475Y0043600D03*
X0144475Y0043650D03*
X0144475Y0043700D03*
X0144475Y0043750D03*
X0144475Y0043800D03*
X0144475Y0043850D03*
X0144475Y0043900D03*
X0144475Y0043950D03*
X0144475Y0044000D03*
X0144475Y0044050D03*
X0144475Y0044100D03*
X0144475Y0044150D03*
X0144475Y0044200D03*
X0144475Y0044250D03*
X0144475Y0044300D03*
X0144475Y0044350D03*
X0144475Y0044400D03*
X0144475Y0044450D03*
X0144475Y0044500D03*
X0144475Y0044550D03*
X0144475Y0044600D03*
X0144475Y0044650D03*
X0144475Y0044700D03*
X0144475Y0044750D03*
X0144475Y0044800D03*
X0144475Y0044850D03*
X0144475Y0044900D03*
X0144475Y0044950D03*
X0144475Y0045000D03*
X0144475Y0045050D03*
X0144475Y0045100D03*
X0144475Y0045150D03*
X0141275Y0044250D03*
X0141275Y0044200D03*
X0141275Y0044150D03*
X0141275Y0044100D03*
X0141275Y0044050D03*
X0141275Y0044000D03*
X0141275Y0043950D03*
X0141275Y0043900D03*
X0141275Y0043850D03*
X0141275Y0043800D03*
X0141275Y0043750D03*
X0141275Y0043700D03*
X0141275Y0043650D03*
X0141275Y0043600D03*
X0141275Y0043550D03*
X0141275Y0043500D03*
X0141275Y0043450D03*
X0141275Y0043400D03*
X0141275Y0043350D03*
X0141275Y0043300D03*
X0141275Y0043250D03*
X0141275Y0043200D03*
X0141275Y0043150D03*
X0141275Y0043100D03*
X0141275Y0043050D03*
X0141275Y0043000D03*
X0141275Y0042950D03*
X0141275Y0042900D03*
X0141275Y0042850D03*
X0141275Y0042800D03*
X0141275Y0042750D03*
X0141275Y0042700D03*
X0141275Y0042650D03*
X0141275Y0042600D03*
X0141275Y0042550D03*
X0141275Y0042500D03*
X0141275Y0042450D03*
X0141275Y0042400D03*
X0141275Y0042350D03*
X0141275Y0042300D03*
X0141275Y0042250D03*
X0141275Y0042200D03*
X0141275Y0042150D03*
X0141275Y0042100D03*
X0141275Y0042050D03*
X0141275Y0042000D03*
X0141275Y0041950D03*
X0141275Y0041900D03*
X0141275Y0041850D03*
X0141275Y0041800D03*
X0141275Y0041750D03*
X0141275Y0041700D03*
X0141275Y0041650D03*
X0141275Y0041600D03*
X0141275Y0041550D03*
X0141275Y0041500D03*
X0141275Y0041450D03*
X0141275Y0041400D03*
X0141275Y0041350D03*
X0141275Y0041300D03*
X0141275Y0041250D03*
X0141275Y0041200D03*
X0141275Y0041150D03*
X0141275Y0041100D03*
X0141275Y0041050D03*
X0141275Y0041000D03*
X0141275Y0040950D03*
X0141275Y0040900D03*
X0141275Y0040850D03*
X0141275Y0040800D03*
X0141275Y0040750D03*
X0141275Y0040700D03*
X0141275Y0040650D03*
X0141275Y0040600D03*
X0171725Y0047850D03*
X0172225Y0045850D03*
X0171725Y0050350D03*
X0172225Y0053400D03*
D21*
X0172225Y0053350D03*
X0171675Y0050250D03*
X0171625Y0050200D03*
X0171675Y0047750D03*
X0171625Y0047700D03*
X0172225Y0045800D03*
X0172825Y0038150D03*
X0172825Y0035600D03*
X0172225Y0032500D03*
X0157475Y0042050D03*
X0157475Y0042100D03*
X0157425Y0042150D03*
X0157425Y0042200D03*
X0157375Y0042350D03*
X0157375Y0043350D03*
X0157375Y0043400D03*
X0157425Y0043500D03*
X0157425Y0043550D03*
X0157475Y0043650D03*
X0154075Y0042300D03*
X0153525Y0043200D03*
X0197375Y0044900D03*
X0198975Y0044900D03*
X0217475Y0044900D03*
X0219075Y0044900D03*
X0228275Y0043000D03*
D22*
X0228425Y0042950D03*
X0228525Y0042900D03*
X0228775Y0042800D03*
X0172925Y0038300D03*
X0172875Y0038250D03*
X0172875Y0035700D03*
X0172225Y0032550D03*
X0160625Y0041500D03*
X0157625Y0041800D03*
X0157575Y0041850D03*
X0157575Y0043850D03*
X0157625Y0043950D03*
X0171575Y0047600D03*
X0171525Y0050050D03*
X0171575Y0050100D03*
X0172225Y0053300D03*
X0172225Y0045750D03*
D23*
X0172225Y0045700D03*
X0172225Y0043350D03*
X0172225Y0042500D03*
X0173025Y0038450D03*
X0172975Y0038400D03*
X0173025Y0035900D03*
X0172975Y0035850D03*
X0172225Y0032600D03*
X0160575Y0041450D03*
X0157725Y0041650D03*
X0157675Y0044000D03*
X0157725Y0044050D03*
X0160175Y0044350D03*
X0171425Y0047400D03*
X0171475Y0047450D03*
X0171425Y0049900D03*
X0171475Y0049950D03*
X0172225Y0053250D03*
X0228525Y0040550D03*
D24*
X0198175Y0045200D03*
X0178575Y0046550D03*
X0178575Y0046600D03*
X0178575Y0046650D03*
X0178575Y0046700D03*
X0178575Y0046750D03*
X0178575Y0046800D03*
X0178575Y0046850D03*
X0178525Y0046900D03*
X0178525Y0046500D03*
X0178475Y0046450D03*
X0178425Y0046400D03*
X0178375Y0046350D03*
X0178325Y0046300D03*
X0178275Y0046250D03*
X0178225Y0046200D03*
X0178175Y0046150D03*
X0178125Y0046100D03*
X0178075Y0046050D03*
X0178025Y0046000D03*
X0177975Y0045950D03*
X0177925Y0045900D03*
X0177875Y0045850D03*
X0177825Y0045800D03*
X0177775Y0045750D03*
X0177725Y0045700D03*
X0177675Y0045650D03*
X0177625Y0045600D03*
X0177575Y0045550D03*
X0177525Y0045500D03*
X0177475Y0045450D03*
X0177425Y0045400D03*
X0177375Y0045350D03*
X0177325Y0045300D03*
X0177275Y0045250D03*
X0177225Y0045200D03*
X0177175Y0045150D03*
X0177125Y0045100D03*
X0177075Y0045050D03*
X0177025Y0045000D03*
X0176975Y0044950D03*
X0176925Y0044900D03*
X0176875Y0044850D03*
X0176825Y0044800D03*
X0176775Y0044750D03*
X0176725Y0044700D03*
X0176675Y0044650D03*
X0176625Y0044600D03*
X0176575Y0044550D03*
X0176525Y0044500D03*
X0176475Y0044450D03*
X0176425Y0044400D03*
X0176375Y0044350D03*
X0176325Y0044300D03*
X0176275Y0044250D03*
X0176225Y0044200D03*
X0176175Y0044150D03*
X0176125Y0044100D03*
X0176075Y0044050D03*
X0176025Y0044000D03*
X0175975Y0043950D03*
X0175925Y0043900D03*
X0175875Y0043850D03*
X0175825Y0043800D03*
X0175775Y0043750D03*
X0175725Y0043700D03*
X0175675Y0043650D03*
X0175675Y0042200D03*
X0175725Y0042150D03*
X0175775Y0042100D03*
X0175825Y0042050D03*
X0175875Y0042000D03*
X0175925Y0041950D03*
X0175975Y0041900D03*
X0176025Y0041850D03*
X0176075Y0041800D03*
X0176125Y0041750D03*
X0176175Y0041700D03*
X0175475Y0040950D03*
X0175425Y0040900D03*
X0175375Y0040850D03*
X0175325Y0040800D03*
X0175275Y0040750D03*
X0175225Y0040700D03*
X0175175Y0040650D03*
X0175125Y0040600D03*
X0175075Y0040550D03*
X0175025Y0040500D03*
X0174975Y0040450D03*
X0174925Y0040400D03*
X0174875Y0040350D03*
X0174825Y0040300D03*
X0174775Y0040250D03*
X0174725Y0040200D03*
X0174675Y0040150D03*
X0174625Y0040100D03*
X0174575Y0040050D03*
X0174525Y0040000D03*
X0174475Y0039950D03*
X0174425Y0039900D03*
X0174375Y0039850D03*
X0174325Y0039800D03*
X0174275Y0039750D03*
X0174225Y0039700D03*
X0174175Y0039650D03*
X0174125Y0039600D03*
X0174075Y0039550D03*
X0174025Y0039500D03*
X0173975Y0039450D03*
X0173925Y0039400D03*
X0173875Y0039350D03*
X0173825Y0039300D03*
X0173775Y0039250D03*
X0173725Y0039200D03*
X0173675Y0039150D03*
X0173625Y0039100D03*
X0173575Y0039050D03*
X0173525Y0039000D03*
X0173475Y0038950D03*
X0173425Y0038900D03*
X0173375Y0038850D03*
X0173325Y0038800D03*
X0173275Y0038750D03*
X0173225Y0038700D03*
X0173175Y0038650D03*
X0174475Y0037400D03*
X0174525Y0037450D03*
X0174575Y0037500D03*
X0174625Y0037550D03*
X0174675Y0037600D03*
X0174725Y0037650D03*
X0174775Y0037700D03*
X0174825Y0037750D03*
X0174875Y0037800D03*
X0174925Y0037850D03*
X0174975Y0037900D03*
X0175025Y0037950D03*
X0175075Y0038000D03*
X0175125Y0038050D03*
X0175175Y0038100D03*
X0175225Y0038150D03*
X0175275Y0038200D03*
X0175325Y0038250D03*
X0175375Y0038300D03*
X0175425Y0038350D03*
X0175475Y0038400D03*
X0175525Y0038450D03*
X0175575Y0038500D03*
X0175625Y0038550D03*
X0175675Y0038600D03*
X0175725Y0038650D03*
X0175775Y0038700D03*
X0175825Y0038750D03*
X0175875Y0038800D03*
X0175925Y0038850D03*
X0175975Y0038900D03*
X0176025Y0038950D03*
X0176075Y0039000D03*
X0176125Y0039050D03*
X0176175Y0039100D03*
X0176225Y0039150D03*
X0176275Y0039200D03*
X0176325Y0039250D03*
X0176375Y0039300D03*
X0176425Y0039350D03*
X0176475Y0039400D03*
X0176525Y0039450D03*
X0176575Y0039500D03*
X0176625Y0039550D03*
X0176675Y0039600D03*
X0176725Y0039650D03*
X0177475Y0040400D03*
X0177425Y0040450D03*
X0177375Y0040500D03*
X0177325Y0040550D03*
X0177275Y0040600D03*
X0177225Y0040650D03*
X0177175Y0040700D03*
X0177125Y0040750D03*
X0177075Y0040800D03*
X0177025Y0040850D03*
X0176975Y0040900D03*
X0176925Y0040950D03*
X0178225Y0039650D03*
X0178275Y0039600D03*
X0178325Y0039550D03*
X0178375Y0039500D03*
X0178425Y0039450D03*
X0178475Y0039400D03*
X0178525Y0039350D03*
X0178575Y0039300D03*
X0178575Y0039250D03*
X0178575Y0039200D03*
X0178575Y0039150D03*
X0178575Y0039100D03*
X0178575Y0039050D03*
X0178575Y0039000D03*
X0178525Y0038950D03*
X0178475Y0038900D03*
X0178425Y0038850D03*
X0178375Y0038800D03*
X0178325Y0038750D03*
X0178275Y0038700D03*
X0178225Y0038650D03*
X0178175Y0038600D03*
X0178125Y0038550D03*
X0178075Y0038500D03*
X0178025Y0038450D03*
X0177975Y0038400D03*
X0177925Y0038350D03*
X0177875Y0038300D03*
X0177825Y0038250D03*
X0177775Y0038200D03*
X0177725Y0038150D03*
X0177675Y0038100D03*
X0177625Y0038050D03*
X0177575Y0038000D03*
X0177525Y0037950D03*
X0177475Y0037900D03*
X0177425Y0037850D03*
X0177375Y0037800D03*
X0177325Y0037750D03*
X0177275Y0037700D03*
X0177225Y0037650D03*
X0177175Y0037600D03*
X0177125Y0037550D03*
X0177075Y0037500D03*
X0177025Y0037450D03*
X0176975Y0037400D03*
X0176925Y0037350D03*
X0176875Y0037300D03*
X0176825Y0037250D03*
X0176775Y0037200D03*
X0176725Y0037150D03*
X0176675Y0037100D03*
X0176625Y0037050D03*
X0176575Y0037000D03*
X0176525Y0036950D03*
X0176475Y0036900D03*
X0176425Y0036850D03*
X0176375Y0036800D03*
X0176325Y0036750D03*
X0176275Y0036700D03*
X0176225Y0036650D03*
X0176175Y0036600D03*
X0176125Y0036550D03*
X0176075Y0036500D03*
X0176025Y0036450D03*
X0175975Y0036400D03*
X0175925Y0036350D03*
X0175875Y0036300D03*
X0175825Y0036250D03*
X0175775Y0036200D03*
X0175725Y0036150D03*
X0175675Y0036100D03*
X0175625Y0036050D03*
X0175575Y0036000D03*
X0175525Y0035950D03*
X0175475Y0035900D03*
X0175425Y0035850D03*
X0175375Y0035800D03*
X0175325Y0035750D03*
X0175275Y0035700D03*
X0175225Y0035650D03*
X0175175Y0035600D03*
X0175125Y0035550D03*
X0175075Y0035500D03*
X0175025Y0035450D03*
X0174975Y0035400D03*
X0174925Y0035350D03*
X0174875Y0035300D03*
X0174825Y0035250D03*
X0174775Y0035200D03*
X0174725Y0035150D03*
X0174675Y0035100D03*
X0174625Y0035050D03*
X0174575Y0035000D03*
X0174525Y0034950D03*
X0174475Y0034900D03*
X0174425Y0034850D03*
X0174375Y0034800D03*
X0174325Y0034750D03*
X0174275Y0034700D03*
X0174225Y0034650D03*
X0174175Y0034600D03*
X0174125Y0034550D03*
X0174075Y0034500D03*
X0174025Y0034450D03*
X0173975Y0034400D03*
X0173925Y0034350D03*
X0173875Y0034300D03*
X0173825Y0034250D03*
X0173775Y0034200D03*
X0173725Y0034150D03*
X0173675Y0034100D03*
X0173625Y0034050D03*
X0173575Y0034000D03*
X0173525Y0033950D03*
X0173475Y0033900D03*
X0173425Y0033850D03*
X0173375Y0033800D03*
X0173325Y0033750D03*
X0173275Y0033700D03*
X0173225Y0033650D03*
X0173175Y0033600D03*
X0173125Y0033550D03*
X0172225Y0032650D03*
X0171275Y0033600D03*
X0171225Y0033650D03*
X0171175Y0033700D03*
X0171125Y0033750D03*
X0171075Y0033800D03*
X0171025Y0033850D03*
X0170975Y0033900D03*
X0170925Y0033950D03*
X0170875Y0034000D03*
X0170825Y0034050D03*
X0170775Y0034100D03*
X0170725Y0034150D03*
X0170675Y0034200D03*
X0170625Y0034250D03*
X0170575Y0034300D03*
X0170525Y0034350D03*
X0170475Y0034400D03*
X0170425Y0034450D03*
X0170375Y0034500D03*
X0170325Y0034550D03*
X0170275Y0034600D03*
X0170225Y0034650D03*
X0170175Y0034700D03*
X0170125Y0034750D03*
X0170075Y0034800D03*
X0170025Y0034850D03*
X0169975Y0034900D03*
X0169925Y0034950D03*
X0169875Y0035000D03*
X0169825Y0035050D03*
X0169775Y0035100D03*
X0169725Y0035150D03*
X0169675Y0035200D03*
X0169625Y0035250D03*
X0169575Y0035300D03*
X0169525Y0035350D03*
X0169475Y0035400D03*
X0169425Y0035450D03*
X0169375Y0035500D03*
X0169325Y0035550D03*
X0169275Y0035600D03*
X0169225Y0035650D03*
X0169175Y0035700D03*
X0169125Y0035750D03*
X0169075Y0035800D03*
X0169025Y0035850D03*
X0168975Y0035900D03*
X0168925Y0035950D03*
X0168875Y0036000D03*
X0168825Y0036050D03*
X0168775Y0036100D03*
X0168725Y0036150D03*
X0168675Y0036200D03*
X0168625Y0036250D03*
X0168575Y0036300D03*
X0168525Y0036350D03*
X0168475Y0036400D03*
X0168425Y0036450D03*
X0168375Y0036500D03*
X0168325Y0036550D03*
X0168275Y0036600D03*
X0168225Y0036650D03*
X0168175Y0036700D03*
X0168125Y0036750D03*
X0168075Y0036800D03*
X0168025Y0036850D03*
X0167975Y0036900D03*
X0167925Y0036950D03*
X0167875Y0037000D03*
X0167825Y0037050D03*
X0167775Y0037100D03*
X0167725Y0037150D03*
X0167675Y0037200D03*
X0167625Y0037250D03*
X0167575Y0037300D03*
X0167525Y0037350D03*
X0167475Y0037400D03*
X0167425Y0037450D03*
X0167375Y0037500D03*
X0167325Y0037550D03*
X0167275Y0037600D03*
X0167225Y0037650D03*
X0167175Y0037700D03*
X0167125Y0037750D03*
X0167075Y0037800D03*
X0167025Y0037850D03*
X0166975Y0037900D03*
X0166925Y0037950D03*
X0166875Y0038000D03*
X0166825Y0038050D03*
X0166775Y0038100D03*
X0166725Y0038150D03*
X0166675Y0038200D03*
X0166625Y0038250D03*
X0166575Y0038300D03*
X0166525Y0038350D03*
X0166475Y0038400D03*
X0166425Y0038450D03*
X0166375Y0038500D03*
X0166325Y0038550D03*
X0166275Y0038600D03*
X0166225Y0038650D03*
X0166175Y0038700D03*
X0166125Y0038750D03*
X0166075Y0038800D03*
X0166025Y0038850D03*
X0165975Y0038900D03*
X0165925Y0038950D03*
X0165925Y0039000D03*
X0165875Y0039050D03*
X0165875Y0039100D03*
X0165875Y0039150D03*
X0165875Y0039200D03*
X0165875Y0039250D03*
X0165925Y0039300D03*
X0165925Y0039350D03*
X0165975Y0039400D03*
X0166025Y0039450D03*
X0166075Y0039500D03*
X0166125Y0039550D03*
X0166175Y0039600D03*
X0166225Y0039650D03*
X0166275Y0039700D03*
X0166325Y0039750D03*
X0166375Y0039800D03*
X0166425Y0039850D03*
X0166475Y0039900D03*
X0166525Y0039950D03*
X0166575Y0040000D03*
X0166625Y0040050D03*
X0166675Y0040100D03*
X0166725Y0040150D03*
X0166775Y0040200D03*
X0166825Y0040250D03*
X0166875Y0040300D03*
X0166925Y0040350D03*
X0166975Y0040400D03*
X0167025Y0040450D03*
X0167075Y0040500D03*
X0167125Y0040550D03*
X0167175Y0040600D03*
X0167225Y0040650D03*
X0167275Y0040700D03*
X0167325Y0040750D03*
X0167375Y0040800D03*
X0167425Y0040850D03*
X0167475Y0040900D03*
X0167525Y0040950D03*
X0167575Y0041000D03*
X0167625Y0041050D03*
X0167675Y0041100D03*
X0167725Y0041150D03*
X0167775Y0041200D03*
X0167825Y0041250D03*
X0167875Y0041300D03*
X0167925Y0041350D03*
X0167975Y0041400D03*
X0168025Y0041450D03*
X0168075Y0041500D03*
X0168125Y0041550D03*
X0168175Y0041600D03*
X0168225Y0041650D03*
X0168275Y0041700D03*
X0168325Y0041750D03*
X0168375Y0041800D03*
X0168425Y0041850D03*
X0168475Y0041900D03*
X0168525Y0041950D03*
X0168575Y0042000D03*
X0168625Y0042050D03*
X0168675Y0042100D03*
X0168725Y0042150D03*
X0168775Y0042200D03*
X0170275Y0042200D03*
X0170325Y0042150D03*
X0170375Y0042100D03*
X0170775Y0041700D03*
X0172225Y0042600D03*
X0173725Y0041700D03*
X0173775Y0041750D03*
X0173825Y0041800D03*
X0173875Y0041850D03*
X0174025Y0042000D03*
X0174075Y0042050D03*
X0174125Y0042100D03*
X0174175Y0042150D03*
X0174175Y0043700D03*
X0174125Y0043750D03*
X0174075Y0043800D03*
X0173775Y0044100D03*
X0173725Y0044150D03*
X0172225Y0045650D03*
X0170975Y0046900D03*
X0171025Y0046950D03*
X0171075Y0047000D03*
X0171125Y0047050D03*
X0171175Y0047100D03*
X0171225Y0047150D03*
X0171275Y0047200D03*
X0171325Y0047250D03*
X0170925Y0046850D03*
X0170875Y0046800D03*
X0170825Y0046750D03*
X0170775Y0046700D03*
X0170725Y0046650D03*
X0170675Y0046600D03*
X0170625Y0046550D03*
X0170575Y0046500D03*
X0170525Y0046450D03*
X0170475Y0046400D03*
X0170425Y0046350D03*
X0170375Y0046300D03*
X0170325Y0046250D03*
X0170275Y0046200D03*
X0170225Y0046150D03*
X0170175Y0046100D03*
X0170125Y0046050D03*
X0170075Y0046000D03*
X0170025Y0045950D03*
X0169975Y0045900D03*
X0169925Y0045850D03*
X0169875Y0045800D03*
X0169825Y0045750D03*
X0169775Y0045700D03*
X0169725Y0045650D03*
X0169675Y0045600D03*
X0169625Y0045550D03*
X0169575Y0045500D03*
X0169525Y0045450D03*
X0169475Y0045400D03*
X0169425Y0045350D03*
X0169375Y0045300D03*
X0169325Y0045250D03*
X0169275Y0045200D03*
X0169225Y0045150D03*
X0169175Y0045100D03*
X0169125Y0045050D03*
X0169075Y0045000D03*
X0169025Y0044950D03*
X0168275Y0044200D03*
X0167175Y0045300D03*
X0167125Y0045350D03*
X0167075Y0045400D03*
X0167025Y0045450D03*
X0166275Y0046200D03*
X0166225Y0046250D03*
X0166175Y0046300D03*
X0166125Y0046350D03*
X0166075Y0046400D03*
X0166025Y0046450D03*
X0165975Y0046500D03*
X0165925Y0046550D03*
X0165875Y0046600D03*
X0165875Y0046650D03*
X0165875Y0046700D03*
X0165875Y0046750D03*
X0165875Y0046800D03*
X0165925Y0046850D03*
X0165925Y0046900D03*
X0165975Y0046950D03*
X0166025Y0047000D03*
X0166075Y0047050D03*
X0166125Y0047100D03*
X0166175Y0047150D03*
X0166225Y0047200D03*
X0166275Y0047250D03*
X0166325Y0047300D03*
X0166375Y0047350D03*
X0166425Y0047400D03*
X0166475Y0047450D03*
X0166525Y0047500D03*
X0166575Y0047550D03*
X0166625Y0047600D03*
X0166675Y0047650D03*
X0166725Y0047700D03*
X0166775Y0047750D03*
X0166825Y0047800D03*
X0166875Y0047850D03*
X0166925Y0047900D03*
X0166975Y0047950D03*
X0167025Y0048000D03*
X0167075Y0048050D03*
X0167125Y0048100D03*
X0167175Y0048150D03*
X0167225Y0048200D03*
X0167275Y0048250D03*
X0167325Y0048300D03*
X0167375Y0048350D03*
X0167425Y0048400D03*
X0167475Y0048450D03*
X0167525Y0048500D03*
X0167575Y0048550D03*
X0167625Y0048600D03*
X0167675Y0048650D03*
X0167725Y0048700D03*
X0167775Y0048750D03*
X0167825Y0048800D03*
X0167875Y0048850D03*
X0167925Y0048900D03*
X0167975Y0048950D03*
X0168025Y0049000D03*
X0168075Y0049050D03*
X0168125Y0049100D03*
X0168175Y0049150D03*
X0168225Y0049200D03*
X0168275Y0049250D03*
X0168325Y0049300D03*
X0168375Y0049350D03*
X0168425Y0049400D03*
X0168475Y0049450D03*
X0168525Y0049500D03*
X0168575Y0049550D03*
X0168625Y0049600D03*
X0168675Y0049650D03*
X0168725Y0049700D03*
X0168775Y0049750D03*
X0168825Y0049800D03*
X0168875Y0049850D03*
X0168925Y0049900D03*
X0168975Y0049950D03*
X0169025Y0050000D03*
X0169075Y0050050D03*
X0169125Y0050100D03*
X0169175Y0050150D03*
X0169225Y0050200D03*
X0169275Y0050250D03*
X0169325Y0050300D03*
X0169375Y0050350D03*
X0169425Y0050400D03*
X0169475Y0050450D03*
X0169525Y0050500D03*
X0169575Y0050550D03*
X0169625Y0050600D03*
X0169675Y0050650D03*
X0169725Y0050700D03*
X0169775Y0050750D03*
X0169825Y0050800D03*
X0169875Y0050850D03*
X0169925Y0050900D03*
X0169975Y0050950D03*
X0170025Y0051000D03*
X0170075Y0051050D03*
X0170125Y0051100D03*
X0170175Y0051150D03*
X0170225Y0051200D03*
X0170275Y0051250D03*
X0170325Y0051300D03*
X0170375Y0051350D03*
X0170425Y0051400D03*
X0170475Y0051450D03*
X0170525Y0051500D03*
X0170575Y0051550D03*
X0170625Y0051600D03*
X0170675Y0051650D03*
X0170725Y0051700D03*
X0170775Y0051750D03*
X0170825Y0051800D03*
X0170875Y0051850D03*
X0170925Y0051900D03*
X0170975Y0051950D03*
X0171025Y0052000D03*
X0171075Y0052050D03*
X0171125Y0052100D03*
X0171175Y0052150D03*
X0171225Y0052200D03*
X0171275Y0052250D03*
X0171325Y0052300D03*
X0171375Y0052350D03*
X0172225Y0053200D03*
X0173075Y0052350D03*
X0170675Y0044100D03*
X0170625Y0044050D03*
X0170575Y0044000D03*
X0170525Y0043950D03*
X0170475Y0043900D03*
X0170425Y0043850D03*
X0170375Y0043800D03*
X0170325Y0043750D03*
X0174425Y0037350D03*
X0174375Y0037300D03*
X0174325Y0037250D03*
X0174275Y0037200D03*
X0174225Y0037150D03*
X0174175Y0037100D03*
X0174125Y0037050D03*
X0174075Y0037000D03*
X0174025Y0036950D03*
X0173975Y0036900D03*
X0173925Y0036850D03*
X0173875Y0036800D03*
X0173825Y0036750D03*
X0173775Y0036700D03*
X0173725Y0036650D03*
X0173675Y0036600D03*
X0173625Y0036550D03*
X0173575Y0036500D03*
X0173525Y0036450D03*
X0173475Y0036400D03*
X0173425Y0036350D03*
X0173375Y0036300D03*
X0173325Y0036250D03*
X0173275Y0036200D03*
X0173225Y0036150D03*
X0173175Y0036100D03*
X0173125Y0036050D03*
X0157825Y0041550D03*
X0155175Y0040750D03*
X0155175Y0040700D03*
X0157875Y0044200D03*
X0152225Y0045100D03*
X0152225Y0045150D03*
D25*
X0152275Y0044950D03*
X0157925Y0044250D03*
X0160475Y0041400D03*
X0155125Y0040900D03*
X0155125Y0040850D03*
X0168275Y0044250D03*
X0170875Y0044250D03*
X0172225Y0043150D03*
X0172225Y0042750D03*
X0172225Y0042700D03*
X0170925Y0041600D03*
X0173575Y0041600D03*
X0177475Y0040350D03*
X0173575Y0044250D03*
X0172225Y0045600D03*
X0172225Y0053150D03*
X0171425Y0033500D03*
X0172225Y0032700D03*
X0173025Y0033500D03*
D26*
X0172225Y0032750D03*
X0173475Y0041550D03*
X0177475Y0040300D03*
X0170975Y0044300D03*
X0172225Y0045550D03*
X0168275Y0044300D03*
X0158025Y0044300D03*
X0155075Y0041050D03*
X0155075Y0041000D03*
X0152325Y0044800D03*
X0172225Y0053100D03*
X0228525Y0040600D03*
D27*
X0218275Y0045150D03*
X0198175Y0045150D03*
X0177475Y0040250D03*
X0173375Y0044350D03*
X0172225Y0045500D03*
X0171075Y0044350D03*
X0168275Y0044350D03*
X0158075Y0041400D03*
X0155025Y0041200D03*
X0152375Y0044600D03*
X0152375Y0044650D03*
X0172225Y0053050D03*
X0172225Y0032800D03*
D28*
X0172225Y0032850D03*
X0177475Y0040200D03*
X0168275Y0044400D03*
X0172225Y0045450D03*
X0160325Y0043250D03*
X0160325Y0043200D03*
X0160325Y0043150D03*
X0160325Y0043100D03*
X0160325Y0043050D03*
X0160325Y0043000D03*
X0160325Y0042950D03*
X0160325Y0042900D03*
X0160325Y0042850D03*
X0160325Y0042800D03*
X0160325Y0042750D03*
X0160325Y0042700D03*
X0160325Y0042650D03*
X0160325Y0042600D03*
X0160325Y0042550D03*
X0160325Y0042500D03*
X0160325Y0042450D03*
X0160325Y0042400D03*
X0158175Y0044350D03*
X0154975Y0041400D03*
X0154975Y0041350D03*
X0152425Y0044450D03*
X0152425Y0044500D03*
X0172225Y0053000D03*
X0198175Y0040600D03*
X0218275Y0040600D03*
X0228525Y0040650D03*
X0228675Y0045050D03*
D29*
X0228525Y0040700D03*
X0177475Y0040150D03*
X0168275Y0044450D03*
X0172225Y0045400D03*
X0172225Y0052950D03*
X0152475Y0044300D03*
X0154925Y0041550D03*
X0154925Y0041500D03*
X0172225Y0032900D03*
D30*
X0172225Y0032950D03*
X0177475Y0040100D03*
X0174675Y0042900D03*
X0174675Y0042950D03*
X0172225Y0045350D03*
X0168275Y0044500D03*
X0169775Y0043000D03*
X0169775Y0042900D03*
X0154875Y0041700D03*
X0152525Y0044100D03*
X0152525Y0044150D03*
X0172225Y0052900D03*
D31*
X0172225Y0052850D03*
X0172225Y0045300D03*
X0169725Y0043100D03*
X0169725Y0042800D03*
X0168275Y0044550D03*
X0174725Y0043050D03*
X0174725Y0042800D03*
X0177475Y0040050D03*
X0172225Y0033000D03*
X0154825Y0041850D03*
X0152575Y0043950D03*
X0152575Y0044000D03*
X0198175Y0040650D03*
X0218275Y0040650D03*
X0228525Y0040750D03*
X0228675Y0044950D03*
D32*
X0228525Y0040800D03*
X0218275Y0045050D03*
X0198175Y0045050D03*
X0177475Y0040000D03*
X0174775Y0042700D03*
X0174775Y0043150D03*
X0172225Y0045250D03*
X0169725Y0043150D03*
X0168275Y0044600D03*
X0159425Y0040600D03*
X0152625Y0043850D03*
X0172225Y0052800D03*
X0172225Y0033050D03*
D33*
X0172225Y0033100D03*
X0177475Y0039950D03*
X0174825Y0043250D03*
X0172225Y0045200D03*
X0169675Y0043250D03*
X0169675Y0042650D03*
X0168275Y0044650D03*
X0172225Y0052750D03*
X0198175Y0040700D03*
X0218275Y0040700D03*
D34*
X0218275Y0045000D03*
X0198175Y0045000D03*
X0177475Y0039900D03*
X0174825Y0042550D03*
X0174825Y0043300D03*
X0172225Y0045150D03*
X0169625Y0043350D03*
X0169625Y0042550D03*
X0168275Y0044700D03*
X0172225Y0052700D03*
X0172225Y0033150D03*
D35*
X0172225Y0033200D03*
X0177475Y0039850D03*
X0174875Y0042450D03*
X0174875Y0043400D03*
X0172225Y0045100D03*
X0169625Y0043400D03*
X0169625Y0042500D03*
X0168275Y0044750D03*
X0159425Y0040650D03*
X0172225Y0052650D03*
X0198175Y0040750D03*
X0218275Y0040750D03*
D36*
X0177475Y0039800D03*
X0174875Y0042400D03*
X0174875Y0043450D03*
X0172225Y0045050D03*
X0168275Y0044800D03*
X0169575Y0042400D03*
X0172225Y0033250D03*
X0172225Y0052600D03*
D37*
X0172225Y0052550D03*
X0172225Y0045000D03*
X0169575Y0043550D03*
X0169575Y0042350D03*
X0168275Y0044850D03*
X0177475Y0039750D03*
X0172225Y0033300D03*
D38*
X0172225Y0033350D03*
X0177475Y0039700D03*
X0174925Y0042250D03*
X0174925Y0043600D03*
X0172225Y0044950D03*
X0169575Y0043600D03*
X0168275Y0044900D03*
X0172225Y0052500D03*
D39*
X0172225Y0052450D03*
X0172225Y0044900D03*
X0172225Y0033400D03*
D40*
X0172225Y0033450D03*
X0172225Y0044850D03*
X0172225Y0052400D03*
X0207325Y0042150D03*
D41*
X0228700Y0045150D03*
X0176200Y0041650D03*
X0174200Y0042200D03*
X0173650Y0041650D03*
X0172250Y0042650D03*
X0172250Y0043200D03*
X0172250Y0043250D03*
X0173650Y0044200D03*
X0174200Y0043650D03*
X0170800Y0044200D03*
X0170750Y0044150D03*
X0170300Y0043700D03*
X0170850Y0041650D03*
X0172250Y0040250D03*
X0167000Y0045500D03*
X0157900Y0041500D03*
X0155150Y0040800D03*
X0152250Y0045000D03*
X0152250Y0045050D03*
X0171350Y0033550D03*
D42*
X0172400Y0034750D03*
X0172400Y0037300D03*
X0172250Y0043700D03*
X0160400Y0044050D03*
X0172100Y0051100D03*
D43*
X0172075Y0051050D03*
X0172075Y0048550D03*
X0172425Y0037350D03*
X0172425Y0034800D03*
X0227425Y0041250D03*
X0229625Y0044600D03*
D44*
X0229650Y0044650D03*
X0227600Y0044600D03*
X0227550Y0044500D03*
X0227500Y0044450D03*
X0227500Y0044400D03*
X0227450Y0044300D03*
X0227450Y0044250D03*
X0227450Y0043800D03*
X0227450Y0043750D03*
X0227500Y0043650D03*
X0227500Y0043600D03*
X0229700Y0042200D03*
X0229750Y0042100D03*
X0229750Y0042050D03*
X0229800Y0041950D03*
X0229800Y0041900D03*
X0229800Y0041600D03*
X0229800Y0041550D03*
X0229750Y0041400D03*
X0229750Y0041350D03*
X0229700Y0041250D03*
X0224850Y0041450D03*
X0224750Y0041600D03*
X0224500Y0041950D03*
X0224400Y0042100D03*
X0224050Y0042600D03*
X0223950Y0042750D03*
X0223700Y0043100D03*
X0223600Y0043250D03*
X0223250Y0043750D03*
X0223150Y0043900D03*
X0222900Y0044250D03*
X0222800Y0044400D03*
X0220350Y0043600D03*
X0220350Y0043550D03*
X0220300Y0043700D03*
X0220300Y0043750D03*
X0220250Y0043800D03*
X0220250Y0043850D03*
X0220250Y0043900D03*
X0220200Y0043950D03*
X0220150Y0044050D03*
X0220050Y0044200D03*
X0220400Y0043400D03*
X0220400Y0043350D03*
X0220450Y0042950D03*
X0220450Y0042900D03*
X0220450Y0042850D03*
X0220450Y0042800D03*
X0220450Y0042750D03*
X0220400Y0042400D03*
X0220400Y0042350D03*
X0220350Y0042150D03*
X0220300Y0042000D03*
X0220300Y0041950D03*
X0220250Y0041900D03*
X0220250Y0041850D03*
X0220200Y0041800D03*
X0220200Y0041750D03*
X0220150Y0041700D03*
X0220100Y0041600D03*
X0218250Y0040450D03*
X0216500Y0041500D03*
X0216400Y0041650D03*
X0216350Y0041750D03*
X0216300Y0041850D03*
X0216300Y0041900D03*
X0216250Y0041950D03*
X0216250Y0042000D03*
X0216200Y0042100D03*
X0216200Y0042150D03*
X0216150Y0042300D03*
X0216150Y0042350D03*
X0216100Y0042600D03*
X0216100Y0042650D03*
X0216100Y0042700D03*
X0216100Y0042750D03*
X0216100Y0042950D03*
X0216100Y0043000D03*
X0216100Y0043050D03*
X0216100Y0043100D03*
X0216150Y0043400D03*
X0216150Y0043450D03*
X0216200Y0043600D03*
X0216200Y0043650D03*
X0216250Y0043750D03*
X0216250Y0043800D03*
X0216300Y0043850D03*
X0216300Y0043900D03*
X0216350Y0043950D03*
X0216350Y0044000D03*
X0216400Y0044050D03*
X0216450Y0044150D03*
X0209150Y0040900D03*
X0209150Y0040850D03*
X0209100Y0040950D03*
X0209100Y0041000D03*
X0209050Y0041050D03*
X0209050Y0041100D03*
X0209000Y0041200D03*
X0209000Y0041250D03*
X0208950Y0041300D03*
X0208950Y0041350D03*
X0208900Y0041400D03*
X0208900Y0041450D03*
X0208900Y0041500D03*
X0208850Y0041550D03*
X0208850Y0041600D03*
X0208800Y0041650D03*
X0208800Y0041700D03*
X0208800Y0041750D03*
X0208600Y0042200D03*
X0208550Y0042300D03*
X0208500Y0042400D03*
X0208500Y0042450D03*
X0208450Y0042500D03*
X0208450Y0042550D03*
X0208400Y0042650D03*
X0208400Y0042700D03*
X0208350Y0042750D03*
X0208350Y0042800D03*
X0208300Y0042900D03*
X0208250Y0043000D03*
X0208250Y0043050D03*
X0208200Y0043150D03*
X0208150Y0043250D03*
X0208100Y0043350D03*
X0208100Y0043400D03*
X0208050Y0043500D03*
X0208000Y0043600D03*
X0208000Y0043650D03*
X0207950Y0043750D03*
X0207900Y0043850D03*
X0207850Y0043950D03*
X0207850Y0044000D03*
X0207800Y0044100D03*
X0207750Y0044200D03*
X0207750Y0044250D03*
X0207700Y0044350D03*
X0207650Y0044450D03*
X0207600Y0044600D03*
X0207350Y0045100D03*
X0207350Y0045150D03*
X0206450Y0043150D03*
X0206300Y0042800D03*
X0206150Y0042450D03*
X0206100Y0042350D03*
X0206050Y0042200D03*
X0205850Y0041750D03*
X0205800Y0041650D03*
X0205700Y0041400D03*
X0205650Y0041300D03*
X0205600Y0041200D03*
X0205600Y0041150D03*
X0205550Y0041050D03*
X0205500Y0040950D03*
X0205450Y0040850D03*
X0205450Y0040800D03*
X0205400Y0040700D03*
X0205350Y0040600D03*
X0203700Y0042000D03*
X0203850Y0042400D03*
X0203950Y0042650D03*
X0204000Y0042800D03*
X0204100Y0043050D03*
X0204150Y0043200D03*
X0204200Y0043350D03*
X0204250Y0043450D03*
X0204300Y0043600D03*
X0204350Y0043700D03*
X0204350Y0043750D03*
X0204400Y0043850D03*
X0204450Y0044000D03*
X0204500Y0044100D03*
X0204500Y0044150D03*
X0204550Y0044250D03*
X0204600Y0044400D03*
X0204650Y0044500D03*
X0204650Y0044550D03*
X0204700Y0044650D03*
X0204700Y0044700D03*
X0204750Y0044800D03*
X0204800Y0044900D03*
X0204800Y0044950D03*
X0204850Y0045050D03*
X0204850Y0045100D03*
X0204900Y0045150D03*
X0201850Y0044100D03*
X0201850Y0044050D03*
X0201800Y0044150D03*
X0201800Y0044200D03*
X0201800Y0044250D03*
X0201750Y0044300D03*
X0201750Y0044350D03*
X0201700Y0044450D03*
X0201700Y0044500D03*
X0201650Y0044550D03*
X0201650Y0044600D03*
X0201650Y0044650D03*
X0201600Y0044700D03*
X0201600Y0044750D03*
X0201550Y0044850D03*
X0201550Y0044900D03*
X0201500Y0045000D03*
X0201500Y0045050D03*
X0201450Y0045100D03*
X0201450Y0045150D03*
X0201900Y0043950D03*
X0201900Y0043900D03*
X0201950Y0043800D03*
X0201950Y0043750D03*
X0202000Y0043700D03*
X0202000Y0043650D03*
X0202050Y0043550D03*
X0202050Y0043500D03*
X0202100Y0043400D03*
X0202100Y0043350D03*
X0202150Y0043250D03*
X0202200Y0043150D03*
X0202200Y0043100D03*
X0202250Y0043000D03*
X0202250Y0042950D03*
X0202300Y0042850D03*
X0202350Y0042750D03*
X0202350Y0042700D03*
X0202400Y0042600D03*
X0202400Y0042550D03*
X0202450Y0042450D03*
X0202500Y0042300D03*
X0202550Y0042200D03*
X0202550Y0042150D03*
X0202600Y0042050D03*
X0202650Y0041900D03*
X0202700Y0041800D03*
X0202700Y0041750D03*
X0202750Y0041650D03*
X0202750Y0041600D03*
X0202800Y0041500D03*
X0202850Y0041350D03*
X0202900Y0041250D03*
X0202900Y0041200D03*
X0203150Y0040650D03*
X0203150Y0040600D03*
X0200350Y0042750D03*
X0200350Y0042800D03*
X0200350Y0042850D03*
X0200350Y0042900D03*
X0200350Y0042950D03*
X0200350Y0043000D03*
X0200300Y0043350D03*
X0200300Y0043400D03*
X0200250Y0043550D03*
X0200250Y0043600D03*
X0200200Y0043700D03*
X0200200Y0043750D03*
X0200150Y0043850D03*
X0200150Y0043900D03*
X0200100Y0043950D03*
X0200050Y0044050D03*
X0199950Y0044200D03*
X0200300Y0042400D03*
X0200300Y0042350D03*
X0200250Y0042150D03*
X0200250Y0042100D03*
X0200200Y0042000D03*
X0200200Y0041950D03*
X0200150Y0041900D03*
X0200150Y0041850D03*
X0200100Y0041800D03*
X0200100Y0041750D03*
X0200050Y0041700D03*
X0200050Y0041650D03*
X0200000Y0041600D03*
X0196300Y0041650D03*
X0196250Y0041750D03*
X0196200Y0041850D03*
X0196200Y0041900D03*
X0196150Y0041950D03*
X0196150Y0042000D03*
X0196100Y0042100D03*
X0196100Y0042150D03*
X0196050Y0042300D03*
X0196050Y0042350D03*
X0196000Y0042600D03*
X0196000Y0042650D03*
X0196000Y0042700D03*
X0196000Y0042750D03*
X0196000Y0042800D03*
X0196000Y0042950D03*
X0196000Y0043000D03*
X0196000Y0043050D03*
X0196000Y0043100D03*
X0196050Y0043400D03*
X0196050Y0043450D03*
X0196100Y0043600D03*
X0196100Y0043650D03*
X0196150Y0043750D03*
X0196150Y0043800D03*
X0196200Y0043850D03*
X0196200Y0043900D03*
X0196250Y0043950D03*
X0196250Y0044000D03*
X0196300Y0044050D03*
X0196350Y0044150D03*
X0193350Y0041750D03*
X0193450Y0041600D03*
X0193100Y0042100D03*
X0193000Y0042250D03*
X0192650Y0042750D03*
X0192550Y0042900D03*
X0192300Y0043250D03*
X0192200Y0043400D03*
X0191850Y0043900D03*
X0191750Y0044050D03*
X0191500Y0044400D03*
X0191400Y0044550D03*
X0188850Y0044550D03*
X0188850Y0044600D03*
X0188850Y0044650D03*
X0188850Y0044700D03*
X0188850Y0044750D03*
X0188850Y0044800D03*
X0188850Y0044850D03*
X0188850Y0044900D03*
X0188850Y0044950D03*
X0188850Y0045000D03*
X0188850Y0045050D03*
X0188850Y0045100D03*
X0188850Y0045150D03*
X0188850Y0044500D03*
X0188850Y0044450D03*
X0188850Y0044400D03*
X0188850Y0044350D03*
X0188850Y0044300D03*
X0188850Y0044250D03*
X0188850Y0044200D03*
X0188850Y0044150D03*
X0188850Y0044100D03*
X0188850Y0044050D03*
X0188850Y0044000D03*
X0188850Y0043950D03*
X0188850Y0043900D03*
X0188850Y0043850D03*
X0188850Y0043800D03*
X0188850Y0043750D03*
X0188850Y0043700D03*
X0188850Y0043650D03*
X0188850Y0043600D03*
X0188850Y0043550D03*
X0188850Y0043500D03*
X0188850Y0043450D03*
X0188850Y0043400D03*
X0188850Y0043350D03*
X0188850Y0043300D03*
X0188850Y0043250D03*
X0188850Y0043200D03*
X0188850Y0043150D03*
X0188850Y0043100D03*
X0188850Y0043050D03*
X0188850Y0043000D03*
X0188850Y0042950D03*
X0188850Y0042900D03*
X0188850Y0042850D03*
X0188850Y0042800D03*
X0188850Y0042750D03*
X0188850Y0042700D03*
X0188850Y0042650D03*
X0188850Y0042600D03*
X0188850Y0042550D03*
X0188850Y0042500D03*
X0188850Y0042450D03*
X0188850Y0042400D03*
X0188850Y0042350D03*
X0188850Y0042300D03*
X0188850Y0042250D03*
X0188850Y0042200D03*
X0188850Y0042150D03*
X0188850Y0042100D03*
X0188850Y0042050D03*
X0188850Y0042000D03*
X0188850Y0041950D03*
X0188850Y0041900D03*
X0188850Y0041850D03*
X0188850Y0041800D03*
X0188850Y0041750D03*
X0188850Y0041700D03*
X0188850Y0041650D03*
X0188850Y0041600D03*
X0188850Y0041550D03*
X0188850Y0041500D03*
X0188850Y0041450D03*
X0188850Y0041400D03*
X0188850Y0041350D03*
X0188850Y0041300D03*
X0188850Y0041250D03*
X0188850Y0041200D03*
X0188850Y0041150D03*
X0188350Y0041150D03*
X0188100Y0041500D03*
X0188000Y0041650D03*
X0187900Y0041800D03*
X0187650Y0042150D03*
X0187550Y0042300D03*
X0187200Y0042800D03*
X0187100Y0042950D03*
X0186850Y0043300D03*
X0186750Y0043450D03*
X0186400Y0043950D03*
X0186300Y0044100D03*
X0186050Y0044450D03*
X0172450Y0037450D03*
X0172250Y0039750D03*
X0172450Y0034900D03*
X0172000Y0048400D03*
X0172000Y0050900D03*
X0209200Y0040750D03*
X0209200Y0040700D03*
X0209250Y0040650D03*
X0209250Y0040600D03*
D45*
X0203150Y0040700D03*
X0203150Y0040750D03*
X0199900Y0041450D03*
X0196600Y0041250D03*
X0196550Y0041300D03*
X0196500Y0044350D03*
X0196550Y0044400D03*
X0196600Y0044450D03*
X0196650Y0044500D03*
X0196700Y0044550D03*
X0199700Y0044500D03*
X0199750Y0044450D03*
X0199800Y0044400D03*
X0199850Y0044350D03*
X0207350Y0045000D03*
X0207350Y0045050D03*
X0216600Y0044350D03*
X0216650Y0044400D03*
X0216700Y0044450D03*
X0216750Y0044500D03*
X0216800Y0044550D03*
X0219800Y0044500D03*
X0219850Y0044450D03*
X0219900Y0044400D03*
X0222250Y0045150D03*
X0227700Y0044700D03*
X0227750Y0044750D03*
X0227600Y0043450D03*
X0227650Y0043400D03*
X0229650Y0042300D03*
X0229600Y0041100D03*
X0229550Y0041050D03*
X0229500Y0041000D03*
X0227400Y0041150D03*
X0229650Y0044700D03*
X0220000Y0041450D03*
X0219850Y0041300D03*
X0216700Y0041250D03*
X0216650Y0041300D03*
X0190950Y0045150D03*
X0185550Y0045150D03*
X0185550Y0045100D03*
X0172500Y0037550D03*
X0172250Y0039800D03*
X0172250Y0042200D03*
X0171950Y0048300D03*
X0171950Y0050800D03*
X0159300Y0040450D03*
X0172500Y0035000D03*
D46*
X0172550Y0035100D03*
X0172550Y0037650D03*
X0172250Y0039850D03*
X0171900Y0048200D03*
X0171900Y0050700D03*
X0185600Y0045000D03*
X0191000Y0045000D03*
X0196900Y0044700D03*
X0199450Y0044700D03*
X0199500Y0044650D03*
X0199550Y0041100D03*
X0196850Y0041050D03*
X0196800Y0041100D03*
X0194150Y0040700D03*
X0188750Y0040700D03*
X0188750Y0040650D03*
X0203150Y0040850D03*
X0203150Y0040900D03*
X0207350Y0044900D03*
X0207350Y0044950D03*
X0216850Y0044600D03*
X0216900Y0044650D03*
X0217000Y0044700D03*
X0219550Y0044700D03*
X0219600Y0044650D03*
X0222300Y0045000D03*
X0227800Y0044800D03*
X0227800Y0043250D03*
X0229600Y0044750D03*
X0229450Y0040950D03*
X0227550Y0041000D03*
X0225450Y0040700D03*
X0219650Y0041100D03*
X0216950Y0041050D03*
X0216900Y0041100D03*
D47*
X0219450Y0044750D03*
X0222350Y0044850D03*
X0227900Y0044850D03*
X0228700Y0045250D03*
X0229450Y0044850D03*
X0229400Y0042500D03*
X0227600Y0040950D03*
X0225400Y0040850D03*
X0207350Y0044800D03*
X0203150Y0041050D03*
X0203150Y0041000D03*
X0203150Y0040950D03*
X0199350Y0044750D03*
X0194100Y0040850D03*
X0188700Y0040850D03*
X0188700Y0040800D03*
X0191050Y0044850D03*
X0191050Y0044900D03*
X0185650Y0044850D03*
X0172600Y0037750D03*
X0172250Y0039900D03*
X0172250Y0042250D03*
X0171850Y0048100D03*
X0171850Y0050600D03*
X0172600Y0035200D03*
D48*
X0172650Y0035300D03*
X0172650Y0037850D03*
X0172250Y0039950D03*
X0171800Y0048000D03*
X0171800Y0050500D03*
X0185700Y0044700D03*
X0191100Y0044700D03*
X0191100Y0044750D03*
X0188650Y0041000D03*
X0188650Y0040950D03*
X0194050Y0041000D03*
X0197100Y0040900D03*
X0199200Y0040900D03*
X0203150Y0041100D03*
X0199150Y0044850D03*
X0207350Y0044700D03*
X0217200Y0040900D03*
X0219300Y0040900D03*
X0225350Y0041000D03*
X0222400Y0044700D03*
X0222400Y0044750D03*
X0219250Y0044850D03*
D49*
X0222450Y0044600D03*
X0225300Y0041100D03*
X0228550Y0040500D03*
X0217350Y0040850D03*
X0197250Y0040850D03*
X0191150Y0044600D03*
X0188600Y0041100D03*
X0172750Y0038000D03*
X0172700Y0037950D03*
X0172250Y0040000D03*
X0172250Y0042300D03*
X0172250Y0043550D03*
X0171750Y0047900D03*
X0171750Y0050400D03*
X0160300Y0044300D03*
X0160750Y0042300D03*
X0160750Y0042250D03*
X0160750Y0042200D03*
X0160750Y0042150D03*
X0160750Y0042100D03*
X0160750Y0042050D03*
X0160750Y0042000D03*
X0160750Y0041950D03*
X0160750Y0041900D03*
X0160750Y0041850D03*
X0160750Y0041800D03*
X0160750Y0041750D03*
X0160750Y0041700D03*
X0160750Y0041650D03*
X0160750Y0041600D03*
X0172700Y0035400D03*
D50*
X0172800Y0035550D03*
X0172800Y0038100D03*
X0172250Y0040050D03*
X0172250Y0042350D03*
X0172250Y0043500D03*
X0171700Y0047800D03*
X0171700Y0050300D03*
X0157400Y0043450D03*
X0157350Y0043300D03*
X0157350Y0043250D03*
X0157350Y0043200D03*
X0157350Y0043150D03*
X0157350Y0043100D03*
X0157350Y0042650D03*
X0157350Y0042600D03*
X0157350Y0042550D03*
X0157350Y0042500D03*
X0157350Y0042450D03*
X0157350Y0042400D03*
X0157400Y0042300D03*
X0157400Y0042250D03*
X0160700Y0041550D03*
X0229000Y0042700D03*
D51*
X0228900Y0042750D03*
X0228700Y0045200D03*
X0218250Y0040500D03*
X0198150Y0040500D03*
X0172850Y0038200D03*
X0172250Y0040100D03*
X0172250Y0042400D03*
X0172250Y0043450D03*
X0171600Y0047650D03*
X0171600Y0050150D03*
X0157550Y0043800D03*
X0157500Y0043750D03*
X0157500Y0043700D03*
X0157450Y0043600D03*
X0157500Y0042000D03*
X0157550Y0041950D03*
X0157550Y0041900D03*
X0154250Y0042000D03*
X0154250Y0042050D03*
X0154200Y0042100D03*
X0154150Y0042150D03*
X0154150Y0042200D03*
X0154100Y0042250D03*
X0154050Y0042350D03*
X0154000Y0042400D03*
X0154000Y0042450D03*
X0153950Y0042500D03*
X0153900Y0042550D03*
X0153900Y0042600D03*
X0153850Y0042650D03*
X0153850Y0042700D03*
X0153800Y0042750D03*
X0153750Y0042800D03*
X0153750Y0042850D03*
X0153700Y0042900D03*
X0153700Y0042950D03*
X0153650Y0043000D03*
X0153600Y0043050D03*
X0153600Y0043100D03*
X0153550Y0043150D03*
X0153500Y0043250D03*
X0153450Y0043300D03*
X0153450Y0043350D03*
X0153400Y0043400D03*
X0153350Y0043450D03*
X0153350Y0043500D03*
X0153300Y0043550D03*
X0153300Y0043600D03*
X0153250Y0043650D03*
X0153200Y0043700D03*
X0153200Y0043750D03*
X0153150Y0043800D03*
X0172850Y0035650D03*
D52*
X0172900Y0035750D03*
X0172950Y0035800D03*
X0172950Y0038350D03*
X0172250Y0040150D03*
X0172250Y0042450D03*
X0172250Y0043400D03*
X0171500Y0047500D03*
X0171550Y0047550D03*
X0171500Y0050000D03*
X0157600Y0043900D03*
X0157650Y0041750D03*
X0157700Y0041700D03*
X0228650Y0042850D03*
D53*
X0218250Y0045200D03*
X0178500Y0046950D03*
X0178450Y0047000D03*
X0178400Y0047050D03*
X0178350Y0047100D03*
X0178300Y0047150D03*
X0178250Y0047200D03*
X0178200Y0047250D03*
X0178150Y0047300D03*
X0178100Y0047350D03*
X0178050Y0047400D03*
X0178000Y0047450D03*
X0177950Y0047500D03*
X0177900Y0047550D03*
X0177850Y0047600D03*
X0177800Y0047650D03*
X0177750Y0047700D03*
X0177700Y0047750D03*
X0177650Y0047800D03*
X0177600Y0047850D03*
X0177550Y0047900D03*
X0177500Y0047950D03*
X0177450Y0048000D03*
X0177400Y0048050D03*
X0177350Y0048100D03*
X0177300Y0048150D03*
X0177250Y0048200D03*
X0177200Y0048250D03*
X0177150Y0048300D03*
X0177100Y0048350D03*
X0177050Y0048400D03*
X0177000Y0048450D03*
X0176950Y0048500D03*
X0176900Y0048550D03*
X0176850Y0048600D03*
X0176800Y0048650D03*
X0176750Y0048700D03*
X0176700Y0048750D03*
X0176650Y0048800D03*
X0176600Y0048850D03*
X0176550Y0048900D03*
X0176500Y0048950D03*
X0176450Y0049000D03*
X0176400Y0049050D03*
X0176350Y0049100D03*
X0176300Y0049150D03*
X0176250Y0049200D03*
X0176200Y0049250D03*
X0176150Y0049300D03*
X0176100Y0049350D03*
X0176050Y0049400D03*
X0176000Y0049450D03*
X0175950Y0049500D03*
X0175900Y0049550D03*
X0175850Y0049600D03*
X0175800Y0049650D03*
X0175750Y0049700D03*
X0175700Y0049750D03*
X0175650Y0049800D03*
X0175600Y0049850D03*
X0175550Y0049900D03*
X0175500Y0049950D03*
X0175450Y0050000D03*
X0175400Y0050050D03*
X0175350Y0050100D03*
X0175300Y0050150D03*
X0175250Y0050200D03*
X0175200Y0050250D03*
X0175150Y0050300D03*
X0175100Y0050350D03*
X0175050Y0050400D03*
X0175000Y0050450D03*
X0174950Y0050500D03*
X0174900Y0050550D03*
X0174850Y0050600D03*
X0174800Y0050650D03*
X0174750Y0050700D03*
X0174700Y0050750D03*
X0174650Y0050800D03*
X0174600Y0050850D03*
X0174550Y0050900D03*
X0174500Y0050950D03*
X0174450Y0051000D03*
X0174400Y0051050D03*
X0174350Y0051100D03*
X0174300Y0051150D03*
X0174250Y0051200D03*
X0174200Y0051250D03*
X0174150Y0051300D03*
X0174100Y0051350D03*
X0174050Y0051400D03*
X0174000Y0051450D03*
X0173950Y0051500D03*
X0173900Y0051550D03*
X0173850Y0051600D03*
X0173800Y0051650D03*
X0173750Y0051700D03*
X0173700Y0051750D03*
X0173650Y0051800D03*
X0173600Y0051850D03*
X0173550Y0051900D03*
X0173500Y0051950D03*
X0173450Y0052000D03*
X0173400Y0052050D03*
X0173350Y0052100D03*
X0173300Y0052150D03*
X0173250Y0052200D03*
X0173200Y0052250D03*
X0173150Y0052300D03*
X0171400Y0049850D03*
X0171350Y0049800D03*
X0171300Y0049750D03*
X0171250Y0049700D03*
X0171200Y0049650D03*
X0171150Y0049600D03*
X0171100Y0049550D03*
X0171050Y0049500D03*
X0171000Y0049450D03*
X0170950Y0049400D03*
X0170900Y0049350D03*
X0170850Y0049300D03*
X0170800Y0049250D03*
X0170750Y0049200D03*
X0170700Y0049150D03*
X0170650Y0049100D03*
X0170600Y0049050D03*
X0170550Y0049000D03*
X0170500Y0048950D03*
X0170450Y0048900D03*
X0170400Y0048850D03*
X0170350Y0048800D03*
X0170300Y0048750D03*
X0170250Y0048700D03*
X0170200Y0048650D03*
X0170150Y0048600D03*
X0170100Y0048550D03*
X0170050Y0048500D03*
X0170000Y0048450D03*
X0169950Y0048400D03*
X0169900Y0048350D03*
X0169850Y0048300D03*
X0169800Y0048250D03*
X0169750Y0048200D03*
X0169700Y0048150D03*
X0169650Y0048100D03*
X0169600Y0048050D03*
X0169550Y0048000D03*
X0169500Y0047950D03*
X0169450Y0047900D03*
X0169400Y0047850D03*
X0169350Y0047800D03*
X0169300Y0047750D03*
X0169250Y0047700D03*
X0169200Y0047650D03*
X0169150Y0047600D03*
X0169100Y0047550D03*
X0169050Y0047500D03*
X0169000Y0047450D03*
X0168950Y0047400D03*
X0168900Y0047350D03*
X0168850Y0047300D03*
X0168800Y0047250D03*
X0168750Y0047200D03*
X0168700Y0047150D03*
X0168650Y0047100D03*
X0168600Y0047050D03*
X0168550Y0047000D03*
X0168500Y0046950D03*
X0168450Y0046900D03*
X0168400Y0046850D03*
X0168350Y0046800D03*
X0168300Y0046750D03*
X0168250Y0046700D03*
X0168200Y0046650D03*
X0168150Y0046600D03*
X0168100Y0046550D03*
X0168050Y0046500D03*
X0168000Y0046450D03*
X0167950Y0046400D03*
X0167900Y0046350D03*
X0167850Y0046300D03*
X0167800Y0046250D03*
X0167750Y0046200D03*
X0167200Y0045250D03*
X0167250Y0045200D03*
X0167300Y0045150D03*
X0167350Y0045100D03*
X0167400Y0045050D03*
X0167450Y0045000D03*
X0167500Y0044950D03*
X0168300Y0044150D03*
X0168350Y0044100D03*
X0168400Y0044050D03*
X0168450Y0044000D03*
X0168500Y0043950D03*
X0168550Y0043900D03*
X0168600Y0043850D03*
X0168650Y0043800D03*
X0168700Y0043750D03*
X0168750Y0043700D03*
X0170400Y0042050D03*
X0170450Y0042000D03*
X0170500Y0041950D03*
X0170550Y0041900D03*
X0170600Y0041850D03*
X0170650Y0041800D03*
X0170700Y0041750D03*
X0172250Y0042550D03*
X0172250Y0043300D03*
X0173850Y0044050D03*
X0173900Y0044000D03*
X0173950Y0043950D03*
X0174000Y0043900D03*
X0174050Y0043850D03*
X0174000Y0041950D03*
X0173950Y0041900D03*
X0172250Y0040200D03*
X0173150Y0038600D03*
X0173100Y0038550D03*
X0173050Y0038500D03*
X0173100Y0036000D03*
X0173050Y0035950D03*
X0159350Y0040500D03*
X0157800Y0041600D03*
X0155200Y0040650D03*
X0155200Y0040600D03*
X0157750Y0044100D03*
X0157800Y0044150D03*
X0171350Y0047300D03*
X0171400Y0047350D03*
D54*
X0160400Y0043950D03*
X0172350Y0037200D03*
X0229600Y0044500D03*
D55*
X0207100Y0044650D03*
X0207050Y0044550D03*
X0206950Y0044300D03*
X0172450Y0037400D03*
X0172250Y0039700D03*
X0160400Y0044100D03*
X0172250Y0046150D03*
X0172050Y0048500D03*
X0172050Y0051000D03*
D56*
X0167000Y0045550D03*
X0172250Y0043100D03*
X0172250Y0043050D03*
X0172250Y0043000D03*
X0172250Y0042950D03*
X0172250Y0042900D03*
X0172250Y0042850D03*
X0172250Y0042800D03*
X0171000Y0041550D03*
X0172250Y0040300D03*
X0176200Y0041600D03*
X0173500Y0044300D03*
X0159350Y0045200D03*
X0152300Y0044900D03*
X0152300Y0044850D03*
X0155100Y0040950D03*
X0158000Y0041450D03*
X0198150Y0040550D03*
X0218250Y0040550D03*
D57*
X0228700Y0045100D03*
X0176200Y0041550D03*
X0172250Y0040350D03*
X0167000Y0045600D03*
X0155050Y0041150D03*
X0155050Y0041100D03*
X0152350Y0044700D03*
X0152350Y0044750D03*
D58*
X0152400Y0044550D03*
X0155000Y0041300D03*
X0155000Y0041250D03*
X0167000Y0045650D03*
X0171150Y0041500D03*
X0172250Y0040400D03*
X0173350Y0041500D03*
X0176200Y0041500D03*
D59*
X0176200Y0041450D03*
X0172250Y0040450D03*
X0167000Y0045700D03*
X0159400Y0040550D03*
X0154950Y0041450D03*
X0152450Y0044350D03*
X0152450Y0044400D03*
D60*
X0152500Y0044250D03*
X0152500Y0044200D03*
X0154900Y0041650D03*
X0154900Y0041600D03*
X0159350Y0045150D03*
X0167000Y0045750D03*
X0169800Y0042950D03*
X0172250Y0040500D03*
X0176200Y0041400D03*
X0198150Y0045100D03*
X0218250Y0045100D03*
X0228700Y0045000D03*
D61*
X0176200Y0041350D03*
X0174700Y0042850D03*
X0174700Y0043000D03*
X0172250Y0040550D03*
X0169750Y0042850D03*
X0169750Y0043050D03*
X0167000Y0045800D03*
X0154850Y0041800D03*
X0154850Y0041750D03*
X0152550Y0044050D03*
D62*
X0152600Y0043900D03*
X0154800Y0041950D03*
X0154800Y0041900D03*
X0167000Y0045850D03*
X0169700Y0042750D03*
X0172250Y0040600D03*
X0174750Y0042750D03*
X0174750Y0043100D03*
X0176200Y0041300D03*
D63*
X0176200Y0041250D03*
X0174800Y0042650D03*
X0174800Y0043200D03*
X0172250Y0040650D03*
X0169700Y0042700D03*
X0169700Y0043200D03*
X0167000Y0045900D03*
X0159350Y0045100D03*
D64*
X0159450Y0040700D03*
X0167000Y0046150D03*
X0169550Y0042300D03*
X0172250Y0040900D03*
X0174900Y0042300D03*
X0174900Y0043550D03*
X0176200Y0041000D03*
D65*
X0176200Y0041200D03*
X0174800Y0042600D03*
X0172250Y0040700D03*
X0169650Y0042600D03*
X0169650Y0043300D03*
X0167000Y0045950D03*
D66*
X0172250Y0041000D03*
X0159450Y0040750D03*
D67*
X0159350Y0045050D03*
X0167000Y0046000D03*
X0174850Y0043350D03*
X0174850Y0042500D03*
X0176200Y0041150D03*
X0172250Y0040750D03*
D68*
X0172225Y0044750D03*
X0159475Y0040800D03*
X0207325Y0041900D03*
X0207325Y0041950D03*
D69*
X0198150Y0044950D03*
X0218250Y0044950D03*
X0176200Y0041100D03*
X0172250Y0040800D03*
X0169600Y0042450D03*
X0169600Y0043450D03*
X0167000Y0046050D03*
D70*
X0167000Y0046100D03*
X0169600Y0043500D03*
X0172250Y0040850D03*
X0174900Y0042350D03*
X0174900Y0043500D03*
X0176200Y0041050D03*
X0159350Y0045000D03*
X0198150Y0040800D03*
X0218250Y0040800D03*
D71*
X0172250Y0041200D03*
X0159500Y0040850D03*
D72*
X0159475Y0040900D03*
X0172225Y0044600D03*
D73*
X0172250Y0041300D03*
X0159450Y0040950D03*
X0159050Y0044400D03*
X0159100Y0044450D03*
X0159150Y0044500D03*
X0159200Y0044550D03*
X0159250Y0044600D03*
X0159300Y0044650D03*
X0159350Y0044700D03*
X0211300Y0044800D03*
X0211300Y0044850D03*
X0211300Y0044900D03*
X0211300Y0044950D03*
X0211300Y0045000D03*
X0211300Y0045050D03*
X0211300Y0045100D03*
X0211300Y0045150D03*
D74*
X0172250Y0040950D03*
X0169550Y0042250D03*
X0169550Y0043650D03*
X0159350Y0044950D03*
D75*
X0159425Y0041000D03*
X0172225Y0044550D03*
D76*
X0172225Y0044500D03*
X0159375Y0041050D03*
D77*
X0159350Y0044900D03*
X0172250Y0041050D03*
D78*
X0172250Y0041400D03*
X0159350Y0041100D03*
D79*
X0159350Y0044850D03*
X0172250Y0041100D03*
X0207300Y0042000D03*
D80*
X0172225Y0044450D03*
X0159325Y0041150D03*
D81*
X0172250Y0041150D03*
D82*
X0172250Y0041450D03*
X0159300Y0041250D03*
X0159300Y0041200D03*
D83*
X0159350Y0044750D03*
X0172250Y0041250D03*
D84*
X0172225Y0044400D03*
X0159275Y0041300D03*
D85*
X0159250Y0041350D03*
D86*
X0172250Y0041350D03*
X0141300Y0044300D03*
X0141300Y0044350D03*
X0141300Y0044400D03*
X0141300Y0044450D03*
X0141300Y0044500D03*
X0141300Y0044550D03*
X0141300Y0044600D03*
X0141300Y0044650D03*
X0141300Y0044700D03*
X0141300Y0044750D03*
X0141300Y0044800D03*
X0141300Y0044850D03*
X0141300Y0044900D03*
X0141300Y0044950D03*
X0141300Y0045000D03*
X0141300Y0045050D03*
X0141300Y0045100D03*
X0141300Y0045150D03*
D87*
X0172125Y0048650D03*
X0227475Y0041350D03*
D88*
X0207325Y0041800D03*
X0207325Y0041850D03*
X0172225Y0044700D03*
X0159375Y0044800D03*
D89*
X0172225Y0044800D03*
X0207325Y0042100D03*
X0207325Y0042050D03*
D90*
X0145975Y0042600D03*
X0145975Y0042650D03*
X0145975Y0042700D03*
X0145975Y0042750D03*
X0145975Y0042800D03*
X0145975Y0042850D03*
X0145975Y0042900D03*
X0145975Y0042950D03*
X0145975Y0043000D03*
X0145975Y0043050D03*
X0145975Y0043100D03*
X0145975Y0043150D03*
X0145975Y0043200D03*
X0145975Y0043250D03*
X0145975Y0043300D03*
X0145975Y0043350D03*
X0145975Y0043400D03*
D91*
X0160400Y0044000D03*
X0172250Y0046200D03*
X0172100Y0051150D03*
D92*
X0172225Y0044650D03*
D93*
X0165465Y0072000D02*
X0162396Y0072000D01*
X0160861Y0072000D02*
X0159327Y0073535D01*
X0160094Y0073535D02*
X0157792Y0073535D01*
X0157792Y0072000D02*
X0157792Y0076604D01*
X0160094Y0076604D01*
X0160861Y0075837D01*
X0160861Y0074302D01*
X0160094Y0073535D01*
X0162396Y0075069D02*
X0163931Y0076604D01*
X0163931Y0072000D01*
X0182792Y0072000D02*
X0182792Y0076604D01*
X0185094Y0076604D01*
X0185861Y0075837D01*
X0185861Y0074302D01*
X0185094Y0073535D01*
X0182792Y0073535D01*
X0184327Y0073535D02*
X0185861Y0072000D01*
X0187396Y0072000D02*
X0190465Y0075069D01*
X0190465Y0075837D01*
X0189698Y0076604D01*
X0188163Y0076604D01*
X0187396Y0075837D01*
X0187396Y0072000D02*
X0190465Y0072000D01*
X0191208Y0097000D02*
X0193510Y0097000D01*
X0194277Y0097767D01*
X0194277Y0100837D01*
X0193510Y0101604D01*
X0191208Y0101604D01*
X0191208Y0097000D01*
X0189673Y0097000D02*
X0186604Y0097000D01*
X0186604Y0101604D01*
X0189673Y0101604D01*
X0188139Y0099302D02*
X0186604Y0099302D01*
X0185069Y0097000D02*
X0182000Y0097000D01*
X0182000Y0101604D01*
X0173881Y0097000D02*
X0170812Y0097000D01*
X0172346Y0097000D02*
X0172346Y0101604D01*
X0170812Y0100069D01*
X0169277Y0100837D02*
X0169277Y0097767D01*
X0168510Y0097000D01*
X0166208Y0097000D01*
X0166208Y0101604D01*
X0168510Y0101604D01*
X0169277Y0100837D01*
X0164673Y0101604D02*
X0161604Y0101604D01*
X0161604Y0097000D01*
X0164673Y0097000D01*
X0160069Y0097000D02*
X0157000Y0097000D01*
X0157000Y0101604D01*
X0161604Y0099302D02*
X0163139Y0099302D01*
X0195812Y0100837D02*
X0196579Y0101604D01*
X0198114Y0101604D01*
X0198881Y0100837D01*
X0198881Y0100069D01*
X0195812Y0097000D01*
X0198881Y0097000D01*
D94*
X0189015Y0094507D03*
X0189015Y0089093D03*
X0164015Y0089093D03*
X0164015Y0094507D03*
D95*
X0162489Y0091800D03*
X0187489Y0091800D03*
M02*
